<svg width="24" height="24" viewBox="0 0 24 24" fill="none" xmlns="http://www.w3.org/2000/svg">
<g>
<path d="M12 22.0001C10.6167 22.0001 9.31667 21.7376 8.1 21.2126C6.88333 20.6876 5.825 19.9751 4.925 19.0751C4.025 18.1751 3.3125 17.1168 2.7875 15.9001C2.2625 14.6834 2 13.3834 2 12.0001C2 10.7501 2.24167 9.5251 2.725 8.3251C3.20833 7.1251 3.88333 6.05426 4.75 5.1126C5.61667 4.17093 6.65833 3.4126 7.875 2.8376C9.09167 2.2626 10.425 1.9751 11.875 1.9751C12.225 1.9751 12.5833 1.99176 12.95 2.0251C13.3167 2.05843 13.6917 2.11676 14.075 2.2001C13.925 2.9501 13.975 3.65843 14.225 4.3251C14.475 4.99176 14.85 5.54593 15.35 5.9876C15.85 6.42926 16.4458 6.73343 17.1375 6.9001C17.8292 7.06676 18.5417 7.0251 19.275 6.7751C18.8417 7.75843 18.9042 8.7001 19.4625 9.6001C20.0208 10.5001 20.85 10.9668 21.95 11.0001C21.9667 11.1834 21.9792 11.3543 21.9875 11.5126C21.9958 11.6709 22 11.8418 22 12.0251C22 13.3918 21.7375 14.6793 21.2125 15.8876C20.6875 17.0959 19.975 18.1543 19.075 19.0626C18.175 19.9709 17.1167 20.6876 15.9 21.2126C14.6833 21.7376 13.3833 22.0001 12 22.0001ZM10.5 10.0001C10.9167 10.0001 11.2708 9.85426 11.5625 9.5626C11.8542 9.27093 12 8.91676 12 8.5001C12 8.08343 11.8542 7.72926 11.5625 7.4376C11.2708 7.14593 10.9167 7.0001 10.5 7.0001C10.0833 7.0001 9.72917 7.14593 9.4375 7.4376C9.14583 7.72926 9 8.08343 9 8.5001C9 8.91676 9.14583 9.27093 9.4375 9.5626C9.72917 9.85426 10.0833 10.0001 10.5 10.0001ZM8.5 15.0001C8.91667 15.0001 9.27083 14.8543 9.5625 14.5626C9.85417 14.2709 10 13.9168 10 13.5001C10 13.0834 9.85417 12.7293 9.5625 12.4376C9.27083 12.1459 8.91667 12.0001 8.5 12.0001C8.08333 12.0001 7.72917 12.1459 7.4375 12.4376C7.14583 12.7293 7 13.0834 7 13.5001C7 13.9168 7.14583 14.2709 7.4375 14.5626C7.72917 14.8543 8.08333 15.0001 8.5 15.0001ZM15 16.0001C15.2833 16.0001 15.5208 15.9043 15.7125 15.7126C15.9042 15.5209 16 15.2834 16 15.0001C16 14.7168 15.9042 14.4793 15.7125 14.2876C15.5208 14.0959 15.2833 14.0001 15 14.0001C14.7167 14.0001 14.4792 14.0959 14.2875 14.2876C14.0958 14.4793 14 14.7168 14 15.0001C14 15.2834 14.0958 15.5209 14.2875 15.7126C14.4792 15.9043 14.7167 16.0001 15 16.0001ZM12 20.0001C14.0333 20.0001 15.8375 19.3001 17.4125 17.9001C18.9875 16.5001 19.85 14.7168 20 12.5501C19.1667 12.1834 18.5125 11.6834 18.0375 11.0501C17.5625 10.4168 17.2417 9.70843 17.075 8.9251C15.7917 8.74176 14.6917 8.19176 13.775 7.2751C12.8583 6.35843 12.2917 5.25843 12.075 3.9751C10.7417 3.94176 9.57083 4.18343 8.5625 4.7001C7.55417 5.21676 6.7125 5.87926 6.0375 6.6876C5.3625 7.49593 4.85417 8.3751 4.5125 9.3251C4.17083 10.2751 4 11.1668 4 12.0001C4 14.2168 4.77917 16.1043 6.3375 17.6626C7.89583 19.2209 9.78333 20.0001 12 20.0001Z" fill="#808080"/>
</g>
</svg>
