<svg width="24" height="24" viewBox="0 0 24 24" fill="none" xmlns="http://www.w3.org/2000/svg">
<g>
<path d="M9 21.95V19.45C7.23333 18.8333 5.79167 17.7541 4.675 16.2125C3.55833 14.6708 3 12.9166 3 10.95C3 9.69995 3.2375 8.52912 3.7125 7.43745C4.1875 6.34578 4.82917 5.39578 5.6375 4.58745C6.44583 3.77912 7.39583 3.13745 8.4875 2.66245C9.57917 2.18745 10.7417 1.94995 11.975 1.94995C13.2083 1.94995 14.375 2.18745 15.475 2.66245C16.575 3.13745 17.5333 3.77912 18.35 4.58745C19.1667 5.39578 19.8125 6.34578 20.2875 7.43745C20.7625 8.52912 21 9.69995 21 10.95C21 12.9166 20.4375 14.6625 19.3125 16.1875C18.1875 17.7125 16.75 18.7916 15 19.425V21.95H13V19.9C12.8333 19.9333 12.6667 19.95 12.5 19.95H11.975C11.8083 19.95 11.6458 19.9458 11.4875 19.9375C11.3292 19.9291 11.1667 19.9166 11 19.9V21.95H9ZM12 18C13.9333 18 15.5833 17.3166 16.95 15.95C18.3167 14.5833 19 12.9333 19 11C19 9.06662 18.3167 7.41662 16.95 6.04995C15.5833 4.68328 13.9333 3.99995 12 3.99995C10.0667 3.99995 8.41667 4.68328 7.05 6.04995C5.68333 7.41662 5 9.06662 5 11C5 12.9333 5.68333 14.5833 7.05 15.95C8.41667 17.3166 10.0667 18 12 18ZM8 8.99995H16V6.99995H8V8.99995ZM11.25 17L14.25 14L13 12.75L14.25 11.5L12.75 9.99995L9.75 13L11 14.25L9.75 15.5L11.25 17Z" fill="#808080"/>
</g>
</svg>
