<svg width="24" height="24" viewBox="0 0 24 24" fill="none" xmlns="http://www.w3.org/2000/svg">
<g>
<path d="M6 15V16C6 16.2833 5.90417 16.5208 5.7125 16.7125C5.52083 16.9042 5.28333 17 5 17H4C3.71667 17 3.47917 16.9042 3.2875 16.7125C3.09583 16.5208 3 16.2833 3 16V8L5.1 2C5.2 1.7 5.37917 1.45833 5.6375 1.275C5.89583 1.09167 6.18333 1 6.5 1H17.5C17.8167 1 18.1042 1.09167 18.3625 1.275C18.6208 1.45833 18.8 1.7 18.9 2L21 8V16C21 16.2833 20.9042 16.5208 20.7125 16.7125C20.5208 16.9042 20.2833 17 20 17H19C18.7167 17 18.4792 16.9042 18.2875 16.7125C18.0958 16.5208 18 16.2833 18 16V15H6ZM5.8 6H18.2L17.15 3H6.85L5.8 6ZM7.5 12C7.91667 12 8.27083 11.8542 8.5625 11.5625C8.85417 11.2708 9 10.9167 9 10.5C9 10.0833 8.85417 9.72917 8.5625 9.4375C8.27083 9.14583 7.91667 9 7.5 9C7.08333 9 6.72917 9.14583 6.4375 9.4375C6.14583 9.72917 6 10.0833 6 10.5C6 10.9167 6.14583 11.2708 6.4375 11.5625C6.72917 11.8542 7.08333 12 7.5 12ZM16.5 12C16.9167 12 17.2708 11.8542 17.5625 11.5625C17.8542 11.2708 18 10.9167 18 10.5C18 10.0833 17.8542 9.72917 17.5625 9.4375C17.2708 9.14583 16.9167 9 16.5 9C16.0833 9 15.7292 9.14583 15.4375 9.4375C15.1458 9.72917 15 10.0833 15 10.5C15 10.9167 15.1458 11.2708 15.4375 11.5625C15.7292 11.8542 16.0833 12 16.5 12ZM13 23L7 20H11V18L17 21H13V23ZM5 13H19V8H5V13Z" fill="#808080"/>
</g>
</svg>
