<svg width="24" height="24" viewBox="0 0 24 24" fill="none" xmlns="http://www.w3.org/2000/svg">
<g>
<path d="M7 23C6.45 23 5.97917 22.8042 5.5875 22.4125C5.19583 22.0208 5 21.55 5 21V3C5 2.45 5.19583 1.97917 5.5875 1.5875C5.97917 1.19583 6.45 1 7 1H17C17.55 1 18.0208 1.19583 18.4125 1.5875C18.8042 1.97917 19 2.45 19 3V6.1C19.3 6.21667 19.5417 6.4 19.725 6.65C19.9083 6.9 20 7.18333 20 7.5V9.5C20 9.81667 19.9083 10.1 19.725 10.35C19.5417 10.6 19.3 10.7833 19 10.9V21C19 21.55 18.8042 22.0208 18.4125 22.4125C18.0208 22.8042 17.55 23 17 23H7ZM7 21H17V3H7V21ZM11 16H13L13.15 14.75C13.2833 14.7 13.4 14.6458 13.5 14.5875C13.6 14.5292 13.7 14.45 13.8 14.35L14.95 14.85L15.95 13.1L14.95 12.35C14.9833 12.2167 15 12.0917 15 11.975C15 11.8583 14.9833 11.7333 14.95 11.6L15.95 10.85L14.9 9.15L13.8 9.6C13.7 9.51667 13.6 9.45 13.5 9.4C13.4 9.35 13.2833 9.3 13.15 9.25L13 8H11L10.85 9.25C10.7167 9.3 10.6 9.35 10.5 9.4C10.4 9.45 10.3 9.51667 10.2 9.6L9.1 9.15L8.05 10.85L9.05 11.6C9.01667 11.7333 9 11.8583 9 11.975C9 12.0917 9.01667 12.2167 9.05 12.35L8.05 13.1L9.05 14.85L10.2 14.35C10.3 14.45 10.4 14.5292 10.5 14.5875C10.6 14.6458 10.7167 14.7 10.85 14.75L11 16ZM12 13.5C11.5667 13.5 11.2083 13.3583 10.925 13.075C10.6417 12.7917 10.5 12.4333 10.5 12C10.5 11.5667 10.6417 11.2083 10.925 10.925C11.2083 10.6417 11.5667 10.5 12 10.5C12.4333 10.5 12.7917 10.6417 13.075 10.925C13.3583 11.2083 13.5 11.5667 13.5 12C13.5 12.4333 13.3583 12.7917 13.075 13.075C12.7917 13.3583 12.4333 13.5 12 13.5Z" fill="#808080"/>
</g>
</svg>
