<svg width="24" height="24" viewBox="0 0 24 24" fill="none" xmlns="http://www.w3.org/2000/svg">
<path d="M6.71688 8.68568H6.68506V12.8015C6.68506 13.0985 6.92904 13.3425 7.22606 13.3425H11.4639C11.4268 10.7701 9.3158 8.68568 6.71688 8.68568ZM6.71688 5.29118H6.68506V7.04147C10.1803 7.05738 13.0232 9.86846 13.0604 13.3425H14.8743C14.8425 8.89784 11.1987 5.29118 6.71688 5.29118ZM17.4467 12.8068V9.08878C16.2162 6.07616 13.7393 3.6947 10.6577 2.58618H7.22606C6.92904 2.58618 6.68506 2.83016 6.68506 3.12718V3.65227C12.0632 3.66818 16.439 8.00148 16.4708 13.3478H16.9057C17.208 13.3425 17.4467 13.1038 17.4467 12.8068ZM16.0306 4.08719C16.5291 4.58576 17.0383 5.21693 17.4467 5.77384V3.12188C17.4469 3.05147 17.4332 2.98172 17.4063 2.91663C17.3795 2.85154 17.3401 2.7924 17.2903 2.74262C17.2405 2.69283 17.1813 2.65338 17.1163 2.62653C17.0512 2.59969 16.9814 2.58597 16.911 2.58618H14.1795C14.816 3.02641 15.4736 3.53028 16.0306 4.08719Z" fill="#808080"/>
<path d="M4.4186 18.1977C4.4657 18.3002 4.51003 18.4054 4.55158 18.5135C4.5923 18.4045 4.63759 18.2973 4.68734 18.1922C4.73443 18.0897 4.7843 17.9872 4.83417 17.8902L6.23048 15.1369C6.25541 15.0898 6.28035 15.0538 6.30805 15.0261C6.33299 15.0012 6.36346 14.9818 6.39671 14.9679C6.42995 14.9541 6.46597 14.9486 6.50752 14.9486H7.61571V20.3943H6.50198V17.2587C6.50198 17.1063 6.51029 16.9429 6.52415 16.7656L5.08074 19.566C5.03641 19.6547 4.97546 19.7184 4.90066 19.7655C4.82586 19.8098 4.73721 19.832 4.64024 19.832H4.46847C4.37151 19.832 4.28562 19.8098 4.20805 19.7655C4.13325 19.7212 4.0723 19.6547 4.02797 19.566L2.57348 16.7629C2.58456 16.8515 2.5901 16.9374 2.59564 17.0232C2.60119 17.1091 2.60396 17.1894 2.60396 17.2615V20.3943H1.49023V14.9486H2.59842C2.63997 14.9486 2.67599 14.9541 2.70923 14.9679C2.74248 14.9818 2.77018 14.9984 2.79789 15.0261C2.82282 15.051 2.85053 15.0898 2.87546 15.1369L4.27731 17.9041C4.32441 17.9983 4.37428 18.0952 4.4186 18.1977ZM13.5916 17.6686C13.5916 17.9041 13.5666 18.1284 13.5195 18.3445C13.4697 18.5606 13.4004 18.7628 13.309 18.9511C13.2176 19.1395 13.1067 19.3167 12.971 19.4774C12.838 19.6408 12.6856 19.7821 12.5166 19.9067L13.8963 21.4136H12.8574C12.7078 21.4136 12.572 21.3942 12.4501 21.3582C12.3282 21.3222 12.2202 21.2502 12.126 21.1394L11.45 20.3804C11.3392 20.4026 11.2284 20.4192 11.1148 20.433C11.0012 20.4441 10.8848 20.4524 10.7657 20.4524C10.3418 20.4524 9.95397 20.3804 9.60489 20.2391C9.25581 20.0979 8.9566 19.9012 8.71003 19.6491C8.46069 19.3998 8.26953 19.1035 8.13378 18.7655C7.99803 18.4276 7.92877 18.0592 7.92877 17.6659C7.92877 17.2725 7.99803 16.9069 8.13378 16.5662C8.26953 16.2283 8.46069 15.9319 8.71003 15.6826C8.95937 15.4333 9.25581 15.2366 9.60489 15.0954C9.95397 14.9541 10.3391 14.8821 10.7657 14.8821C11.1896 14.8821 11.5747 14.9541 11.9238 15.0981C12.2728 15.2422 12.5693 15.4388 12.8158 15.6881C13.0624 15.9374 13.2536 16.231 13.3893 16.5717C13.5251 16.9097 13.5916 17.2753 13.5916 17.6686ZM12.2978 17.6686C12.2978 17.4 12.2618 17.1562 12.1925 16.9401C12.1232 16.7241 12.0235 16.5413 11.8905 16.3917C11.7603 16.2421 11.5996 16.1286 11.4112 16.0482C11.2228 15.9679 11.0067 15.9291 10.7629 15.9291C10.5191 15.9291 10.3003 15.9679 10.1091 16.0482C9.91795 16.1286 9.75726 16.2421 9.62705 16.3917C9.49684 16.5413 9.39711 16.7241 9.32507 16.9401C9.25581 17.1562 9.2198 17.3972 9.2198 17.6686C9.2198 17.9401 9.25581 18.1838 9.32507 18.3999C9.39434 18.616 9.49407 18.7988 9.62705 18.9483C9.75726 19.0979 9.91795 19.2115 10.1091 19.2918C10.3003 19.3694 10.5164 19.4109 10.7629 19.4109C11.004 19.4109 11.2201 19.3721 11.4112 19.2918C11.5996 19.2143 11.7603 19.0979 11.8905 18.9483C12.0207 18.7988 12.1205 18.616 12.1925 18.3999C12.2645 18.1838 12.2978 17.9401 12.2978 17.6686ZM17.6503 14.9458V15.9485H16.1736V20.3943H14.9103V15.9485H13.4337V14.9458H17.6503ZM22.4875 14.9458V15.9485H20.9554V20.3943H19.6921V15.9485H18.2155V14.9458H22.4875Z" fill="#808080"/>
</svg>
