<svg width="24" height="24" viewBox="0 0 24 24" fill="none" xmlns="http://www.w3.org/2000/svg">
<g>
<path d="M22 20C22 20.8333 21.7083 21.5417 21.125 22.125C20.5417 22.7083 19.8333 23 19 23H13C12.1667 23 11.4583 22.7083 10.875 22.125C10.2917 21.5417 10 20.8333 10 20L10 6.5C10 5.66667 10.2917 4.95833 10.875 4.375C11.4583 3.79167 12.1667 3.5 13 3.5H19C19.8333 3.5 20.5417 3.79167 21.125 4.375C21.7083 4.95833 22 5.66667 22 6.5V20ZM20 17V6.5C20 6.21667 19.9042 5.97917 19.7125 5.7875C19.5208 5.59583 19.2833 5.5 19 5.5H13C12.7167 5.5 12.4792 5.59583 12.2875 5.7875C12.0958 5.97917 12 6.21667 12 6.5V17H20ZM18.5 2.5H13.5V2C13.5 1.71667 13.5958 1.47917 13.7875 1.2875C13.9792 1.09583 14.2167 1 14.5 1H17.5C17.7833 1 18.0208 1.09583 18.2125 1.2875C18.4042 1.47917 18.5 1.71667 18.5 2V2.5Z" fill="#808080"/>
<path d="M2.675 19L3.375 14.2H0L4.8 7H5.325L4.625 11.8H8L3.2 19H2.675Z" fill="#808080"/>
</g>
</svg>
