<svg width="24" height="24" viewBox="0 0 24 24" fill="none" xmlns="http://www.w3.org/2000/svg">
<g>
<path fill-rule="evenodd" clip-rule="evenodd" d="M17.5 6C18.3333 6 19.0417 6.29167 19.625 6.875C20.2083 7.45833 20.5 8.16667 20.5 9V15C20.5 15.8333 20.2083 16.5417 19.625 17.125C19.0417 17.7083 18.3333 18 17.5 18H4C3.16667 18 2.45833 17.7083 1.875 17.125C1.29167 16.5417 1 15.8333 1 15V9C1 8.16667 1.29167 7.45833 1.875 6.875C2.45833 6.29167 3.16667 6 4 6H17.5ZM4 8C3.71667 8 3.47878 8.09544 3.28711 8.28711C3.09544 8.47878 3 8.71667 3 9V15C3 15.2833 3.09544 15.5212 3.28711 15.7129C3.47878 15.9046 3.71667 16 4 16H17.5C17.7833 16 18.0212 15.9046 18.2129 15.7129C18.4046 15.5212 18.5 15.2833 18.5 15V9C18.5 8.71667 18.4046 8.47878 18.2129 8.28711C18.0212 8.09544 17.7833 8 17.5 8H4Z" fill="#808080"/>
<path d="M22 9.5C22.2833 9.5 22.5212 9.59544 22.7129 9.78711C22.9046 9.97878 23 10.2167 23 10.5V13.5C23 13.7833 22.9046 14.0212 22.7129 14.2129C22.5212 14.4046 22.2833 14.5 22 14.5H21.5V9.5H22Z" fill="#808080"/>
<path d="M14 11V13H8V11H14Z" fill="#808080"/>
</g>
</svg>
