<svg width="24" height="24" viewBox="0 0 24 24" fill="none" xmlns="http://www.w3.org/2000/svg">
<mask id="mask0_8613_39663" style="mask-type:alpha" maskUnits="userSpaceOnUse" x="0" y="0" width="24" height="24">
<rect width="24" height="24" fill="#D9D9D9"/>
</mask>
<g mask="url(#mask0_8613_39663)">
<path d="M2.7251 10.725L0.600098 8.6C2.13343 7.11667 3.88343 5.97917 5.8501 5.1875C7.81676 4.39583 9.86676 4 12.0001 4C14.1334 4 16.1834 4.39583 18.1501 5.1875C20.1168 5.97917 21.8668 7.11667 23.4001 8.6L21.2751 10.725C20.0251 9.525 18.6001 8.60417 17.0001 7.9625C15.4001 7.32083 13.7334 7 12.0001 7C10.2668 7 8.6001 7.32083 7.0001 7.9625C5.4001 8.60417 3.9751 9.525 2.7251 10.725ZM6.9501 14.95L4.8501 12.85C5.83343 11.9333 6.9376 11.2292 8.1626 10.7375C9.3876 10.2458 10.6668 10 12.0001 10C13.3334 10 14.6126 10.2458 15.8376 10.7375C17.0626 11.2292 18.1668 11.9333 19.1501 12.85L17.0501 14.95C16.3501 14.3167 15.5709 13.8333 14.7126 13.5C13.8543 13.1667 12.9501 13 12.0001 13C11.0501 13 10.1459 13.1667 9.2876 13.5C8.42926 13.8333 7.6501 14.3167 6.9501 14.95ZM12.0001 20C11.4501 20 10.9793 19.8042 10.5876 19.4125C10.1959 19.0208 10.0001 18.55 10.0001 18C10.0001 17.45 10.1959 16.9792 10.5876 16.5875C10.9793 16.1958 11.4501 16 12.0001 16C12.5501 16 13.0209 16.1958 13.4126 16.5875C13.8043 16.9792 14.0001 17.45 14.0001 18C14.0001 18.55 13.8043 19.0208 13.4126 19.4125C13.0209 19.8042 12.5501 20 12.0001 20Z" fill="#808080"/>
</g>
</svg>
