<svg width="24" height="24" viewBox="0 0 24 24" fill="none" xmlns="http://www.w3.org/2000/svg">
<g clip-path="url(#clip0_8613_39597)">
<mask id="mask0_8613_39597" style="mask-type:alpha" maskUnits="userSpaceOnUse" x="0" y="0" width="24" height="24">
<rect width="24" height="24" fill="#D9D9D9"/>
</mask>
<g mask="url(#mask0_8613_39597)">
<path d="M19.2645 15.9053C17.9962 18.0107 15.6408 19.5733 12.6594 19.5733C8.22846 19.5733 5 16.3494 5 12.188C5 8.27324 8.22846 5 12.6594 5C15.6737 5 18.0456 6.41457 19.314 8.51997L16.4314 10.1977C15.7725 8.91473 14.4548 8.05941 12.6594 8.05941C10.1886 8.05941 8.45907 9.85229 8.45907 12.188C8.45907 14.425 10.1886 16.3988 12.6594 16.3988C14.4054 16.3988 15.6902 15.5106 16.382 14.2605L19.2645 15.9053Z" fill="#808080"/>
</g>
</g>
<defs>
<clipPath id="clip0_8613_39597">
<rect width="24" height="24" fill="white"/>
</clipPath>
</defs>
</svg>
