<svg width="24" height="24" viewBox="0 0 24 24" fill="none" xmlns="http://www.w3.org/2000/svg">
<mask id="mask0_8613_39650" style="mask-type:alpha" maskUnits="userSpaceOnUse" x="0" y="0" width="24" height="24">
<rect width="24" height="24" fill="#D9D9D9"/>
</mask>
<g mask="url(#mask0_8613_39650)">
<path d="M3.00005 22V20H11V22H3.00005ZM17 21C16.45 21 15.9792 20.8042 15.5875 20.4125C15.1959 20.0208 15 19.55 15 19H12C11.7167 19 11.4792 18.9083 11.2875 18.725C11.0959 18.5417 11 18.3083 11 18.025C10.9667 16.525 11.4334 15.2208 12.4 14.1125C13.3667 13.0042 14.5667 12.3333 16 12.1V2H18V12.1C19.45 12.3333 20.6542 13.0042 21.6125 14.1125C22.5709 15.2208 23.0334 16.525 23 18.025C23 18.3083 22.9042 18.5417 22.7125 18.725C22.5209 18.9083 22.2834 19 22 19H19C19 19.55 18.8084 20.0208 18.425 20.4125C18.0417 20.8042 17.5667 21 17 21ZM6.00005 19V11H2.00005C1.66671 11 1.40005 10.8708 1.20005 10.6125C1.00005 10.3542 0.941713 10.0667 1.02505 9.75L2.90005 2.75C2.96671 2.53333 3.08755 2.35417 3.26255 2.2125C3.43755 2.07083 3.64171 2 3.87505 2H10.125C10.3584 2 10.5625 2.07083 10.7375 2.2125C10.9125 2.35417 11.0334 2.53333 11.1 2.75L12.975 9.75C13.0584 10.0667 13 10.3542 12.8 10.6125C12.6 10.8708 12.3334 11 12 11H8.00005V19H6.00005ZM13.1 17H20.9C20.7 16.1 20.2334 15.375 19.5 14.825C18.7667 14.275 17.9334 14 17 14C16.0834 14 15.2584 14.275 14.525 14.825C13.7917 15.375 13.3167 16.1 13.1 17ZM3.30005 9H10.7L9.37505 4H4.65005L3.30005 9Z" fill="#808080"/>
</g>
</svg>
