<svg width="24" height="24" viewBox="0 0 24 24" fill="none" xmlns="http://www.w3.org/2000/svg">
<mask id="mask0_8613_39677" style="mask-type:alpha" maskUnits="userSpaceOnUse" x="0" y="0" width="24" height="24">
<rect width="24" height="24" fill="#D9D9D9"/>
</mask>
<g mask="url(#mask0_8613_39677)">
<path d="M7.4875 20.3C6.39583 19.8333 5.44167 19.1917 4.625 18.375C3.80833 17.5583 3.16667 16.6042 2.7 15.5125C2.23333 14.4208 2 13.25 2 12C2 10.75 2.23333 9.57917 2.7 8.4875C3.16667 7.39583 3.80833 6.44167 4.625 5.625C5.44167 4.80833 6.39583 4.16667 7.4875 3.7C8.57917 3.23333 9.75 3 11 3C11.35 3 11.6875 3.02083 12.0125 3.0625C12.3375 3.10417 12.6667 3.16667 13 3.25V5.3C12.6667 5.2 12.3375 5.125 12.0125 5.075C11.6875 5.025 11.35 5 11 5C9.03333 5 7.375 5.675 6.025 7.025C4.675 8.375 4 10.0333 4 12C4 13.9667 4.675 15.625 6.025 16.975C7.375 18.325 9.03333 19 11 19C12.9667 19 14.625 18.325 15.975 16.975C17.325 15.625 18 13.9667 18 12C18 11.8167 17.9917 11.65 17.975 11.5C17.9583 11.35 17.9333 11.1833 17.9 11H19.95C19.9833 11.1833 20 11.35 20 11.5V12C20 13.25 19.7667 14.4208 19.3 15.5125C18.8333 16.6042 18.1917 17.5583 17.375 18.375C16.5583 19.1917 15.6042 19.8333 14.5125 20.3C13.4208 20.7667 12.25 21 11 21C9.75 21 8.57917 20.7667 7.4875 20.3ZM13.8 16.2L10 12.4V7H12V11.6L15.2 14.8L13.8 16.2ZM18 9V6H15V4H18V1H20V4H23V6H20V9H18Z" fill="#808080"/>
</g>
</svg>
