<svg width="24" height="24" viewBox="0 0 24 24" fill="none" xmlns="http://www.w3.org/2000/svg">
<mask id="mask0_8613_39664" style="mask-type:alpha" maskUnits="userSpaceOnUse" x="0" y="0" width="24" height="24">
<rect width="24" height="24" fill="#D9D9D9"/>
</mask>
<g mask="url(#mask0_8613_39664)">
<path d="M8.475 17.45C8.84167 17.0833 9.25417 16.7833 9.7125 16.55C10.1708 16.3167 10.6583 16.1583 11.175 16.075C11.0917 16.3917 11.025 16.7083 10.975 17.025C10.925 17.3417 10.9 17.6667 10.9 18C10.9 18.4 10.9292 18.7917 10.9875 19.175C11.0458 19.5583 11.1417 19.925 11.275 20.275L8.475 17.45ZM6.35 15.35L4.25 13.2C5.28333 12.1667 6.46667 11.375 7.8 10.825C9.13333 10.275 10.5333 10 12 10C12.8167 10 13.6167 10.0875 14.4 10.2625C15.1833 10.4375 15.9333 10.6917 16.65 11.025C15.9167 11.1583 15.2375 11.4 14.6125 11.75C13.9875 12.1 13.425 12.5333 12.925 13.05C12.775 13.0333 12.6208 13.0208 12.4625 13.0125C12.3042 13.0042 12.15 13 12 13C10.9333 13 9.9125 13.2042 8.9375 13.6125C7.9625 14.0208 7.1 14.6 6.35 15.35ZM2.1 11.1L0 9C1.58333 7.38333 3.4125 6.14583 5.4875 5.2875C7.5625 4.42917 9.73333 4 12 4C14.2667 4 16.4375 4.42917 18.5125 5.2875C20.5875 6.14583 22.4167 7.38333 24 9L21.9 11.1C20.5833 9.78333 19.0708 8.77083 17.3625 8.0625C15.6542 7.35417 13.8667 7 12 7C10.1333 7 8.34583 7.35417 6.6375 8.0625C4.92917 8.77083 3.41667 9.78333 2.1 11.1ZM19 13L19.3 14.5C19.5 14.5833 19.6875 14.6708 19.8625 14.7625C20.0375 14.8542 20.2167 14.9667 20.4 15.1L21.85 14.65L22.85 16.35L21.7 17.35C21.7333 17.55 21.75 17.7667 21.75 18C21.75 18.2333 21.7333 18.45 21.7 18.65L22.85 19.65L21.85 21.35L20.4 20.9C20.2167 21.0333 20.0375 21.1458 19.8625 21.2375C19.6875 21.3292 19.5 21.4167 19.3 21.5L19 23H17L16.7 21.5C16.5 21.4167 16.3125 21.3292 16.1375 21.2375C15.9625 21.1458 15.7833 21.0333 15.6 20.9L14.15 21.35L13.15 19.65L14.3 18.65C14.2667 18.45 14.25 18.2333 14.25 18C14.25 17.7667 14.2667 17.55 14.3 17.35L13.15 16.35L14.15 14.65L15.6 15.1C15.7833 14.9667 15.9625 14.8542 16.1375 14.7625C16.3125 14.6708 16.5 14.5833 16.7 14.5L17 13H19ZM18 16C17.45 16 16.9792 16.1958 16.5875 16.5875C16.1958 16.9792 16 17.45 16 18C16 18.55 16.1958 19.0208 16.5875 19.4125C16.9792 19.8042 17.45 20 18 20C18.55 20 19.0208 19.8042 19.4125 19.4125C19.8042 19.0208 20 18.55 20 18C20 17.45 19.8042 16.9792 19.4125 16.5875C19.0208 16.1958 18.55 16 18 16Z" fill="#808080"/>
</g>
</svg>
