<svg width="24" height="24" viewBox="0 0 24 24" fill="none" xmlns="http://www.w3.org/2000/svg">
<mask id="mask0_8613_39669" style="mask-type:alpha" maskUnits="userSpaceOnUse" x="0" y="0" width="24" height="24">
<rect width="24" height="24" fill="#D9D9D9"/>
</mask>
<g mask="url(#mask0_8613_39669)">
<path d="M3.9751 19.7999L3.1251 19.4499C2.60843 19.2332 2.2626 18.8582 2.0876 18.3249C1.9126 17.7916 1.94176 17.2666 2.1751 16.7499L3.9751 12.8499V19.7999ZM7.9751 21.9999C7.4251 21.9999 6.95426 21.8041 6.5626 21.4124C6.17093 21.0207 5.9751 20.5499 5.9751 19.9999V13.9999L8.6251 21.3499C8.6751 21.4666 8.7251 21.5791 8.7751 21.6874C8.8251 21.7957 8.89176 21.8999 8.9751 21.9999H7.9751ZM13.1251 21.8999C12.5918 22.0999 12.0751 22.0749 11.5751 21.8249C11.0751 21.5749 10.7251 21.1832 10.5251 20.6499L6.0751 8.44989C5.8751 7.91655 5.89176 7.39572 6.1251 6.88739C6.35843 6.37905 6.74176 6.03322 7.2751 5.84989L14.8251 3.09989C15.3584 2.89989 15.8751 2.92489 16.3751 3.17489C16.8751 3.42489 17.2251 3.81655 17.4251 4.34989L21.8751 16.5499C22.0751 17.0832 22.0584 17.6041 21.8251 18.1124C21.5918 18.6207 21.2084 18.9666 20.6751 19.1499L13.1251 21.8999ZM10.9751 9.99989C11.2584 9.99989 11.4959 9.90405 11.6876 9.71239C11.8793 9.52072 11.9751 9.28322 11.9751 8.99989C11.9751 8.71655 11.8793 8.47905 11.6876 8.28739C11.4959 8.09572 11.2584 7.99989 10.9751 7.99989C10.6918 7.99989 10.4543 8.09572 10.2626 8.28739C10.0709 8.47905 9.9751 8.71655 9.9751 8.99989C9.9751 9.28322 10.0709 9.52072 10.2626 9.71239C10.4543 9.90405 10.6918 9.99989 10.9751 9.99989ZM12.4251 19.9999L19.9751 17.2499L15.5251 4.99989L7.9751 7.74989L12.4251 19.9999Z" fill="#808080"/>
</g>
</svg>
