<svg width="24" height="24" viewBox="0 0 24 24" fill="none" xmlns="http://www.w3.org/2000/svg">
<mask id="mask0_8613_39622" style="mask-type:alpha" maskUnits="userSpaceOnUse" x="0" y="0" width="24" height="24">
<rect width="24" height="24" fill="#D9D9D9"/>
</mask>
<g mask="url(#mask0_8613_39622)">
<path d="M9.3 10.775C9.3 11.0917 9.35417 11.4 9.4625 11.7C9.57083 12 9.725 12.275 9.925 12.525C9.95833 12.325 10.025 12.1292 10.125 11.9375C10.225 11.7458 10.35 11.5833 10.5 11.45L12 10L13.475 11.475C13.625 11.6083 13.75 11.7667 13.85 11.95C13.95 12.1333 14.0167 12.325 14.05 12.525C14.2333 12.275 14.3958 12.0083 14.5375 11.725C14.6792 11.4417 14.75 11.1417 14.75 10.825C14.75 10.5083 14.7 10.2042 14.6 9.9125C14.5 9.62083 14.35 9.35 14.15 9.1C13.9667 9.18333 13.7792 9.25 13.5875 9.3C13.3958 9.35 13.2 9.375 13 9.375C12.5 9.375 12.0417 9.23333 11.625 8.95C11.2083 8.66667 10.8917 8.29167 10.675 7.825C10.475 8.025 10.2917 8.2375 10.125 8.4625C9.95833 8.6875 9.8125 8.925 9.6875 9.175C9.5625 9.425 9.46667 9.68333 9.4 9.95C9.33333 10.2167 9.3 10.4917 9.3 10.775ZM12 12.1L11.575 12.525C11.5083 12.5917 11.4625 12.6583 11.4375 12.725C11.4125 12.7917 11.4 12.8667 11.4 12.95C11.4 13.1167 11.4583 13.25 11.575 13.35C11.6917 13.45 11.8333 13.5 12 13.5C12.1667 13.5 12.3083 13.45 12.425 13.35C12.5417 13.25 12.6 13.1167 12.6 12.95C12.6 12.8667 12.5875 12.7917 12.5625 12.725C12.5375 12.6583 12.4917 12.5917 12.425 12.525L12 12.1ZM12 5V6.9C12 7.18333 12.1 7.42083 12.3 7.6125C12.5 7.80417 12.7417 7.9 13.025 7.9C13.2083 7.9 13.375 7.84583 13.525 7.7375C13.675 7.62917 13.8083 7.5 13.925 7.35L14.1 7.1C14.7833 7.48333 15.3125 8.00417 15.6875 8.6625C16.0625 9.32083 16.25 10.0417 16.25 10.825C16.25 11.9917 15.8333 12.9792 15 13.7875C14.1667 14.5958 13.1667 15 12 15C10.8333 15 9.84167 14.5917 9.025 13.775C8.20833 12.9583 7.8 11.9667 7.8 10.8C7.8 9.51667 8.20833 8.375 9.025 7.375C9.84167 6.375 10.8333 5.58333 12 5ZM6 22C5.45 22 4.97917 21.8042 4.5875 21.4125C4.19583 21.0208 4 20.55 4 20V6C4 4.9 4.39167 3.95833 5.175 3.175C5.95833 2.39167 6.9 2 8 2H16C17.1 2 18.0417 2.39167 18.825 3.175C19.6083 3.95833 20 4.9 20 6V20C20 20.55 19.8042 21.0208 19.4125 21.4125C19.0208 21.8042 18.55 22 18 22H6ZM6 18V20H18V18C17.5 18 17.1 18.1667 16.8 18.5C16.5 18.8333 15.9 19 15 19C14.1 19 13.5125 18.8333 13.2375 18.5C12.9625 18.1667 12.55 18 12 18C11.45 18 11.0375 18.1667 10.7625 18.5C10.4875 18.8333 9.9 19 9 19C8.1 19 7.5125 18.8333 7.2375 18.5C6.9625 18.1667 6.55 18 6 18ZM9 17C9.55 17 9.9625 16.8333 10.2375 16.5C10.5125 16.1667 11.1 16 12 16C12.9 16 13.5 16.1667 13.8 16.5C14.1 16.8333 14.5 17 15 17C15.5 17 15.9 16.8333 16.2 16.5C16.5 16.1667 17.1 16 18 16V6C18 5.45 17.8042 4.97917 17.4125 4.5875C17.0208 4.19583 16.55 4 16 4H8C7.45 4 6.97917 4.19583 6.5875 4.5875C6.19583 4.97917 6 5.45 6 6V16C6.9 16 7.4875 16.1667 7.7625 16.5C8.0375 16.8333 8.45 17 9 17Z" fill="#808080"/>
</g>
</svg>
