<svg width="24" height="24" viewBox="0 0 24 24" fill="none" xmlns="http://www.w3.org/2000/svg">
<path d="M16.021 4.89591C18.3185 5.51491 18.461 6.47841 18.783 7.41991C17.4205 8.83191 8.67499 17.8499 8.67499 17.8499C8.67499 17.8499 14.1255 18.4384 20.4185 17.3484C20.418 17.3629 20.4175 17.3724 20.417 17.3864C21.4145 15.8304 22 13.9849 22 11.9999C22 6.47689 17.523 1.9999 12 1.9999C9.183 1.9999 6.6425 3.16889 4.82499 5.04339C7.7445 4.56189 13.445 4.20141 16.021 4.89591Z" fill="#808080"/>
<path d="M7.3622 18.6425C6.3712 18.469 5.2562 17.577 5.0087 15.9915C5.7272 15.372 15.0057 5.73801 15.0057 5.73801C11.5017 5.52601 7.7212 5.5055 3.8872 6.17C2.7042 7.8125 2.0002 9.82201 2.0002 12C2.0002 17.523 6.4772 22 12.0002 22C15.0867 22 17.8447 20.6 19.6792 18.4025C17.7432 18.665 11.6287 19.3845 7.3622 18.6425Z" fill="#808080"/>
</svg>
