<svg width="294" height="378" viewBox="0 0 294 378" fill="none" xmlns="http://www.w3.org/2000/svg">
<g clip-path="url(#clip0_2684_2672)">
<path d="M229.511 206.166L230.175 231.391H240.801L241.464 255.287H252.139L252.034 266.21L263.418 266.615V270.666H272.21V267.666H279.773C280.464 267.666 281.023 268.226 281.023 268.916C281.023 269.606 280.464 270.166 279.773 270.166H274.71V273.166H260.918V269.027L249.512 268.622L249.614 257.787H239.033L238.369 233.891H227.74L227.076 208.666H218.251V247.166H207.624V261.77H196.332V269.071H185.041V279.666H173.749V287.666H162.457V293.666H148.666V287.666H137.374V274.382H126.746V265.089H115.455V257.123H104.163V231.898H93.5361V226.589H84.0801V244.511H72.7881V254.468H62.1611V257.123H50.8691V263.097H39.5771V267.08H28.2861V271.062H14.4941V267.743H9.27344C8.58308 267.743 8.02344 267.184 8.02344 266.493C8.02367 265.803 8.58323 265.243 9.27344 265.243H16.9941V268.562H25.7861V264.58H37.0771V260.597H48.3691V254.623H59.6611V251.968H70.2881V242.011H81.5801V224.089H96.0361V229.398H106.663V254.623H117.955V262.589H129.246V271.882H139.874V285.166H151.166V291.166H159.957V285.166H171.249V277.166H182.541V266.571H193.832V259.27H205.124V244.666H215.751V206.166H229.511Z" fill="#E056F5"/>
<path d="M49.333 267.053C50.0108 266.674 50.8567 266.876 51.293 267.499L51.374 267.63L52.6533 269.916H55.7109C56.5394 269.916 57.2109 270.588 57.2109 271.416C57.2109 272.244 56.5394 272.916 55.7109 272.916H51.7734C51.2981 272.916 50.8551 272.691 50.5742 272.317L50.4639 272.148L48.7559 269.094C48.3516 268.371 48.6101 267.457 49.333 267.053ZM71.4609 269.916C72.2894 269.916 72.9609 270.588 72.9609 271.416C72.9609 272.244 72.2894 272.916 71.4609 272.916H63.5859C62.7575 272.916 62.0859 272.244 62.0859 271.416C62.0859 270.588 62.7575 269.916 63.5859 269.916H71.4609ZM83.1494 267.577C83.4923 266.898 84.3003 266.577 85.0254 266.855C85.7987 267.153 86.1847 268.02 85.8877 268.793L84.6738 271.954C84.4512 272.534 83.8943 272.916 83.2735 272.916H79.336C78.5075 272.916 77.836 272.244 77.836 271.416C77.836 270.588 78.5075 269.916 79.336 269.916H82.2432L83.0879 267.718L83.1494 267.577ZM42.5 254.835C43.1777 254.456 44.0228 254.66 44.459 255.282L44.541 255.412L47.958 261.521C48.3624 262.243 48.1038 263.158 47.3809 263.562C46.703 263.942 45.8571 263.738 45.4209 263.115L45.3389 262.985L41.9229 256.877C41.5185 256.154 41.777 255.239 42.5 254.835ZM87.9444 255.074C88.2415 254.301 89.1096 253.915 89.8828 254.212C90.6561 254.509 91.0422 255.377 90.7451 256.15L88.3164 262.472C88.0193 263.245 87.1513 263.631 86.3779 263.334C85.6049 263.037 85.2186 262.169 85.5156 261.396L87.9444 255.074ZM37.708 243.195L41.124 249.304C41.5284 250.027 41.2699 250.94 40.5469 251.345C39.8692 251.724 39.0242 251.521 38.5879 250.898L38.5059 250.769L35.0889 244.659L37.708 243.195ZM92.8018 242.432C93.0989 241.658 93.9669 241.272 94.7402 241.569C95.5134 241.867 95.8996 242.735 95.6026 243.508L93.1738 249.829C92.8767 250.602 92.0087 250.988 91.2354 250.691C90.4621 250.394 90.076 249.526 90.3731 248.753L92.8018 242.432ZM35.666 242.618C36.389 242.214 37.3036 242.472 37.708 243.195L35.0889 244.659C34.6849 243.936 34.9433 243.023 35.666 242.618ZM34.291 237.087C34.6952 237.81 34.4368 238.724 33.7139 239.128C32.9909 239.532 32.0772 239.274 31.6729 238.551L34.291 237.087ZM30.874 230.978L34.291 237.087L31.6729 238.551L28.2559 232.442L30.874 230.978ZM97.6592 229.789C97.9563 229.016 98.8234 228.63 99.5967 228.927C100.37 229.224 100.756 230.091 100.459 230.864L98.0313 237.187C97.7341 237.96 96.866 238.346 96.0928 238.049C95.3195 237.752 94.9334 236.884 95.2305 236.11L97.6592 229.789ZM28.833 230.401C29.5559 229.997 30.4695 230.255 30.874 230.978L28.2559 232.442C27.8516 231.719 28.1101 230.806 28.833 230.401ZM22 218.184C22.6777 217.805 23.5228 218.008 23.959 218.631L24.041 218.761L27.458 224.869C27.8624 225.592 27.6039 226.507 26.8809 226.911C26.203 227.29 25.3572 227.087 24.9209 226.464L24.8389 226.334L21.4229 220.226C21.0185 219.503 21.277 218.588 22 218.184ZM100.088 223.468L102.888 224.543C102.591 225.316 101.723 225.702 100.95 225.405C100.177 225.108 99.791 224.241 100.088 223.468ZM102.516 217.146C102.813 216.372 103.681 215.986 104.454 216.283C105.227 216.58 105.613 217.448 105.316 218.222L102.888 224.543L100.088 223.468L102.516 217.146ZM15.166 205.967C15.8437 205.588 16.6897 205.791 17.126 206.413L17.208 206.544L20.624 212.652C21.0284 213.375 20.7699 214.289 20.0469 214.693C19.3692 215.072 18.5242 214.869 18.0879 214.247L18.0059 214.116L14.5889 208.008C14.1848 207.285 14.4433 206.371 15.166 205.967ZM107.373 204.503C107.67 203.73 108.538 203.344 109.312 203.641C110.085 203.938 110.471 204.806 110.174 205.579L107.745 211.9C107.448 212.674 106.58 213.06 105.807 212.763C105.033 212.466 104.647 211.597 104.944 210.824L107.373 204.503ZM10.041 196.804C10.7189 196.425 11.5648 196.628 12.001 197.251L12.083 197.381L13.791 200.435C14.1954 201.158 13.9369 202.072 13.2139 202.477C12.4909 202.881 11.5772 202.622 11.1729 201.899L9.46388 198.846C9.0595 198.123 9.31808 197.208 10.041 196.804ZM112.23 191.86C112.528 191.087 113.396 190.701 114.169 190.998C114.942 191.295 115.328 192.163 115.031 192.937L112.603 199.258C112.305 200.031 111.437 200.417 110.664 200.12C109.891 199.823 109.505 198.955 109.802 198.182L112.23 191.86ZM117.149 179.077C117.492 178.398 118.3 178.077 119.025 178.355C119.799 178.653 120.185 179.52 119.888 180.293L117.459 186.614L117.397 186.755C117.055 187.434 116.247 187.755 115.521 187.477C114.748 187.179 114.362 186.312 114.659 185.539L117.088 179.218L117.149 179.077ZM121.944 166.574C122.241 165.801 123.11 165.415 123.883 165.712C124.656 166.009 125.042 166.877 124.745 167.65L122.316 173.972C122.019 174.745 121.151 175.131 120.378 174.834C119.605 174.537 119.219 173.669 119.516 172.896L121.944 166.574ZM126.802 153.932C127.099 153.158 127.967 152.772 128.74 153.069C129.513 153.367 129.9 154.235 129.603 155.008L127.174 161.329C126.877 162.102 126.009 162.488 125.235 162.191C124.462 161.894 124.076 161.026 124.373 160.253L126.802 153.932ZM131.659 141.289C131.956 140.516 132.823 140.13 133.597 140.427C134.37 140.724 134.756 141.591 134.459 142.364L132.031 148.687C131.734 149.46 130.866 149.846 130.093 149.549C129.319 149.252 128.933 148.384 129.23 147.61L131.659 141.289ZM134.088 134.968L136.888 136.043C136.591 136.816 135.723 137.202 134.95 136.905C134.177 136.608 133.791 135.741 134.088 134.968ZM136.516 128.646C136.813 127.872 137.681 127.486 138.454 127.783C139.227 128.08 139.613 128.948 139.316 129.722L136.888 136.043L134.088 134.968L136.516 128.646ZM141.373 116.003C141.67 115.23 142.538 114.844 143.312 115.141C144.085 115.438 144.471 116.306 144.174 117.079L141.745 123.4C141.448 124.174 140.58 124.56 139.807 124.263C139.033 123.966 138.647 123.097 138.944 122.324L141.373 116.003ZM146.23 103.36C146.528 102.587 147.396 102.201 148.169 102.498C148.942 102.795 149.328 103.663 149.031 104.437L146.603 110.758C146.305 111.531 145.437 111.917 144.664 111.62C143.891 111.323 143.505 110.455 143.802 109.682L146.23 103.36ZM154.898 92.916C155.727 92.916 156.398 93.5876 156.398 94.416C156.398 95.2444 155.727 95.916 154.898 95.916H152.304L151.459 98.1143L151.397 98.2549C151.055 98.9336 150.247 99.2551 149.521 98.9766C148.748 98.6795 148.362 97.8124 148.659 97.0391L149.873 93.8779L149.919 93.7715C150.166 93.2521 150.691 92.916 151.273 92.916H154.898ZM169.398 92.916C170.227 92.916 170.898 93.5876 170.898 94.416C170.898 95.2444 170.227 95.916 169.398 95.916H162.148C161.32 95.916 160.648 95.2444 160.648 94.416C160.648 93.5876 161.32 92.916 162.148 92.916H169.398ZM183.898 92.916C184.727 92.916 185.398 93.5876 185.398 94.416C185.398 95.2444 184.727 95.916 183.898 95.916H176.648C175.82 95.916 175.148 95.2444 175.148 94.416C175.148 93.5876 175.82 92.916 176.648 92.916H183.898ZM198.398 92.916C199.227 92.916 199.898 93.5876 199.898 94.416C199.898 95.2444 199.227 95.916 198.398 95.916H191.148C190.32 95.916 189.648 95.2444 189.648 94.416C189.648 93.5876 190.32 92.916 191.148 92.916H198.398ZM212.898 92.916C213.727 92.916 214.398 93.5876 214.398 94.416C214.398 95.2444 213.727 95.916 212.898 95.916H205.648C204.82 95.916 204.148 95.2444 204.148 94.416C204.148 93.5876 204.82 92.916 205.648 92.916H212.898ZM227.398 92.916C228.227 92.916 228.898 93.5876 228.898 94.416C228.898 95.2444 228.227 95.916 227.398 95.916H220.148C219.32 95.916 218.648 95.2444 218.648 94.416C218.648 93.5876 219.32 92.916 220.148 92.916H227.398ZM241.898 92.916C242.727 92.916 243.398 93.5876 243.398 94.416C243.398 95.2444 242.727 95.916 241.898 95.916H234.648C233.82 95.916 233.148 95.2444 233.148 94.416C233.148 93.5876 233.82 92.916 234.648 92.916H241.898ZM252.773 92.916C253.602 92.916 254.273 93.5876 254.273 94.416C254.273 95.2444 253.602 95.916 252.773 95.916H249.148C248.32 95.916 247.648 95.2444 247.648 94.416C247.648 93.5876 248.32 92.916 249.148 92.916H252.773Z" fill="#B6B6B6"/>
<path opacity="0.63" d="M253.273 92.916C254.102 92.916 254.773 93.5876 254.773 94.416C254.773 95.2444 254.102 95.916 253.273 95.916H184.342L138.924 227.4C138.833 227.664 138.67 227.898 138.453 228.074L83.7198 272.58C83.4523 272.797 83.1181 272.916 82.7735 272.916H51.7735C51.2296 272.916 50.7288 272.621 50.4639 272.146L9.4639 198.646L9.39554 198.509C9.09429 197.811 9.36481 196.985 10.043 196.606C10.7212 196.228 11.5664 196.432 12.002 197.055L12.083 197.186L52.6534 269.916H82.2403L136.229 226.015L181.855 93.9268L181.899 93.8154C182.136 93.2727 182.674 92.916 183.273 92.916H253.273Z" fill="#BDD786"/>
<path d="M174.874 105.916C187.928 105.916 196.422 112.797 202.022 120.469C207.549 128.039 210.44 136.695 212.063 140.098L212.25 140.512C212.698 141.551 213.221 143.095 213.807 144.977C214.484 147.156 215.272 149.882 216.153 152.993C217.918 159.228 220.062 167.029 222.479 175.237C227.331 191.711 233.207 209.542 239.156 219.344L240.305 221.257C246.066 230.958 252.118 242.646 257.117 252.064C259.793 257.106 262.159 261.484 264.031 264.597C264.971 266.159 265.759 267.357 266.381 268.15C266.695 268.551 266.928 268.8 267.085 268.935C267.094 268.943 267.104 268.948 267.112 268.955C267.777 269.109 268.273 269.704 268.273 270.416C268.273 271.244 267.602 271.916 266.773 271.916C266.014 271.916 265.429 271.467 265.127 271.207C264.757 270.888 264.384 270.467 264.019 270C263.281 269.058 262.417 267.733 261.46 266.143C259.54 262.95 257.138 258.503 254.467 253.471C249.441 244.001 243.437 232.406 237.729 222.795L236.592 220.9C230.404 210.706 224.431 192.483 219.602 176.085C217.178 167.857 215.024 160.016 213.267 153.811C212.386 150.702 211.608 148.007 210.942 145.867C210.352 143.969 209.871 142.575 209.505 141.722L209.355 141.389C207.511 137.52 204.91 129.512 199.6 122.237C194.363 115.064 186.674 108.916 174.874 108.916C166.106 108.916 159.8 112.54 154.743 118.364C149.626 124.259 145.812 132.382 142.162 141.311C129.142 173.16 121.797 195.955 115.618 215.723C111.982 227.356 101.573 245.534 92.0498 259.084L91.1318 260.381C88.0082 264.753 84.8572 267.592 82.4609 269.347C81.2635 270.224 80.2557 270.83 79.5352 271.221C79.175 271.416 78.8862 271.558 78.6816 271.653C78.5795 271.701 78.4983 271.737 78.4394 271.763C78.4101 271.775 78.3861 271.785 78.3682 271.793C78.3592 271.797 78.3518 271.8 78.3457 271.803C78.3428 271.804 78.3401 271.805 78.3379 271.806C78.3367 271.806 78.3349 271.807 78.334 271.808C78.3326 271.806 78.3103 271.755 77.7734 270.416C77.7461 270.348 77.72 270.283 77.6953 270.222L78.332 271.809C77.5632 272.117 76.6893 271.743 76.3809 270.975C76.073 270.207 76.4448 269.335 77.2109 269.025C77.2108 269.025 77.2105 269.025 77.2119 269.024C77.2129 269.024 77.2139 269.024 77.2148 269.023C77.2207 269.021 77.2321 269.016 77.2471 269.01C77.2804 268.995 77.336 268.971 77.4121 268.936C77.5642 268.864 77.7993 268.75 78.1045 268.584C78.7149 268.253 79.6076 267.718 80.6885 266.927C82.8494 265.344 85.7675 262.728 88.6904 258.637L89.6035 257.349C99.06 243.892 109.257 226.017 112.755 214.827C118.945 195.021 126.32 172.136 139.385 140.176C143.038 131.24 147.005 122.701 152.478 116.397C158.011 110.025 165.104 105.916 174.874 105.916Z" fill="#FCE487"/>
<path d="M283.734 282.12L283.768 277.346L5.76636 275.416L5.78018 273.416L283.78 275.346L283.813 270.573L293.773 276.416L283.734 282.12Z" fill="#194D25"/>
<path d="M153.773 322.416C157.087 322.416 159.773 319.73 159.773 316.416C159.773 313.102 157.087 310.416 153.773 310.416C150.459 310.416 147.773 313.102 147.773 316.416C147.773 319.73 150.459 322.416 153.773 322.416Z" fill="#FCE487"/>
<path d="M172.093 311.216C173.651 311.216 174.845 311.515 175.677 312.112C176.52 312.699 176.941 313.579 176.941 314.752C176.941 315.392 176.824 315.941 176.589 316.4C176.365 316.848 176.035 317.216 175.597 317.504C175.171 317.781 174.648 317.984 174.029 318.112C173.411 318.24 172.712 318.304 171.933 318.304H170.701V322.416H169.149V311.488C169.587 311.381 170.072 311.312 170.605 311.28C171.149 311.237 171.645 311.216 172.093 311.216ZM172.221 312.576C171.56 312.576 171.053 312.592 170.701 312.624V316.976H171.869C172.403 316.976 172.883 316.944 173.309 316.88C173.736 316.805 174.093 316.688 174.381 316.528C174.68 316.357 174.909 316.128 175.069 315.84C175.229 315.552 175.309 315.184 175.309 314.736C175.309 314.309 175.224 313.957 175.053 313.68C174.893 313.403 174.669 313.184 174.381 313.024C174.104 312.853 173.779 312.736 173.405 312.672C173.032 312.608 172.637 312.576 172.221 312.576ZM187.844 311.328C187.438 312.501 187.049 313.589 186.676 314.592C186.313 315.584 185.956 316.528 185.604 317.424C185.252 318.32 184.9 319.179 184.548 320C184.206 320.811 183.854 321.616 183.492 322.416H182.036C181.673 321.616 181.316 320.811 180.964 320C180.622 319.179 180.27 318.32 179.908 317.424C179.556 316.528 179.193 315.584 178.82 314.592C178.446 313.589 178.062 312.501 177.668 311.328H179.38C179.956 313.013 180.521 314.635 181.076 316.192C181.63 317.749 182.201 319.211 182.788 320.576C183.374 319.221 183.945 317.765 184.5 316.208C185.054 314.64 185.614 313.013 186.18 311.328H187.844ZM188.268 316.928H192.22V318.32H188.268V316.928ZM196.953 311.216C198.51 311.216 199.705 311.515 200.537 312.112C201.379 312.699 201.801 313.579 201.801 314.752C201.801 315.392 201.683 315.941 201.449 316.4C201.225 316.848 200.894 317.216 200.457 317.504C200.03 317.781 199.507 317.984 198.889 318.112C198.27 318.24 197.571 318.304 196.793 318.304H195.561V322.416H194.009V311.488C194.446 311.381 194.931 311.312 195.465 311.28C196.009 311.237 196.505 311.216 196.953 311.216ZM197.081 312.576C196.419 312.576 195.913 312.592 195.561 312.624V316.976H196.729C197.262 316.976 197.742 316.944 198.169 316.88C198.595 316.805 198.953 316.688 199.241 316.528C199.539 316.357 199.769 316.128 199.929 315.84C200.089 315.552 200.169 315.184 200.169 314.736C200.169 314.309 200.083 313.957 199.913 313.68C199.753 313.403 199.529 313.184 199.241 313.024C198.963 312.853 198.638 312.736 198.265 312.672C197.891 312.608 197.497 312.576 197.081 312.576ZM206.719 313.92C206.847 313.92 206.991 313.931 207.151 313.952C207.322 313.963 207.487 313.984 207.647 314.016C207.807 314.037 207.951 314.064 208.079 314.096C208.218 314.117 208.319 314.139 208.383 314.16L208.127 315.456C208.01 315.413 207.813 315.365 207.535 315.312C207.269 315.248 206.922 315.216 206.495 315.216C206.218 315.216 205.941 315.248 205.663 315.312C205.397 315.365 205.221 315.403 205.135 315.424V322.416H203.647V314.448C203.999 314.32 204.437 314.203 204.959 314.096C205.482 313.979 206.069 313.92 206.719 313.92ZM217.163 318.256C217.163 318.917 217.067 319.515 216.875 320.048C216.683 320.581 216.411 321.04 216.059 321.424C215.718 321.808 215.307 322.107 214.827 322.32C214.347 322.523 213.824 322.624 213.259 322.624C212.694 322.624 212.171 322.523 211.691 322.32C211.211 322.107 210.795 321.808 210.443 321.424C210.102 321.04 209.835 320.581 209.643 320.048C209.451 319.515 209.355 318.917 209.355 318.256C209.355 317.605 209.451 317.013 209.643 316.48C209.835 315.936 210.102 315.472 210.443 315.088C210.795 314.704 211.211 314.411 211.691 314.208C212.171 313.995 212.694 313.888 213.259 313.888C213.824 313.888 214.347 313.995 214.827 314.208C215.307 314.411 215.718 314.704 216.059 315.088C216.411 315.472 216.683 315.936 216.875 316.48C217.067 317.013 217.163 317.605 217.163 318.256ZM215.611 318.256C215.611 317.317 215.398 316.576 214.971 316.032C214.555 315.477 213.984 315.2 213.259 315.2C212.534 315.2 211.958 315.477 211.531 316.032C211.115 316.576 210.907 317.317 210.907 318.256C210.907 319.195 211.115 319.941 211.531 320.496C211.958 321.04 212.534 321.312 213.259 321.312C213.984 321.312 214.555 321.04 214.971 320.496C215.398 319.941 215.611 319.195 215.611 318.256ZM224.633 315.856C224.451 315.707 224.19 315.563 223.849 315.424C223.507 315.285 223.134 315.216 222.729 315.216C222.302 315.216 221.934 315.296 221.625 315.456C221.326 315.605 221.081 315.819 220.889 316.096C220.697 316.363 220.558 316.683 220.473 317.056C220.387 317.429 220.345 317.829 220.345 318.256C220.345 319.227 220.585 319.979 221.065 320.512C221.545 321.035 222.185 321.296 222.985 321.296C223.39 321.296 223.726 321.28 223.993 321.248C224.27 321.205 224.483 321.163 224.633 321.12V315.856ZM224.633 310.256L226.121 310V322.176C225.779 322.272 225.342 322.368 224.809 322.464C224.275 322.56 223.662 322.608 222.969 322.608C222.329 322.608 221.753 322.507 221.241 322.304C220.729 322.101 220.291 321.813 219.929 321.44C219.566 321.067 219.283 320.613 219.081 320.08C218.889 319.536 218.793 318.928 218.793 318.256C218.793 317.616 218.873 317.029 219.033 316.496C219.203 315.963 219.449 315.504 219.769 315.12C220.089 314.736 220.478 314.437 220.937 314.224C221.406 314.011 221.939 313.904 222.537 313.904C223.017 313.904 223.438 313.968 223.801 314.096C224.174 314.224 224.451 314.347 224.633 314.464V310.256ZM235.302 322.176C234.961 322.261 234.508 322.352 233.942 322.448C233.388 322.544 232.742 322.592 232.006 322.592C231.366 322.592 230.828 322.501 230.39 322.32C229.953 322.128 229.601 321.861 229.334 321.52C229.068 321.179 228.876 320.779 228.758 320.32C228.641 319.851 228.582 319.333 228.582 318.768V314.096H230.07V318.448C230.07 319.461 230.23 320.187 230.55 320.624C230.87 321.061 231.409 321.28 232.166 321.28C232.326 321.28 232.492 321.275 232.662 321.264C232.833 321.253 232.993 321.243 233.142 321.232C233.292 321.211 233.425 321.195 233.542 321.184C233.67 321.163 233.761 321.141 233.814 321.12V314.096H235.302V322.176ZM240.874 317.84C241.194 318.085 241.53 318.389 241.882 318.752C242.245 319.115 242.597 319.509 242.938 319.936C243.29 320.352 243.621 320.779 243.93 321.216C244.239 321.643 244.501 322.043 244.714 322.416H242.97C242.746 322.043 242.485 321.664 242.186 321.28C241.898 320.885 241.594 320.512 241.274 320.16C240.954 319.797 240.629 319.467 240.298 319.168C239.967 318.869 239.653 318.619 239.354 318.416V322.416H237.866V310.256L239.354 310V317.584C239.61 317.328 239.893 317.045 240.202 316.736C240.511 316.427 240.815 316.112 241.114 315.792C241.413 315.472 241.695 315.168 241.962 314.88C242.229 314.581 242.458 314.32 242.65 314.096H244.394C244.149 314.363 243.882 314.656 243.594 314.976C243.306 315.296 243.007 315.621 242.698 315.952C242.389 316.272 242.074 316.597 241.754 316.928C241.445 317.248 241.151 317.552 240.874 317.84ZM247.617 314.096H250.769V315.344H247.617V319.184C247.617 319.6 247.649 319.947 247.713 320.224C247.777 320.491 247.873 320.704 248.001 320.864C248.129 321.013 248.289 321.12 248.481 321.184C248.673 321.248 248.897 321.28 249.153 321.28C249.601 321.28 249.959 321.232 250.225 321.136C250.503 321.029 250.695 320.955 250.801 320.912L251.089 322.144C250.94 322.219 250.679 322.309 250.305 322.416C249.932 322.533 249.505 322.592 249.025 322.592C248.46 322.592 247.991 322.523 247.617 322.384C247.255 322.235 246.961 322.016 246.737 321.728C246.513 321.44 246.353 321.088 246.257 320.672C246.172 320.245 246.129 319.755 246.129 319.2V311.776L247.617 311.52V314.096ZM254.151 322.416H252.663V314.096H254.151V322.416ZM253.399 312.592C253.132 312.592 252.903 312.507 252.711 312.336C252.529 312.155 252.439 311.915 252.439 311.616C252.439 311.317 252.529 311.083 252.711 310.912C252.903 310.731 253.132 310.64 253.399 310.64C253.665 310.64 253.889 310.731 254.071 310.912C254.263 311.083 254.359 311.317 254.359 311.616C254.359 311.915 254.263 312.155 254.071 312.336C253.889 312.507 253.665 312.592 253.399 312.592ZM264.054 318.256C264.054 318.917 263.958 319.515 263.766 320.048C263.574 320.581 263.302 321.04 262.95 321.424C262.608 321.808 262.198 322.107 261.718 322.32C261.238 322.523 260.715 322.624 260.15 322.624C259.584 322.624 259.062 322.523 258.582 322.32C258.102 322.107 257.686 321.808 257.334 321.424C256.992 321.04 256.726 320.581 256.534 320.048C256.342 319.515 256.246 318.917 256.246 318.256C256.246 317.605 256.342 317.013 256.534 316.48C256.726 315.936 256.992 315.472 257.334 315.088C257.686 314.704 258.102 314.411 258.582 314.208C259.062 313.995 259.584 313.888 260.15 313.888C260.715 313.888 261.238 313.995 261.718 314.208C262.198 314.411 262.608 314.704 262.95 315.088C263.302 315.472 263.574 315.936 263.766 316.48C263.958 317.013 264.054 317.605 264.054 318.256ZM262.502 318.256C262.502 317.317 262.288 316.576 261.862 316.032C261.446 315.477 260.875 315.2 260.15 315.2C259.424 315.2 258.848 315.477 258.422 316.032C258.006 316.576 257.798 317.317 257.798 318.256C257.798 319.195 258.006 319.941 258.422 320.496C258.848 321.04 259.424 321.312 260.15 321.312C260.875 321.312 261.446 321.04 261.862 320.496C262.288 319.941 262.502 319.195 262.502 318.256ZM266.147 314.336C266.489 314.251 266.942 314.16 267.507 314.064C268.073 313.968 268.723 313.92 269.459 313.92C270.121 313.92 270.67 314.016 271.107 314.208C271.545 314.389 271.891 314.651 272.147 314.992C272.414 315.323 272.601 315.723 272.707 316.192C272.814 316.661 272.867 317.179 272.867 317.744V322.416H271.379V318.064C271.379 317.552 271.342 317.115 271.267 316.752C271.203 316.389 271.091 316.096 270.931 315.872C270.771 315.648 270.558 315.488 270.291 315.392C270.025 315.285 269.694 315.232 269.299 315.232C269.139 315.232 268.974 315.237 268.803 315.248C268.633 315.259 268.467 315.275 268.307 315.296C268.158 315.307 268.019 315.323 267.891 315.344C267.774 315.365 267.689 315.381 267.635 315.392V322.416H266.147V314.336Z" fill="#194D25"/>
<path d="M219.031 73.74C218.927 73.8093 218.723 73.9003 218.42 74.013C218.125 74.117 217.778 74.169 217.38 74.169C216.972 74.169 216.587 74.104 216.223 73.974C215.867 73.844 215.555 73.6447 215.287 73.376C215.018 73.0987 214.806 72.7563 214.65 72.349C214.494 71.9417 214.416 71.4563 214.416 70.893C214.416 70.399 214.489 69.9483 214.637 69.541C214.784 69.125 214.996 68.7697 215.274 68.475C215.56 68.1717 215.906 67.9377 216.314 67.773C216.721 67.5997 217.18 67.513 217.692 67.513C218.255 67.513 218.745 67.5563 219.161 67.643C219.585 67.721 219.941 67.7947 220.227 67.864V73.896C220.227 74.936 219.958 75.69 219.421 76.158C218.883 76.626 218.069 76.86 216.977 76.86C216.552 76.86 216.149 76.8253 215.768 76.756C215.395 76.6867 215.07 76.6043 214.793 76.509L215.014 75.456C215.256 75.5513 215.551 75.6337 215.898 75.703C216.253 75.781 216.621 75.82 217.003 75.82C217.722 75.82 218.238 75.677 218.55 75.391C218.87 75.105 219.031 74.65 219.031 74.026V73.74ZM219.018 68.722C218.896 68.6873 218.732 68.657 218.524 68.631C218.324 68.5963 218.051 68.579 217.705 68.579C217.055 68.579 216.552 68.7913 216.197 69.216C215.85 69.6407 215.677 70.204 215.677 70.906C215.677 71.296 215.724 71.6297 215.82 71.907C215.924 72.1843 216.058 72.414 216.223 72.596C216.396 72.778 216.591 72.9123 216.808 72.999C217.033 73.0857 217.263 73.129 217.497 73.129C217.817 73.129 218.112 73.0857 218.381 72.999C218.649 72.9037 218.862 72.7953 219.018 72.674V68.722Z" fill="#194D25"/>
<path d="M207.328 67.851C207.605 67.7817 207.973 67.708 208.433 67.63C208.892 67.552 209.421 67.513 210.019 67.513C210.556 67.513 211.002 67.591 211.358 67.747C211.713 67.8943 211.995 68.1067 212.203 68.384C212.419 68.6527 212.571 68.9777 212.658 69.359C212.744 69.7403 212.788 70.1607 212.788 70.62V74.416H211.579V70.88C211.579 70.464 211.548 70.1087 211.488 69.814C211.436 69.5193 211.345 69.281 211.215 69.099C211.085 68.917 210.911 68.787 210.695 68.709C210.478 68.6223 210.209 68.579 209.889 68.579C209.759 68.579 209.624 68.5833 209.486 68.592C209.347 68.6007 209.213 68.6137 209.083 68.631C208.961 68.6397 208.849 68.6527 208.745 68.67C208.649 68.6873 208.58 68.7003 208.537 68.709V74.416H207.328V67.851Z" fill="#194D25"/>
<path d="M205.245 74.221C204.968 74.2903 204.599 74.364 204.14 74.442C203.689 74.52 203.165 74.559 202.567 74.559C202.047 74.559 201.609 74.4853 201.254 74.338C200.899 74.182 200.613 73.9653 200.396 73.688C200.179 73.4107 200.023 73.0857 199.928 72.713C199.833 72.3317 199.785 71.9113 199.785 71.452V67.656H200.994V71.192C200.994 72.0153 201.124 72.6047 201.384 72.96C201.644 73.3153 202.082 73.493 202.697 73.493C202.827 73.493 202.961 73.4887 203.1 73.48C203.239 73.4713 203.369 73.4627 203.49 73.454C203.611 73.4367 203.72 73.4237 203.815 73.415C203.919 73.3977 203.993 73.3803 204.036 73.363V67.656H205.245V74.221Z" fill="#194D25"/>
<path d="M193.417 67.955C193.564 67.8597 193.785 67.76 194.08 67.656C194.383 67.552 194.73 67.5 195.12 67.5C195.605 67.5 196.034 67.5867 196.407 67.76C196.788 67.9333 197.109 68.176 197.369 68.488C197.629 68.8 197.824 69.1727 197.954 69.606C198.092 70.0393 198.162 70.516 198.162 71.036C198.162 71.582 198.079 72.076 197.915 72.518C197.759 72.9513 197.533 73.3197 197.239 73.623C196.944 73.9263 196.589 74.1603 196.173 74.325C195.757 74.4897 195.289 74.572 194.769 74.572C194.205 74.572 193.707 74.533 193.274 74.455C192.84 74.377 192.485 74.299 192.208 74.221V64.536L193.417 64.328V67.955ZM193.417 73.363C193.538 73.3977 193.707 73.4323 193.924 73.467C194.149 73.493 194.426 73.506 194.756 73.506C195.406 73.506 195.926 73.2937 196.316 72.869C196.706 72.4357 196.901 71.8247 196.901 71.036C196.901 70.6893 196.866 70.3643 196.797 70.061C196.727 69.7577 196.615 69.4977 196.459 69.281C196.303 69.0557 196.099 68.8823 195.848 68.761C195.605 68.631 195.31 68.566 194.964 68.566C194.634 68.566 194.331 68.6223 194.054 68.735C193.776 68.8477 193.564 68.9647 193.417 69.086V73.363Z" fill="#194D25"/>
<path d="M184.569 71.049C184.569 70.451 184.656 69.931 184.829 69.489C185.002 69.0383 185.232 68.6657 185.518 68.371C185.804 68.0763 186.133 67.8553 186.506 67.708C186.879 67.5607 187.26 67.487 187.65 67.487C188.56 67.487 189.258 67.773 189.743 68.345C190.228 68.9083 190.471 69.7707 190.471 70.932C190.471 70.984 190.471 71.0533 190.471 71.14C190.471 71.218 190.467 71.2917 190.458 71.361H185.83C185.882 72.063 186.086 72.596 186.441 72.96C186.796 73.324 187.351 73.506 188.105 73.506C188.53 73.506 188.885 73.4713 189.171 73.402C189.466 73.324 189.687 73.2503 189.834 73.181L190.003 74.195C189.856 74.273 189.596 74.3553 189.223 74.442C188.859 74.5287 188.443 74.572 187.975 74.572C187.386 74.572 186.874 74.4853 186.441 74.312C186.016 74.13 185.665 73.883 185.388 73.571C185.111 73.259 184.903 72.8907 184.764 72.466C184.634 72.0327 184.569 71.5603 184.569 71.049ZM189.21 70.386C189.219 69.84 189.08 69.3937 188.794 69.047C188.517 68.6917 188.131 68.514 187.637 68.514C187.36 68.514 187.113 68.5703 186.896 68.683C186.688 68.787 186.51 68.9257 186.363 69.099C186.216 69.2723 186.099 69.4717 186.012 69.697C185.934 69.9223 185.882 70.152 185.856 70.386H189.21Z" fill="#194D25"/>
<path d="M182.867 74.416H181.658V67.656H182.867V74.416ZM182.256 66.434C182.039 66.434 181.853 66.3647 181.697 66.226C181.549 66.0787 181.476 65.8837 181.476 65.641C181.476 65.3984 181.549 65.2077 181.697 65.069C181.853 64.9217 182.039 64.848 182.256 64.848C182.472 64.848 182.654 64.9217 182.802 65.069C182.958 65.2077 183.036 65.3984 183.036 65.641C183.036 65.8837 182.958 66.0787 182.802 66.226C182.654 66.3647 182.472 66.434 182.256 66.434Z" fill="#194D25"/>
<path d="M174.231 74.416V64.536L175.44 64.328V67.786C175.665 67.6993 175.904 67.6343 176.155 67.591C176.415 67.539 176.671 67.513 176.922 67.513C177.459 67.513 177.906 67.591 178.261 67.747C178.616 67.8943 178.898 68.1067 179.106 68.384C179.323 68.6527 179.474 68.9777 179.561 69.359C179.648 69.7403 179.691 70.1607 179.691 70.62V74.416H178.482V70.88C178.482 70.464 178.452 70.1087 178.391 69.814C178.339 69.5193 178.248 69.281 178.118 69.099C177.988 68.917 177.815 68.787 177.598 68.709C177.381 68.6223 177.113 68.579 176.792 68.579C176.662 68.579 176.528 68.5877 176.389 68.605C176.25 68.6223 176.116 68.644 175.986 68.67C175.865 68.6873 175.752 68.709 175.648 68.735C175.553 68.761 175.483 68.7827 175.44 68.8V74.416H174.231Z" fill="#194D25"/>
<path d="M171.126 74.572C170.58 74.572 170.099 74.4853 169.683 74.312C169.276 74.1387 168.929 73.896 168.643 73.584C168.366 73.272 168.158 72.9037 168.019 72.479C167.88 72.0457 167.811 71.569 167.811 71.049C167.811 70.529 167.885 70.0523 168.032 69.619C168.188 69.1857 168.405 68.813 168.682 68.501C168.959 68.1803 169.297 67.9333 169.696 67.76C170.103 67.578 170.554 67.487 171.048 67.487C171.351 67.487 171.655 67.513 171.958 67.565C172.261 67.617 172.552 67.6993 172.829 67.812L172.556 68.839C172.374 68.7523 172.162 68.683 171.919 68.631C171.685 68.579 171.434 68.553 171.165 68.553C170.489 68.553 169.969 68.7653 169.605 69.19C169.25 69.6147 169.072 70.2343 169.072 71.049C169.072 71.413 169.111 71.7467 169.189 72.05C169.276 72.3533 169.406 72.6133 169.579 72.83C169.761 73.0467 169.991 73.2157 170.268 73.337C170.545 73.4497 170.883 73.506 171.282 73.506C171.603 73.506 171.893 73.4757 172.153 73.415C172.413 73.3543 172.617 73.2893 172.764 73.22L172.933 74.234C172.864 74.2773 172.764 74.3207 172.634 74.364C172.504 74.3987 172.357 74.429 172.192 74.455C172.027 74.4897 171.85 74.5157 171.659 74.533C171.477 74.559 171.299 74.572 171.126 74.572Z" fill="#194D25"/>
<path d="M163.959 73.545C164.453 73.545 164.817 73.48 165.051 73.35C165.294 73.22 165.415 73.012 165.415 72.726C165.415 72.4313 165.298 72.1973 165.064 72.024C164.83 71.8507 164.445 71.6557 163.907 71.439C163.647 71.335 163.396 71.231 163.153 71.127C162.919 71.0143 162.716 70.8843 162.542 70.737C162.369 70.5897 162.23 70.412 162.126 70.204C162.022 69.996 161.97 69.7403 161.97 69.437C161.97 68.839 162.191 68.3667 162.633 68.02C163.075 67.6647 163.678 67.487 164.44 67.487C164.631 67.487 164.822 67.5 165.012 67.526C165.203 67.5433 165.381 67.5693 165.545 67.604C165.71 67.63 165.853 67.6603 165.974 67.695C166.104 67.7297 166.204 67.76 166.273 67.786L166.052 68.826C165.922 68.7567 165.719 68.6873 165.441 68.618C165.164 68.54 164.83 68.501 164.44 68.501C164.102 68.501 163.808 68.5703 163.556 68.709C163.305 68.839 163.179 69.047 163.179 69.333C163.179 69.4803 163.205 69.6103 163.257 69.723C163.318 69.8357 163.405 69.9397 163.517 70.035C163.639 70.1217 163.786 70.204 163.959 70.282C164.133 70.36 164.341 70.4423 164.583 70.529C164.904 70.6503 165.19 70.7717 165.441 70.893C165.693 71.0057 165.905 71.14 166.078 71.296C166.26 71.452 166.399 71.6427 166.494 71.868C166.59 72.0847 166.637 72.3533 166.637 72.674C166.637 73.298 166.403 73.7703 165.935 74.091C165.476 74.4117 164.817 74.572 163.959 74.572C163.361 74.572 162.893 74.52 162.555 74.416C162.217 74.3207 161.988 74.247 161.866 74.195L162.087 73.155C162.226 73.207 162.447 73.285 162.75 73.389C163.054 73.493 163.457 73.545 163.959 73.545Z" fill="#194D25"/>
<path d="M159.868 67.513C159.972 67.513 160.089 67.5217 160.219 67.539C160.357 67.5477 160.492 67.565 160.622 67.591C160.752 67.6083 160.869 67.63 160.973 67.656C161.085 67.6733 161.168 67.6907 161.22 67.708L161.012 68.761C160.916 68.7263 160.756 68.6873 160.531 68.644C160.314 68.592 160.032 68.566 159.686 68.566C159.46 68.566 159.235 68.592 159.01 68.644C158.793 68.6873 158.65 68.7177 158.581 68.735V74.416H157.372V67.942C157.658 67.838 158.013 67.7427 158.438 67.656C158.862 67.5607 159.339 67.513 159.868 67.513Z" fill="#194D25"/>
<path d="M149.733 71.049C149.733 70.451 149.82 69.931 149.993 69.489C150.166 69.0383 150.396 68.6657 150.682 68.371C150.968 68.0763 151.297 67.8553 151.67 67.708C152.043 67.5607 152.424 67.487 152.814 67.487C153.724 67.487 154.422 67.773 154.907 68.345C155.392 68.9083 155.635 69.7707 155.635 70.932C155.635 70.984 155.635 71.0533 155.635 71.14C155.635 71.218 155.631 71.2917 155.622 71.361H150.994C151.046 72.063 151.25 72.596 151.605 72.96C151.96 73.324 152.515 73.506 153.269 73.506C153.694 73.506 154.049 73.4713 154.335 73.402C154.63 73.324 154.851 73.2503 154.998 73.181L155.167 74.195C155.02 74.273 154.76 74.3553 154.387 74.442C154.023 74.5287 153.607 74.572 153.139 74.572C152.55 74.572 152.038 74.4853 151.605 74.312C151.18 74.13 150.829 73.883 150.552 73.571C150.275 73.259 150.067 72.8907 149.928 72.466C149.798 72.0327 149.733 71.5603 149.733 71.049ZM154.374 70.386C154.383 69.84 154.244 69.3937 153.958 69.047C153.681 68.6917 153.295 68.514 152.801 68.514C152.524 68.514 152.277 68.5703 152.06 68.683C151.852 68.787 151.674 68.9257 151.527 69.099C151.38 69.2723 151.263 69.4717 151.176 69.697C151.098 69.9223 151.046 70.152 151.02 70.386H154.374Z" fill="#194D25"/>
<path d="M149.04 67.656C148.702 68.9213 148.304 70.1347 147.844 71.296C147.394 72.4573 146.956 73.4973 146.531 74.416H145.439C145.015 73.4973 144.573 72.4573 144.113 71.296C143.663 70.1347 143.268 68.9213 142.93 67.656H144.23C144.334 68.0807 144.456 68.5357 144.594 69.021C144.742 69.4977 144.893 69.9743 145.049 70.451C145.214 70.919 145.379 71.374 145.543 71.816C145.708 72.258 145.864 72.6523 146.011 72.999C146.159 72.6523 146.315 72.258 146.479 71.816C146.644 71.374 146.804 70.919 146.96 70.451C147.125 69.9743 147.277 69.4977 147.415 69.021C147.563 68.5357 147.688 68.0807 147.792 67.656H149.04Z" fill="#194D25"/>
<path d="M136.124 71.049C136.124 70.451 136.21 69.931 136.384 69.489C136.557 69.0383 136.787 68.6657 137.073 68.371C137.359 68.0763 137.688 67.8553 138.061 67.708C138.433 67.5607 138.815 67.487 139.205 67.487C140.115 67.487 140.812 67.773 141.298 68.345C141.783 68.9083 142.026 69.7707 142.026 70.932C142.026 70.984 142.026 71.0533 142.026 71.14C142.026 71.218 142.021 71.2917 142.013 71.361H137.385C137.437 72.063 137.64 72.596 137.996 72.96C138.351 73.324 138.906 73.506 139.66 73.506C140.084 73.506 140.44 73.4713 140.726 73.402C141.02 73.324 141.241 73.2503 141.389 73.181L141.558 74.195C141.41 74.273 141.15 74.3553 140.778 74.442C140.414 74.5287 139.998 74.572 139.53 74.572C138.94 74.572 138.429 74.4853 137.996 74.312C137.571 74.13 137.22 73.883 136.943 73.571C136.665 73.259 136.457 72.8907 136.319 72.466C136.189 72.0327 136.124 71.5603 136.124 71.049ZM140.765 70.386C140.773 69.84 140.635 69.3937 140.349 69.047C140.071 68.6917 139.686 68.514 139.192 68.514C138.914 68.514 138.667 68.5703 138.451 68.683C138.243 68.787 138.065 68.9257 137.918 69.099C137.77 69.2723 137.653 69.4717 137.567 69.697C137.489 69.9223 137.437 70.152 137.411 70.386H140.765Z" fill="#194D25"/>
<path d="M133.213 69.086C133.066 68.9647 132.854 68.8477 132.576 68.735C132.299 68.6223 131.996 68.566 131.666 68.566C131.32 68.566 131.021 68.631 130.769 68.761C130.527 68.8823 130.327 69.0557 130.171 69.281C130.015 69.4977 129.903 69.7577 129.833 70.061C129.764 70.3643 129.729 70.6893 129.729 71.036C129.729 71.8247 129.924 72.4357 130.314 72.869C130.704 73.2937 131.224 73.506 131.874 73.506C132.204 73.506 132.477 73.493 132.693 73.467C132.919 73.4323 133.092 73.3977 133.213 73.363V69.086ZM133.213 64.536L134.422 64.328V74.221C134.145 74.299 133.79 74.377 133.356 74.455C132.923 74.533 132.425 74.572 131.861 74.572C131.341 74.572 130.873 74.4897 130.457 74.325C130.041 74.1603 129.686 73.9263 129.391 73.623C129.097 73.3197 128.867 72.9513 128.702 72.518C128.546 72.076 128.468 71.582 128.468 71.036C128.468 70.516 128.533 70.0393 128.663 69.606C128.802 69.1727 129.001 68.8 129.261 68.488C129.521 68.176 129.838 67.9333 130.21 67.76C130.592 67.5867 131.025 67.5 131.51 67.5C131.9 67.5 132.243 67.552 132.537 67.656C132.841 67.76 133.066 67.8597 133.213 67.955V64.536Z" fill="#194D25"/>
<path d="M124.341 73.545C124.627 73.545 124.879 73.5407 125.095 73.532C125.321 73.5147 125.507 73.4887 125.654 73.454V71.439C125.568 71.3957 125.425 71.361 125.225 71.335C125.035 71.3003 124.801 71.283 124.523 71.283C124.341 71.283 124.146 71.296 123.938 71.322C123.739 71.348 123.553 71.4043 123.379 71.491C123.215 71.569 123.076 71.6817 122.963 71.829C122.851 71.9677 122.794 72.154 122.794 72.388C122.794 72.8213 122.933 73.1247 123.21 73.298C123.488 73.4627 123.865 73.545 124.341 73.545ZM124.237 67.487C124.723 67.487 125.13 67.552 125.459 67.682C125.797 67.8033 126.066 67.981 126.265 68.215C126.473 68.4403 126.621 68.7133 126.707 69.034C126.794 69.346 126.837 69.6927 126.837 70.074V74.299C126.733 74.3163 126.586 74.3423 126.395 74.377C126.213 74.403 126.005 74.429 125.771 74.455C125.537 74.481 125.282 74.5027 125.004 74.52C124.736 74.546 124.467 74.559 124.198 74.559C123.817 74.559 123.466 74.52 123.145 74.442C122.825 74.364 122.547 74.2427 122.313 74.078C122.079 73.9047 121.897 73.6793 121.767 73.402C121.637 73.1247 121.572 72.791 121.572 72.401C121.572 72.0283 121.646 71.7077 121.793 71.439C121.949 71.1703 122.157 70.9537 122.417 70.789C122.677 70.6243 122.981 70.503 123.327 70.425C123.674 70.347 124.038 70.308 124.419 70.308C124.541 70.308 124.666 70.3167 124.796 70.334C124.926 70.3427 125.048 70.36 125.16 70.386C125.282 70.4033 125.386 70.4207 125.472 70.438C125.559 70.4553 125.62 70.4683 125.654 70.477V70.139C125.654 69.9397 125.633 69.7447 125.589 69.554C125.546 69.3547 125.468 69.1813 125.355 69.034C125.243 68.878 125.087 68.7567 124.887 68.67C124.697 68.5747 124.445 68.527 124.133 68.527C123.735 68.527 123.384 68.5573 123.08 68.618C122.786 68.67 122.565 68.7263 122.417 68.787L122.274 67.786C122.43 67.7167 122.69 67.6517 123.054 67.591C123.418 67.5217 123.813 67.487 124.237 67.487Z" fill="#194D25"/>
<path d="M120.811 73.324V74.416H115.39V65.407H116.651V73.324H120.811Z" fill="#194D25"/>
<path d="M182.27 85.442L172.27 91.2151L172.269 86.4407L153.77 86.4424C153.218 86.4424 152.77 85.9945 152.77 85.4424C152.77 84.8902 153.218 84.4424 153.77 84.4424L172.27 84.4417V79.6683L182.27 85.442Z" fill="#194D25"/>
<path d="M11.7734 322.416C15.0871 322.416 17.7734 319.73 17.7734 316.416C17.7734 313.102 15.0871 310.416 11.7734 310.416C8.45967 310.416 5.77338 313.102 5.77338 316.416C5.77338 319.73 8.45967 322.416 11.7734 322.416Z" fill="#E056F5"/>
<path d="M30.1414 322.512C29.9174 322.512 29.6721 322.507 29.4054 322.496C29.1494 322.485 28.8881 322.469 28.6214 322.448C28.3654 322.427 28.1094 322.4 27.8534 322.368C27.5974 322.336 27.3628 322.293 27.1494 322.24V311.488C27.3628 311.435 27.5974 311.392 27.8534 311.36C28.1094 311.328 28.3654 311.301 28.6214 311.28C28.8881 311.259 29.1494 311.243 29.4054 311.232C29.6614 311.221 29.9014 311.216 30.1254 311.216C30.7654 311.216 31.3628 311.264 31.9174 311.36C32.4828 311.456 32.9681 311.621 33.3734 311.856C33.7894 312.08 34.1148 312.379 34.3494 312.752C34.5841 313.125 34.7014 313.584 34.7014 314.128C34.7014 314.736 34.5574 315.237 34.2694 315.632C33.9814 316.016 33.5974 316.304 33.1174 316.496C33.7681 316.688 34.2854 316.992 34.6694 317.408C35.0534 317.824 35.2454 318.411 35.2454 319.168C35.2454 320.277 34.8348 321.115 34.0134 321.68C33.2028 322.235 31.9121 322.512 30.1414 322.512ZM28.6854 317.248V321.152C28.8028 321.163 28.9414 321.173 29.1014 321.184C29.2401 321.195 29.4001 321.205 29.5814 321.216C29.7734 321.216 29.9921 321.216 30.2374 321.216C30.6961 321.216 31.1281 321.189 31.5334 321.136C31.9494 321.072 32.3121 320.965 32.6214 320.816C32.9308 320.667 33.1761 320.459 33.3574 320.192C33.5494 319.925 33.6454 319.589 33.6454 319.184C33.6454 318.821 33.5761 318.517 33.4374 318.272C33.2988 318.016 33.0961 317.813 32.8294 317.664C32.5734 317.515 32.2641 317.408 31.9014 317.344C31.5388 317.28 31.1334 317.248 30.6854 317.248H28.6854ZM28.6854 316H30.3174C30.7014 316 31.0641 315.973 31.4054 315.92C31.7468 315.867 32.0401 315.771 32.2854 315.632C32.5414 315.493 32.7388 315.312 32.8774 315.088C33.0268 314.864 33.1014 314.581 33.1014 314.24C33.1014 313.92 33.0268 313.653 32.8774 313.44C32.7281 313.216 32.5201 313.04 32.2534 312.912C31.9974 312.773 31.6934 312.672 31.3414 312.608C30.9894 312.544 30.6161 312.512 30.2214 312.512C29.8268 312.512 29.5174 312.517 29.2934 312.528C29.0694 312.539 28.8668 312.555 28.6854 312.576V316ZM44.6787 318.256C44.6787 318.917 44.5827 319.515 44.3907 320.048C44.1987 320.581 43.9267 321.04 43.5747 321.424C43.2334 321.808 42.8227 322.107 42.3427 322.32C41.8627 322.523 41.34 322.624 40.7747 322.624C40.2094 322.624 39.6867 322.523 39.2067 322.32C38.7267 322.107 38.3107 321.808 37.9587 321.424C37.6174 321.04 37.3507 320.581 37.1587 320.048C36.9667 319.515 36.8707 318.917 36.8707 318.256C36.8707 317.605 36.9667 317.013 37.1587 316.48C37.3507 315.936 37.6174 315.472 37.9587 315.088C38.3107 314.704 38.7267 314.411 39.2067 314.208C39.6867 313.995 40.2094 313.888 40.7747 313.888C41.34 313.888 41.8627 313.995 42.3427 314.208C42.8227 314.411 43.2334 314.704 43.5747 315.088C43.9267 315.472 44.1987 315.936 44.3907 316.48C44.5827 317.013 44.6787 317.605 44.6787 318.256ZM43.1267 318.256C43.1267 317.317 42.9134 316.576 42.4867 316.032C42.0707 315.477 41.5 315.2 40.7747 315.2C40.0494 315.2 39.4734 315.477 39.0467 316.032C38.6307 316.576 38.4227 317.317 38.4227 318.256C38.4227 319.195 38.6307 319.941 39.0467 320.496C39.4734 321.04 40.0494 321.312 40.7747 321.312C41.5 321.312 42.0707 321.04 42.4867 320.496C42.9134 319.941 43.1267 319.195 43.1267 318.256ZM39.2547 312.56C39.0094 312.56 38.7907 312.475 38.5987 312.304C38.4174 312.123 38.3267 311.893 38.3267 311.616C38.3267 311.339 38.4174 311.115 38.5987 310.944C38.7907 310.763 39.0094 310.672 39.2547 310.672C39.5 310.672 39.7134 310.763 39.8947 310.944C40.0867 311.115 40.1827 311.339 40.1827 311.616C40.1827 311.893 40.0867 312.123 39.8947 312.304C39.7134 312.475 39.5 312.56 39.2547 312.56ZM42.2947 312.56C42.0494 312.56 41.8307 312.475 41.6387 312.304C41.4574 312.123 41.3667 311.893 41.3667 311.616C41.3667 311.339 41.4574 311.115 41.6387 310.944C41.8307 310.763 42.0494 310.672 42.2947 310.672C42.54 310.672 42.7534 310.763 42.9347 310.944C43.1267 311.115 43.2227 311.339 43.2227 311.616C43.2227 311.893 43.1267 312.123 42.9347 312.304C42.7534 312.475 42.54 312.56 42.2947 312.56ZM49.8442 313.92C49.9722 313.92 50.1162 313.931 50.2762 313.952C50.4469 313.963 50.6122 313.984 50.7722 314.016C50.9322 314.037 51.0762 314.064 51.2042 314.096C51.3429 314.117 51.4442 314.139 51.5082 314.16L51.2522 315.456C51.1349 315.413 50.9375 315.365 50.6602 315.312C50.3935 315.248 50.0469 315.216 49.6202 315.216C49.3429 315.216 49.0655 315.248 48.7882 315.312C48.5215 315.365 48.3455 315.403 48.2602 315.424V322.416H46.7722V314.448C47.1242 314.32 47.5615 314.203 48.0842 314.096C48.6069 313.979 49.1935 313.92 49.8442 313.92ZM54.8801 321.344C55.4881 321.344 55.9361 321.264 56.2241 321.104C56.5227 320.944 56.6721 320.688 56.6721 320.336C56.6721 319.973 56.5281 319.685 56.2401 319.472C55.9521 319.259 55.4774 319.019 54.8161 318.752C54.4961 318.624 54.1867 318.496 53.8881 318.368C53.6001 318.229 53.3494 318.069 53.1361 317.888C52.9227 317.707 52.7521 317.488 52.6241 317.232C52.4961 316.976 52.4321 316.661 52.4321 316.288C52.4321 315.552 52.7041 314.971 53.2481 314.544C53.7921 314.107 54.5334 313.888 55.4721 313.888C55.7067 313.888 55.9414 313.904 56.1761 313.936C56.4107 313.957 56.6294 313.989 56.8321 314.032C57.0347 314.064 57.2107 314.101 57.3601 314.144C57.5201 314.187 57.6427 314.224 57.7281 314.256L57.4561 315.536C57.2961 315.451 57.0454 315.365 56.7041 315.28C56.3627 315.184 55.9521 315.136 55.4721 315.136C55.0561 315.136 54.6934 315.221 54.3841 315.392C54.0747 315.552 53.9201 315.808 53.9201 316.16C53.9201 316.341 53.9521 316.501 54.0161 316.64C54.0907 316.779 54.1974 316.907 54.3361 317.024C54.4854 317.131 54.6667 317.232 54.8801 317.328C55.0934 317.424 55.3494 317.525 55.6481 317.632C56.0427 317.781 56.3947 317.931 56.7041 318.08C57.0134 318.219 57.2747 318.384 57.4881 318.576C57.7121 318.768 57.8827 319.003 58.0001 319.28C58.1174 319.547 58.1761 319.877 58.1761 320.272C58.1761 321.04 57.8881 321.621 57.3121 322.016C56.7467 322.411 55.9361 322.608 54.8801 322.608C54.1441 322.608 53.5681 322.544 53.1521 322.416C52.7361 322.299 52.4534 322.208 52.3041 322.144L52.5761 320.864C52.7467 320.928 53.0187 321.024 53.3921 321.152C53.7654 321.28 54.2614 321.344 54.8801 321.344ZM59.6207 318.272C59.6207 317.536 59.7274 316.896 59.9407 316.352C60.154 315.797 60.4367 315.339 60.7887 314.976C61.1407 314.613 61.546 314.341 62.0047 314.16C62.4634 313.979 62.9327 313.888 63.4127 313.888C64.5327 313.888 65.3914 314.24 65.9887 314.944C66.586 315.637 66.8847 316.699 66.8847 318.128C66.8847 318.192 66.8847 318.277 66.8847 318.384C66.8847 318.48 66.8794 318.571 66.8687 318.656H61.1727C61.2367 319.52 61.4874 320.176 61.9247 320.624C62.362 321.072 63.0447 321.296 63.9727 321.296C64.4954 321.296 64.9327 321.253 65.2847 321.168C65.6474 321.072 65.9194 320.981 66.1007 320.896L66.3087 322.144C66.1274 322.24 65.8074 322.341 65.3487 322.448C64.9007 322.555 64.3887 322.608 63.8127 322.608C63.0874 322.608 62.458 322.501 61.9247 322.288C61.402 322.064 60.97 321.76 60.6287 321.376C60.2874 320.992 60.0314 320.539 59.8607 320.016C59.7007 319.483 59.6207 318.901 59.6207 318.272ZM65.3327 317.456C65.3434 316.784 65.1727 316.235 64.8207 315.808C64.4794 315.371 64.0047 315.152 63.3967 315.152C63.0554 315.152 62.7514 315.221 62.4847 315.36C62.2287 315.488 62.01 315.659 61.8287 315.872C61.6474 316.085 61.5034 316.331 61.3967 316.608C61.3007 316.885 61.2367 317.168 61.2047 317.456H65.3327ZM69.0222 314.336C69.3635 314.251 69.8169 314.16 70.3822 314.064C70.9475 313.968 71.5982 313.92 72.3342 313.92C72.9955 313.92 73.5449 314.016 73.9822 314.208C74.4195 314.389 74.7662 314.651 75.0222 314.992C75.2889 315.323 75.4755 315.723 75.5822 316.192C75.6889 316.661 75.7422 317.179 75.7422 317.744V322.416H74.2542V318.064C74.2542 317.552 74.2169 317.115 74.1422 316.752C74.0782 316.389 73.9662 316.096 73.8062 315.872C73.6462 315.648 73.4329 315.488 73.1662 315.392C72.8995 315.285 72.5689 315.232 72.1742 315.232C72.0142 315.232 71.8489 315.237 71.6782 315.248C71.5075 315.259 71.3422 315.275 71.1822 315.296C71.0329 315.307 70.8942 315.323 70.7662 315.344C70.6489 315.365 70.5635 315.381 70.5102 315.392V322.416H69.0222V314.336ZM83.9857 318.272C83.9857 317.301 83.7457 316.555 83.2657 316.032C82.7857 315.509 82.1457 315.248 81.3457 315.248C80.8977 315.248 80.5457 315.264 80.2897 315.296C80.0444 315.328 79.847 315.365 79.6977 315.408V320.656C79.879 320.805 80.1404 320.949 80.4817 321.088C80.823 321.227 81.1964 321.296 81.6017 321.296C82.0284 321.296 82.391 321.221 82.6897 321.072C82.999 320.912 83.2497 320.699 83.4417 320.432C83.6337 320.155 83.7724 319.835 83.8577 319.472C83.943 319.099 83.9857 318.699 83.9857 318.272ZM85.5377 318.272C85.5377 318.901 85.4524 319.483 85.2817 320.016C85.1217 320.549 84.8817 321.008 84.5617 321.392C84.2417 321.776 83.847 322.075 83.3777 322.288C82.919 322.501 82.391 322.608 81.7937 322.608C81.3137 322.608 80.887 322.544 80.5137 322.416C80.151 322.288 79.879 322.165 79.6977 322.048V325.376H78.2097V314.352C78.5617 314.267 78.999 314.176 79.5217 314.08C80.055 313.973 80.6684 313.92 81.3617 313.92C82.0017 313.92 82.5777 314.021 83.0897 314.224C83.6017 314.427 84.039 314.715 84.4017 315.088C84.7644 315.461 85.0417 315.92 85.2337 316.464C85.4364 316.997 85.5377 317.6 85.5377 318.272ZM90.7036 313.92C90.8316 313.92 90.9756 313.931 91.1356 313.952C91.3062 313.963 91.4716 313.984 91.6316 314.016C91.7916 314.037 91.9356 314.064 92.0636 314.096C92.2022 314.117 92.3036 314.139 92.3676 314.16L92.1116 315.456C91.9942 315.413 91.7969 315.365 91.5196 315.312C91.2529 315.248 90.9062 315.216 90.4796 315.216C90.2022 315.216 89.9249 315.248 89.6476 315.312C89.3809 315.365 89.2049 315.403 89.1196 315.424V322.416H87.6316V314.448C87.9836 314.32 88.4209 314.203 88.9436 314.096C89.4662 313.979 90.0529 313.92 90.7036 313.92ZM93.3394 318.272C93.3394 317.536 93.4461 316.896 93.6594 316.352C93.8728 315.797 94.1554 315.339 94.5074 314.976C94.8594 314.613 95.2648 314.341 95.7234 314.16C96.1821 313.979 96.6514 313.888 97.1314 313.888C98.2514 313.888 99.1101 314.24 99.7074 314.944C100.305 315.637 100.603 316.699 100.603 318.128C100.603 318.192 100.603 318.277 100.603 318.384C100.603 318.48 100.598 318.571 100.587 318.656H94.8914C94.9554 319.52 95.2061 320.176 95.6434 320.624C96.0808 321.072 96.7634 321.296 97.6914 321.296C98.2141 321.296 98.6514 321.253 99.0034 321.168C99.3661 321.072 99.6381 320.981 99.8194 320.896L100.027 322.144C99.8461 322.24 99.5261 322.341 99.0674 322.448C98.6194 322.555 98.1074 322.608 97.5314 322.608C96.8061 322.608 96.1768 322.501 95.6434 322.288C95.1208 322.064 94.6888 321.76 94.3474 321.376C94.0061 320.992 93.7501 320.539 93.5794 320.016C93.4194 319.483 93.3394 318.901 93.3394 318.272ZM99.0514 317.456C99.0621 316.784 98.8914 316.235 98.5394 315.808C98.1981 315.371 97.7234 315.152 97.1154 315.152C96.7741 315.152 96.4701 315.221 96.2034 315.36C95.9474 315.488 95.7288 315.659 95.5474 315.872C95.3661 316.085 95.2221 316.331 95.1154 316.608C95.0194 316.885 94.9554 317.168 94.9234 317.456H99.0514ZM104.229 322.416H102.741V314.096H104.229V322.416ZM103.477 312.592C103.21 312.592 102.981 312.507 102.789 312.336C102.608 312.155 102.517 311.915 102.517 311.616C102.517 311.317 102.608 311.083 102.789 310.912C102.981 310.731 103.21 310.64 103.477 310.64C103.744 310.64 103.968 310.731 104.149 310.912C104.341 311.083 104.437 311.317 104.437 311.616C104.437 311.915 104.341 312.155 104.149 312.336C103.968 312.507 103.744 312.592 103.477 312.592ZM108.724 321.344C109.332 321.344 109.78 321.264 110.068 321.104C110.366 320.944 110.516 320.688 110.516 320.336C110.516 319.973 110.372 319.685 110.084 319.472C109.796 319.259 109.321 319.019 108.66 318.752C108.34 318.624 108.03 318.496 107.732 318.368C107.444 318.229 107.193 318.069 106.98 317.888C106.766 317.707 106.596 317.488 106.468 317.232C106.34 316.976 106.276 316.661 106.276 316.288C106.276 315.552 106.548 314.971 107.092 314.544C107.636 314.107 108.377 313.888 109.316 313.888C109.55 313.888 109.785 313.904 110.02 313.936C110.254 313.957 110.473 313.989 110.676 314.032C110.878 314.064 111.054 314.101 111.204 314.144C111.364 314.187 111.486 314.224 111.572 314.256L111.3 315.536C111.14 315.451 110.889 315.365 110.548 315.28C110.206 315.184 109.796 315.136 109.316 315.136C108.9 315.136 108.537 315.221 108.228 315.392C107.918 315.552 107.764 315.808 107.764 316.16C107.764 316.341 107.796 316.501 107.86 316.64C107.934 316.779 108.041 316.907 108.18 317.024C108.329 317.131 108.51 317.232 108.724 317.328C108.937 317.424 109.193 317.525 109.492 317.632C109.886 317.781 110.238 317.931 110.548 318.08C110.857 318.219 111.118 318.384 111.332 318.576C111.556 318.768 111.726 319.003 111.844 319.28C111.961 319.547 112.02 319.877 112.02 320.272C112.02 321.04 111.732 321.621 111.156 322.016C110.59 322.411 109.78 322.608 108.724 322.608C107.988 322.608 107.412 322.544 106.996 322.416C106.58 322.299 106.297 322.208 106.148 322.144L106.42 320.864C106.59 320.928 106.862 321.024 107.236 321.152C107.609 321.28 108.105 321.344 108.724 321.344Z" fill="#194D25"/>
<path d="M11.7734 348.416C15.0871 348.416 17.7734 345.73 17.7734 342.416C17.7734 339.102 15.0871 336.416 11.7734 336.416C8.45967 336.416 5.77338 339.102 5.77338 342.416C5.77338 345.73 8.45967 348.416 11.7734 348.416Z" fill="#B6B6B6"/>
<path d="M29.7254 347.312C31.3468 347.312 32.1574 346.757 32.1574 345.648C32.1574 345.307 32.0828 345.019 31.9334 344.784C31.7948 344.539 31.6028 344.331 31.3574 344.16C31.1121 343.979 30.8294 343.824 30.5094 343.696C30.2001 343.568 29.8694 343.44 29.5174 343.312C29.1121 343.173 28.7281 343.019 28.3654 342.848C28.0028 342.667 27.6881 342.459 27.4214 342.224C27.1548 341.979 26.9414 341.691 26.7814 341.36C26.6321 341.029 26.5574 340.629 26.5574 340.16C26.5574 339.189 26.8881 338.432 27.5494 337.888C28.2108 337.344 29.1228 337.072 30.2854 337.072C30.9574 337.072 31.5654 337.147 32.1094 337.296C32.6641 337.435 33.0694 337.589 33.3254 337.76L32.8294 339.024C32.6054 338.885 32.2694 338.752 31.8214 338.624C31.3841 338.485 30.8721 338.416 30.2854 338.416C29.9868 338.416 29.7094 338.448 29.4534 338.512C29.1974 338.576 28.9734 338.672 28.7814 338.8C28.5894 338.928 28.4348 339.093 28.3174 339.296C28.2108 339.488 28.1574 339.717 28.1574 339.984C28.1574 340.283 28.2161 340.533 28.3334 340.736C28.4508 340.939 28.6161 341.12 28.8294 341.28C29.0428 341.429 29.2881 341.568 29.5654 341.696C29.8534 341.824 30.1681 341.952 30.5094 342.08C30.9894 342.272 31.4268 342.464 31.8214 342.656C32.2268 342.848 32.5734 343.077 32.8614 343.344C33.1601 343.611 33.3894 343.931 33.5494 344.304C33.7094 344.667 33.7894 345.109 33.7894 345.632C33.7894 346.603 33.4321 347.349 32.7174 347.872C32.0134 348.395 31.0161 348.656 29.7254 348.656C29.2881 348.656 28.8828 348.624 28.5094 348.56C28.1468 348.507 27.8214 348.443 27.5334 348.368C27.2454 348.283 26.9948 348.197 26.7814 348.112C26.5788 348.016 26.4188 347.936 26.3014 347.872L26.7654 346.592C27.0108 346.731 27.3841 346.885 27.8854 347.056C28.3868 347.227 29.0001 347.312 29.7254 347.312ZM42.9131 344.256C42.9131 344.917 42.8171 345.515 42.6251 346.048C42.4331 346.581 42.1611 347.04 41.8091 347.424C41.4677 347.808 41.0571 348.107 40.5771 348.32C40.0971 348.523 39.5744 348.624 39.0091 348.624C38.4437 348.624 37.9211 348.523 37.4411 348.32C36.9611 348.107 36.5451 347.808 36.1931 347.424C35.8517 347.04 35.5851 346.581 35.3931 346.048C35.2011 345.515 35.1051 344.917 35.1051 344.256C35.1051 343.605 35.2011 343.013 35.3931 342.48C35.5851 341.936 35.8517 341.472 36.1931 341.088C36.5451 340.704 36.9611 340.411 37.4411 340.208C37.9211 339.995 38.4437 339.888 39.0091 339.888C39.5744 339.888 40.0971 339.995 40.5771 340.208C41.0571 340.411 41.4677 340.704 41.8091 341.088C42.1611 341.472 42.4331 341.936 42.6251 342.48C42.8171 343.013 42.9131 343.605 42.9131 344.256ZM41.3611 344.256C41.3611 343.317 41.1477 342.576 40.7211 342.032C40.3051 341.477 39.7344 341.2 39.0091 341.2C38.2837 341.2 37.7077 341.477 37.2811 342.032C36.8651 342.576 36.6571 343.317 36.6571 344.256C36.6571 345.195 36.8651 345.941 37.2811 346.496C37.7077 347.04 38.2837 347.312 39.0091 347.312C39.7344 347.312 40.3051 347.04 40.7211 346.496C41.1477 345.941 41.3611 345.195 41.3611 344.256ZM49.8706 348.656C49.0919 348.656 48.3826 348.528 47.7426 348.272C47.1026 348.016 46.5532 347.643 46.0946 347.152C45.6359 346.661 45.2786 346.059 45.0226 345.344C44.7772 344.619 44.6546 343.792 44.6546 342.864C44.6546 341.936 44.7932 341.115 45.0706 340.4C45.3586 339.675 45.7426 339.067 46.2226 338.576C46.7026 338.085 47.2626 337.712 47.9026 337.456C48.5426 337.2 49.2252 337.072 49.9506 337.072C50.4092 337.072 50.8199 337.104 51.1826 337.168C51.5559 337.232 51.8759 337.307 52.1426 337.392C52.4199 337.477 52.6439 337.563 52.8146 337.648C52.9852 337.733 53.1026 337.797 53.1666 337.84L52.7186 339.12C52.6226 339.056 52.4839 338.987 52.3026 338.912C52.1212 338.837 51.9132 338.763 51.6786 338.688C51.4546 338.613 51.2039 338.555 50.9266 338.512C50.6599 338.459 50.3879 338.432 50.1106 338.432C49.5239 338.432 48.9959 338.533 48.5266 338.736C48.0572 338.939 47.6572 339.232 47.3266 339.616C46.9959 340 46.7399 340.469 46.5586 341.024C46.3879 341.568 46.3026 342.181 46.3026 342.864C46.3026 343.525 46.3772 344.128 46.5266 344.672C46.6866 345.216 46.9212 345.685 47.2306 346.08C47.5399 346.464 47.9239 346.763 48.3826 346.976C48.8519 347.189 49.3959 347.296 50.0146 347.296C50.7292 347.296 51.3212 347.221 51.7906 347.072C52.2599 346.923 52.6119 346.789 52.8466 346.672L53.2466 347.952C53.1719 348.005 53.0386 348.075 52.8466 348.16C52.6546 348.235 52.4146 348.309 52.1266 348.384C51.8386 348.459 51.5026 348.523 51.1186 348.576C50.7346 348.629 50.3186 348.656 49.8706 348.656ZM65.9756 344.256C65.9756 344.917 65.8796 345.515 65.6876 346.048C65.4956 346.581 65.2236 347.04 64.8716 347.424C64.5302 347.808 64.1196 348.107 63.6396 348.32C63.1596 348.523 62.6369 348.624 62.0716 348.624C61.5062 348.624 60.9836 348.523 60.5036 348.32C60.0236 348.107 59.6076 347.808 59.2556 347.424C58.9142 347.04 58.6476 346.581 58.4556 346.048C58.2636 345.515 58.1676 344.917 58.1676 344.256C58.1676 343.605 58.2636 343.013 58.4556 342.48C58.6476 341.936 58.9142 341.472 59.2556 341.088C59.6076 340.704 60.0236 340.411 60.5036 340.208C60.9836 339.995 61.5062 339.888 62.0716 339.888C62.6369 339.888 63.1596 339.995 63.6396 340.208C64.1196 340.411 64.5302 340.704 64.8716 341.088C65.2236 341.472 65.4956 341.936 65.6876 342.48C65.8796 343.013 65.9756 343.605 65.9756 344.256ZM64.4236 344.256C64.4236 343.317 64.2102 342.576 63.7836 342.032C63.3676 341.477 62.7969 341.2 62.0716 341.2C61.3462 341.2 60.7702 341.477 60.3436 342.032C59.9276 342.576 59.7196 343.317 59.7196 344.256C59.7196 345.195 59.9276 345.941 60.3436 346.496C60.7702 347.04 61.3462 347.312 62.0716 347.312C62.7969 347.312 63.3676 347.04 63.7836 346.496C64.2102 345.941 64.4236 345.195 64.4236 344.256ZM68.0691 348.416V336.256L69.5571 336V340.256C69.8344 340.149 70.1277 340.069 70.4371 340.016C70.7571 339.952 71.0717 339.92 71.3811 339.92C72.0424 339.92 72.5917 340.016 73.0291 340.208C73.4664 340.389 73.8131 340.651 74.0691 340.992C74.3357 341.323 74.5224 341.723 74.6291 342.192C74.7357 342.661 74.7891 343.179 74.7891 343.744V348.416H73.3011V344.064C73.3011 343.552 73.2637 343.115 73.1891 342.752C73.1251 342.389 73.0131 342.096 72.8531 341.872C72.6931 341.648 72.4797 341.488 72.2131 341.392C71.9464 341.285 71.6157 341.232 71.2211 341.232C71.0611 341.232 70.8957 341.243 70.7251 341.264C70.5544 341.285 70.3891 341.312 70.2291 341.344C70.0797 341.365 69.9411 341.392 69.8131 341.424C69.6957 341.456 69.6104 341.483 69.5571 341.504V348.416H68.0691ZM77.2097 340.336C77.551 340.251 78.0044 340.16 78.5697 340.064C79.135 339.968 79.7857 339.92 80.5217 339.92C81.183 339.92 81.7324 340.016 82.1697 340.208C82.607 340.389 82.9537 340.651 83.2097 340.992C83.4764 341.323 83.663 341.723 83.7697 342.192C83.8764 342.661 83.9297 343.179 83.9297 343.744V348.416H82.4417V344.064C82.4417 343.552 82.4044 343.115 82.3297 342.752C82.2657 342.389 82.1537 342.096 81.9937 341.872C81.8337 341.648 81.6204 341.488 81.3537 341.392C81.087 341.285 80.7564 341.232 80.3617 341.232C80.2017 341.232 80.0364 341.237 79.8657 341.248C79.695 341.259 79.5297 341.275 79.3697 341.296C79.2204 341.307 79.0817 341.323 78.9537 341.344C78.8364 341.365 78.751 341.381 78.6977 341.392V348.416H77.2097V340.336ZM85.9332 344.272C85.9332 343.536 86.0399 342.896 86.2532 342.352C86.4665 341.797 86.7492 341.339 87.1012 340.976C87.4532 340.613 87.8585 340.341 88.3172 340.16C88.7759 339.979 89.2452 339.888 89.7252 339.888C90.8452 339.888 91.7039 340.24 92.3012 340.944C92.8985 341.637 93.1972 342.699 93.1972 344.128C93.1972 344.192 93.1972 344.277 93.1972 344.384C93.1972 344.48 93.1919 344.571 93.1812 344.656H87.4852C87.5492 345.52 87.7999 346.176 88.2372 346.624C88.6745 347.072 89.3572 347.296 90.2852 347.296C90.8079 347.296 91.2452 347.253 91.5972 347.168C91.9599 347.072 92.2319 346.981 92.4132 346.896L92.6212 348.144C92.4399 348.24 92.1199 348.341 91.6612 348.448C91.2132 348.555 90.7012 348.608 90.1252 348.608C89.3999 348.608 88.7705 348.501 88.2372 348.288C87.7145 348.064 87.2825 347.76 86.9412 347.376C86.5999 346.992 86.3439 346.539 86.1732 346.016C86.0132 345.483 85.9332 344.901 85.9332 344.272ZM91.6452 343.456C91.6559 342.784 91.4852 342.235 91.1332 341.808C90.7919 341.371 90.3172 341.152 89.7092 341.152C89.3679 341.152 89.0639 341.221 88.7972 341.36C88.5412 341.488 88.3225 341.659 88.1412 341.872C87.9599 342.085 87.8159 342.331 87.7092 342.608C87.6132 342.885 87.5492 343.168 87.5172 343.456H91.6452ZM101.71 347.312C103.331 347.312 104.142 346.757 104.142 345.648C104.142 345.307 104.067 345.019 103.918 344.784C103.779 344.539 103.587 344.331 103.342 344.16C103.096 343.979 102.814 343.824 102.494 343.696C102.184 343.568 101.854 343.44 101.502 343.312C101.096 343.173 100.712 343.019 100.35 342.848C99.9871 342.667 99.6725 342.459 99.4058 342.224C99.1391 341.979 98.9258 341.691 98.7658 341.36C98.6165 341.029 98.5418 340.629 98.5418 340.16C98.5418 339.189 98.8725 338.432 99.5338 337.888C100.195 337.344 101.107 337.072 102.27 337.072C102.942 337.072 103.55 337.147 104.094 337.296C104.648 337.435 105.054 337.589 105.31 337.76L104.814 339.024C104.59 338.885 104.254 338.752 103.806 338.624C103.368 338.485 102.856 338.416 102.27 338.416C101.971 338.416 101.694 338.448 101.438 338.512C101.182 338.576 100.958 338.672 100.766 338.8C100.574 338.928 100.419 339.093 100.302 339.296C100.195 339.488 100.142 339.717 100.142 339.984C100.142 340.283 100.2 340.533 100.318 340.736C100.435 340.939 100.6 341.12 100.814 341.28C101.027 341.429 101.272 341.568 101.55 341.696C101.838 341.824 102.152 341.952 102.494 342.08C102.974 342.272 103.411 342.464 103.806 342.656C104.211 342.848 104.558 343.077 104.846 343.344C105.144 343.611 105.374 343.931 105.534 344.304C105.694 344.667 105.774 345.109 105.774 345.632C105.774 346.603 105.416 347.349 104.702 347.872C103.998 348.395 103 348.656 101.71 348.656C101.272 348.656 100.867 348.624 100.494 348.56C100.131 348.507 99.8058 348.443 99.5178 348.368C99.2298 348.283 98.9791 348.197 98.7658 348.112C98.5631 348.016 98.4031 347.936 98.2858 347.872L98.7498 346.592C98.9951 346.731 99.3685 346.885 99.8698 347.056C100.371 347.227 100.984 347.312 101.71 347.312ZM108.945 340.096H112.097V341.344H108.945V345.184C108.945 345.6 108.977 345.947 109.041 346.224C109.105 346.491 109.201 346.704 109.329 346.864C109.457 347.013 109.617 347.12 109.809 347.184C110.001 347.248 110.225 347.28 110.481 347.28C110.929 347.28 111.287 347.232 111.553 347.136C111.831 347.029 112.023 346.955 112.129 346.912L112.417 348.144C112.268 348.219 112.007 348.309 111.633 348.416C111.26 348.533 110.833 348.592 110.353 348.592C109.788 348.592 109.319 348.523 108.945 348.384C108.583 348.235 108.289 348.016 108.065 347.728C107.841 347.44 107.681 347.088 107.585 346.672C107.5 346.245 107.457 345.755 107.457 345.2V337.776L108.945 337.52V340.096ZM113.371 344.272C113.371 343.536 113.477 342.896 113.691 342.352C113.904 341.797 114.187 341.339 114.539 340.976C114.891 340.613 115.296 340.341 115.755 340.16C116.213 339.979 116.683 339.888 117.163 339.888C118.283 339.888 119.141 340.24 119.739 340.944C120.336 341.637 120.635 342.699 120.635 344.128C120.635 344.192 120.635 344.277 120.635 344.384C120.635 344.48 120.629 344.571 120.619 344.656H114.923C114.987 345.52 115.237 346.176 115.675 346.624C116.112 347.072 116.795 347.296 117.723 347.296C118.245 347.296 118.683 347.253 119.035 347.168C119.397 347.072 119.669 346.981 119.851 346.896L120.059 348.144C119.877 348.24 119.557 348.341 119.099 348.448C118.651 348.555 118.139 348.608 117.563 348.608C116.837 348.608 116.208 348.501 115.675 348.288C115.152 348.064 114.72 347.76 114.379 347.376C114.037 346.992 113.781 346.539 113.611 346.016C113.451 345.483 113.371 344.901 113.371 344.272ZM119.083 343.456C119.093 342.784 118.923 342.235 118.571 341.808C118.229 341.371 117.755 341.152 117.147 341.152C116.805 341.152 116.501 341.221 116.235 341.36C115.979 341.488 115.76 341.659 115.579 341.872C115.397 342.085 115.253 342.331 115.147 342.608C115.051 342.885 114.987 343.168 114.955 343.456H119.083ZM129.396 348.176C129.055 348.261 128.602 348.352 128.036 348.448C127.482 348.544 126.836 348.592 126.1 348.592C125.46 348.592 124.922 348.501 124.484 348.32C124.047 348.128 123.695 347.861 123.428 347.52C123.162 347.179 122.97 346.779 122.852 346.32C122.735 345.851 122.676 345.333 122.676 344.768V340.096H124.164V344.448C124.164 345.461 124.324 346.187 124.644 346.624C124.964 347.061 125.503 347.28 126.26 347.28C126.42 347.28 126.586 347.275 126.756 347.264C126.927 347.253 127.087 347.243 127.236 347.232C127.386 347.211 127.519 347.195 127.636 347.184C127.764 347.163 127.855 347.141 127.908 347.12V340.096H129.396V348.176ZM131.496 344.272C131.496 343.536 131.602 342.896 131.816 342.352C132.029 341.797 132.312 341.339 132.664 340.976C133.016 340.613 133.421 340.341 133.88 340.16C134.338 339.979 134.808 339.888 135.288 339.888C136.408 339.888 137.266 340.24 137.864 340.944C138.461 341.637 138.76 342.699 138.76 344.128C138.76 344.192 138.76 344.277 138.76 344.384C138.76 344.48 138.754 344.571 138.744 344.656H133.048C133.112 345.52 133.362 346.176 133.8 346.624C134.237 347.072 134.92 347.296 135.848 347.296C136.37 347.296 136.808 347.253 137.16 347.168C137.522 347.072 137.794 346.981 137.976 346.896L138.184 348.144C138.002 348.24 137.682 348.341 137.224 348.448C136.776 348.555 136.264 348.608 135.688 348.608C134.962 348.608 134.333 348.501 133.8 348.288C133.277 348.064 132.845 347.76 132.504 347.376C132.162 346.992 131.906 346.539 131.736 346.016C131.576 345.483 131.496 344.901 131.496 344.272ZM137.208 343.456C137.218 342.784 137.048 342.235 136.696 341.808C136.354 341.371 135.88 341.152 135.272 341.152C134.93 341.152 134.626 341.221 134.36 341.36C134.104 341.488 133.885 341.659 133.704 341.872C133.522 342.085 133.378 342.331 133.272 342.608C133.176 342.885 133.112 343.168 133.08 343.456H137.208ZM143.969 339.92C144.097 339.92 144.241 339.931 144.401 339.952C144.572 339.963 144.737 339.984 144.897 340.016C145.057 340.037 145.201 340.064 145.329 340.096C145.468 340.117 145.569 340.139 145.633 340.16L145.377 341.456C145.26 341.413 145.063 341.365 144.785 341.312C144.519 341.248 144.172 341.216 143.745 341.216C143.468 341.216 143.191 341.248 142.913 341.312C142.647 341.365 142.471 341.403 142.385 341.424V348.416H140.897V340.448C141.249 340.32 141.687 340.203 142.209 340.096C142.732 339.979 143.319 339.92 143.969 339.92ZM153.693 348.176C153.352 348.261 152.898 348.352 152.333 348.448C151.778 348.544 151.133 348.592 150.397 348.592C149.757 348.592 149.218 348.501 148.781 348.32C148.344 348.128 147.992 347.861 147.725 347.52C147.458 347.179 147.266 346.779 147.149 346.32C147.032 345.851 146.973 345.333 146.973 344.768V340.096H148.461V344.448C148.461 345.461 148.621 346.187 148.941 346.624C149.261 347.061 149.8 347.28 150.557 347.28C150.717 347.28 150.882 347.275 151.053 347.264C151.224 347.253 151.384 347.243 151.533 347.232C151.682 347.211 151.816 347.195 151.933 347.184C152.061 347.163 152.152 347.141 152.205 347.12V340.096H153.693V348.176ZM156.257 340.336C156.598 340.251 157.051 340.16 157.617 340.064C158.182 339.968 158.833 339.92 159.569 339.92C160.23 339.92 160.779 340.016 161.217 340.208C161.654 340.389 162.001 340.651 162.257 340.992C162.523 341.323 162.71 341.723 162.817 342.192C162.923 342.661 162.977 343.179 162.977 343.744V348.416H161.489V344.064C161.489 343.552 161.451 343.115 161.377 342.752C161.313 342.389 161.201 342.096 161.041 341.872C160.881 341.648 160.667 341.488 160.401 341.392C160.134 341.285 159.803 341.232 159.409 341.232C159.249 341.232 159.083 341.237 158.913 341.248C158.742 341.259 158.577 341.275 158.417 341.296C158.267 341.307 158.129 341.323 158.001 341.344C157.883 341.365 157.798 341.381 157.745 341.392V348.416H156.257V340.336ZM170.66 347.584C170.532 347.669 170.281 347.781 169.908 347.92C169.545 348.048 169.119 348.112 168.628 348.112C168.127 348.112 167.652 348.032 167.204 347.872C166.767 347.712 166.383 347.467 166.052 347.136C165.721 346.795 165.46 346.373 165.268 345.872C165.076 345.371 164.98 344.773 164.98 344.08C164.98 343.472 165.071 342.917 165.252 342.416C165.433 341.904 165.695 341.467 166.036 341.104C166.388 340.731 166.815 340.443 167.316 340.24C167.817 340.027 168.383 339.92 169.012 339.92C169.705 339.92 170.308 339.973 170.82 340.08C171.343 340.176 171.78 340.267 172.132 340.352V347.776C172.132 349.056 171.801 349.984 171.14 350.56C170.479 351.136 169.476 351.424 168.132 351.424C167.609 351.424 167.113 351.381 166.644 351.296C166.185 351.211 165.785 351.109 165.444 350.992L165.716 349.696C166.015 349.813 166.377 349.915 166.804 350C167.241 350.096 167.695 350.144 168.164 350.144C169.049 350.144 169.684 349.968 170.068 349.616C170.463 349.264 170.66 348.704 170.66 347.936V347.584ZM170.644 341.408C170.495 341.365 170.292 341.328 170.036 341.296C169.791 341.253 169.455 341.232 169.028 341.232C168.228 341.232 167.609 341.493 167.172 342.016C166.745 342.539 166.532 343.232 166.532 344.096C166.532 344.576 166.591 344.987 166.708 345.328C166.836 345.669 167.001 345.952 167.204 346.176C167.417 346.4 167.657 346.565 167.924 346.672C168.201 346.779 168.484 346.832 168.772 346.832C169.167 346.832 169.529 346.779 169.86 346.672C170.191 346.555 170.452 346.421 170.644 346.272V341.408Z" fill="#194D25"/>
<path d="M11.7734 374.416C15.0871 374.416 17.7734 371.73 17.7734 368.416C17.7734 365.102 15.0871 362.416 11.7734 362.416C8.45967 362.416 5.77338 365.102 5.77338 368.416C5.77338 371.73 8.45967 374.416 11.7734 374.416Z" fill="#BDD786"/>
<path d="M29.7254 373.312C31.3468 373.312 32.1574 372.757 32.1574 371.648C32.1574 371.307 32.0828 371.019 31.9334 370.784C31.7948 370.539 31.6028 370.331 31.3574 370.16C31.1121 369.979 30.8294 369.824 30.5094 369.696C30.2001 369.568 29.8694 369.44 29.5174 369.312C29.1121 369.173 28.7281 369.019 28.3654 368.848C28.0028 368.667 27.6881 368.459 27.4214 368.224C27.1548 367.979 26.9414 367.691 26.7814 367.36C26.6321 367.029 26.5574 366.629 26.5574 366.16C26.5574 365.189 26.8881 364.432 27.5494 363.888C28.2108 363.344 29.1228 363.072 30.2854 363.072C30.9574 363.072 31.5654 363.147 32.1094 363.296C32.6641 363.435 33.0694 363.589 33.3254 363.76L32.8294 365.024C32.6054 364.885 32.2694 364.752 31.8214 364.624C31.3841 364.485 30.8721 364.416 30.2854 364.416C29.9868 364.416 29.7094 364.448 29.4534 364.512C29.1974 364.576 28.9734 364.672 28.7814 364.8C28.5894 364.928 28.4348 365.093 28.3174 365.296C28.2108 365.488 28.1574 365.717 28.1574 365.984C28.1574 366.283 28.2161 366.533 28.3334 366.736C28.4508 366.939 28.6161 367.12 28.8294 367.28C29.0428 367.429 29.2881 367.568 29.5654 367.696C29.8534 367.824 30.1681 367.952 30.5094 368.08C30.9894 368.272 31.4268 368.464 31.8214 368.656C32.2268 368.848 32.5734 369.077 32.8614 369.344C33.1601 369.611 33.3894 369.931 33.5494 370.304C33.7094 370.667 33.7894 371.109 33.7894 371.632C33.7894 372.603 33.4321 373.349 32.7174 373.872C32.0134 374.395 31.0161 374.656 29.7254 374.656C29.2881 374.656 28.8828 374.624 28.5094 374.56C28.1468 374.507 27.8214 374.443 27.5334 374.368C27.2454 374.283 26.9948 374.197 26.7814 374.112C26.5788 374.016 26.4188 373.936 26.3014 373.872L26.7654 372.592C27.0108 372.731 27.3841 372.885 27.8854 373.056C28.3868 373.227 29.0001 373.312 29.7254 373.312ZM42.9131 370.256C42.9131 370.917 42.8171 371.515 42.6251 372.048C42.4331 372.581 42.1611 373.04 41.8091 373.424C41.4677 373.808 41.0571 374.107 40.5771 374.32C40.0971 374.523 39.5744 374.624 39.0091 374.624C38.4437 374.624 37.9211 374.523 37.4411 374.32C36.9611 374.107 36.5451 373.808 36.1931 373.424C35.8517 373.04 35.5851 372.581 35.3931 372.048C35.2011 371.515 35.1051 370.917 35.1051 370.256C35.1051 369.605 35.2011 369.013 35.3931 368.48C35.5851 367.936 35.8517 367.472 36.1931 367.088C36.5451 366.704 36.9611 366.411 37.4411 366.208C37.9211 365.995 38.4437 365.888 39.0091 365.888C39.5744 365.888 40.0971 365.995 40.5771 366.208C41.0571 366.411 41.4677 366.704 41.8091 367.088C42.1611 367.472 42.4331 367.936 42.6251 368.48C42.8171 369.013 42.9131 369.605 42.9131 370.256ZM41.3611 370.256C41.3611 369.317 41.1477 368.576 40.7211 368.032C40.3051 367.477 39.7344 367.2 39.0091 367.2C38.2837 367.2 37.7077 367.477 37.2811 368.032C36.8651 368.576 36.6571 369.317 36.6571 370.256C36.6571 371.195 36.8651 371.941 37.2811 372.496C37.7077 373.04 38.2837 373.312 39.0091 373.312C39.7344 373.312 40.3051 373.04 40.7211 372.496C41.1477 371.941 41.3611 371.195 41.3611 370.256ZM49.8706 374.656C49.0919 374.656 48.3826 374.528 47.7426 374.272C47.1026 374.016 46.5532 373.643 46.0946 373.152C45.6359 372.661 45.2786 372.059 45.0226 371.344C44.7772 370.619 44.6546 369.792 44.6546 368.864C44.6546 367.936 44.7932 367.115 45.0706 366.4C45.3586 365.675 45.7426 365.067 46.2226 364.576C46.7026 364.085 47.2626 363.712 47.9026 363.456C48.5426 363.2 49.2252 363.072 49.9506 363.072C50.4092 363.072 50.8199 363.104 51.1826 363.168C51.5559 363.232 51.8759 363.307 52.1426 363.392C52.4199 363.477 52.6439 363.563 52.8146 363.648C52.9852 363.733 53.1026 363.797 53.1666 363.84L52.7186 365.12C52.6226 365.056 52.4839 364.987 52.3026 364.912C52.1212 364.837 51.9132 364.763 51.6786 364.688C51.4546 364.613 51.2039 364.555 50.9266 364.512C50.6599 364.459 50.3879 364.432 50.1106 364.432C49.5239 364.432 48.9959 364.533 48.5266 364.736C48.0572 364.939 47.6572 365.232 47.3266 365.616C46.9959 366 46.7399 366.469 46.5586 367.024C46.3879 367.568 46.3026 368.181 46.3026 368.864C46.3026 369.525 46.3772 370.128 46.5266 370.672C46.6866 371.216 46.9212 371.685 47.2306 372.08C47.5399 372.464 47.9239 372.763 48.3826 372.976C48.8519 373.189 49.3959 373.296 50.0146 373.296C50.7292 373.296 51.3212 373.221 51.7906 373.072C52.2599 372.923 52.6119 372.789 52.8466 372.672L53.2466 373.952C53.1719 374.005 53.0386 374.075 52.8466 374.16C52.6546 374.235 52.4146 374.309 52.1266 374.384C51.8386 374.459 51.5026 374.523 51.1186 374.576C50.7346 374.629 50.3186 374.656 49.8706 374.656ZM58.6316 366.336C58.9729 366.251 59.4209 366.16 59.9756 366.064C60.5409 365.968 61.1916 365.92 61.9276 365.92C62.4609 365.92 62.9089 365.995 63.2716 366.144C63.6342 366.283 63.9382 366.491 64.1836 366.768C64.2582 366.715 64.3756 366.64 64.5356 366.544C64.6956 366.448 64.8929 366.357 65.1276 366.272C65.3622 366.176 65.6236 366.096 65.9116 366.032C66.1996 365.957 66.5089 365.92 66.8396 365.92C67.4796 365.92 68.0022 366.016 68.4076 366.208C68.8129 366.389 69.1276 366.651 69.3516 366.992C69.5862 367.333 69.7409 367.739 69.8156 368.208C69.9009 368.677 69.9436 369.189 69.9436 369.744V374.416H68.4556V370.064C68.4556 369.573 68.4289 369.152 68.3756 368.8C68.3329 368.448 68.2422 368.155 68.1036 367.92C67.9756 367.685 67.7942 367.515 67.5596 367.408C67.3356 367.291 67.0422 367.232 66.6796 367.232C66.1782 367.232 65.7622 367.301 65.4316 367.44C65.1116 367.568 64.8929 367.685 64.7756 367.792C64.8609 368.069 64.9249 368.373 64.9676 368.704C65.0102 369.035 65.0316 369.381 65.0316 369.744V374.416H63.5436V370.064C63.5436 369.573 63.5169 369.152 63.4636 368.8C63.4102 368.448 63.3142 368.155 63.1756 367.92C63.0476 367.685 62.8662 367.515 62.6316 367.408C62.4076 367.291 62.1196 367.232 61.7676 367.232C61.6182 367.232 61.4582 367.237 61.2876 367.248C61.1169 367.259 60.9516 367.275 60.7916 367.296C60.6422 367.307 60.5036 367.323 60.3756 367.344C60.2476 367.365 60.1622 367.381 60.1196 367.392V374.416H58.6316V366.336ZM73.9008 374.416H72.4128V366.096H73.9008V374.416ZM73.1488 364.592C72.8821 364.592 72.6528 364.507 72.4608 364.336C72.2795 364.155 72.1888 363.915 72.1888 363.616C72.1888 363.317 72.2795 363.083 72.4608 362.912C72.6528 362.731 72.8821 362.64 73.1488 362.64C73.4155 362.64 73.6395 362.731 73.8208 362.912C74.0128 363.083 74.1088 363.317 74.1088 363.616C74.1088 363.915 74.0128 364.155 73.8208 364.336C73.6395 364.507 73.4155 364.592 73.1488 364.592ZM77.8517 366.096H81.0037V367.344H77.8517V371.184C77.8517 371.6 77.8837 371.947 77.9477 372.224C78.0117 372.491 78.1077 372.704 78.2357 372.864C78.3637 373.013 78.5237 373.12 78.7157 373.184C78.9077 373.248 79.1317 373.28 79.3877 373.28C79.8357 373.28 80.193 373.232 80.4597 373.136C80.737 373.029 80.929 372.955 81.0357 372.912L81.3237 374.144C81.1744 374.219 80.913 374.309 80.5397 374.416C80.1664 374.533 79.7397 374.592 79.2597 374.592C78.6944 374.592 78.225 374.523 77.8517 374.384C77.489 374.235 77.1957 374.016 76.9717 373.728C76.7477 373.44 76.5877 373.088 76.4917 372.672C76.4064 372.245 76.3637 371.755 76.3637 371.2V363.776L77.8517 363.52V366.096ZM94.2963 374.416C94.0616 374.021 93.7896 373.579 93.4803 373.088C93.1816 372.597 92.8563 372.091 92.5043 371.568C92.1523 371.035 91.7843 370.496 91.4003 369.952C91.027 369.408 90.6536 368.885 90.2803 368.384C89.907 367.872 89.5443 367.392 89.1923 366.944C88.8403 366.496 88.515 366.101 88.2163 365.76V374.416H86.6963V363.328H87.9283C88.4296 363.861 88.963 364.485 89.5283 365.2C90.1043 365.904 90.6696 366.635 91.2243 367.392C91.7896 368.139 92.3176 368.875 92.8083 369.6C93.3096 370.325 93.731 370.971 94.0723 371.536V363.328H95.5923V374.416H94.2963ZM104.865 374.176C104.524 374.261 104.07 374.352 103.505 374.448C102.95 374.544 102.305 374.592 101.569 374.592C100.929 374.592 100.39 374.501 99.9529 374.32C99.5156 374.128 99.1636 373.861 98.8969 373.52C98.6303 373.179 98.4383 372.779 98.3209 372.32C98.2036 371.851 98.1449 371.333 98.1449 370.768V366.096H99.6329V370.448C99.6329 371.461 99.7929 372.187 100.113 372.624C100.433 373.061 100.972 373.28 101.729 373.28C101.889 373.28 102.054 373.275 102.225 373.264C102.396 373.253 102.556 373.243 102.705 373.232C102.854 373.211 102.988 373.195 103.105 373.184C103.233 373.163 103.324 373.141 103.377 373.12V366.096H104.865V374.176ZM109.924 374.576C109.007 374.555 108.356 374.357 107.972 373.984C107.588 373.611 107.396 373.029 107.396 372.24V362.256L108.884 362V372C108.884 372.245 108.906 372.448 108.948 372.608C108.991 372.768 109.06 372.896 109.156 372.992C109.252 373.088 109.38 373.163 109.54 373.216C109.7 373.259 109.898 373.296 110.132 373.328L109.924 374.576ZM114.299 374.576C113.382 374.555 112.731 374.357 112.347 373.984C111.963 373.611 111.771 373.029 111.771 372.24V362.256L113.259 362V372C113.259 372.245 113.281 372.448 113.323 372.608C113.366 372.768 113.435 372.896 113.531 372.992C113.627 373.088 113.755 373.163 113.915 373.216C114.075 373.259 114.273 373.296 114.507 373.328L114.299 374.576ZM122.674 366.096C122.258 367.653 121.768 369.147 121.202 370.576C120.648 372.005 120.109 373.285 119.586 374.416H118.242C117.72 373.285 117.176 372.005 116.61 370.576C116.056 369.147 115.57 367.653 115.154 366.096H116.754C116.882 366.619 117.032 367.179 117.202 367.776C117.384 368.363 117.57 368.949 117.762 369.536C117.965 370.112 118.168 370.672 118.37 371.216C118.573 371.76 118.765 372.245 118.946 372.672C119.128 372.245 119.32 371.76 119.522 371.216C119.725 370.672 119.922 370.112 120.114 369.536C120.317 368.949 120.504 368.363 120.674 367.776C120.856 367.179 121.01 366.619 121.138 366.096H122.674ZM123.527 370.272C123.527 369.536 123.634 368.896 123.847 368.352C124.06 367.797 124.343 367.339 124.695 366.976C125.047 366.613 125.452 366.341 125.911 366.16C126.37 365.979 126.839 365.888 127.319 365.888C128.439 365.888 129.298 366.24 129.895 366.944C130.492 367.637 130.791 368.699 130.791 370.128C130.791 370.192 130.791 370.277 130.791 370.384C130.791 370.48 130.786 370.571 130.775 370.656H125.079C125.143 371.52 125.394 372.176 125.831 372.624C126.268 373.072 126.951 373.296 127.879 373.296C128.402 373.296 128.839 373.253 129.191 373.168C129.554 373.072 129.826 372.981 130.007 372.896L130.215 374.144C130.034 374.24 129.714 374.341 129.255 374.448C128.807 374.555 128.295 374.608 127.719 374.608C126.994 374.608 126.364 374.501 125.831 374.288C125.308 374.064 124.876 373.76 124.535 373.376C124.194 372.992 123.938 372.539 123.767 372.016C123.607 371.483 123.527 370.901 123.527 370.272ZM129.239 369.456C129.25 368.784 129.079 368.235 128.727 367.808C128.386 367.371 127.911 367.152 127.303 367.152C126.962 367.152 126.658 367.221 126.391 367.36C126.135 367.488 125.916 367.659 125.735 367.872C125.554 368.085 125.41 368.331 125.303 368.608C125.207 368.885 125.143 369.168 125.111 369.456H129.239ZM136 365.92C136.128 365.92 136.272 365.931 136.432 365.952C136.603 365.963 136.768 365.984 136.928 366.016C137.088 366.037 137.232 366.064 137.36 366.096C137.499 366.117 137.6 366.139 137.664 366.16L137.408 367.456C137.291 367.413 137.094 367.365 136.816 367.312C136.55 367.248 136.203 367.216 135.776 367.216C135.499 367.216 135.222 367.248 134.944 367.312C134.678 367.365 134.502 367.403 134.416 367.424V374.416H132.928V366.448C133.28 366.32 133.718 366.203 134.24 366.096C134.763 365.979 135.35 365.92 136 365.92ZM144.316 373.584C144.188 373.669 143.938 373.781 143.564 373.92C143.202 374.048 142.775 374.112 142.284 374.112C141.783 374.112 141.308 374.032 140.86 373.872C140.423 373.712 140.039 373.467 139.708 373.136C139.378 372.795 139.116 372.373 138.924 371.872C138.732 371.371 138.636 370.773 138.636 370.08C138.636 369.472 138.727 368.917 138.908 368.416C139.09 367.904 139.351 367.467 139.692 367.104C140.044 366.731 140.471 366.443 140.972 366.24C141.474 366.027 142.039 365.92 142.668 365.92C143.362 365.92 143.964 365.973 144.476 366.08C144.999 366.176 145.436 366.267 145.788 366.352V373.776C145.788 375.056 145.458 375.984 144.796 376.56C144.135 377.136 143.132 377.424 141.788 377.424C141.266 377.424 140.77 377.381 140.3 377.296C139.842 377.211 139.442 377.109 139.1 376.992L139.372 375.696C139.671 375.813 140.034 375.915 140.46 376C140.898 376.096 141.351 376.144 141.82 376.144C142.706 376.144 143.34 375.968 143.724 375.616C144.119 375.264 144.316 374.704 144.316 373.936V373.584ZM144.3 367.408C144.151 367.365 143.948 367.328 143.692 367.296C143.447 367.253 143.111 367.232 142.684 367.232C141.884 367.232 141.266 367.493 140.828 368.016C140.402 368.539 140.188 369.232 140.188 370.096C140.188 370.576 140.247 370.987 140.364 371.328C140.492 371.669 140.658 371.952 140.86 372.176C141.074 372.4 141.314 372.565 141.58 372.672C141.858 372.779 142.14 372.832 142.428 372.832C142.823 372.832 143.186 372.779 143.516 372.672C143.847 372.555 144.108 372.421 144.3 372.272V367.408ZM154.974 374.176C154.633 374.261 154.18 374.352 153.614 374.448C153.06 374.544 152.414 374.592 151.678 374.592C151.038 374.592 150.5 374.501 150.062 374.32C149.625 374.128 149.273 373.861 149.006 373.52C148.74 373.179 148.548 372.779 148.43 372.32C148.313 371.851 148.254 371.333 148.254 370.768V366.096H149.742V370.448C149.742 371.461 149.902 372.187 150.222 372.624C150.542 373.061 151.081 373.28 151.838 373.28C151.998 373.28 152.164 373.275 152.334 373.264C152.505 373.253 152.665 373.243 152.814 373.232C152.964 373.211 153.097 373.195 153.214 373.184C153.342 373.163 153.433 373.141 153.486 373.12V366.096H154.974V374.176ZM150.094 364.56C149.849 364.56 149.63 364.475 149.438 364.304C149.257 364.123 149.166 363.893 149.166 363.616C149.166 363.339 149.257 363.115 149.438 362.944C149.63 362.763 149.849 362.672 150.094 362.672C150.34 362.672 150.553 362.763 150.734 362.944C150.926 363.115 151.022 363.339 151.022 363.616C151.022 363.893 150.926 364.123 150.734 364.304C150.553 364.475 150.34 364.56 150.094 364.56ZM153.134 364.56C152.889 364.56 152.67 364.475 152.478 364.304C152.297 364.123 152.206 363.893 152.206 363.616C152.206 363.339 152.297 363.115 152.478 362.944C152.67 362.763 152.889 362.672 153.134 362.672C153.38 362.672 153.593 362.763 153.774 362.944C153.966 363.115 154.062 363.339 154.062 363.616C154.062 363.893 153.966 364.123 153.774 364.304C153.593 364.475 153.38 364.56 153.134 364.56ZM158.93 366.096H162.082V367.344H158.93V371.184C158.93 371.6 158.962 371.947 159.026 372.224C159.09 372.491 159.186 372.704 159.314 372.864C159.442 373.013 159.602 373.12 159.794 373.184C159.986 373.248 160.21 373.28 160.466 373.28C160.914 373.28 161.271 373.232 161.538 373.136C161.815 373.029 162.007 372.955 162.114 372.912L162.402 374.144C162.252 374.219 161.991 374.309 161.618 374.416C161.244 374.533 160.818 374.592 160.338 374.592C159.772 374.592 159.303 374.523 158.93 374.384C158.567 374.235 158.274 374.016 158.05 373.728C157.826 373.44 157.666 373.088 157.57 372.672C157.484 372.245 157.442 371.755 157.442 371.2V363.776L158.93 363.52V366.096ZM170.599 374.176C170.258 374.261 169.805 374.352 169.239 374.448C168.685 374.544 168.039 374.592 167.303 374.592C166.663 374.592 166.125 374.501 165.687 374.32C165.25 374.128 164.898 373.861 164.631 373.52C164.365 373.179 164.173 372.779 164.055 372.32C163.938 371.851 163.879 371.333 163.879 370.768V366.096H165.367V370.448C165.367 371.461 165.527 372.187 165.847 372.624C166.167 373.061 166.706 373.28 167.463 373.28C167.623 373.28 167.789 373.275 167.959 373.264C168.13 373.253 168.29 373.243 168.439 373.232C168.589 373.211 168.722 373.195 168.839 373.184C168.967 373.163 169.058 373.141 169.111 373.12V366.096H170.599V374.176ZM173.163 366.336C173.504 366.251 173.957 366.16 174.523 366.064C175.088 365.968 175.739 365.92 176.475 365.92C177.136 365.92 177.685 366.016 178.123 366.208C178.56 366.389 178.907 366.651 179.163 366.992C179.429 367.323 179.616 367.723 179.723 368.192C179.829 368.661 179.883 369.179 179.883 369.744V374.416H178.395V370.064C178.395 369.552 178.357 369.115 178.283 368.752C178.219 368.389 178.107 368.096 177.947 367.872C177.787 367.648 177.573 367.488 177.307 367.392C177.04 367.285 176.709 367.232 176.315 367.232C176.155 367.232 175.989 367.237 175.819 367.248C175.648 367.259 175.483 367.275 175.323 367.296C175.173 367.307 175.035 367.323 174.907 367.344C174.789 367.365 174.704 367.381 174.651 367.392V374.416H173.163V366.336ZM187.566 373.584C187.438 373.669 187.188 373.781 186.814 373.92C186.452 374.048 186.025 374.112 185.534 374.112C185.033 374.112 184.558 374.032 184.11 373.872C183.673 373.712 183.289 373.467 182.958 373.136C182.628 372.795 182.366 372.373 182.174 371.872C181.982 371.371 181.886 370.773 181.886 370.08C181.886 369.472 181.977 368.917 182.158 368.416C182.34 367.904 182.601 367.467 182.942 367.104C183.294 366.731 183.721 366.443 184.222 366.24C184.724 366.027 185.289 365.92 185.918 365.92C186.612 365.92 187.214 365.973 187.726 366.08C188.249 366.176 188.686 366.267 189.038 366.352V373.776C189.038 375.056 188.708 375.984 188.046 376.56C187.385 377.136 186.382 377.424 185.038 377.424C184.516 377.424 184.02 377.381 183.55 377.296C183.092 377.211 182.692 377.109 182.35 376.992L182.622 375.696C182.921 375.813 183.284 375.915 183.71 376C184.148 376.096 184.601 376.144 185.07 376.144C185.956 376.144 186.59 375.968 186.974 375.616C187.369 375.264 187.566 374.704 187.566 373.936V373.584ZM187.55 367.408C187.401 367.365 187.198 367.328 186.942 367.296C186.697 367.253 186.361 367.232 185.934 367.232C185.134 367.232 184.516 367.493 184.078 368.016C183.652 368.539 183.438 369.232 183.438 370.096C183.438 370.576 183.497 370.987 183.614 371.328C183.742 371.669 183.908 371.952 184.11 372.176C184.324 372.4 184.564 372.565 184.83 372.672C185.108 372.779 185.39 372.832 185.678 372.832C186.073 372.832 186.436 372.779 186.766 372.672C187.097 372.555 187.358 372.421 187.55 372.272V367.408ZM201.799 366.096C201.383 367.653 200.893 369.147 200.327 370.576C199.773 372.005 199.234 373.285 198.711 374.416H197.367C196.845 373.285 196.301 372.005 195.735 370.576C195.181 369.147 194.695 367.653 194.279 366.096H195.879C196.007 366.619 196.157 367.179 196.327 367.776C196.509 368.363 196.695 368.949 196.887 369.536C197.09 370.112 197.293 370.672 197.495 371.216C197.698 371.76 197.89 372.245 198.071 372.672C198.253 372.245 198.445 371.76 198.647 371.216C198.85 370.672 199.047 370.112 199.239 369.536C199.442 368.949 199.629 368.363 199.799 367.776C199.981 367.179 200.135 366.619 200.263 366.096H201.799ZM202.652 370.272C202.652 369.536 202.759 368.896 202.972 368.352C203.185 367.797 203.468 367.339 203.82 366.976C204.172 366.613 204.577 366.341 205.036 366.16C205.495 365.979 205.964 365.888 206.444 365.888C207.564 365.888 208.423 366.24 209.02 366.944C209.617 367.637 209.916 368.699 209.916 370.128C209.916 370.192 209.916 370.277 209.916 370.384C209.916 370.48 209.911 370.571 209.9 370.656H204.204C204.268 371.52 204.519 372.176 204.956 372.624C205.393 373.072 206.076 373.296 207.004 373.296C207.527 373.296 207.964 373.253 208.316 373.168C208.679 373.072 208.951 372.981 209.132 372.896L209.34 374.144C209.159 374.24 208.839 374.341 208.38 374.448C207.932 374.555 207.42 374.608 206.844 374.608C206.119 374.608 205.489 374.501 204.956 374.288C204.433 374.064 204.001 373.76 203.66 373.376C203.319 372.992 203.063 372.539 202.892 372.016C202.732 371.483 202.652 370.901 202.652 370.272ZM208.364 369.456C208.375 368.784 208.204 368.235 207.852 367.808C207.511 367.371 207.036 367.152 206.428 367.152C206.087 367.152 205.783 367.221 205.516 367.36C205.26 367.488 205.041 367.659 204.86 367.872C204.679 368.085 204.535 368.331 204.428 368.608C204.332 368.885 204.268 369.168 204.236 369.456H208.364ZM215.125 365.92C215.253 365.92 215.397 365.931 215.557 365.952C215.728 365.963 215.893 365.984 216.053 366.016C216.213 366.037 216.357 366.064 216.485 366.096C216.624 366.117 216.725 366.139 216.789 366.16L216.533 367.456C216.416 367.413 216.219 367.365 215.941 367.312C215.675 367.248 215.328 367.216 214.901 367.216C214.624 367.216 214.347 367.248 214.069 367.312C213.803 367.365 213.627 367.403 213.541 367.424V374.416H212.053V366.448C212.405 366.32 212.843 366.203 213.365 366.096C213.888 365.979 214.475 365.92 215.125 365.92ZM218.225 366.336C218.567 366.251 219.015 366.16 219.569 366.064C220.135 365.968 220.785 365.92 221.521 365.92C222.055 365.92 222.503 365.995 222.865 366.144C223.228 366.283 223.532 366.491 223.777 366.768C223.852 366.715 223.969 366.64 224.129 366.544C224.289 366.448 224.487 366.357 224.721 366.272C224.956 366.176 225.217 366.096 225.505 366.032C225.793 365.957 226.103 365.92 226.433 365.92C227.073 365.92 227.596 366.016 228.001 366.208C228.407 366.389 228.721 366.651 228.945 366.992C229.18 367.333 229.335 367.739 229.409 368.208C229.495 368.677 229.537 369.189 229.537 369.744V374.416H228.049V370.064C228.049 369.573 228.023 369.152 227.969 368.8C227.927 368.448 227.836 368.155 227.697 367.92C227.569 367.685 227.388 367.515 227.153 367.408C226.929 367.291 226.636 367.232 226.273 367.232C225.772 367.232 225.356 367.301 225.025 367.44C224.705 367.568 224.487 367.685 224.369 367.792C224.455 368.069 224.519 368.373 224.561 368.704C224.604 369.035 224.625 369.381 224.625 369.744V374.416H223.137V370.064C223.137 369.573 223.111 369.152 223.057 368.8C223.004 368.448 222.908 368.155 222.769 367.92C222.641 367.685 222.46 367.515 222.225 367.408C222.001 367.291 221.713 367.232 221.361 367.232C221.212 367.232 221.052 367.237 220.881 367.248C220.711 367.259 220.545 367.275 220.385 367.296C220.236 367.307 220.097 367.323 219.969 367.344C219.841 367.365 219.756 367.381 219.713 367.392V374.416H218.225V366.336ZM231.543 370.272C231.543 369.536 231.649 368.896 231.863 368.352C232.076 367.797 232.359 367.339 232.711 366.976C233.063 366.613 233.468 366.341 233.927 366.16C234.385 365.979 234.855 365.888 235.335 365.888C236.455 365.888 237.313 366.24 237.911 366.944C238.508 367.637 238.807 368.699 238.807 370.128C238.807 370.192 238.807 370.277 238.807 370.384C238.807 370.48 238.801 370.571 238.791 370.656H233.095C233.159 371.52 233.409 372.176 233.847 372.624C234.284 373.072 234.967 373.296 235.895 373.296C236.417 373.296 236.855 373.253 237.207 373.168C237.569 373.072 237.841 372.981 238.023 372.896L238.231 374.144C238.049 374.24 237.729 374.341 237.271 374.448C236.823 374.555 236.311 374.608 235.735 374.608C235.009 374.608 234.38 374.501 233.847 374.288C233.324 374.064 232.892 373.76 232.551 373.376C232.209 372.992 231.953 372.539 231.783 372.016C231.623 371.483 231.543 370.901 231.543 370.272ZM237.255 369.456C237.265 368.784 237.095 368.235 236.743 367.808C236.401 367.371 235.927 367.152 235.319 367.152C234.977 367.152 234.673 367.221 234.407 367.36C234.151 367.488 233.932 367.659 233.751 367.872C233.569 368.085 233.425 368.331 233.319 368.608C233.223 368.885 233.159 369.168 233.127 369.456H237.255ZM242.432 374.416H240.944V366.096H242.432V374.416ZM241.68 364.592C241.413 364.592 241.184 364.507 240.992 364.336C240.811 364.155 240.72 363.915 240.72 363.616C240.72 363.317 240.811 363.083 240.992 362.912C241.184 362.731 241.413 362.64 241.68 362.64C241.947 362.64 242.171 362.731 242.352 362.912C242.544 363.083 242.64 363.317 242.64 363.616C242.64 363.915 242.544 364.155 242.352 364.336C242.171 364.507 241.947 364.592 241.68 364.592ZM250.367 367.856C250.186 367.707 249.924 367.563 249.583 367.424C249.242 367.285 248.868 367.216 248.463 367.216C248.036 367.216 247.668 367.296 247.359 367.456C247.06 367.605 246.815 367.819 246.623 368.096C246.431 368.363 246.292 368.683 246.207 369.056C246.122 369.429 246.079 369.829 246.079 370.256C246.079 371.227 246.319 371.979 246.799 372.512C247.279 373.035 247.919 373.296 248.719 373.296C249.124 373.296 249.46 373.28 249.727 373.248C250.004 373.205 250.218 373.163 250.367 373.12V367.856ZM250.367 362.256L251.855 362V374.176C251.514 374.272 251.076 374.368 250.543 374.464C250.01 374.56 249.396 374.608 248.703 374.608C248.063 374.608 247.487 374.507 246.975 374.304C246.463 374.101 246.026 373.813 245.663 373.44C245.3 373.067 245.018 372.613 244.815 372.08C244.623 371.536 244.527 370.928 244.527 370.256C244.527 369.616 244.607 369.029 244.767 368.496C244.938 367.963 245.183 367.504 245.503 367.12C245.823 366.736 246.212 366.437 246.671 366.224C247.14 366.011 247.674 365.904 248.271 365.904C248.751 365.904 249.172 365.968 249.535 366.096C249.908 366.224 250.186 366.347 250.367 366.464V362.256ZM253.949 370.272C253.949 369.536 254.055 368.896 254.269 368.352C254.482 367.797 254.765 367.339 255.117 366.976C255.469 366.613 255.874 366.341 256.333 366.16C256.791 365.979 257.261 365.888 257.741 365.888C258.861 365.888 259.719 366.24 260.317 366.944C260.914 367.637 261.213 368.699 261.213 370.128C261.213 370.192 261.213 370.277 261.213 370.384C261.213 370.48 261.207 370.571 261.197 370.656H255.501C255.565 371.52 255.815 372.176 256.253 372.624C256.69 373.072 257.373 373.296 258.301 373.296C258.823 373.296 259.261 373.253 259.613 373.168C259.975 373.072 260.247 372.981 260.429 372.896L260.637 374.144C260.455 374.24 260.135 374.341 259.677 374.448C259.229 374.555 258.717 374.608 258.141 374.608C257.415 374.608 256.786 374.501 256.253 374.288C255.73 374.064 255.298 373.76 254.957 373.376C254.615 372.992 254.359 372.539 254.189 372.016C254.029 371.483 253.949 370.901 253.949 370.272ZM259.661 369.456C259.671 368.784 259.501 368.235 259.149 367.808C258.807 367.371 258.333 367.152 257.725 367.152C257.383 367.152 257.079 367.221 256.813 367.36C256.557 367.488 256.338 367.659 256.157 367.872C255.975 368.085 255.831 368.331 255.725 368.608C255.629 368.885 255.565 369.168 255.533 369.456H259.661ZM263.35 366.336C263.692 366.251 264.145 366.16 264.71 366.064C265.276 365.968 265.926 365.92 266.662 365.92C267.324 365.92 267.873 366.016 268.31 366.208C268.748 366.389 269.094 366.651 269.35 366.992C269.617 367.323 269.804 367.723 269.91 368.192C270.017 368.661 270.07 369.179 270.07 369.744V374.416H268.582V370.064C268.582 369.552 268.545 369.115 268.47 368.752C268.406 368.389 268.294 368.096 268.134 367.872C267.974 367.648 267.761 367.488 267.494 367.392C267.228 367.285 266.897 367.232 266.502 367.232C266.342 367.232 266.177 367.237 266.006 367.248C265.836 367.259 265.67 367.275 265.51 367.296C265.361 367.307 265.222 367.323 265.094 367.344C264.977 367.365 264.892 367.381 264.838 367.392V374.416H263.35V366.336Z" fill="#194D25"/>
<path d="M179.77 100.416L174.77 103.303V100.916H150.27V99.916H174.77V97.5293L179.77 100.416Z" fill="#194D25"/>
<path d="M174.77 113.416L169.77 116.303V113.916H145.77V112.916H169.77V110.529L174.77 113.416Z" fill="#194D25"/>
<path d="M170.77 126.416L165.77 129.303V126.916H141.77V125.916H165.77V123.529L170.77 126.416Z" fill="#194D25"/>
<path d="M166.073 139.416L161.073 142.303V139.916H136.77V138.916H161.073V136.529L166.073 139.416Z" fill="#194D25"/>
<path d="M161.77 152.416L156.77 155.303V152.916H130.27V151.916H156.77V149.529L161.77 152.416Z" fill="#194D25"/>
<path d="M156.984 165.416L151.984 168.303V165.916H125.77V164.916H151.984V162.529L156.984 165.416Z" fill="#194D25"/>
<path d="M152.77 178.416L147.77 181.303V178.916H120.77V177.916H147.77V175.529L152.77 178.416Z" fill="#194D25"/>
<path d="M148.27 191.416L143.27 194.303V191.916H116.27V190.916H143.27V188.529L148.27 191.416Z" fill="#194D25"/>
<path d="M143.77 204.416L138.77 207.303V204.916H111.06V203.916H138.77V201.529L143.77 204.416Z" fill="#194D25"/>
<path d="M139.27 217.416L134.27 220.303V217.916H105.77V216.916H134.27V214.529L139.27 217.416Z" fill="#194D25"/>
<path d="M130.77 230.416L125.77 233.303V230.916H100.77V229.916H125.77V227.529L130.77 230.416Z" fill="#194D25"/>
<path d="M114.27 243.416L109.27 246.303V243.916H96.2701V242.916H109.27V240.529L114.27 243.416Z" fill="#194D25"/>
<path d="M11.5469 10.416H6.77344V275.416H4.77344V10.416H0L5.77344 0.416016L11.5469 10.416Z" fill="#194D25"/>
</g>
<defs>
<clipPath id="clip0_2684_2672">
<rect width="294" height="378" fill="white"/>
</clipPath>
</defs>
</svg>
