<?xml version="1.0" encoding="UTF-8" standalone="no"?>
<svg
   width="100%"
   height="100%"
   viewBox="0 0 294 294"
   fill="none"
   version="1.1"
   id="svg1"
   xmlns="http://www.w3.org/2000/svg"
   xmlns:svg="http://www.w3.org/2000/svg">
  <defs
     id="defs1" />
  <g
     id="Group 6">
    <path
       id="Market price line"
       d="M229.511 205.75L230.175 230.975H240.801L241.464 254.871H252.139L252.034 265.794L263.418 266.199V270.25H272.21V267.25H279.773C280.464 267.25 281.023 267.81 281.023 268.5C281.023 269.19 280.464 269.75 279.773 269.75H274.71V272.75H260.918V268.611L249.512 268.206L249.614 257.371H239.033L238.369 233.475H227.74L227.076 208.25H218.251V246.75H207.624V261.354H196.332V268.655H185.041V279.25H173.749V287.25H162.457V293.25H148.666V287.25H137.374V273.966H126.746V264.673H115.455V256.707H104.163V231.482H93.5361V226.173H84.0801V244.095H72.7881V254.052H62.1611V256.707H50.8691V262.681H39.5771V266.664H28.2861V270.646H14.4941V267.327H9.27344C8.58308 267.327 8.02344 266.768 8.02344 266.077C8.02367 265.387 8.58323 264.827 9.27344 264.827H16.9941V268.146H25.7861V264.164H37.0771V260.181H48.3691V254.207H59.6611V251.552H70.2881V241.595H81.5801V223.673H96.0361V228.982H106.663V254.207H117.955V262.173H129.246V271.466H139.874V284.75H151.166V290.75H159.957V284.75H171.249V276.75H182.541V266.155H193.832V258.854H205.124V244.25H215.751V205.75H229.511Z"
       fill="#E056F5" />
    <path
       id="Soc without controller"
       d="M49.333 266.637C50.0108 266.258 50.8567 266.46 51.293 267.083L51.374 267.214L52.6533 269.5H55.7109C56.5394 269.5 57.2109 270.172 57.2109 271C57.2109 271.828 56.5394 272.5 55.7109 272.5H51.7734C51.2981 272.5 50.8551 272.275 50.5742 271.901L50.4639 271.732L48.7559 268.678C48.3516 267.955 48.6101 267.041 49.333 266.637ZM71.4609 269.5C72.2894 269.5 72.9609 270.172 72.9609 271C72.9609 271.828 72.2894 272.5 71.4609 272.5H63.5859C62.7575 272.5 62.0859 271.828 62.0859 271C62.0859 270.172 62.7575 269.5 63.5859 269.5H71.4609ZM83.1494 267.161C83.4923 266.482 84.3003 266.161 85.0254 266.439C85.7987 266.737 86.1847 267.604 85.8877 268.377L84.6738 271.538C84.4512 272.118 83.8943 272.5 83.2734 272.5H79.3359C78.5075 272.5 77.8359 271.828 77.8359 271C77.8359 270.172 78.5075 269.5 79.3359 269.5H82.2432L83.0879 267.302L83.1494 267.161ZM42.5 254.419C43.1777 254.04 44.0228 254.244 44.459 254.866L44.541 254.996L47.958 261.104C48.3624 261.827 48.1038 262.742 47.3809 263.146C46.703 263.526 45.8571 263.322 45.4209 262.699L45.3389 262.569L41.9228 256.461C41.5184 255.738 41.777 254.823 42.5 254.419ZM87.9443 254.658C88.2415 253.885 89.1096 253.499 89.8828 253.796C90.6561 254.093 91.0422 254.961 90.7451 255.734L88.3164 262.056C88.0193 262.829 87.1513 263.215 86.3779 262.918C85.6049 262.621 85.2186 261.753 85.5156 260.979L87.9443 254.658ZM37.708 242.779L41.124 248.888C41.5284 249.611 41.2699 250.524 40.5469 250.929C39.8692 251.308 39.0242 251.105 38.5879 250.482L38.5059 250.353L35.0889 244.243L37.708 242.779ZM92.8018 242.016C93.0989 241.242 93.9669 240.856 94.7402 241.153C95.5134 241.45 95.8996 242.319 95.6025 243.092L93.1738 249.413C92.8767 250.186 92.0086 250.572 91.2354 250.275C90.4621 249.978 90.076 249.11 90.373 248.337L92.8018 242.016ZM35.666 242.202C36.389 241.798 37.3036 242.056 37.708 242.779L35.0889 244.243C34.6849 243.52 34.9433 242.606 35.666 242.202ZM34.291 236.671C34.6952 237.394 34.4368 238.308 33.7139 238.712C32.9909 239.116 32.0772 238.858 31.6728 238.135L34.291 236.671ZM30.874 230.562L34.291 236.671L31.6728 238.135L28.2559 232.026L30.874 230.562ZM97.6592 229.373C97.9562 228.6 98.8234 228.214 99.5967 228.511C100.37 228.808 100.756 229.675 100.459 230.448L98.0312 236.771C97.7341 237.544 96.866 237.93 96.0928 237.633C95.3195 237.336 94.9334 236.468 95.2305 235.694L97.6592 229.373ZM28.833 229.985C29.5559 229.581 30.4695 229.839 30.874 230.562L28.2559 232.026C27.8515 231.303 28.11 230.39 28.833 229.985ZM22 217.768C22.6777 217.389 23.5228 217.592 23.959 218.215L24.041 218.345L27.458 224.453C27.8624 225.176 27.6039 226.091 26.8809 226.495C26.203 226.874 25.3572 226.671 24.9209 226.048L24.8389 225.918L21.4228 219.81C21.0184 219.087 21.277 218.172 22 217.768ZM100.088 223.052L102.888 224.127C102.591 224.9 101.723 225.286 100.95 224.989C100.177 224.692 99.791 223.825 100.088 223.052ZM102.516 216.729C102.813 215.956 103.681 215.57 104.454 215.867C105.227 216.164 105.613 217.032 105.316 217.806L102.888 224.127L100.088 223.052L102.516 216.729ZM15.166 205.551C15.8437 205.172 16.6896 205.375 17.126 205.997L17.208 206.128L20.624 212.236C21.0284 212.959 20.7699 213.873 20.0469 214.277C19.3692 214.656 18.5242 214.453 18.0879 213.831L18.0059 213.7L14.5889 207.592C14.1848 206.869 14.4433 205.955 15.166 205.551ZM107.373 204.087C107.67 203.314 108.538 202.928 109.312 203.225C110.085 203.522 110.471 204.39 110.174 205.163L107.745 211.484C107.448 212.258 106.58 212.644 105.807 212.347C105.033 212.049 104.647 211.181 104.944 210.408L107.373 204.087ZM10.041 196.388C10.7189 196.009 11.5647 196.212 12.001 196.835L12.083 196.965L13.791 200.019C14.1954 200.742 13.9369 201.656 13.2139 202.061C12.4909 202.465 11.5772 202.206 11.1728 201.483L9.46386 198.43C9.05948 197.707 9.31806 196.792 10.041 196.388ZM112.23 191.444C112.528 190.671 113.396 190.285 114.169 190.582C114.942 190.879 115.328 191.747 115.031 192.521L112.603 198.842C112.305 199.615 111.437 200.001 110.664 199.704C109.891 199.407 109.505 198.539 109.802 197.766L112.23 191.444ZM117.149 178.661C117.492 177.982 118.3 177.661 119.025 177.939C119.799 178.237 120.185 179.104 119.888 179.877L117.459 186.198L117.397 186.339C117.055 187.018 116.247 187.339 115.521 187.061C114.748 186.763 114.362 185.896 114.659 185.123L117.088 178.802L117.149 178.661ZM121.944 166.158C122.241 165.385 123.11 164.999 123.883 165.296C124.656 165.593 125.042 166.461 124.745 167.234L122.316 173.556C122.019 174.329 121.151 174.715 120.378 174.418C119.605 174.121 119.219 173.253 119.516 172.479L121.944 166.158ZM126.802 153.516C127.099 152.742 127.967 152.356 128.74 152.653C129.513 152.951 129.9 153.819 129.603 154.592L127.174 160.913C126.877 161.686 126.009 162.072 125.235 161.775C124.462 161.478 124.076 160.61 124.373 159.837L126.802 153.516ZM131.659 140.873C131.956 140.1 132.823 139.714 133.597 140.011C134.37 140.308 134.756 141.175 134.459 141.948L132.031 148.271C131.734 149.044 130.866 149.43 130.093 149.133C129.319 148.836 128.933 147.968 129.23 147.194L131.659 140.873ZM134.088 134.552L136.888 135.627C136.591 136.4 135.723 136.786 134.95 136.489C134.177 136.192 133.791 135.325 134.088 134.552ZM136.516 128.229C136.813 127.456 137.681 127.07 138.454 127.367C139.227 127.664 139.613 128.532 139.316 129.306L136.888 135.627L134.088 134.552L136.516 128.229ZM141.373 115.587C141.67 114.814 142.538 114.428 143.312 114.725C144.085 115.022 144.471 115.89 144.174 116.663L141.745 122.984C141.448 123.758 140.58 124.144 139.807 123.847C139.033 123.549 138.647 122.681 138.944 121.908L141.373 115.587ZM146.23 102.944C146.528 102.171 147.396 101.785 148.169 102.082C148.942 102.379 149.328 103.247 149.031 104.021L146.603 110.342C146.305 111.115 145.437 111.501 144.664 111.204C143.891 110.907 143.505 110.039 143.802 109.266L146.23 102.944ZM154.898 92.5C155.727 92.5 156.398 93.1716 156.398 94C156.398 94.8284 155.727 95.5 154.898 95.5H152.304L151.459 97.6982L151.397 97.8389C151.055 98.5176 150.247 98.839 149.521 98.5605C148.748 98.2635 148.362 97.3963 148.659 96.623L149.873 93.4619L149.919 93.3555C150.166 92.8361 150.691 92.5 151.273 92.5H154.898ZM169.398 92.5C170.227 92.5 170.898 93.1716 170.898 94C170.898 94.8284 170.227 95.5 169.398 95.5H162.148C161.32 95.5 160.648 94.8284 160.648 94C160.648 93.1716 161.32 92.5 162.148 92.5H169.398ZM183.898 92.5C184.727 92.5 185.398 93.1716 185.398 94C185.398 94.8284 184.727 95.5 183.898 95.5H176.648C175.82 95.5 175.148 94.8284 175.148 94C175.148 93.1716 175.82 92.5 176.648 92.5H183.898ZM198.398 92.5C199.227 92.5 199.898 93.1716 199.898 94C199.898 94.8284 199.227 95.5 198.398 95.5H191.148C190.32 95.5 189.648 94.8284 189.648 94C189.648 93.1716 190.32 92.5 191.148 92.5H198.398ZM212.898 92.5C213.727 92.5 214.398 93.1716 214.398 94C214.398 94.8284 213.727 95.5 212.898 95.5H205.648C204.82 95.5 204.148 94.8284 204.148 94C204.148 93.1716 204.82 92.5 205.648 92.5H212.898ZM227.398 92.5C228.227 92.5 228.898 93.1716 228.898 94C228.898 94.8284 228.227 95.5 227.398 95.5H220.148C219.32 95.5 218.648 94.8284 218.648 94C218.648 93.1716 219.32 92.5 220.148 92.5H227.398ZM241.898 92.5C242.727 92.5 243.398 93.1716 243.398 94C243.398 94.8284 242.727 95.5 241.898 95.5H234.648C233.82 95.5 233.148 94.8284 233.148 94C233.148 93.1716 233.82 92.5 234.648 92.5H241.898ZM252.773 92.5C253.602 92.5 254.273 93.1716 254.273 94C254.273 94.8284 253.602 95.5 252.773 95.5H249.148C248.32 95.5 247.648 94.8284 247.648 94C247.648 93.1716 248.32 92.5 249.148 92.5H252.773Z"
       fill="#B6B6B6" />
    <path
       id="SoC with controller"
       opacity="0.63"
       d="M253.273 92.5C254.102 92.5 254.773 93.1716 254.773 94C254.773 94.8284 254.102 95.5 253.273 95.5H184.342L138.924 226.984C138.833 227.248 138.67 227.482 138.453 227.658L83.7197 272.164C83.4523 272.381 83.1181 272.5 82.7734 272.5H51.7734C51.2296 272.5 50.7288 272.205 50.4639 271.73L9.46387 198.23L9.39551 198.093C9.09426 197.395 9.36478 196.569 10.043 196.19C10.7211 195.812 11.5663 196.016 12.002 196.639L12.083 196.77L52.6533 269.5H82.2402L136.229 225.599L181.855 93.5107L181.899 93.3994C182.136 92.8567 182.674 92.5 183.273 92.5H253.273Z"
       fill="#BDD786" />
    <path
       id="PV production"
       d="M174.874 105.5C187.928 105.5 196.422 112.381 202.022 120.053C207.549 127.623 210.44 136.278 212.063 139.682L212.25 140.096C212.698 141.135 213.221 142.679 213.807 144.561C214.484 146.74 215.272 149.466 216.153 152.577C217.918 158.812 220.062 166.613 222.479 174.821C227.331 191.295 233.207 209.126 239.156 218.928L240.305 220.841C246.066 230.542 252.118 242.229 257.117 251.648C259.793 256.69 262.159 261.068 264.031 264.181C264.971 265.743 265.759 266.941 266.381 267.734C266.695 268.135 266.928 268.384 267.085 268.519C267.094 268.527 267.104 268.532 267.112 268.539C267.777 268.693 268.273 269.288 268.273 270C268.273 270.828 267.602 271.5 266.773 271.5C266.014 271.5 265.429 271.051 265.127 270.791C264.757 270.472 264.384 270.051 264.019 269.584C263.281 268.642 262.417 267.317 261.46 265.727C259.54 262.534 257.138 258.087 254.467 253.055C249.441 243.585 243.437 231.99 237.729 222.379L236.592 220.484C230.404 210.29 224.431 192.067 219.602 175.669C217.178 167.441 215.024 159.6 213.267 153.395C212.386 150.286 211.608 147.591 210.942 145.451C210.352 143.553 209.871 142.159 209.505 141.306L209.355 140.973C207.511 137.104 204.91 129.096 199.6 121.821C194.363 114.648 186.674 108.5 174.874 108.5C166.106 108.5 159.8 112.124 154.743 117.948C149.626 123.843 145.812 131.966 142.162 140.895C129.142 172.744 121.797 195.539 115.618 215.307C111.982 226.94 101.573 245.118 92.0498 258.668L91.1318 259.965C88.0082 264.337 84.8572 267.176 82.4609 268.931C81.2636 269.808 80.2557 270.414 79.5352 270.805C79.175 271 78.8862 271.142 78.6816 271.237C78.5795 271.285 78.4983 271.321 78.4395 271.347C78.4101 271.359 78.3862 271.369 78.3682 271.377C78.3592 271.381 78.3518 271.384 78.3457 271.387C78.3428 271.388 78.3401 271.389 78.3379 271.39C78.3367 271.39 78.3349 271.391 78.334 271.392H78.333C78.3316 271.39 78.3103 271.339 77.7734 270C77.7461 269.932 77.72 269.867 77.6953 269.806L78.332 271.393C77.5632 271.701 76.6893 271.327 76.3809 270.559C76.073 269.791 76.4448 268.919 77.2109 268.609H77.21C77.2099 268.609 77.2106 268.609 77.2119 268.608C77.2129 268.608 77.2139 268.608 77.2148 268.607H77.2158C77.2217 268.605 77.2321 268.6 77.2471 268.594C77.2804 268.579 77.336 268.555 77.4121 268.52C77.5642 268.448 77.7993 268.334 78.1045 268.168C78.7149 267.837 79.6076 267.302 80.6885 266.511C82.8494 264.928 85.7675 262.312 88.6904 258.221L89.6035 256.933C99.06 243.476 109.257 225.601 112.755 214.411C118.945 194.605 126.32 171.72 139.385 139.76C143.038 130.824 147.005 122.285 152.478 115.981C158.011 109.609 165.104 105.5 174.874 105.5Z"
       fill="#FCE487" />
    <path
       id="Xaxis"
       d="M283.734 281.704L283.768 276.929L5.76637 275L5.78019 273L283.781 274.93L283.813 270.157L293.773 276L283.734 281.704Z"
       fill="#194D25" />
    <path
       id="Y axis"
       d="M11.5469 10H6.77344V275H4.77344V10H0L5.77344 0L11.5469 10Z"
       fill="#194D25" />
    <g
       id="Arrows">
      <path
         id="Arrow"
         d="M179.77 100L174.77 102.887V100.5H150.27V99.5H174.77V97.1133L179.77 100Z"
         fill="#194D25" />
      <path
         id="Arrow_2"
         d="M174.77 113L169.77 115.887V113.5H145.77V112.5H169.77V110.113L174.77 113Z"
         fill="#194D25" />
      <path
         id="Arrow_3"
         d="M170.77 126L165.77 128.887V126.5H141.77V125.5H165.77V123.113L170.77 126Z"
         fill="#194D25" />
      <path
         id="Arrow_4"
         d="M166.073 139L161.073 141.887V139.5H136.77V138.5H161.073V136.113L166.073 139Z"
         fill="#194D25" />
      <path
         id="Arrow_5"
         d="M161.77 152L156.77 154.887V152.5H130.27V151.5H156.77V149.113L161.77 152Z"
         fill="#194D25" />
      <path
         id="Arrow_6"
         d="M156.984 165L151.984 167.887V165.5H125.77V164.5H151.984V162.113L156.984 165Z"
         fill="#194D25" />
      <path
         id="Arrow_7"
         d="M152.77 178L147.77 180.887V178.5H120.77V177.5H147.77V175.113L152.77 178Z"
         fill="#194D25" />
      <path
         id="Arrow_8"
         d="M148.27 191L143.27 193.887V191.5H116.27V190.5H143.27V188.113L148.27 191Z"
         fill="#194D25" />
      <path
         id="Arrow_9"
         d="M143.77 204L138.77 206.887V204.5H111.06V203.5H138.77V201.113L143.77 204Z"
         fill="#194D25" />
      <path
         id="Arrow_10"
         d="M139.27 217L134.27 219.887V217.5H105.77V216.5H134.27V214.113L139.27 217Z"
         fill="#194D25" />
      <path
         id="Arrow_11"
         d="M130.77 230L125.77 232.887V230.5H100.77V229.5H125.77V227.113L130.77 230Z"
         fill="#194D25" />
      <path
         id="Arrow_12"
         d="M114.27 243L109.27 245.887V243.5H96.2701V242.5H109.27V240.113L114.27 243Z"
         fill="#194D25" />
      <path
         id="Arrow_13"
         d="M182.27 85.026L172.27 90.7991L172.269 86.0246L153.77 86.0263C153.218 86.0263 152.77 85.5785 152.77 85.0264C152.77 84.4741 153.218 84.0263 153.77 84.0263L172.27 84.0256L172.27 79.2522L182.27 85.026Z"
         fill="#194D25" />
    </g>
  </g>
</svg>
