<?xml version="1.0" encoding="UTF-8"?>
<svg xmlns="http://www.w3.org/2000/svg" xmlns:xlink="http://www.w3.org/1999/xlink" width="700px" height="700px" viewBox="0 0 700 700" version="1.1">
<defs>
<filter id="alpha" filterUnits="objectBoundingBox" x="0%" y="0%" width="100%" height="100%">
  <feColorMatrix type="matrix" in="SourceGraphic" values="0 0 0 0 1 0 0 0 0 1 0 0 0 0 1 0 0 0 1 0"/>
</filter>
<mask id="mask0">
  <g filter="url(#alpha)">
<rect x="0" y="0" width="700" height="700" style="fill:rgb(0%,0%,0%);fill-opacity:0.631373;stroke:none;"/>
  </g>
</mask>
<clipPath id="clip1">
  <rect x="0" y="0" width="700" height="700"/>
</clipPath>
<g id="surface5" clip-path="url(#clip1)">
<path style=" stroke:none;fill-rule:nonzero;fill:rgb(74.117649%,84.313726%,52.549022%);fill-opacity:1;" d="M 603.03125 220.238281 C 605.003906 220.238281 606.601562 221.835938 606.601562 223.808594 C 606.601562 225.78125 605.003906 227.382812 603.03125 227.382812 L 438.910156 227.382812 L 330.769531 540.4375 C 330.554688 541.066406 330.167969 541.625 329.648438 542.042969 L 199.332031 648.007812 C 198.695312 648.527344 197.898438 648.808594 197.078125 648.808594 L 123.269531 648.808594 C 121.976562 648.808594 120.78125 648.105469 120.152344 646.976562 L 22.53125 471.976562 L 22.371094 471.648438 C 21.652344 469.988281 22.296875 468.019531 23.910156 467.117188 C 25.527344 466.21875 27.539062 466.703125 28.578125 468.1875 L 28.769531 468.5 L 125.363281 641.667969 L 195.808594 641.667969 L 324.355469 537.140625 L 432.988281 222.644531 L 433.09375 222.378906 C 433.65625 221.085938 434.9375 220.238281 436.363281 220.238281 Z M 603.03125 220.238281 "/>
</g>
</defs>
<g id="surface1">
<path style=" stroke:none;fill-rule:nonzero;fill:rgb(87.843138%,33.725491%,96.078432%);fill-opacity:1;" d="M 546.453125 489.882812 L 548.035156 549.941406 L 573.335938 549.941406 L 574.914062 606.835938 L 600.332031 606.835938 L 600.082031 632.84375 L 627.1875 633.808594 L 627.1875 643.453125 L 648.117188 643.453125 L 648.117188 636.308594 L 666.125 636.308594 C 667.769531 636.308594 669.101562 637.644531 669.101562 639.285156 C 669.101562 640.929688 667.769531 642.261719 666.125 642.261719 L 654.070312 642.261719 L 654.070312 649.40625 L 621.234375 649.40625 L 621.234375 639.550781 L 594.078125 638.585938 L 594.320312 612.789062 L 569.125 612.789062 L 567.546875 555.894531 L 542.238281 555.894531 L 540.65625 495.832031 L 519.644531 495.832031 L 519.644531 587.5 L 494.34375 587.5 L 494.34375 622.269531 L 467.457031 622.269531 L 467.457031 639.65625 L 440.574219 639.65625 L 440.574219 664.882812 L 413.6875 664.882812 L 413.6875 683.929688 L 386.800781 683.929688 L 386.800781 698.214844 L 353.964844 698.214844 L 353.964844 683.929688 L 327.082031 683.929688 L 327.082031 652.300781 L 301.777344 652.300781 L 301.777344 630.171875 L 274.894531 630.171875 L 274.894531 611.207031 L 248.007812 611.207031 L 248.007812 551.148438 L 222.703125 551.148438 L 222.703125 538.507812 L 200.191406 538.507812 L 200.191406 581.179688 L 173.304688 581.179688 L 173.304688 604.886719 L 148.003906 604.886719 L 148.003906 611.207031 L 121.117188 611.207031 L 121.117188 625.429688 L 94.230469 625.429688 L 94.230469 634.914062 L 67.347656 634.914062 L 67.347656 644.394531 L 34.507812 644.394531 L 34.507812 636.492188 L 22.078125 636.492188 C 20.4375 636.492188 19.101562 635.160156 19.101562 633.515625 C 19.105469 631.875 20.4375 630.539062 22.078125 630.539062 L 40.460938 630.539062 L 40.460938 638.441406 L 61.394531 638.441406 L 61.394531 628.960938 L 88.277344 628.960938 L 88.277344 619.480469 L 115.164062 619.480469 L 115.164062 605.253906 L 142.050781 605.253906 L 142.050781 598.933594 L 167.351562 598.933594 L 167.351562 575.226562 L 194.238281 575.226562 L 194.238281 532.554688 L 228.65625 532.554688 L 228.65625 545.195312 L 253.960938 545.195312 L 253.960938 605.253906 L 280.84375 605.253906 L 280.84375 624.222656 L 307.730469 624.222656 L 307.730469 646.347656 L 333.035156 646.347656 L 333.035156 677.976562 L 359.917969 677.976562 L 359.917969 692.261719 L 380.851562 692.261719 L 380.851562 677.976562 L 407.734375 677.976562 L 407.734375 658.929688 L 434.621094 658.929688 L 434.621094 633.703125 L 461.503906 633.703125 L 461.503906 616.320312 L 488.390625 616.320312 L 488.390625 581.546875 L 513.691406 581.546875 L 513.691406 489.882812 Z M 546.453125 489.882812 "/>
<path style=" stroke:none;fill-rule:nonzero;fill:rgb(71.372551%,71.372551%,71.372551%);fill-opacity:1;" d="M 117.460938 634.851562 C 119.074219 633.949219 121.085938 634.429688 122.125 635.910156 L 122.320312 636.222656 L 125.363281 641.667969 L 132.644531 641.667969 C 134.617188 641.667969 136.214844 643.265625 136.214844 645.238281 C 136.214844 647.210938 134.617188 648.808594 132.644531 648.808594 L 123.269531 648.808594 C 122.136719 648.808594 121.082031 648.273438 120.414062 647.382812 L 120.152344 646.980469 L 116.085938 639.710938 C 115.121094 637.988281 115.738281 635.8125 117.460938 634.851562 Z M 170.144531 641.667969 C 172.117188 641.667969 173.714844 643.265625 173.714844 645.238281 C 173.714844 647.210938 172.117188 648.808594 170.144531 648.808594 L 151.394531 648.808594 C 149.421875 648.808594 147.824219 647.210938 147.824219 645.238281 C 147.824219 643.265625 149.421875 641.667969 151.394531 641.667969 Z M 197.976562 636.097656 C 198.792969 634.480469 200.714844 633.714844 202.441406 634.378906 C 204.28125 635.089844 205.203125 637.152344 204.496094 638.992188 L 201.605469 646.519531 C 201.074219 647.898438 199.75 648.808594 198.269531 648.808594 L 188.894531 648.808594 C 186.921875 648.808594 185.324219 647.210938 185.324219 645.238281 C 185.324219 643.265625 186.921875 641.667969 188.894531 641.667969 L 195.816406 641.667969 L 197.828125 636.433594 Z M 101.191406 605.757812 C 102.804688 604.855469 104.816406 605.34375 105.855469 606.824219 L 106.050781 607.132812 L 114.1875 621.675781 C 115.148438 623.398438 114.53125 625.578125 112.8125 626.539062 C 111.199219 627.441406 109.183594 626.957031 108.144531 625.472656 L 107.949219 625.164062 L 99.816406 610.621094 C 98.851562 608.898438 99.46875 606.722656 101.191406 605.757812 Z M 209.390625 606.328125 C 210.097656 604.488281 212.164062 603.570312 214.007812 604.277344 C 215.847656 604.984375 216.765625 607.050781 216.058594 608.890625 L 210.277344 623.941406 C 209.570312 625.785156 207.503906 626.703125 205.660156 625.996094 C 203.820312 625.289062 202.902344 623.222656 203.609375 621.378906 Z M 89.78125 578.046875 L 97.914062 592.589844 C 98.878906 594.3125 98.261719 596.484375 96.539062 597.449219 C 94.925781 598.351562 92.914062 597.867188 91.875 596.386719 L 91.679688 596.078125 L 83.546875 581.53125 Z M 220.957031 576.230469 C 221.664062 574.386719 223.730469 573.464844 225.570312 574.171875 C 227.414062 574.882812 228.332031 576.949219 227.625 578.789062 L 221.84375 593.839844 C 221.136719 595.679688 219.066406 596.601562 217.226562 595.894531 C 215.386719 595.1875 214.464844 593.117188 215.171875 591.277344 Z M 84.917969 576.671875 C 86.640625 575.710938 88.816406 576.324219 89.78125 578.046875 L 83.546875 581.53125 C 82.582031 579.808594 83.199219 577.632812 84.917969 576.671875 Z M 81.644531 563.503906 C 82.609375 565.222656 81.992188 567.398438 80.269531 568.363281 C 78.550781 569.324219 76.375 568.710938 75.410156 566.988281 Z M 73.507812 548.957031 L 81.644531 563.503906 L 75.410156 566.988281 L 67.277344 552.441406 Z M 232.523438 546.125 C 233.230469 544.285156 235.292969 543.367188 237.136719 544.074219 C 238.976562 544.78125 239.894531 546.84375 239.1875 548.6875 L 233.40625 563.742188 C 232.699219 565.582031 230.632812 566.5 228.792969 565.792969 C 226.953125 565.085938 226.03125 563.019531 226.738281 561.175781 Z M 68.648438 547.582031 C 70.371094 546.621094 72.546875 547.234375 73.507812 548.957031 L 67.277344 552.441406 C 66.3125 550.722656 66.929688 548.546875 68.648438 547.582031 Z M 52.382812 518.496094 C 53.996094 517.59375 56.007812 518.078125 57.046875 519.558594 L 57.242188 519.867188 L 65.375 534.410156 C 66.339844 536.132812 65.722656 538.3125 64.003906 539.273438 C 62.386719 540.175781 60.375 539.691406 59.335938 538.210938 L 59.140625 537.898438 L 51.007812 523.355469 C 50.042969 521.636719 50.660156 519.457031 52.382812 518.496094 Z M 238.304688 531.078125 L 244.972656 533.636719 C 244.265625 535.476562 242.199219 536.394531 240.355469 535.6875 C 238.515625 534.980469 237.597656 532.917969 238.304688 531.078125 Z M 244.085938 516.019531 C 244.792969 514.179688 246.859375 513.261719 248.699219 513.96875 C 250.539062 514.675781 251.460938 516.742188 250.753906 518.585938 L 244.972656 533.636719 L 238.304688 531.078125 Z M 36.109375 489.40625 C 37.722656 488.503906 39.738281 488.988281 40.777344 490.46875 L 40.972656 490.78125 L 49.105469 505.324219 C 50.066406 507.046875 49.453125 509.222656 47.730469 510.183594 C 46.117188 511.085938 44.105469 510.601562 43.066406 509.121094 L 42.871094 508.808594 L 34.734375 494.265625 C 33.773438 492.546875 34.390625 490.367188 36.109375 489.40625 Z M 255.648438 485.921875 C 256.355469 484.082031 258.421875 483.160156 260.265625 483.867188 C 262.105469 484.578125 263.027344 486.644531 262.320312 488.484375 L 256.535156 503.535156 C 255.828125 505.375 253.761719 506.296875 251.921875 505.589844 C 250.078125 504.878906 249.160156 502.8125 249.867188 500.972656 Z M 23.90625 467.589844 C 25.519531 466.6875 27.535156 467.171875 28.574219 468.65625 L 28.769531 468.964844 L 32.835938 476.234375 C 33.796875 477.957031 33.183594 480.132812 31.460938 481.097656 C 29.742188 482.058594 27.566406 481.441406 26.601562 479.722656 L 22.53125 472.453125 C 21.570312 470.730469 22.1875 468.550781 23.90625 467.589844 Z M 267.214844 455.820312 C 267.921875 453.980469 269.992188 453.058594 271.832031 453.765625 C 273.671875 454.472656 274.589844 456.539062 273.882812 458.382812 L 268.101562 473.433594 C 267.394531 475.273438 265.328125 476.191406 263.484375 475.484375 C 261.644531 474.777344 260.726562 472.710938 261.433594 470.871094 Z M 278.925781 425.382812 C 279.742188 423.765625 281.667969 423.003906 283.394531 423.664062 C 285.234375 424.375 286.15625 426.4375 285.449219 428.277344 L 279.664062 443.328125 L 279.515625 443.664062 C 278.703125 445.28125 276.777344 446.046875 275.050781 445.382812 C 273.210938 444.671875 272.289062 442.609375 272.996094 440.769531 L 278.78125 425.71875 Z M 290.34375 395.613281 C 291.050781 393.773438 293.117188 392.855469 294.960938 393.5625 C 296.800781 394.269531 297.71875 396.335938 297.011719 398.175781 L 291.230469 413.230469 C 290.519531 415.070312 288.453125 415.988281 286.613281 415.28125 C 284.773438 414.574219 283.855469 412.507812 284.5625 410.664062 Z M 301.910156 365.515625 C 302.617188 363.671875 304.683594 362.753906 306.523438 363.460938 C 308.363281 364.167969 309.285156 366.234375 308.578125 368.078125 L 302.796875 383.125 C 302.089844 384.964844 300.019531 385.886719 298.179688 385.179688 C 296.339844 384.472656 295.417969 382.40625 296.125 380.5625 Z M 313.472656 335.410156 C 314.179688 333.570312 316.246094 332.652344 318.089844 333.359375 C 319.929688 334.066406 320.847656 336.132812 320.140625 337.972656 L 314.359375 353.027344 C 313.652344 354.867188 311.585938 355.785156 309.746094 355.078125 C 307.902344 354.371094 306.984375 352.304688 307.691406 350.460938 Z M 319.257812 320.363281 L 325.921875 322.921875 C 325.214844 324.761719 323.148438 325.679688 321.308594 324.972656 C 319.46875 324.265625 318.550781 322.203125 319.257812 320.363281 Z M 325.039062 305.308594 C 325.746094 303.464844 327.8125 302.546875 329.652344 303.253906 C 331.492188 303.960938 332.410156 306.027344 331.703125 307.871094 L 325.921875 322.921875 L 319.257812 320.363281 Z M 336.601562 275.207031 C 337.308594 273.367188 339.375 272.449219 341.21875 273.15625 C 343.058594 273.863281 343.980469 275.929688 343.269531 277.769531 L 337.488281 292.820312 C 336.78125 294.660156 334.714844 295.582031 332.875 294.875 C 331.03125 294.164062 330.113281 292.097656 330.820312 290.257812 Z M 348.167969 245.105469 C 348.875 243.265625 350.941406 242.34375 352.785156 243.050781 C 354.625 243.757812 355.542969 245.828125 354.835938 247.667969 L 349.054688 262.71875 C 348.34375 264.558594 346.277344 265.480469 344.4375 264.769531 C 342.597656 264.0625 341.679688 261.996094 342.386719 260.15625 Z M 368.804688 220.238281 C 370.777344 220.238281 372.375 221.835938 372.375 223.808594 C 372.375 225.78125 370.777344 227.382812 368.804688 227.382812 L 362.628906 227.382812 L 360.617188 232.613281 L 360.46875 232.949219 C 359.65625 234.566406 357.730469 235.332031 356.003906 234.667969 C 354.160156 233.960938 353.242188 231.894531 353.949219 230.054688 L 356.839844 222.527344 L 356.949219 222.273438 C 357.539062 221.039062 358.789062 220.238281 360.171875 220.238281 Z M 403.328125 220.238281 C 405.300781 220.238281 406.898438 221.835938 406.898438 223.808594 C 406.898438 225.78125 405.300781 227.382812 403.328125 227.382812 L 386.066406 227.382812 C 384.09375 227.382812 382.496094 225.78125 382.496094 223.808594 C 382.496094 221.835938 384.09375 220.238281 386.066406 220.238281 Z M 437.851562 220.238281 C 439.828125 220.238281 441.421875 221.835938 441.421875 223.808594 C 441.421875 225.78125 439.828125 227.382812 437.851562 227.382812 L 420.589844 227.382812 C 418.617188 227.382812 417.019531 225.78125 417.019531 223.808594 C 417.019531 221.835938 418.617188 220.238281 420.589844 220.238281 Z M 472.375 220.238281 C 474.351562 220.238281 475.949219 221.835938 475.949219 223.808594 C 475.949219 225.78125 474.351562 227.382812 472.375 227.382812 L 455.113281 227.382812 C 453.144531 227.382812 451.542969 225.78125 451.542969 223.808594 C 451.542969 221.835938 453.144531 220.238281 455.113281 220.238281 Z M 506.898438 220.238281 C 508.875 220.238281 510.472656 221.835938 510.472656 223.808594 C 510.472656 225.78125 508.875 227.382812 506.898438 227.382812 L 489.636719 227.382812 C 487.667969 227.382812 486.066406 225.78125 486.066406 223.808594 C 486.066406 221.835938 487.667969 220.238281 489.636719 220.238281 Z M 541.421875 220.238281 C 543.398438 220.238281 544.996094 221.835938 544.996094 223.808594 C 544.996094 225.78125 543.398438 227.382812 541.421875 227.382812 L 524.160156 227.382812 C 522.191406 227.382812 520.589844 225.78125 520.589844 223.808594 C 520.589844 221.835938 522.191406 220.238281 524.160156 220.238281 Z M 575.949219 220.238281 C 577.921875 220.238281 579.519531 221.835938 579.519531 223.808594 C 579.519531 225.78125 577.921875 227.382812 575.949219 227.382812 L 558.6875 227.382812 C 556.714844 227.382812 555.113281 225.78125 555.113281 223.808594 C 555.113281 221.835938 556.714844 220.238281 558.6875 220.238281 Z M 601.839844 220.238281 C 603.8125 220.238281 605.410156 221.835938 605.410156 223.808594 C 605.410156 225.78125 603.8125 227.382812 601.839844 227.382812 L 593.210938 227.382812 C 591.238281 227.382812 589.636719 225.78125 589.636719 223.808594 C 589.636719 221.835938 591.238281 220.238281 593.210938 220.238281 Z M 601.839844 220.238281 "/>
<use xlink:href="#surface5" mask="url(#mask0)"/>
<path style=" stroke:none;fill-rule:nonzero;fill:rgb(98.823529%,89.411765%,52.941179%);fill-opacity:1;" d="M 416.367188 251.191406 C 447.449219 251.191406 467.671875 267.574219 481.003906 285.839844 C 494.164062 303.863281 501.046875 324.472656 504.910156 332.578125 L 505.355469 333.5625 C 506.421875 336.035156 507.667969 339.710938 509.0625 344.191406 C 510.675781 349.382812 512.550781 355.871094 514.648438 363.277344 C 518.851562 378.125 523.957031 396.699219 529.710938 416.242188 C 541.265625 455.464844 555.253906 497.917969 569.417969 521.257812 L 572.15625 525.8125 C 585.871094 548.910156 600.28125 576.734375 612.183594 599.160156 C 618.554688 611.167969 624.1875 621.589844 628.644531 629.003906 C 630.882812 632.722656 632.757812 635.574219 634.242188 637.460938 C 634.988281 638.417969 635.542969 639.007812 635.917969 639.332031 C 635.9375 639.351562 635.960938 639.363281 635.980469 639.378906 C 637.5625 639.746094 638.746094 641.160156 638.746094 642.855469 C 638.746094 644.828125 637.148438 646.429688 635.171875 646.429688 C 633.367188 646.429688 631.972656 645.359375 631.253906 644.742188 C 630.375 643.980469 629.484375 642.980469 628.617188 641.867188 C 626.859375 639.625 624.800781 636.46875 622.523438 632.683594 C 617.953125 625.082031 612.234375 614.492188 605.875 602.511719 C 593.90625 579.964844 579.613281 552.355469 566.019531 529.472656 L 563.3125 524.960938 C 548.582031 500.691406 534.359375 457.300781 522.863281 418.257812 C 517.089844 398.667969 511.960938 380 507.777344 365.226562 C 505.679688 357.824219 503.828125 351.40625 502.242188 346.3125 C 500.839844 341.792969 499.691406 338.472656 498.820312 336.441406 L 498.464844 335.648438 C 494.074219 326.4375 487.882812 307.371094 475.238281 290.050781 C 462.769531 272.972656 444.460938 258.332031 416.367188 258.332031 C 395.492188 258.332031 380.476562 266.960938 368.4375 280.828125 C 356.253906 294.863281 347.171875 314.203125 338.480469 335.464844 C 307.480469 411.296875 289.992188 465.570312 275.28125 512.636719 C 266.625 540.332031 241.839844 583.613281 219.167969 615.875 L 216.980469 618.964844 C 209.542969 629.375 202.039062 636.132812 196.335938 640.3125 C 193.484375 642.398438 191.085938 643.84375 189.371094 644.773438 C 188.511719 645.238281 187.824219 645.578125 187.335938 645.800781 C 187.09375 645.917969 186.902344 646.003906 186.761719 646.0625 C 186.691406 646.09375 186.632812 646.117188 186.589844 646.136719 C 186.570312 646.144531 186.550781 646.152344 186.539062 646.160156 C 186.53125 646.160156 186.523438 646.164062 186.519531 646.167969 C 186.515625 646.167969 186.511719 646.167969 186.507812 646.171875 C 186.503906 646.167969 186.453125 646.046875 185.175781 642.855469 C 185.109375 642.695312 185.046875 642.539062 184.988281 642.394531 L 186.503906 646.171875 C 184.675781 646.90625 182.59375 646.015625 181.859375 644.1875 C 181.125 642.359375 182.011719 640.285156 183.835938 639.546875 L 183.832031 639.546875 C 183.832031 639.546875 183.835938 639.546875 183.835938 639.542969 C 183.839844 639.542969 183.84375 639.542969 183.84375 639.539062 L 183.847656 639.539062 C 183.859375 639.535156 183.886719 639.523438 183.921875 639.507812 C 184 639.472656 184.132812 639.417969 184.316406 639.332031 C 184.675781 639.160156 185.238281 638.890625 185.964844 638.496094 C 187.417969 637.707031 189.542969 636.433594 192.117188 634.550781 C 197.261719 630.78125 204.207031 624.550781 211.167969 614.8125 L 213.339844 611.746094 C 235.855469 579.703125 260.136719 537.144531 268.464844 510.503906 C 283.203125 463.34375 300.761719 408.855469 331.867188 332.761719 C 340.566406 311.484375 350.011719 291.15625 363.042969 276.144531 C 376.214844 260.972656 393.105469 251.191406 416.367188 251.191406 Z M 416.367188 251.191406 "/>
<path style=" stroke:none;fill-rule:nonzero;fill:rgb(9.803922%,30.19608%,14.509805%);fill-opacity:1;" d="M 675.558594 670.722656 L 675.636719 659.355469 L 13.730469 654.761719 L 13.761719 650 L 675.667969 654.59375 L 675.746094 643.230469 L 699.460938 657.144531 Z M 675.558594 670.722656 "/>
<path style=" stroke:none;fill-rule:nonzero;fill:rgb(9.803922%,30.19608%,14.509805%);fill-opacity:1;" d="M 27.492188 23.808594 L 16.128906 23.808594 L 16.128906 654.761719 L 11.367188 654.761719 L 11.367188 23.808594 L 0 23.808594 L 13.746094 0 Z M 27.492188 23.808594 "/>
<path style=" stroke:none;fill-rule:nonzero;fill:rgb(9.803922%,30.19608%,14.509805%);fill-opacity:1;" d="M 428.023438 238.09375 L 416.117188 244.96875 L 416.117188 239.285156 L 357.785156 239.285156 L 357.785156 236.90625 L 416.117188 236.90625 L 416.117188 231.222656 Z M 428.023438 238.09375 "/>
<path style=" stroke:none;fill-rule:nonzero;fill:rgb(9.803922%,30.19608%,14.509805%);fill-opacity:1;" d="M 416.117188 269.046875 L 404.214844 275.921875 L 404.214844 270.238281 L 347.070312 270.238281 L 347.070312 267.855469 L 404.214844 267.855469 L 404.214844 262.171875 Z M 416.117188 269.046875 "/>
<path style=" stroke:none;fill-rule:nonzero;fill:rgb(9.803922%,30.19608%,14.509805%);fill-opacity:1;" d="M 406.59375 300 L 394.691406 306.875 L 394.691406 301.191406 L 337.546875 301.191406 L 337.546875 298.808594 L 394.691406 298.808594 L 394.691406 293.125 Z M 406.59375 300 "/>
<path style=" stroke:none;fill-rule:nonzero;fill:rgb(9.803922%,30.19608%,14.509805%);fill-opacity:1;" d="M 395.410156 330.953125 L 383.507812 337.828125 L 383.507812 332.144531 L 325.644531 332.144531 L 325.644531 329.761719 L 383.507812 329.761719 L 383.507812 324.078125 Z M 395.410156 330.953125 "/>
<path style=" stroke:none;fill-rule:nonzero;fill:rgb(9.803922%,30.19608%,14.509805%);fill-opacity:1;" d="M 385.167969 361.90625 L 373.261719 368.777344 L 373.261719 363.09375 L 310.167969 363.09375 L 310.167969 360.714844 L 373.261719 360.714844 L 373.261719 355.03125 Z M 385.167969 361.90625 "/>
<path style=" stroke:none;fill-rule:nonzero;fill:rgb(9.803922%,30.19608%,14.509805%);fill-opacity:1;" d="M 373.769531 392.855469 L 361.867188 399.730469 L 361.867188 394.046875 L 299.453125 394.046875 L 299.453125 391.667969 L 361.867188 391.667969 L 361.867188 385.984375 Z M 373.769531 392.855469 "/>
<path style=" stroke:none;fill-rule:nonzero;fill:rgb(9.803922%,30.19608%,14.509805%);fill-opacity:1;" d="M 363.738281 423.808594 L 351.832031 430.683594 L 351.832031 425 L 287.546875 425 L 287.546875 422.617188 L 351.832031 422.617188 L 351.832031 416.9375 Z M 363.738281 423.808594 "/>
<path style=" stroke:none;fill-rule:nonzero;fill:rgb(9.803922%,30.19608%,14.509805%);fill-opacity:1;" d="M 353.023438 454.761719 L 341.117188 461.636719 L 341.117188 455.953125 L 276.832031 455.953125 L 276.832031 453.570312 L 341.117188 453.570312 L 341.117188 447.886719 Z M 353.023438 454.761719 "/>
<path style=" stroke:none;fill-rule:nonzero;fill:rgb(9.803922%,30.19608%,14.509805%);fill-opacity:1;" d="M 342.308594 485.714844 L 330.40625 492.589844 L 330.40625 486.90625 L 264.429688 486.90625 L 264.429688 484.523438 L 330.40625 484.523438 L 330.40625 478.839844 Z M 342.308594 485.714844 "/>
<path style=" stroke:none;fill-rule:nonzero;fill:rgb(9.803922%,30.19608%,14.509805%);fill-opacity:1;" d="M 331.59375 516.667969 L 319.691406 523.539062 L 319.691406 517.855469 L 251.832031 517.855469 L 251.832031 515.476562 L 319.691406 515.476562 L 319.691406 509.792969 Z M 331.59375 516.667969 "/>
<path style=" stroke:none;fill-rule:nonzero;fill:rgb(9.803922%,30.19608%,14.509805%);fill-opacity:1;" d="M 311.355469 547.617188 L 299.453125 554.492188 L 299.453125 548.808594 L 239.929688 548.808594 L 239.929688 546.429688 L 299.453125 546.429688 L 299.453125 540.746094 Z M 311.355469 547.617188 "/>
<path style=" stroke:none;fill-rule:nonzero;fill:rgb(9.803922%,30.19608%,14.509805%);fill-opacity:1;" d="M 272.070312 578.570312 L 260.167969 585.445312 L 260.167969 579.761719 L 229.214844 579.761719 L 229.214844 577.382812 L 260.167969 577.382812 L 260.167969 571.699219 Z M 272.070312 578.570312 "/>
<path style=" stroke:none;fill-rule:nonzero;fill:rgb(9.803922%,30.19608%,14.509805%);fill-opacity:1;" d="M 433.976562 202.441406 L 410.167969 216.1875 L 410.164062 204.820312 L 366.117188 204.824219 C 364.804688 204.824219 363.738281 203.757812 363.738281 202.445312 C 363.738281 201.128906 364.804688 200.0625 366.117188 200.0625 L 410.167969 200.0625 L 410.167969 188.695312 Z M 433.976562 202.441406 "/>
</g>
</svg>
