<?xml version="1.0" encoding="utf-8"?>
<!-- Generator: Adobe Illustrator 25.4.1, SVG Export Plug-In . SVG Version: 6.00 Build 0)  -->
<svg version="1.1" id="Ebene_1" xmlns="http://www.w3.org/2000/svg" xmlns:xlink="http://www.w3.org/1999/xlink" x="0px" y="0px"
	 viewBox="0 0 1366 768" style="enable-background:new 0 0 1366 768;" xml:space="preserve">
<style type="text/css">
	.st0{fill:#BDD786;}
	.st1{fill:#83BC32;}
	.st2{fill:#03693A;}
</style>
<g>
	<path class="st0" d="M866,341.6c2.7-0.6,5.2-1.2,6.8-1.5c2-0.4,3.4-0.7,5.6-1l7.5,6.4c-0.1,0.2-0.2,0.4-0.2,0.6l-17.5,1.4
		c-0.2-0.6-0.8-1.1-1.4-1.2L866,341.6L866,341.6z"/>
	<path class="st0" d="M835.5,369.8l16.3-5.5c0.3,0.6,0.9,1.1,1.7,1.1l0.1,0l1.6,4.1l-4.4,2.2l6.1,7.2l-0.6,6c-2.7,1.1-4.4,1.9-6.9,3
		c-2.6,1.2-5.1,2.3-8.4,3.9l-8-4.6c0-0.1,0-0.2,0-0.3c0-0.7-0.4-1.3-1-1.6l1.9-13.6C834.8,371.6,835.5,370.9,835.5,369.8
		L835.5,369.8L835.5,369.8z"/>
	<polygon class="st0" points="857.6,379.8 860.8,383.5 857.1,384.7 857.6,379.8 	"/>
	<path class="st0" d="M855.1,363.9l12.1,1.2c-2.3,0.6-4.3,1.3-5.9,1.9c-2.3,0.8-3.2,1.2-5.2,2.2l-1.7-4.1
		C854.8,364.7,855,364.3,855.1,363.9L855.1,363.9z"/>
	<path class="st0" d="M854.4,362.2l11.2-12.6c0.3,0.1,0.6,0.2,0.9,0.2c0.9,0,1.6-0.6,1.8-1.5l17.6-1.5c0.3,0.7,0.9,1.1,1.7,1.1
		l4.9,12.1c-5.7,0.6-8.4,1-14.4,2.2c-3.7,0.7-5.2,1.1-8.5,2L855,363C854.9,362.7,854.7,362.4,854.4,362.2L854.4,362.2z"/>
	<path class="st0" d="M889.3,346.8l26,1.5c0,0.1,0,0.2,0,0.3c0,0.3,0.1,0.7,0.3,0.9l-7.7,9.5c-2.6,0.1-3.7,0.2-6.6,0.3
		c-2.9,0.2-4.7,0.3-7.7,0.5l-5.1-12.1C888.8,347.5,889.1,347.2,889.3,346.8L889.3,346.8z"/>
	<path class="st0" d="M918.4,349.9l19.2,8.6c0,0.1,0,0.1,0,0.2c0,0.3,0.1,0.5,0.2,0.8l-15.2,12.8c-0.3-0.2-0.7-0.3-1.1-0.3
		c-0.1,0-0.2,0-0.2,0l-1.7-11.1l5.7-0.6l-5.9-0.8l-1.7-8.9C918,350.3,918.2,350.1,918.4,349.9L918.4,349.9z"/>
	<path class="st0" d="M916.1,350.3c0.3,0.1,0.6,0.2,0.9,0.2l1.4,8.8c-1.6-0.1-1.8-0.2-4.2-0.2c-2.5-0.1-3.3-0.1-5.4-0.1L916.1,350.3
		L916.1,350.3z"/>
	<path class="st0" d="M907.1,361.8c2.5-0.3,3.7-0.4,6.4-0.6c2.3-0.2,3.1-0.3,5.1-0.4l1.7,11.5c-0.3,0.3-0.6,0.6-0.7,1.1l-23.2-0.5
		l0-0.1c0-0.3-0.1-0.6-0.2-0.9L907.1,361.8L907.1,361.8z"/>
	<path class="st0" d="M894.9,364.2c1.9-0.5,2.7-0.6,4.9-1.1c2.7-0.6,3.5-0.7,5.7-1.1l-10,9.2c-0.2-0.1-0.4-0.2-0.5-0.2L894.9,364.2
		L894.9,364.2z"/>
	<path class="st0" d="M879.5,369.4c2.8-1.1,4.9-1.8,7.3-2.6c2.9-1,4.5-1.4,7.3-2.3l0.1,6.5c-0.5,0.1-0.9,0.4-1.1,0.8L879.5,369.4
		L879.5,369.4z"/>
	<path class="st0" d="M872.4,372.6c1.1-0.6,1.5-0.7,2.9-1.4c1.4-0.6,1.8-0.8,2.9-1.2l14.5,2.7l0,0.1c0,0.4,0.2,0.8,0.4,1.2
		l-10.5,10.8L872.4,372.6L872.4,372.6z"/>
	<path class="st0" d="M883.3,385.5l10.5-11.1c0.3,0.1,0.5,0.2,0.9,0.2c0.3,0,0.6-0.1,0.8-0.2l11.6,17.1c-0.3,0.3-0.5,0.8-0.5,1.3
		c0,0.1,0,0.1,0,0.2l-20.5,7.1c-0.3-0.5-0.9-0.9-1.6-0.9c-0.1,0-0.2,0-0.3,0l-5-8.4c1.3-0.3,2.1-0.6,3.4-0.8c1.4-0.2,2-0.4,3.3-0.6
		L883.3,385.5L883.3,385.5z"/>
	<path class="st0" d="M896.3,373.4l23.3,0.8c0.1,0.2,0.2,0.5,0.4,0.7l-11,16.3c-0.2-0.1-0.5-0.2-0.8-0.2c-0.2,0-0.4,0-0.5,0.1
		l-11.7-17.2C896.2,373.8,896.3,373.6,896.3,373.4L896.3,373.4z"/>
	<path class="st0" d="M929.6,381.9c-3.1,3-5.6,5.6-7.9,7.7c-2.3,2.1-5.1,4.8-8.5,7.9l-3.4-3.7c0.1-0.3,0.2-0.6,0.2-0.9
		c0-0.3-0.1-0.6-0.2-0.9l10.9-16.5c0.2,0.1,0.5,0.1,0.7,0.1c0.3,0,0.7-0.1,0.9-0.3L929.6,381.9L929.6,381.9z"/>
	<path class="st0" d="M912.5,398c-2.3,1.8-4.1,3.2-5.9,4.7c-2.3,1.9-4.1,3.2-6.7,5.3l-13.7-6.5c0-0.2,0.1-0.3,0.1-0.5l0-0.1l20.4-7
		c0.3,0.5,0.9,0.9,1.5,0.9c0.3,0,0.6-0.1,0.8-0.2L912.5,398L912.5,398z"/>
	<path class="st0" d="M862.2,394.4c3-0.8,4.3-1.3,7.7-1.9c4-0.8,5.1-1,8.4-1.5l5.1,8.6c-0.4,0.3-0.6,0.8-0.6,1.4
		c0,0.3,0.1,0.5,0.2,0.8l-17.7,16.7c-0.3-0.2-0.7-0.3-1-0.3c-0.1,0-0.1,0-0.2,0l-7.4-16.3c0.5-0.3,0.8-0.9,0.8-1.5
		c0-0.3-0.1-0.5-0.2-0.8L862.2,394.4L862.2,394.4z"/>
	<path class="st0" d="M856.2,395.9l4.7-1.1l-4.3,4c-0.1-0.1-0.3-0.2-0.4-0.3V395.9L856.2,395.9z"/>
	<path class="st0" d="M851.5,397.8l3.8-1.6l-0.1,2.2c-0.4,0.1-0.8,0.3-1.1,0.7L851.5,397.8L851.5,397.8z"/>
</g>
<g>
	<path class="st1" d="M814.8,367c3-2.9,6.4-5.7,8.2-6.9c2.5-1.8,5.9-4.1,10-6.2l0.3,14.3c-0.8,0.2-1.3,0.9-1.3,1.8
		c0,0.3,0.1,0.6,0.2,0.9l-15.6,12.7c-0.2-0.2-0.4-0.3-0.7-0.4L814.8,367L814.8,367z"/>
	<path class="st1" d="M817.1,385.5l12.2,1.7c0.1,1,0.9,1.7,1.8,1.7l0.7,8.2c0,0-5.2,3.6-8.9,6c-3.3,2.1-10.2,6.9-10.2,6.9l2.8-23.3
		C816.3,386.6,816.9,386.1,817.1,385.5L817.1,385.5z"/>
	<path class="st1" d="M829.6,386.2l-12.3-1.4c0-0.3-0.1-0.6-0.2-0.8l15.5-12.7c0.2,0.2,0.4,0.3,0.6,0.3l-2.1,13.6
		C830.4,385.3,829.8,385.7,829.6,386.2L829.6,386.2z"/>
	<path class="st1" d="M865,348.9l-11.1,12.9c-0.2-0.1-0.4-0.1-0.6-0.1c-1,0-1.8,0.8-1.8,1.8l-16.2,5.6c-0.2-0.5-0.7-0.9-1.2-1
		l-0.3-14.7c5.5-2.8,10.3-4.8,14.6-6.4c4.8-1.9,10-3.5,16.5-5.2l0.7,4.6c-0.5,0.3-0.9,0.9-0.9,1.6
		C864.8,348.3,864.9,348.6,865,348.9L865,348.9z"/>
	<path class="st1" d="M879.4,338.8c3-0.5,5.8-0.9,7.8-1.1c2.7-0.3,4.7-0.5,7.7-0.7l-6.4,7.6c-0.2-0.1-0.5-0.2-0.8-0.2
		c-0.4,0-0.8,0.1-1.1,0.4L879.4,338.8L879.4,338.8z"/>
	<path class="st1" d="M832.6,388.2l7.4,4.2l-7.3,4.1l-0.8-7.7C832.2,388.6,832.4,388.4,832.6,388.2L832.6,388.2z"/>
	<path class="st1" d="M896.3,336.6c2.5-0.3,4.3-0.6,6.5-0.7c2.3-0.2,4.2-0.3,6.8-0.4l6.2,11.8c-0.1,0.1-0.3,0.2-0.4,0.4l-26.2-1.5
		c0-0.4-0.2-0.7-0.4-1L896.3,336.6L896.3,336.6z"/>
	<path class="st1" d="M910.7,335.3c3.2-0.1,5.7-0.2,8.3-0.2c3.1,0,5.6-0.1,9.2-0.2l10.3,22.1c-0.3,0.2-0.5,0.4-0.7,0.7l-19-8.6
		c0-0.2,0.1-0.3,0.1-0.5c0-1-0.8-1.8-1.8-1.8c-0.1,0-0.2,0-0.3,0L910.7,335.3L910.7,335.3z"/>
	<path class="st1" d="M941.1,359.4l7.1,1.5c-3.4,4-6.1,7.2-8.8,10.2c-3.1,3.4-5.4,6-8.9,9.8l-7.3-6.7c0.1-0.2,0.1-0.4,0.1-0.6
		c0-0.2,0-0.4-0.1-0.6l15.4-12.8c0.3,0.2,0.6,0.3,1,0.3C940.2,360.5,940.8,360,941.1,359.4L941.1,359.4z"/>
	<path class="st1" d="M899,408.8c-3.8,3.1-6.3,4.8-10.2,7.3c-4.3,2.8-6,3.7-10.1,5.8l-12.8-2.6c0-0.2-0.1-0.3-0.2-0.5l17.8-16.4
		c0.3,0.2,0.6,0.3,0.9,0.3c0.5,0,1-0.2,1.4-0.6L899,408.8L899,408.8z"/>
	<path class="st1" d="M877.7,422.5c-1.8,0.8-2.9,1.2-4.8,2c-1.6,0.7-2.8,1.1-4.6,1.9l-2.9-5.1c0.2-0.2,0.4-0.5,0.5-0.8L877.7,422.5
		L877.7,422.5z"/>
	<path class="st1" d="M833.6,405.6c3.3-1.7,5.2-2.6,8.7-4.2c3.9-1.8,4.8-2.1,8-3.2l3.4,1.7c0,0.1,0,0.2,0,0.3c0,0.3,0.1,0.6,0.2,0.9
		l-17.6,21.5c-0.2-0.2-0.5-0.3-0.8-0.3L833.6,405.6L833.6,405.6z"/>
	<path class="st1" d="M855.9,402l7.4,16.4c-0.4,0.3-0.7,0.7-0.8,1.2l-25.4,4c-0.1-0.2-0.1-0.4-0.2-0.5l17.8-21.4
		c0.3,0.2,0.7,0.4,1.1,0.4C855.7,402,855.8,402,855.9,402L855.9,402z"/>
</g>
<g>
	<path class="st2" d="M794.3,417.9l13-3.4l-12.5,11.7c-0.3-1.6-0.4-2.6-0.5-4.1C794.2,420.9,794.2,419.5,794.3,417.9L794.3,417.9z"
		/>
	<path class="st2" d="M794.4,416.8c-0.2-4.4,0.2-8,0.6-11.4c0.2-2.5,1.6-8.8,3.5-14.1l11.6,20.9l-1.5,1.1L794.4,416.8L794.4,416.8z"
		/>
	<path class="st2" d="M798.8,390.2c1.7-4.1,3.6-7.5,5.2-10.1c1.8-2.9,5.5-8.1,9.9-12.6l1,15.6c-0.8,0.2-1.4,0.9-1.4,1.8
		c0,0.8,0.5,1.5,1.2,1.7l-2.8,23.9l-1.2,1L798.8,390.2L798.8,390.2z"/>
	<path class="st2" d="M929.2,334.8c2.4,0,4.4,0,6,0.1c1.5,0.1,2.7,0.1,4.4,0.2l7.4,5.9c-0.2,0.3-0.3,0.6-0.3,1
		c0,0.5,0.2,0.9,0.4,1.2l-7,13.7c-0.2-0.1-0.5-0.1-0.7-0.1c-0.1,0-0.1,0-0.2,0L929.2,334.8L929.2,334.8z"/>
	<path class="st2" d="M941.2,335.2l8.5,0.5l-0.9,4.5c-0.1,0-0.1,0-0.2,0c-0.3,0-0.5,0.1-0.8,0.2L941.2,335.2L941.2,335.2z"/>
	<path class="st2" d="M950.6,335.7l6.4,0.5l4.4,7.9l-1.9,2.3l-9-4.2c0-0.1,0-0.2,0-0.3c0-0.7-0.4-1.2-0.9-1.6L950.6,335.7
		L950.6,335.7z"/>
	<polygon class="st2" points="958.1,336.1 966.5,336.9 962,343.2 958.1,336.1 	"/>
	<path class="st2" d="M959,347.3c-1.9,2.5-3.5,4.6-4.9,6.4c-1.4,1.8-3.1,3.9-5.1,6.4l-7.7-1.4l0-0.1c0-0.4-0.1-0.7-0.3-1l7.2-13.8
		c0.1,0,0.2,0,0.4,0c0.6,0,1.1-0.3,1.4-0.7L959,347.3L959,347.3z"/>
	<path class="st2" d="M867.4,426.7l-5.6,2l2.3-7c0,0,0.1,0,0.1,0c0.2,0,0.4,0,0.6-0.1L867.4,426.7L867.4,426.7z"/>
	<path class="st2" d="M860.7,429.2c-3,0.8-4.2,1.2-7.7,2c-3.7,0.8-5,1.2-8.3,1.9l-8-7.7c0.2-0.3,0.3-0.6,0.4-0.9l25.4-4
		c0.1,0.4,0.4,0.8,0.7,1.1L860.7,429.2L860.7,429.2z"/>
	<path class="st2" d="M843.4,433.2c-4.1,0.4-6.4,0.6-10.5,0.7c-4.4,0.2-6.7,0.1-11-0.1l12-8.4c0.3,0.4,0.8,0.7,1.4,0.7
		c0.3,0,0.5-0.1,0.7-0.1L843.4,433.2L843.4,433.2z"/>
	<path class="st2" d="M819.4,433.6c-4-0.5-5.9-0.9-10.2-1.7c-4.8-0.9-6.9-1.6-11.2-3c3.1-2.9,6-5.1,8.4-6.9c1.9-1.5,4.1-3,6.8-4.8
		L819.4,433.6L819.4,433.6z"/>
	<path class="st2" d="M813.8,416.8l2.1-1.3l17.7,7.9c-0.1,0.2-0.2,0.5-0.2,0.8c0,0.1,0,0.2,0,0.4l-12.9,9.3L813.8,416.8L813.8,416.8
		z"/>
	<path class="st2" d="M816.6,415c3-1.8,4.8-2.8,7.8-4.5c3.2-1.9,4.9-2.7,8.1-4.4l2.2,16.4c-0.2,0.1-0.4,0.2-0.6,0.3L816.6,415
		L816.6,415z"/>
</g>
<g>
	<path class="st1" d="M641.7,404.5c0,1.6-1.3,2.9-2.9,2.9h-20.3c1.2,3.5,4.5,6,8.5,6c1.4,0,3.8-0.1,6.6-1.9c1.4-0.9,3.2-0.1,3.9,1.4
		c0.7,1.5-0.1,3-1.4,3.9c-3.9,2.6-6.9,2.5-9.1,2.5c-8.2,0-14.8-6.6-14.8-14.7c0-8.2,6.6-14.7,14.8-14.7
		C634.1,389.8,641.7,395,641.7,404.5z M618.5,401.6h17c-1.2-4.1-5-6-8.5-6C623,395.6,619.7,398.1,618.5,401.6z"/>
	<path class="st1" d="M674.8,404.5v11.8c0,1.6-1.3,2.9-2.9,2.9c-1.6,0-2.9-1.3-2.9-2.9v-11.8c0-4.9-4-8.9-8.9-8.9c-4.9,0-9,4-9,8.9
		v11.8c0,1.6-1.3,2.9-2.9,2.9c-1.6,0-2.9-1.3-2.9-2.9v-11.8c0-8.2,6.7-14.7,14.8-14.7C668.2,389.8,674.8,396.4,674.8,404.5z"/>
	<path class="st1" d="M707.9,404.5c0,1.6-1.3,2.9-2.9,2.9h-20.3c1.2,3.5,4.5,6,8.5,6c1.4,0,3.8-0.1,6.6-1.9c1.4-0.9,3.2-0.1,3.9,1.4
		c0.7,1.5-0.1,3-1.4,3.9c-3.9,2.6-6.9,2.5-9.1,2.5c-8.2,0-14.8-6.6-14.8-14.7c0-8.2,6.6-14.7,14.8-14.7
		C700.2,389.8,707.9,395,707.9,404.5z M684.6,401.6h17c-1.2-4.1-5-6-8.5-6C689.2,395.6,685.9,398.1,684.6,401.6z"/>
	<path class="st1" d="M729.2,392.7c0,1.6-1.3,2.9-2.9,2.9c-4.9,0-9,4-9,8.9v11.8c0,1.6-1.3,2.9-2.9,2.9c-1.6,0-2.9-1.4-2.9-2.9
		v-11.8c0-8.2,6.7-14.7,14.8-14.7C727.9,389.8,729.2,391.1,729.2,392.7z"/>
	<path class="st1" d="M758.6,419.3c0,8.1-6.7,14.7-14.8,14.7c-5.7,0-10.8-3.2-13.3-8.3c-0.7-1.5-0.1-3.2,1.4-3.9
		c1.4-0.7,3.2-0.1,3.9,1.3c1.5,3.1,4.6,5,8.1,5c4.9,0,8.8-3.9,8.9-8.8c0-0.1,0-0.1,0-3.2c-2.5,1.9-5.6,3.1-8.9,3.1
		c-8.2,0-14.8-6.6-14.8-14.7c0-8.2,6.6-14.7,14.8-14.7c8.1,0,14.8,6.6,14.8,14.7C758.6,404.5,758.6,404.5,758.6,419.3z M752.7,404.5
		c0-4.9-4.1-8.9-8.9-8.9c-4.9,0-9,4-9,8.9c0,4.9,4,8.9,9,8.9C748.7,413.5,752.7,409.4,752.7,404.5z"/>
	<path class="st1" d="M785.8,392.9v29c0,6.6-5.5,12.1-12.2,12.1c-4.7,0-8.8-2.6-10.9-6.8c-0.7-1.4-0.1-3.2,1.4-3.9
		c1.4-0.7,3.2-0.1,3.8,1.4c1.1,2.2,3.3,3.5,5.7,3.5c3.5,0,6.4-2.8,6.4-6.3v-4.2c-1.8,1.1-3.8,1.6-6.1,1.6c-6.5,0-11.8-5.2-11.8-11.7
		c0-0.1,0-0.1,0-0.1v-14.6c0-1.6,1.3-2.9,2.9-2.9s2.9,1.3,2.9,2.9v14.6c0,3.3,2.8,6,6.1,6c3.4,0,6.1-2.7,6.1-6v-14.6
		c0-1.6,1.3-2.9,2.9-2.9C784.5,390,785.8,391.3,785.8,392.9z"/>
</g>
<g>
	<path class="st2" d="M440.5,366.2c-3.6,6-10.2,10.4-18.7,10.4c-12.5,0-21.7-9.2-21.7-21c0-11.1,9.1-20.4,21.7-20.4
		c8.5,0,15.3,4,18.8,10l-8.2,4.8c-1.9-3.6-5.6-6-10.7-6c-7,0-11.9,5.1-11.9,11.7c0,6.3,4.9,11.9,11.9,11.9c4.9,0,8.6-2.5,10.5-6
		L440.5,366.2z"/>
	<path class="st2" d="M481.6,356c0,11.4-9.3,20.7-20.7,20.7c-11.5,0-20.7-9.3-20.7-20.7c0-11.3,9.2-20.7,20.7-20.7
		C472.3,335.3,481.6,344.6,481.6,356z M449.1,356c0,6.5,5.3,11.7,11.8,11.7c6.4,0,11.7-5.2,11.7-11.7c0-6.5-5.3-11.7-11.7-11.7
		C454.4,344.3,449.1,349.5,449.1,356z"/>
	<path class="st2" d="M524.1,375.9h-9.7l-20.3-24.4v24.4h-9.7V336h9.7l20.3,24.4V336h9.7V375.9z"/>
	<path class="st2" d="M560.6,348.6H551c0-2-2.4-4.7-6.5-4.7c-2.9,0-6.4,1.3-6.4,3.6c0,1.9,2.7,2.7,8.3,4.2
		c6.3,1.6,15.2,3.8,15.2,12.6c0,7.6-6.7,12.4-16.1,12.4c-12.5,0-17.8-8.5-17.8-14.7h9.6c0,0,0.8,6.3,8.7,6.3c4.3,0,5.9-1.8,5.9-3.5
		c0-2.5-3.4-3.4-7.1-4.3c-6-1.4-16.5-3.6-16.5-12.5c0-7.3,7.2-12.7,16.3-12.7C555,335.3,560.6,342.4,560.6,348.6z"/>
	<path class="st2" d="M604.4,356c0,11.4-9.3,20.7-20.7,20.7c-11.5,0-20.7-9.3-20.7-20.7c0-11.3,9.2-20.7,20.7-20.7
		C595.1,335.3,604.4,344.6,604.4,356z M571.9,356c0,6.5,5.3,11.7,11.8,11.7c6.4,0,11.7-5.2,11.7-11.7c0-6.5-5.3-11.7-11.7-11.7
		C577.2,344.3,571.9,349.5,571.9,356z"/>
	<path class="st2" d="M617.4,367h21v8.9h-30.7V336h9.7V367z"/>
	<path class="st2" d="M652,375.9h-9.7V336h9.7V375.9z"/>
	<path class="st2" d="M697.1,375.9h-9.7l-20.3-24.4v24.4h-9.7V336h9.7l20.3,24.4V336h9.7V375.9z"/>
	<path class="st2" d="M741.6,375.9h-9.7l-20.3-24.4v24.4H702V336h9.7l20.3,24.4V336h9.7V375.9z"/>
	<path class="st2" d="M785.8,356c0,11.4-9.3,20.7-20.7,20.7c-11.5,0-20.7-9.3-20.7-20.7c0-11.3,9.2-20.7,20.7-20.7
		C776.5,335.3,785.8,344.6,785.8,356z M753.3,356c0,6.5,5.3,11.7,11.8,11.7c6.4,0,11.7-5.2,11.7-11.7c0-6.5-5.3-11.7-11.7-11.7
		C758.6,344.3,753.3,349.5,753.3,356z"/>
</g>
</svg>
