<svg width="23" height="24" viewBox="0 0 23 24" fill="none" xmlns="http://www.w3.org/2000/svg">
<g clip-path="url(#clip0_3034_8499)">
<path d="M20.7828 0.563049H2.21777C1.93705 0.563049 1.70947 0.790623 1.70947 1.07135V22.9283C1.70947 23.209 1.93705 23.4366 2.21777 23.4366H20.7828C21.0635 23.4366 21.2911 23.209 21.2911 22.9283V1.07135C21.2911 0.790623 21.0635 0.563049 20.7828 0.563049ZM20.2745 1.57965V5.36481H2.72607V1.57965H20.2745ZM2.72607 22.42V6.38141H20.2745V22.42H2.72607Z" fill="#194D25"/>
<path d="M5.67424 4.07412C6.0067 4.07412 6.27621 3.80461 6.27621 3.47215C6.27621 3.13969 6.0067 2.87018 5.67424 2.87018C5.34178 2.87018 5.07227 3.13969 5.07227 3.47215C5.07227 3.80461 5.34178 4.07412 5.67424 4.07412Z" fill="#194D25"/>
<path d="M7.98527 4.07412C8.31773 4.07412 8.58725 3.80461 8.58725 3.47215C8.58725 3.13969 8.31773 2.87018 7.98527 2.87018C7.65281 2.87018 7.3833 3.13969 7.3833 3.47215C7.3833 3.80461 7.65281 4.07412 7.98527 4.07412Z" fill="#194D25"/>
<path d="M10.2963 4.07412C10.6288 4.07412 10.8983 3.80461 10.8983 3.47215C10.8983 3.13969 10.6288 2.87018 10.2963 2.87018C9.96385 2.87018 9.69434 3.13969 9.69434 3.47215C9.69434 3.80461 9.96385 4.07412 10.2963 4.07412Z" fill="#194D25"/>
<path d="M13.9084 13.1788C14.0306 13.1022 14.1452 13.0117 14.2496 12.9073C14.6129 12.544 14.8131 12.0609 14.8131 11.5469C14.8131 11.2856 14.7245 10.9778 14.5425 10.6057C14.418 10.3511 14.2466 10.0604 14.033 9.74178C13.6779 9.21213 13.3152 8.77042 13.3139 8.76897L13.2818 8.7299C13.1853 8.61248 13.0413 8.54437 12.8892 8.54437C12.7372 8.54437 12.5932 8.61248 12.4966 8.7299L12.462 8.77187C12.3999 8.84819 12.0729 9.25338 11.7454 9.74185C11.532 10.0605 11.3605 10.3511 11.2359 10.6057C11.1219 10.839 11.0445 11.0467 11.0027 11.2336H8.01904C7.73832 11.2336 7.51074 11.4612 7.51074 11.7419C7.51074 13.1648 7.71849 14.2445 8.1459 15.0425C8.60308 15.896 9.32305 16.4063 10.2446 16.5412V19.2399H9.19902C8.9183 19.2399 8.69072 19.4675 8.69072 19.7482C8.69072 20.0289 8.9183 20.2565 9.19902 20.2565H12.3068C12.5875 20.2565 12.8151 20.0289 12.8151 19.7482C12.8151 19.4675 12.5875 19.2399 12.3068 19.2399H11.2613V16.5428C13.0713 16.2873 13.7099 14.6596 13.9084 13.1788ZM12.1492 11.0524C12.2537 10.8389 12.402 10.5882 12.5899 10.3077C12.6924 10.155 12.7957 10.0097 12.8893 9.88258C12.9825 10.0094 13.0857 10.1544 13.1886 10.3077C13.3766 10.5882 13.5249 10.8388 13.6293 11.0524C13.7844 11.3694 13.7965 11.511 13.7965 11.5469C13.7965 11.7893 13.7021 12.0172 13.5308 12.1885C13.3595 12.3598 13.1316 12.4542 12.8892 12.4542C12.6469 12.4542 12.419 12.3598 12.2477 12.1884C12.0763 12.0171 11.9819 11.7892 11.9819 11.5469C11.9819 11.5111 11.9939 11.3698 12.1492 11.0524ZM8.53794 12.2502H11.098C11.1934 12.4935 11.3385 12.7169 11.5289 12.9073C11.8795 13.2579 12.3416 13.4559 12.8352 13.4695C12.638 14.5035 12.1479 15.562 10.753 15.562C10.228 15.562 8.68078 15.5617 8.53794 12.2502Z" fill="#194D25"/>
<path d="M16.2068 14.2912C15.8793 13.8027 15.5524 13.3975 15.4876 13.318L15.4555 13.279C15.359 13.1619 15.2151 13.0939 15.0634 13.0938C15.0634 13.0938 15.0632 13.0938 15.0632 13.0938C14.9115 13.0938 14.7678 13.1616 14.6712 13.2785L14.6375 13.3194C14.5999 13.3654 14.26 13.783 13.9193 14.2912C13.7061 14.6093 13.5346 14.8999 13.4098 15.155C13.2277 15.5273 13.1392 15.8352 13.1392 16.0963C13.1392 16.6102 13.3393 17.0933 13.7026 17.4567C14.066 17.8201 14.5492 18.0203 15.0631 18.0203C15.5769 18.0203 16.06 17.8201 16.4234 17.4567C16.7868 17.0933 16.9869 16.6102 16.9869 16.0963C16.9869 15.8349 16.8983 15.527 16.7163 15.1551C16.591 14.8989 16.4195 14.6082 16.2068 14.2912ZM15.7046 16.7377C15.5332 16.9092 15.3053 17.0036 15.0631 17.0036C14.8207 17.0036 14.5928 16.9092 14.4215 16.7377C14.2502 16.5664 14.1558 16.3387 14.1558 16.0963C14.1558 16.0605 14.1678 15.9189 14.323 15.6016C14.4276 15.3877 14.5759 15.1373 14.7636 14.8572C14.8662 14.7042 14.9695 14.559 15.063 14.4319C15.1566 14.5592 15.2599 14.7044 15.3625 14.8574C15.5497 15.1364 15.6979 15.3868 15.8031 15.6018C15.9583 15.9186 15.9703 16.0603 15.9703 16.0962C15.9704 16.3386 15.876 16.5664 15.7046 16.7377Z" fill="#194D25"/>
</g>
<defs>
<clipPath id="clip0_3034_8499">
<rect width="23" height="23" fill="white" transform="translate(0 0.5)"/>
</clipPath>
</defs>
</svg>
