<svg width="24" height="24" viewBox="0 0 24 24" fill="none" xmlns="http://www.w3.org/2000/svg">
<path d="M4 0C3.17752 0 2.5 0.739107 2.5 1.63636V22.3636C2.5 23.2609 3.17752 24 4 24H20C20.8225 24 21.5 23.2609 21.5 22.3636V1.63636C21.5 0.739107 20.8225 0 20 0H4ZM4 1.09091H20C20.2825 1.09091 20.5 1.32817 20.5 1.63636V22.3636C20.5 22.6718 20.2825 22.9091 20 22.9091H4C3.71748 22.9091 3.5 22.6718 3.5 22.3636V1.63636C3.5 1.32817 3.71748 1.09091 4 1.09091ZM15 2.72727C14.7348 2.72727 14.4804 2.84221 14.2929 3.04679C14.1054 3.25138 14 3.52885 14 3.81818C14 4.10751 14.1054 4.38499 14.2929 4.58957C14.4804 4.79416 14.7348 4.90909 15 4.90909C15.2652 4.90909 15.5196 4.79416 15.7071 4.58957C15.8946 4.38499 16 4.10751 16 3.81818C16 3.52885 15.8946 3.25138 15.7071 3.04679C15.5196 2.84221 15.2652 2.72727 15 2.72727ZM18 2.72727C17.7348 2.72727 17.4804 2.84221 17.2929 3.04679C17.1054 3.25138 17 3.52885 17 3.81818C17 4.10751 17.1054 4.38499 17.2929 4.58957C17.4804 4.79416 17.7348 4.90909 18 4.90909C18.2652 4.90909 18.5196 4.79416 18.7071 4.58957C18.8946 4.38499 19 4.10751 19 3.81818C19 3.52885 18.8946 3.25138 18.7071 3.04679C18.5196 2.84221 18.2652 2.72727 18 2.72727ZM12 6.54545C8.69227 6.54545 6 9.48247 6 13.0909C6 16.6993 8.69227 19.6364 12 19.6364C15.3068 19.6364 18 16.6995 18 13.0909C18 9.55109 15.3979 6.69382 12.1777 6.58487C12.1212 6.56002 12.061 6.54667 12 6.54545ZM12 7.63636C14.7662 7.63636 17 10.0722 17 13.0909C17 16.1096 14.7662 18.5455 12 18.5455C9.23273 18.5455 7 16.1097 7 13.0909C7 10.0721 9.23273 7.63636 12 7.63636ZM9.99219 10.3562C9.85975 10.3584 9.73354 10.4179 9.64127 10.5216C9.54899 10.6252 9.49819 10.7646 9.5 10.9091C9.5 12.177 9.32813 12.3884 9.0791 12.8118C8.83007 13.2352 8.5 13.8761 8.5 15.2727C8.49906 15.345 8.5113 15.4168 8.53601 15.4838C8.56072 15.5509 8.5974 15.612 8.64392 15.6634C8.69044 15.7149 8.74588 15.7558 8.80701 15.7837C8.86814 15.8116 8.93374 15.826 9 15.826C9.06626 15.826 9.13186 15.8116 9.19299 15.7837C9.25412 15.7558 9.30956 15.7149 9.35608 15.6634C9.4026 15.612 9.43928 15.5509 9.46399 15.4838C9.4887 15.4168 9.50094 15.345 9.5 15.2727C9.5 14.0261 9.66993 13.8276 9.9209 13.4009C10.1719 12.9742 10.5 12.3248 10.5 10.9091C10.5009 10.8361 10.4884 10.7637 10.4632 10.6961C10.438 10.6285 10.4006 10.5671 10.3532 10.5155C10.3059 10.464 10.2495 10.4233 10.1875 10.3959C10.1255 10.3686 10.0591 10.355 9.99219 10.3562ZM12.4922 10.3562C12.3597 10.3584 12.2335 10.4179 12.1413 10.5216C12.049 10.6252 11.9982 10.7646 12 10.9091C12 12.177 11.8281 12.3884 11.5791 12.8118C11.3301 13.2352 11 13.8761 11 15.2727C10.9991 15.345 11.0113 15.4168 11.036 15.4838C11.0607 15.5509 11.0974 15.612 11.1439 15.6634C11.1904 15.7149 11.2459 15.7558 11.307 15.7837C11.3681 15.8116 11.4337 15.826 11.5 15.826C11.5663 15.826 11.6319 15.8116 11.693 15.7837C11.7541 15.7558 11.8096 15.7149 11.8561 15.6634C11.9026 15.612 11.9393 15.5509 11.964 15.4838C11.9887 15.4168 12.0009 15.345 12 15.2727C12 14.0261 12.1699 13.8276 12.4209 13.4009C12.6719 12.9742 13 12.3248 13 10.9091C13.0009 10.8361 12.9884 10.7637 12.9632 10.6961C12.938 10.6285 12.9006 10.5671 12.8532 10.5155C12.8059 10.464 12.7495 10.4233 12.6875 10.3959C12.6255 10.3686 12.5591 10.355 12.4922 10.3562ZM14.9922 10.3562C14.8597 10.3584 14.7335 10.4179 14.6413 10.5216C14.549 10.6252 14.4982 10.7646 14.5 10.9091C14.5 12.177 14.3281 12.3884 14.0791 12.8118C13.8301 13.2352 13.5 13.8761 13.5 15.2727C13.4991 15.345 13.5113 15.4168 13.536 15.4838C13.5607 15.5509 13.5974 15.612 13.6439 15.6634C13.6904 15.7149 13.7459 15.7558 13.807 15.7837C13.8681 15.8116 13.9337 15.826 14 15.826C14.0663 15.826 14.1319 15.8116 14.193 15.7837C14.2541 15.7558 14.3096 15.7149 14.3561 15.6634C14.4026 15.612 14.4393 15.5509 14.464 15.4838C14.4887 15.4168 14.5009 15.345 14.5 15.2727C14.5 14.0261 14.6699 13.8276 14.9209 13.4009C15.1719 12.9742 15.5 12.3248 15.5 10.9091C15.5009 10.8361 15.4884 10.7637 15.4632 10.6961C15.438 10.6285 15.4006 10.5671 15.3532 10.5155C15.3059 10.464 15.2495 10.4233 15.1875 10.3959C15.1255 10.3686 15.0591 10.355 14.9922 10.3562Z" fill="#194D25"/>
</svg>
