<svg width="24" height="24" viewBox="0 0 24 24" fill="none" xmlns="http://www.w3.org/2000/svg">
<path d="M11.7144 4.06169C15.3632 4.06169 18.5305 5.82803 20.0871 8.40039C18.6913 5.1581 15.4685 2.88743 11.7144 2.88743C7.9604 2.88743 4.73763 5.1581 3.3418 8.40039C4.89837 5.82803 8.06573 4.06169 11.7144 4.06169Z" fill="#194D25"/>
<path d="M11.7144 19.9383C8.06573 19.9383 4.89837 18.1719 3.3418 15.5996C4.73763 18.8419 7.9604 21.1125 11.7144 21.1125C15.4685 21.1125 18.6913 18.8419 20.0871 15.5996C18.5305 18.1719 15.3632 19.9383 11.7144 19.9383Z" fill="#194D25"/>
<path d="M11.7143 4.71078C8.36264 4.71078 5.4524 6.28152 3.98291 8.58716C5.63129 6.88132 8.47733 5.7535 11.7143 5.7535C14.9514 5.7535 17.7974 6.88132 19.4457 8.58716C17.9763 6.28152 15.0661 4.71078 11.7143 4.71078Z" fill="#194D25"/>
<path d="M3.98291 15.4129C5.4524 17.7185 8.36264 19.2892 11.7143 19.2892C15.0661 19.2892 17.9763 17.7185 19.4457 15.413C17.7974 17.1186 14.9514 18.2465 11.7143 18.2465C8.47733 18.2465 5.63129 17.1186 3.98291 15.4129Z" fill="#194D25"/>
<path d="M13.5751 10.5021L13.497 11.0401C13.4422 11.3678 13.185 11.5781 12.8499 11.5781H10.9938L11.2437 9.97941L13.0994 9.9798C13.3722 9.9798 13.5826 10.167 13.5826 10.4084C13.5826 10.4321 13.5751 10.4633 13.5751 10.5021ZM13.2082 12.8413L13.1224 13.3716C13.0757 13.6832 12.7637 13.9639 12.4519 13.9639H10.6117L10.8612 12.3967H12.7169C12.9746 12.3967 13.2082 12.5918 13.2082 12.8024V12.8413ZM13.4114 9.16111L10.5577 9.16073L9.66797 14.7826L12.4282 14.7828C13.1613 14.7828 13.8161 14.159 13.941 13.3326L14.0268 12.8024C14.0349 12.7477 14.0424 12.701 14.0424 12.6466C14.0427 12.4126 13.9646 12.1864 13.8477 12.0774C13.8165 12.046 13.754 11.9994 13.6763 11.9524C13.9646 11.7654 14.0583 11.664 14.1905 11.3833C14.2534 11.2585 14.2845 11.1415 14.3078 11.0249L14.4092 10.3463C14.4248 10.3074 14.4327 10.253 14.4327 10.2063C14.4329 9.58202 14.0272 9.16111 13.4114 9.16111Z" fill="#194D25"/>
<path d="M18.729 9.1615L18.0656 13.3482C17.9953 13.8083 17.8005 13.9643 17.3559 13.9643L16.21 13.9639C15.8431 13.9639 15.6798 13.8392 15.6798 13.5507C15.6798 13.4882 15.6875 13.4026 15.7031 13.3012L16.3587 9.16111L15.5398 9.16073L14.8686 13.4023C14.853 13.5037 14.853 13.5974 14.853 13.6832C14.853 14.3226 15.313 14.7826 15.9526 14.7828H17.3482C18.0964 14.7828 18.744 14.1905 18.8687 13.403L19.5476 9.1615H18.729Z" fill="#194D25"/>
<path d="M5.92044 9.39948C5.52371 9.64863 5.29786 10.023 5.21166 10.5672L4.78352 13.2677C4.76022 13.4313 4.74463 13.5713 4.74463 13.7029C4.74463 14.3805 5.21127 14.7771 6.0283 14.7771L8.20732 14.7775L8.33251 13.9598H6.37084H5.94271C5.84195 13.9449 5.74865 13.8896 5.67865 13.8124C5.60055 13.7262 5.56192 13.6179 5.56192 13.5165V13.4627L5.61698 13.1125L5.73371 12.365L8.6047 12.3654L8.72951 11.5481L5.87371 11.5477L6.02146 10.5905C6.0759 10.2398 6.33286 9.98346 6.62035 9.98346H6.95519L8.98676 9.98385L9.11866 9.16643L7.06434 9.16618C6.45731 9.16618 6.22375 9.21278 5.92044 9.39948Z" fill="#194D25"/>
<path d="M1.17604 9.39912C0.778415 9.64876 0.552829 10.0227 0.466618 10.5672L0.0392437 13.2677C0.015824 13.4313 0.000379779 13.571 0 13.7029C0 14.3803 0.466366 14.7773 1.28365 14.7773L3.46282 14.7775L3.58723 13.9598L1.62684 13.9596H1.19845C1.09667 13.9449 1.00401 13.8896 0.934251 13.8124C0.855892 13.7262 0.816394 13.6179 0.816394 13.5165V13.4627L0.871461 13.1125L0.988433 12.365L3.85982 12.3654L3.98488 11.5481L1.1287 11.5477L1.27618 10.5905C1.33099 10.2398 1.58734 9.98346 1.8761 9.98346H2.20992L4.24148 9.98385L4.37438 9.16617H2.31942C1.71241 9.16579 1.47873 9.21278 1.17604 9.39912Z" fill="#194D25"/>
<path d="M20.9823 10.4398C21.0293 10.1199 21.2163 9.97955 21.5517 9.97955L23.8595 9.9799L24.0001 9.16125L21.7232 9.16099C21.3177 9.16099 21.1071 9.20756 20.8424 9.37125C20.4365 9.61305 20.2495 9.917 20.1637 10.4783L20.0464 11.1803C20.0389 11.2347 20.0389 11.2817 20.0389 11.3439C20.0389 11.913 20.5221 12.3187 21.2159 12.3187L22.0504 12.3191C22.3855 12.3191 22.5804 12.4749 22.5804 12.7242C22.5804 12.7479 22.5804 12.7711 22.5725 12.7944L22.4634 13.5042C22.4244 13.7616 22.1516 13.9642 21.8473 13.9642L19.5939 13.9638L19.4692 14.7825L21.8084 14.7827C22.5334 14.7827 23.1654 14.2525 23.2742 13.5431L23.407 12.6619C23.4149 12.6075 23.4226 12.5686 23.4226 12.5139C23.4226 11.9836 22.9317 11.5783 22.3078 11.5783L21.3252 11.5779C21.0134 11.5779 20.8808 11.4532 20.8808 11.1491C20.8808 11.1025 20.8887 11.0477 20.8964 11.001L20.9823 10.4398Z" fill="#194D25"/>
</svg>
