<?xml version="1.0" encoding="UTF-8" standalone="no"?>
<svg
   xmlns:dc="http://purl.org/dc/elements/1.1/"
   xmlns:cc="http://creativecommons.org/ns#"
   xmlns:rdf="http://www.w3.org/1999/02/22-rdf-syntax-ns#"
   xmlns:svg="http://www.w3.org/2000/svg"
   xmlns="http://www.w3.org/2000/svg"
   xmlns:sodipodi="http://sodipodi.sourceforge.net/DTD/sodipodi-0.dtd"
   xmlns:inkscape="http://www.inkscape.org/namespaces/inkscape"
   sodipodi:docname="heating_rod.svg"
   viewBox="0 0 96 96.000001"
   inkscape:version="0.92.5 (2060ec1f9f, 2020-04-08)"
   version="1.1"
   id="svg4874"
   height="96"
   width="96">
  <defs
     id="defs4876" />
  <sodipodi:namedview
     inkscape:window-maximized="1"
     inkscape:window-y="33"
     inkscape:window-x="0"
     inkscape:window-height="978"
     inkscape:window-width="1920"
     inkscape:document-rotation="0"
     inkscape:snap-others="false"
     inkscape:snap-global="true"
     inkscape:guide-bbox="true"
     showguides="true"
     inkscape:snap-center="true"
     inkscape:snap-object-midpoints="true"
     inkscape:snap-midpoints="false"
     inkscape:snap-smooth-nodes="false"
     inkscape:object-nodes="false"
     inkscape:snap-intersection-paths="true"
     inkscape:object-paths="true"
     inkscape:snap-bbox-midpoints="true"
     inkscape:snap-bbox-edge-midpoints="true"
     inkscape:bbox-nodes="true"
     inkscape:bbox-paths="true"
     inkscape:snap-bbox="true"
     fit-margin-bottom="0"
     fit-margin-right="0"
     fit-margin-left="0"
     fit-margin-top="0"
     showborder="true"
     showgrid="true"
     inkscape:current-layer="g4778"
     inkscape:document-units="px"
     inkscape:cy="52.509366"
     inkscape:cx="-12.651759"
     inkscape:zoom="2.2713827"
     inkscape:pageshadow="2"
     inkscape:pageopacity="0.0"
     borderopacity="1.0"
     bordercolor="#666666"
     pagecolor="#ffffff"
     id="base">
    <inkscape:grid
       empspacing="8"
       id="grid5451"
       type="xygrid" />
    <sodipodi:guide
       id="guide4063"
       position="8,-8.0000001"
       orientation="1,0"
       inkscape:locked="false" />
    <sodipodi:guide
       id="guide4065"
       position="4,-8.0000001"
       orientation="1,0"
       inkscape:locked="false" />
    <sodipodi:guide
       id="guide4067"
       position="-8,88.000001"
       orientation="0,1"
       inkscape:locked="false" />
    <sodipodi:guide
       id="guide4069"
       position="-8,92.000001"
       orientation="0,1"
       inkscape:locked="false" />
    <sodipodi:guide
       id="guide4071"
       position="104,4"
       orientation="0,1"
       inkscape:locked="false" />
    <sodipodi:guide
       id="guide4073"
       position="-5,8.0000001"
       orientation="0,1"
       inkscape:locked="false" />
    <sodipodi:guide
       id="guide4077"
       position="88,-8.0000001"
       orientation="1,0"
       inkscape:locked="false" />
    <sodipodi:guide
       id="guide4074"
       position="-8,84.000001"
       orientation="0,1"
       inkscape:locked="false" />
    <sodipodi:guide
       id="guide4076"
       position="12,-8.0000001"
       orientation="1,0"
       inkscape:locked="false" />
    <sodipodi:guide
       id="guide4080"
       position="84,-8.0000001"
       orientation="1,0"
       inkscape:locked="false" />
    <sodipodi:guide
       id="guide4170"
       orientation="1,0"
       position="48,-8.0000001"
       inkscape:locked="false" />
    <sodipodi:guide
       id="guide4172"
       orientation="0,1"
       position="-8,48"
       inkscape:locked="false" />
    <sodipodi:guide
       id="guide4760"
       orientation="1,0"
       position="92,-8.0000001"
       inkscape:locked="false" />
    <sodipodi:guide
       id="guide4182"
       orientation="0,1"
       position="84,8"
       inkscape:locked="false" />
  </sodipodi:namedview>
  <metadata
     id="metadata4879">
    <rdf:RDF>
      <cc:Work
         rdf:about="">
        <dc:format>image/svg+xml</dc:format>
        <dc:type
           rdf:resource="http://purl.org/dc/dcmitype/StillImage" />
        <dc:title></dc:title>
      </cc:Work>
    </rdf:RDF>
  </metadata>
  <g
     transform="translate(67.857146,-78.50504)"
     id="layer1"
     inkscape:groupmode="layer"
     inkscape:label="Layer 1">
    <g
       style="display:inline"
       id="g4845"
       transform="matrix(0,-1,-1,0,373.50506,516.50504)">
      <g
         inkscape:label="Layer 1"
         id="g4778"
         transform="matrix(-0.9996045,0,0,1,575.94296,-611.00001)"
         inkscape:export-filename="next01.png"
         inkscape:export-xdpi="90"
         inkscape:export-ydpi="90">
        <path
           style="fill:#808080;fill-opacity:1;stroke:#808080;stroke-width:0.1701427;stroke-opacity:1"
           d="m 225.76444,1025.8258 c -0.65914,1.2934 -1.94309,1.7247 -3.04908,1.0242 -0.64567,-0.4089 -1.23904,-1.552 -1.24262,-2.3937 l -0.002,-0.6033 h -1.94939 -1.94939 l -3.2e-4,2.9234 c -3.1e-4,3.3013 -0.13702,3.8908 -1.07549,4.637 -1.55272,1.2347 -3.60186,-0.1887 -3.60257,-2.5022 l -1.6e-4,-0.789 h 0.12512 c 3.76977,0 -3.89021,-0.013 -4.40563,-0.4213 -0.7248,-0.5762 -1.0752,-1.4822 -1.07549,-2.7806 l -3.2e-4,-1.0673 h -30.07888 c -24.72648,0 -25.67398,-0.013 -26.58947,-0.3517 -3.31452,-1.2279 -5.46132,-5.2683 -4.89397,-9.2106 0.49192,-3.4184 2.47855,-5.9924 5.29981,-6.8671 0.76491,-0.2372 3.30314,-0.2769 17.68008,-0.2769 h 22.78826 l 0.51558,-0.4177 c 0.83631,-0.6775 1.16804,-1.3497 1.16804,-2.3666 0,-1.0171 -0.33173,-1.6893 -1.16804,-2.3668 l -0.51558,-0.4178 h -22.78826 c -14.37694,0 -16.91517,-0.039 -17.68008,-0.2768 -2.82126,-0.8746 -4.80789,-3.44875 -5.29981,-6.86714 -0.45834,-3.18478 0.93189,-6.67602 3.34259,-8.3943 1.73705,-1.23803 0.0444,-1.16789 28.2377,-1.16789 h 29.9821 l 3.1e-4,-1.06737 c 3.2e-4,-1.29839 0.3507,-2.20435 1.0755,-2.78077 0.51541,-0.40972 8.1754,-0.42134 4.40563,-0.42134 h -0.12522 l 3.2e-4,-0.78881 c 7.8e-4,-2.31372 2.04985,-3.73692 3.60257,-2.50234 0.93847,0.74629 1.07523,1.33591 1.07549,4.63695 l 1.6e-4,2.92368 h 1.9494 1.94939 v -0.57799 c 0,-1.31305 1.22773,-2.76334 2.33928,-2.76334 0.74352,0 1.6787,0.72052 2.018,1.55477 0.29216,0.7184 0.32128,1.13261 0.32128,4.5709 0,3.43827 -0.0292,3.85249 -0.32128,4.57089 -0.3393,0.83421 -1.27448,1.55472 -2.018,1.55472 -1.11155,0 -2.25671,-1.48303 -2.25671,-2.79605 v -0.578 l -2.03196,0.0327 h -1.9494 v 13.92213 13.9217 h 1.92886 1.92887 l 0.0871,-0.7728 c 0.16347,-1.4505 1.11302,-2.4756 2.29326,-2.4756 0.81782,0 1.36309,0.3592 1.93976,1.2776 0.29877,0.4757 0.32452,0.8036 0.36365,4.6292 0.042,4.1067 0.0412,4.1188 -0.34843,4.8833 z m -48.14165,-35.38547 h -25.47504 l -0.51406,0.41765 c -0.6301,0.51197 -1.09158,1.50057 -1.09158,2.33852 0,0.88007 0.55495,1.95563 1.24823,2.41935 l 0.58768,0.3932 h 16.7498 c 18.21487,0 23.56088,-0.036 25.34043,1.0382 2.46729,1.4881 4.03727,5.25705 3.56913,8.56805 -0.36091,2.5525 -1.79836,4.9939 -3.56913,6.062 -1.77917,1.073 -7.13179,1.0381 -25.27344,1.0381 -16.36432,0 -16.6951,0.013 -17.32714,0.3713 -1.61799,0.9323 -1.74618,3.5513 -0.23398,4.7798 l 0.51406,0.4176 h 25.47504 29.91382 v -13.9217 -13.92207 z"
           id="path1020"
           inkscape:connector-curvature="0"
           sodipodi:nodetypes="ccccccccccscccscccsccsccscccscccscccccccsscscssccccccccscccccccsccscccscccccccc"
           inkscape:transform-center-x="-147.70455"
           inkscape:transform-center-y="24.906688" />
      </g>
    </g>
  </g>
</svg>
