<?xml version="1.0" encoding="UTF-8"?>
<!DOCTYPE svg PUBLIC "-//W3C//DTD SVG 1.1//EN" "http://www.w3.org/Graphics/SVG/1.1/DTD/svg11.dtd">
<svg xmlns="http://www.w3.org/2000/svg" version="1.1" width="256px" height="256px" style="shape-rendering:geometricPrecision; text-rendering:geometricPrecision; image-rendering:optimizeQuality; fill-rule:evenodd; clip-rule:evenodd" xmlns:xlink="http://www.w3.org/1999/xlink">
<g><path style="opacity:0.985" fill="#63dbb6" d="M 143.5,36.5 C 143.5,49.8333 143.5,63.1667 143.5,76.5C 133.92,73.2251 124.253,72.8918 114.5,75.5C 114.5,62.5 114.5,49.5 114.5,36.5C 124.147,35.2229 133.814,35.2229 143.5,36.5 Z"/></g>
<g><path style="opacity:0.986" fill="#71deb4" d="M 114.5,36.5 C 114.5,49.5 114.5,62.5 114.5,75.5C 103.193,79.1519 94.1931,85.8185 87.5,95.5C 86.5034,78.6749 86.1701,61.6749 86.5,44.5C 95.2897,40.0156 104.623,37.3489 114.5,36.5 Z"/></g>
<g><path style="opacity:0.987" fill="#56d9b7" d="M 143.5,36.5 C 154.306,38.2104 164.306,41.8771 173.5,47.5C 172.912,66.8529 171.912,86.1862 170.5,105.5C 165.618,91.9525 156.618,82.2859 143.5,76.5C 143.5,63.1667 143.5,49.8333 143.5,36.5 Z"/></g>
<g><path style="opacity:0.988" fill="#7adfb3" d="M 86.5,44.5 C 86.1701,61.6749 86.5034,78.6749 87.5,95.5C 79.0194,111.856 78.3527,128.523 85.5,145.5C 85.5,163.5 85.5,181.5 85.5,199.5C 77.9802,195.969 71.3135,191.302 65.5,185.5C 66.3272,180.015 66.8272,174.348 67,168.5C 67.4218,131.164 67.9218,93.8309 68.5,56.5C 73.7747,51.521 79.7747,47.521 86.5,44.5 Z"/></g>
<g><path style="opacity:0.991" fill="#4ed7b8" d="M 173.5,47.5 C 179.366,50.0398 184.366,53.7065 188.5,58.5C 187.916,110.168 187.249,161.835 186.5,213.5C 184.563,214.931 182.73,216.598 181,218.5C 176.918,214.924 173.418,210.924 170.5,206.5C 171.084,183.996 171.084,161.663 170.5,139.5C 174.395,128.128 174.395,116.795 170.5,105.5C 171.912,86.1862 172.912,66.8529 173.5,47.5 Z"/></g>
<g><path style="opacity:0.996" fill="#81e1b3" d="M 68.5,56.5 C 67.9218,93.8309 67.4218,131.164 67,168.5C 66.8272,174.348 66.3272,180.015 65.5,185.5C 61.4564,182.457 58.1231,178.791 55.5,174.5C 55.9946,139.664 55.9946,104.997 55.5,70.5C 59.1266,65.2056 63.46,60.539 68.5,56.5 Z"/></g>
<g><path style="opacity:0.991" fill="#46d6b9" d="M 188.5,58.5 C 210.856,80.5431 219.356,107.21 214,138.5C 211.408,153.013 205.575,166.013 196.5,177.5C 200.979,183.147 205.646,188.647 210.5,194C 202.626,200.713 194.626,207.213 186.5,213.5C 187.249,161.835 187.916,110.168 188.5,58.5 Z"/></g>
<g><path style="opacity:0.982" fill="#86e2b2" d="M 55.5,70.5 C 55.9946,104.997 55.9946,139.664 55.5,174.5C 39.1803,152.279 34.347,127.612 41,100.5C 43.9883,89.5255 48.8217,79.5255 55.5,70.5 Z"/></g>
<g><path style="opacity:0.984" fill="#60dbb6" d="M 143.5,127.5 C 143.629,154.508 143.296,181.508 142.5,208.5C 137.881,209.314 133.214,209.647 128.5,209.5C 128.589,196.254 129.589,183.254 131.5,170.5C 133.288,170.785 134.955,170.452 136.5,169.5C 130.878,161.876 124.878,154.543 118.5,147.5C 126.852,140.81 135.186,134.143 143.5,127.5 Z"/></g>
<g><path style="opacity:0.988" fill="#56d9b7" d="M 170.5,139.5 C 171.084,161.663 171.084,183.996 170.5,206.5C 168.521,205.188 166.855,203.521 165.5,201.5C 158.127,204.847 150.461,207.18 142.5,208.5C 143.296,181.508 143.629,154.508 143.5,127.5C 144.962,126.542 146.295,125.376 147.5,124C 148.167,123.333 148.833,123.333 149.5,124C 156.041,130.872 162.207,138.039 168,145.5C 168.938,143.512 169.772,141.512 170.5,139.5 Z"/></g>
<g><path style="opacity:0.988" fill="#70ddb5" d="M 85.5,145.5 C 91.3272,155.659 99.6605,162.993 110.5,167.5C 110.829,181.01 110.496,194.344 109.5,207.5C 100.893,206.523 92.8928,203.857 85.5,199.5C 85.5,181.5 85.5,163.5 85.5,145.5 Z"/></g>
<g><path style="opacity:0.986" fill="#67dcb6" d="M 110.5,167.5 C 117.224,170.072 124.224,171.072 131.5,170.5C 129.589,183.254 128.589,196.254 128.5,209.5C 121.918,209.844 115.584,209.177 109.5,207.5C 110.496,194.344 110.829,181.01 110.5,167.5 Z"/></g>
</svg>
