<svg width="25" height="24" viewBox="0 0 25 24" fill="none" xmlns="http://www.w3.org/2000/svg">
<path fill-rule="evenodd" clip-rule="evenodd" d="M10.2256 9.79741C10.2256 8.59762 11.2025 7.625 12.4075 7.625C13.6125 7.625 14.5893 8.59762 14.5893 9.79741C14.5893 10.9972 13.6125 11.9698 12.4075 11.9698C12.0324 11.9698 11.6795 11.8756 11.3712 11.7096L8.0314 15.0733L0.875 15.0733V13.8319H7.5108L10.4888 10.8326C10.321 10.5249 10.2256 10.1722 10.2256 9.79741ZM12.4075 10.7284C11.891 10.7284 11.4724 10.3116 11.4724 9.79741C11.4724 9.28322 11.891 8.86638 12.4075 8.86638C12.9239 8.86638 13.3425 9.28322 13.3425 9.79741C13.3425 10.3116 12.9239 10.7284 12.4075 10.7284Z" fill="#194D25"/>
<path fill-rule="evenodd" clip-rule="evenodd" d="M15.5244 12.2802C14.3194 12.2802 13.3425 13.2528 13.3425 14.4526C13.3425 15.6524 14.3194 16.625 15.5244 16.625C16.5127 16.625 17.3476 15.9706 17.6158 15.0733H24.875V13.8319H17.6158C17.3476 12.9345 16.5127 12.2802 15.5244 12.2802ZM14.5893 14.4526C14.5893 14.9668 15.0079 15.3836 15.5244 15.3836C16.0408 15.3836 16.4594 14.9668 16.4594 14.4526C16.4594 13.9384 16.0408 13.5216 15.5244 13.5216C15.0079 13.5216 14.5893 13.9384 14.5893 14.4526Z" fill="#194D25"/>
</svg>
