<svg width="25" height="15" viewBox="0 0 25 15" fill="none" xmlns="http://www.w3.org/2000/svg">
<path fill-rule="evenodd" clip-rule="evenodd" d="M10.2256 2.79741C10.2256 1.59762 11.2025 0.625 12.4075 0.625C13.6125 0.625 14.5893 1.59762 14.5893 2.79741C14.5893 3.9972 13.6125 4.96983 12.4075 4.96983C12.0324 4.96983 11.6795 4.87561 11.3712 4.70964L8.0314 8.07328L0.875 8.07328V6.8319H7.5108L10.4888 3.83263C10.321 3.52488 10.2256 3.17223 10.2256 2.79741ZM12.4075 3.72845C11.891 3.72845 11.4724 3.31161 11.4724 2.79741C11.4724 2.28322 11.891 1.86638 12.4075 1.86638C12.9239 1.86638 13.3425 2.28322 13.3425 2.79741C13.3425 3.31161 12.9239 3.72845 12.4075 3.72845Z" fill="#194D25"/>
<path fill-rule="evenodd" clip-rule="evenodd" d="M15.5244 5.28017C14.3194 5.28017 13.3425 6.25279 13.3425 7.45259C13.3425 8.65238 14.3194 9.625 15.5244 9.625C16.5127 9.625 17.3476 8.97063 17.6158 8.07328H24.875V6.8319H17.6158C17.3476 5.93454 16.5127 5.28017 15.5244 5.28017ZM14.5893 7.45259C14.5893 7.96678 15.0079 8.38362 15.5244 8.38362C16.0408 8.38362 16.4594 7.96678 16.4594 7.45259C16.4594 6.93839 16.0408 6.52155 15.5244 6.52155C15.0079 6.52155 14.5893 6.93839 14.5893 7.45259Z" fill="#194D25"/>
</svg>
