<svg width="24" height="24" viewBox="0 0 24 24" fill="none" xmlns="http://www.w3.org/2000/svg">
<path d="M2.76904 0.635803V23.3642H3.27255H20.7279H21.2315V22.8397V0.635803H2.76904ZM20.2244 22.3151H3.77605V5.81116H20.2244L20.2244 22.3151ZM20.2244 5.11182H3.77605V1.68481H20.2244L20.2244 5.11182Z" fill="#194D25"/>
<path d="M12.0002 18.8714C15.013 18.871 17.4548 16.3278 17.455 13.1893C17.4548 10.0508 15.013 7.50751 12.0002 7.5072C8.98746 7.50751 6.54558 10.0508 6.54541 13.1893C6.54558 16.3278 8.98746 18.8711 12.0002 18.8714ZM8.61785 9.66564C9.48444 8.76348 10.6781 8.20685 12.0002 8.20654C13.3222 8.20685 14.5158 8.76348 15.3826 9.66564C16.2488 10.5685 16.7835 11.8121 16.7837 13.1893C16.7835 14.5664 16.2489 15.8098 15.3826 16.7126C14.5159 17.6147 13.3223 18.1717 12.0002 18.1721C10.6781 18.1717 9.48444 17.6148 8.61785 16.7126C7.75165 15.8098 7.21695 14.5664 7.21678 13.1893C7.21695 11.8121 7.7516 10.5685 8.61785 9.66564Z" fill="#194D25"/>
<path d="M12 17.2443C14.1502 17.244 15.893 15.4291 15.8932 13.1891C15.8928 10.9497 14.1502 9.13408 12 9.13373C9.84991 9.13408 8.10727 10.9497 8.10693 13.1891C8.1071 15.4291 9.84991 17.244 12 17.2443ZM9.7219 10.8162C10.3061 10.208 11.1094 9.83302 12 9.83302C12.8907 9.83302 13.694 10.208 14.2782 10.8162C14.8617 11.4246 15.2217 12.2616 15.2218 13.1891C15.2217 14.1168 14.8617 14.9538 14.2782 15.5623C13.694 16.1701 12.8907 16.5447 12 16.545C11.1094 16.5447 10.3061 16.1701 9.7219 15.5623C9.1384 14.9538 8.77843 14.1168 8.77826 13.1891C8.77843 12.2616 9.1384 11.4246 9.7219 10.8162Z" fill="#194D25"/>
<path d="M14.8951 3.82647C15.2195 3.82647 15.4825 3.5525 15.4825 3.21453C15.4825 2.87657 15.2195 2.6026 14.8951 2.6026C14.5706 2.6026 14.3076 2.87657 14.3076 3.21453C14.3076 3.5525 14.5706 3.82647 14.8951 3.82647Z" fill="#194D25"/>
<path d="M17.5806 3.82647C17.9051 3.82647 18.1681 3.5525 18.1681 3.21453C18.1681 2.87657 17.9051 2.6026 17.5806 2.6026C17.2562 2.6026 16.9932 2.87657 16.9932 3.21453C16.9932 3.5525 17.2562 3.82647 17.5806 3.82647Z" fill="#194D25"/>
</svg>
