<?xml version="1.0" encoding="UTF-8" standalone="no"?>
<!-- Created with Inkscape (http://www.inkscape.org/) -->

<svg
   width="566mm"
   height="99mm"
   viewBox="0 0 566 99"
   version="1.1"
   id="svg5"
   inkscape:version="1.1.2 (0a00cf5339, 2022-02-04)"
   sodipodi:docname="logo-widesvg.svg"
   xmlns:inkscape="http://www.inkscape.org/namespaces/inkscape"
   xmlns:sodipodi="http://sodipodi.sourceforge.net/DTD/sodipodi-0.dtd"
   xmlns="http://www.w3.org/2000/svg"
   xmlns:svg="http://www.w3.org/2000/svg">
  <sodipodi:namedview
     id="namedview7"
     pagecolor="#ffffff"
     bordercolor="#666666"
     borderopacity="1.0"
     inkscape:pageshadow="2"
     inkscape:pageopacity="0.0"
     inkscape:pagecheckerboard="0"
     inkscape:document-units="mm"
     showgrid="false"
     inkscape:zoom="0.22645918"
     inkscape:cx="839.0033"
     inkscape:cy="269.36422"
     inkscape:window-width="1920"
     inkscape:window-height="1163"
     inkscape:window-x="1920"
     inkscape:window-y="0"
     inkscape:window-maximized="1"
     inkscape:current-layer="layer1" />
  <defs
     id="defs2">
    <clipPath
       id="clip0_2263_1252">
      <rect
         width="200"
         height="35"
         fill="#ffffff"
         id="rect950"
         x="0"
         y="0" />
    </clipPath>
  </defs>
  <g
     inkscape:label="Ebene 1"
     inkscape:groupmode="layer"
     id="layer1">
    <g
       style="fill:none"
       id="g1024"
       transform="scale(2.83,2.8285714)">
      <g
         clip-path="url(#clip0_2263_1252)"
         id="g948">
        <path
           d="m 164.52,2.39148 c 0.939,-0.23028 1.828,-0.42766 2.421,-0.5428 0.708,-0.14804 1.203,-0.23028 1.96,-0.36186 l 2.669,2.23698 c -0.033,0.06579 -0.066,0.14804 -0.066,0.23028 l -6.177,0.47701 c -0.082,-0.21383 -0.28,-0.37832 -0.511,-0.41121 z"
           fill="#f4f6f4"
           id="path824" />
        <path
           d="m 153.747,12.3592 5.732,-1.9244 c 0.099,0.2302 0.33,0.3783 0.593,0.3783 h 0.033 l 0.56,1.4474 -1.531,0.7731 2.157,2.5331 -0.23,2.1383 c -0.956,0.3947 -1.565,0.6579 -2.455,1.0527 -0.905,0.4112 -1.811,0.8224 -2.964,1.3981 l -2.85,-1.612 c 0,-0.0329 0,-0.0658 0,-0.0987 0,-0.2467 -0.148,-0.4605 -0.346,-0.5757 l 0.675,-4.8029 c 0.33,-0.0329 0.593,-0.3125 0.593,-0.6415 z"
           fill="#f4f6f4"
           id="path826" />
        <path
           d="m 161.555,15.8627 1.12,1.2995 -1.285,0.4276 z"
           fill="#f4f6f4"
           id="path828" />
        <path
           d="m 160.682,10.2374 4.266,0.4112 c -0.824,0.2138 -1.532,0.4605 -2.075,0.6579 -0.807,0.2961 -1.137,0.4441 -1.845,0.7731 l -0.593,-1.431 c 0.132,-0.0987 0.214,-0.2467 0.247,-0.4112 z"
           fill="#f4f6f4"
           id="path830" />
        <path
           d="m 160.435,9.64527 3.97,-4.42463 c 0.098,0.04935 0.197,0.08224 0.312,0.08224 0.313,0 0.577,-0.21383 0.626,-0.5099 l 6.194,-0.5428 c 0.099,0.23028 0.329,0.39476 0.593,0.39476 l 1.713,4.2766 c -1.993,0.19738 -2.949,0.34542 -5.09,0.77308 -1.301,0.26318 -1.828,0.39478 -2.981,0.70728 l -5.14,-0.4441 C 160.6,9.82621 160.534,9.72751 160.435,9.64527 Z"
           fill="#f4f6f4"
           id="path832" />
        <path
           d="m 172.739,4.2337 9.175,0.54281 c 0,0.03289 0,0.06579 0,0.09868 0,0.11514 0.033,0.23028 0.099,0.32897 l -2.718,3.33904 c -0.906,0.0329 -1.301,0.04934 -2.339,0.11513 -1.021,0.04935 -1.647,0.0987 -2.701,0.16449 l -1.796,-4.2766 c 0.116,-0.06579 0.214,-0.18093 0.28,-0.31252 z"
           fill="#f4f6f4"
           id="path834" />
        <path
           d="m 183.018,5.30286 6.786,3.02651 c 0,0.01645 0,0.04935 0,0.0658 0,0.09869 0.016,0.19738 0.066,0.27962 l -5.386,4.50691 c -0.099,-0.0823 -0.231,-0.1152 -0.379,-0.1152 -0.033,0 -0.066,0 -0.083,0 l -0.593,-3.93115 2.026,-0.23028 -2.075,-0.27963 -0.593,-3.14165 c 0.099,-0.0329 0.181,-0.09869 0.231,-0.18093 z"
           fill="#f4f6f4"
           id="path836" />
        <path
           d="m 182.194,5.46735 c 0.099,0.04934 0.198,0.08224 0.313,0.08224 l 0.511,3.09231 c -0.577,-0.04935 -0.626,-0.04935 -1.483,-0.08224 -0.889,-0.0329 -1.169,-0.0329 -1.911,-0.0329 z"
           fill="#f4f6f4"
           id="path838" />
        <path
           d="m 179.032,9.51363 c 0.889,-0.09869 1.301,-0.14804 2.273,-0.23028 0.823,-0.06579 1.087,-0.09869 1.795,-0.14804 l 0.593,4.04629 c -0.115,0.0987 -0.214,0.2303 -0.247,0.3783 l -8.203,-0.1809 v -0.0164 c 0,-0.1152 -0.033,-0.2139 -0.082,-0.3126 z"
           fill="#f4f6f4"
           id="path840" />
        <path
           d="m 174.732,10.369 c 0.676,-0.1645 0.972,-0.2303 1.73,-0.39477 0.955,-0.21383 1.235,-0.26317 2.026,-0.39476 l -3.542,3.25683 c -0.065,-0.0329 -0.131,-0.0494 -0.197,-0.0658 z"
           fill="#f4f6f4"
           id="path842" />
        <path
           d="m 169.297,12.1947 c 0.988,-0.3783 1.729,-0.625 2.553,-0.9046 1.021,-0.3454 1.565,-0.5099 2.586,-0.7896 l 0.016,2.2864 c -0.164,0.0329 -0.313,0.148 -0.411,0.2796 z"
           fill="#f4f6f4"
           id="path844" />
        <path
           d="m 166.793,13.3297 c 0.395,-0.1974 0.511,-0.2467 1.021,-0.477 0.478,-0.2303 0.626,-0.2632 1.021,-0.4277 l 5.123,0.9541 v 0.0164 c 0,0.1645 0.05,0.2961 0.148,0.4112 l -3.706,3.7996 z"
           fill="#f4f6f4"
           id="path846" />
        <path
           d="m 170.631,17.8695 3.706,-3.8983 c 0.082,0.0493 0.198,0.0822 0.297,0.0822 0.098,0 0.197,-0.0164 0.28,-0.0658 l 4.085,6.0202 c -0.116,0.1151 -0.182,0.2631 -0.182,0.4441 0,0.0164 0,0.0493 0,0.0658 l -7.231,2.5001 c -0.115,-0.1973 -0.313,-0.3125 -0.56,-0.3125 -0.033,0 -0.082,0 -0.115,0.0165 l -1.763,-2.9608 c 0.462,-0.1151 0.758,-0.2138 1.203,-0.2796 0.478,-0.0822 0.708,-0.148 1.169,-0.2303 z"
           fill="#f4f6f4"
           id="path848" />
        <path
           d="m 175.227,13.6258 8.235,0.2961 c 0.033,0.0822 0.066,0.1645 0.132,0.2302 l -3.871,5.757 c -0.082,-0.0493 -0.181,-0.0658 -0.296,-0.0658 -0.066,0 -0.132,0.0165 -0.181,0.0329 l -4.118,-6.0695 c 0.049,-0.0658 0.082,-0.1316 0.099,-0.1809 z"
           fill="#f4f6f4"
           id="path850" />
        <path
           d="m 186.987,16.5865 c -1.07,1.0692 -1.993,1.9903 -2.783,2.6975 -0.808,0.7238 -1.812,1.7107 -2.982,2.7798 L 180.02,20.748 c 0.049,-0.0987 0.082,-0.1974 0.082,-0.3126 0,-0.1151 -0.033,-0.2302 -0.082,-0.3125 l 3.854,-5.8227 c 0.083,0.0329 0.165,0.0493 0.247,0.0493 0.116,0 0.231,-0.0329 0.33,-0.0822 z"
           fill="#f4f6f4"
           id="path852" />
        <path
           d="m 180.926,22.2777 c -0.807,0.6415 -1.45,1.1349 -2.076,1.6448 -0.79,0.6579 -1.433,1.1514 -2.355,1.8751 l -4.826,-2.3027 c 0.016,-0.0658 0.033,-0.1152 0.033,-0.181 v -0.0164 l 7.198,-2.4673 c 0.115,0.1809 0.313,0.2961 0.543,0.2961 0.116,0 0.214,-0.0329 0.297,-0.0658 z"
           fill="#f4f6f4"
           id="path854" />
        <path
           d="m 163.186,21.0275 c 1.037,-0.296 1.515,-0.4441 2.701,-0.6743 1.417,-0.2797 1.795,-0.3619 2.965,-0.5428 l 1.795,3.0265 c -0.131,0.1151 -0.23,0.296 -0.23,0.4934 0,0.0987 0.016,0.181 0.066,0.2632 l -6.243,5.8721 c -0.099,-0.0658 -0.231,-0.1151 -0.363,-0.1151 -0.016,0 -0.049,0 -0.065,0 l -2.603,-5.757 c 0.165,-0.1151 0.28,-0.3125 0.28,-0.5263 0,-0.0987 -0.016,-0.1974 -0.066,-0.2797 z"
           fill="#f4f6f4"
           id="path856" />
        <path
           d="m 161.044,21.5375 1.647,-0.3948 -1.498,1.431 c -0.05,-0.0329 -0.099,-0.0658 -0.149,-0.0987 z"
           fill="#f4f6f4"
           id="path858" />
        <path
           d="m 159.397,22.2119 1.334,-0.5757 -0.033,0.773 c -0.164,0.0329 -0.296,0.1152 -0.395,0.2303 z"
           fill="#f4f6f4"
           id="path860" />
        <path
           d="m 146.417,11.3723 c 1.071,-1.0362 2.274,-2.00666 2.9,-2.45077 0.889,-0.62504 2.091,-1.44746 3.524,-2.18764 l 0.099,5.04971 c -0.263,0.0822 -0.477,0.3289 -0.477,0.625 0,0.1151 0.033,0.2138 0.082,0.3125 l -5.485,4.4576 c -0.066,-0.0658 -0.148,-0.1152 -0.247,-0.1316 z"
           fill="#f4f6f4"
           id="path862" />
        <path
           d="m 147.241,17.8859 4.332,0.5922 c 0.017,0.3289 0.297,0.6086 0.642,0.6086 l 0.264,2.8949 c 0,0 -1.828,1.283 -3.163,2.1054 -1.186,0.7237 -3.59,2.4508 -3.59,2.4508 l 0.988,-8.2078 c 0.263,-0.0658 0.461,-0.2302 0.527,-0.4441 z"
           fill="#f4f6f4"
           id="path864" />
        <path
           d="m 151.639,18.1327 -4.365,-0.4935 c 0,-0.0987 -0.033,-0.2138 -0.066,-0.2961 l 5.469,-4.4575 c 0.066,0.0494 0.148,0.0987 0.23,0.1152 l -0.741,4.7865 c -0.231,0.0164 -0.412,0.148 -0.527,0.3454 z"
           fill="#f4f6f4"
           id="path866" />
        <path
           d="m 164.174,4.97392 -3.937,4.55622 c -0.066,-0.01645 -0.132,-0.0329 -0.198,-0.0329 -0.362,0 -0.642,0.27962 -0.642,0.64146 l -5.716,1.9738 c -0.082,-0.1644 -0.23,-0.296 -0.411,-0.3454 l -0.099,-5.19768 c 1.96,-0.98691 3.657,-1.6942 5.155,-2.26989 1.713,-0.65794 3.525,-1.25008 5.831,-1.82578 l 0.264,1.6284 c -0.181,0.11514 -0.313,0.31252 -0.313,0.55925 -0.016,0.09869 0.016,0.21382 0.066,0.31252 z"
           fill="#f4f6f4"
           id="path868" />
        <path
           d="m 169.247,1.38816 c 1.071,-0.18093 2.043,-0.31252 2.767,-0.394759 0.939,-0.115139 1.648,-0.180934 2.702,-0.263176 l -2.257,2.681095 c -0.082,-0.04935 -0.181,-0.06579 -0.28,-0.06579 -0.148,0 -0.28,0.04934 -0.379,0.13158 z"
           fill="#f4f6f4"
           id="path870" />
        <path
           d="m 152.726,18.8235 2.619,1.4639 -2.586,1.4475 -0.28,-2.714 c 0.099,-0.0494 0.181,-0.1152 0.247,-0.1974 z"
           fill="#f4f6f4"
           id="path872" />
        <path
           d="m 175.21,0.631487 c 0.889,-0.115139 1.499,-0.197382 2.306,-0.263176 0.791,-0.049345 1.466,-0.115138 2.421,-0.148035 l 2.208,4.161454 c -0.05,0.0329 -0.099,0.08225 -0.132,0.13159 L 172.772,3.98697 C 172.756,3.85538 172.706,3.74024 172.64,3.64155 Z"
           fill="#f4f6f4"
           id="path874" />
        <path
           d="m 180.3,0.170958 c 1.136,-0.016448 2.026,-0.049348 2.932,-0.049348 1.087,0 1.976,-0.0493454 3.245,-0.0822423 L 190.1,7.85238 c -0.098,0.06579 -0.197,0.14804 -0.247,0.24673 l -6.72,-3.01007 c 0.016,-0.04934 0.016,-0.11514 0.016,-0.16448 0,-0.36187 -0.296,-0.64149 -0.642,-0.64149 -0.033,0 -0.066,0 -0.115,0.01644 z"
           fill="#f4f6f4"
           id="path876" />
        <path
           d="m 191.039,8.69122 2.504,0.52636 c -1.186,1.43102 -2.141,2.54952 -3.097,3.60222 -1.087,1.2007 -1.91,2.1383 -3.162,3.4706 l -2.586,-2.385 c 0.016,-0.0658 0.033,-0.1481 0.033,-0.2138 0,-0.0823 -0.017,-0.1645 -0.05,-0.2303 L 190.1,8.9544 c 0.099,0.06579 0.215,0.09869 0.346,0.09869 0.264,0 0.478,-0.14804 0.593,-0.36187 z"
           fill="#f4f6f4"
           id="path878" />
        <path
           d="m 176.182,26.0773 c -1.334,1.0856 -2.224,1.7106 -3.591,2.5824 -1.532,0.9869 -2.125,1.3159 -3.558,2.0396 l -4.53,-0.9047 c -0.016,-0.0493 -0.033,-0.1151 -0.065,-0.1645 l 6.275,-5.7898 c 0.099,0.0658 0.214,0.0987 0.33,0.0987 0.197,0 0.362,-0.0823 0.477,-0.2138 z"
           fill="#f4f6f4"
           id="path880" />
        <path
           d="m 168.638,30.9131 c -0.659,0.2797 -1.021,0.4277 -1.68,0.7073 -0.577,0.2467 -0.989,0.4112 -1.615,0.6579 l -1.004,-1.7928 c 0.082,-0.0658 0.148,-0.1645 0.181,-0.2632 z"
           fill="#f4f6f4"
           id="path882" />
        <path
           d="m 153.072,24.9752 c 1.186,-0.6086 1.828,-0.9046 3.08,-1.4803 1.367,-0.6251 1.713,-0.7238 2.817,-1.135 l 1.202,0.5922 c 0,0.0329 -0.016,0.0658 -0.016,0.1151 0,0.1151 0.033,0.2303 0.082,0.3125 l -6.226,7.5992 c -0.082,-0.0493 -0.165,-0.0987 -0.264,-0.1151 z"
           fill="#f4f6f4"
           id="path884" />
        <path
           d="m 160.929,23.6922 2.602,5.7899 c -0.148,0.0987 -0.247,0.2467 -0.28,0.4276 l -8.993,1.4146 c -0.017,-0.0658 -0.05,-0.1316 -0.082,-0.1809 l 6.275,-7.5663 c 0.116,0.0822 0.247,0.1316 0.379,0.1316 0.05,0 0.082,0 0.099,-0.0165 z"
           fill="#f4f6f4"
           id="path886" />
        <path
           d="m 139.203,29.3011 4.579,-1.2007 -4.414,4.1121 c -0.099,-0.5592 -0.149,-0.9046 -0.165,-1.4474 -0.033,-0.3948 -0.05,-0.8883 0,-1.464 z"
           fill="#f4f6f4"
           id="path888" />
        <path
           d="m 139.219,28.9228 c -0.049,-1.5626 0.083,-2.8127 0.198,-4.0134 0.082,-0.8718 0.56,-3.0923 1.252,-4.9674 l 4.101,7.3524 -0.51,0.3948 z"
           fill="#f4f6f4"
           id="path890" />
        <path
           d="m 140.784,19.5472 c 0.61,-1.431 1.285,-2.6482 1.845,-3.5529 0.642,-1.0198 1.96,-2.862 3.492,-4.4246 l 0.346,5.5102 c -0.28,0.0658 -0.478,0.329 -0.478,0.6251 0,0.2796 0.181,0.5099 0.429,0.6086 l -0.989,8.438 -0.428,0.3454 z"
           fill="#f4f6f4"
           id="path892" />
        <path
           d="m 186.823,0.00645334 c 0.84,-0.01644845 1.532,-3.01e-6 2.141,0.03289386 0.544,0.0328969 0.955,0.0493454 1.565,0.0822418 l 2.619,2.072501 c -0.066,0.0987 -0.116,0.23029 -0.116,0.36187 0,0.16449 0.066,0.31252 0.165,0.42766 l -2.471,4.83585 c -0.082,-0.0329 -0.164,-0.04935 -0.263,-0.04935 -0.033,0 -0.05,0 -0.082,0 z"
           fill="#f4f6f4"
           id="path894" />
        <path
           d="m 191.056,0.138062 2.981,0.164484 -0.313,1.595504 c -0.016,0 -0.049,0 -0.066,0 -0.098,0 -0.197,0.01644 -0.28,0.06579 z"
           fill="#f4f6f4"
           id="path896" />
        <path
           d="m 194.383,0.31897 2.24,0.164484 1.532,2.779786 -0.659,0.82242 -3.179,-1.46391 c 0,-0.03289 0,-0.06579 0,-0.08224 0,-0.23028 -0.132,-0.44411 -0.313,-0.5428 z"
           fill="#f4f6f4"
           id="path898" />
        <path
           d="M 197.035,0.450562 200,0.746637 198.402,2.95073 Z"
           fill="#f4f6f4"
           id="path900" />
        <path
           d="m 197.348,4.39818 c -0.675,0.88821 -1.219,1.61195 -1.729,2.26988 -0.495,0.62505 -1.088,1.38167 -1.796,2.23699 L 191.105,8.4116 V 8.3787 c 0,-0.13159 -0.049,-0.26318 -0.115,-0.36187 l 2.553,-4.85229 c 0.05,0.01645 0.082,0.01645 0.132,0.01645 0.198,0 0.395,-0.09869 0.511,-0.24672 z"
           fill="#f4f6f4"
           id="path902" />
        <path
           d="m 164.998,32.4264 -1.993,0.7072 0.823,-2.4672 c 0.017,0 0.033,0 0.05,0 0.082,0 0.148,-0.0165 0.214,-0.0329 z"
           fill="#f4f6f4"
           id="path904" />
        <path
           d="m 162.642,33.2652 c -1.054,0.2961 -1.482,0.4277 -2.701,0.7073 -1.285,0.2961 -1.779,0.4277 -2.932,0.6579 L 154.176,31.9 c 0.066,-0.0822 0.115,-0.1974 0.131,-0.3125 l 8.978,-1.4146 c 0.032,0.148 0.131,0.2796 0.263,0.3783 z"
           fill="#f4f6f4"
           id="path906" />
        <path
           d="m 156.548,34.6962 c -1.433,0.1481 -2.241,0.1974 -3.707,0.2632 -1.531,0.0658 -2.355,0.0494 -3.87,-0.0329 l 4.216,-2.9772 c 0.116,0.1481 0.297,0.2303 0.495,0.2303 0.082,0 0.181,-0.0164 0.247,-0.0493 z"
           fill="#f4f6f4"
           id="path908" />
        <path
           d="m 148.048,34.8278 c -1.416,-0.1645 -2.075,-0.3125 -3.607,-0.5922 -1.697,-0.3125 -2.438,-0.5592 -3.953,-1.0527 1.103,-1.0033 2.108,-1.8093 2.964,-2.4508 0.676,-0.5099 1.45,-1.0527 2.422,-1.6777 z"
           fill="#f4f6f4"
           id="path910" />
        <path
           d="m 146.088,28.9228 0.741,-0.4605 6.259,2.7962 c -0.033,0.0823 -0.065,0.1809 -0.065,0.2632 0,0.0493 0,0.0822 0.016,0.1316 l -4.563,3.2732 z"
           fill="#f4f6f4"
           id="path912" />
        <path
           d="m 147.076,28.2649 c 1.071,-0.6415 1.681,-0.9705 2.768,-1.5955 1.136,-0.658 1.746,-0.9541 2.866,-1.5298 l 0.774,5.7735 c -0.082,0.0329 -0.148,0.0657 -0.214,0.1151 z"
           fill="#f4f6f4"
           id="path914" />
        <path
           d="m 85.3237,24.5805 c 0,0.5592 -0.4612,1.0198 -1.0377,1.0198 h -7.1817 c 0.4283,1.25 1.5978,2.1383 2.9979,2.1383 0.4776,0 1.3342,-0.0329 2.3225,-0.6909 0.4777,-0.3125 1.1201,-0.0164 1.3671,0.477 0.2471,0.5099 -0.0164,1.0527 -0.4941,1.3653 -1.3672,0.9046 -2.4378,0.8882 -3.1955,0.8882 -2.8991,0 -5.2216,-2.3357 -5.2216,-5.1977 0,-2.8785 2.3225,-5.1977 5.2216,-5.1977 2.5201,0 5.2215,1.8257 5.2215,5.1977 z m -8.2194,-1.0363 h 6.0122 c -0.4447,-1.4475 -1.7625,-2.1054 -3.0143,-2.1054 -1.4001,0 -2.5532,0.8882 -2.9979,2.1054 z"
           fill="#f4f6f4"
           id="path916" />
        <path
           d="m 97.0185,24.5805 v 4.1614 c 0,0.5757 -0.4612,1.0363 -1.0377,1.0363 -0.56,0 -1.0212,-0.4606 -1.0212,-1.0363 v -4.1614 c 0,-1.7436 -1.4166,-3.1417 -3.1626,-3.1417 -1.746,0 -3.1626,1.4146 -3.1626,3.1417 v 4.1614 c 0,0.5757 -0.4612,1.0363 -1.0377,1.0363 -0.56,0 -1.0213,-0.4606 -1.0213,-1.0363 v -4.1614 c 0,-2.8785 2.3555,-5.1977 5.2216,-5.1977 2.8661,0 5.2215,2.3192 5.2215,5.1977 z"
           fill="#f4f6f4"
           id="path918" />
        <path
           d="m 108.681,24.5805 c 0,0.5592 -0.462,1.0198 -1.038,1.0198 h -7.182 c 0.429,1.25 1.598,2.1383 2.998,2.1383 0.478,0 1.334,-0.0329 2.323,-0.6909 0.477,-0.3125 1.12,-0.0164 1.367,0.477 0.247,0.5099 -0.017,1.0527 -0.494,1.3653 -1.368,0.9046 -2.438,0.8882 -3.196,0.8882 -2.899,0 -5.2215,-2.3357 -5.2215,-5.1977 0,-2.8785 2.3225,-5.1977 5.2215,-5.1977 2.52,0 5.222,1.8257 5.222,5.1977 z m -8.203,-1.0363 h 6.012 c -0.445,-1.4475 -1.779,-2.1054 -3.031,-2.1054 -1.384,0 -2.553,0.8882 -2.981,2.1054 z"
           fill="#f4f6f4"
           id="path920" />
        <path
           d="m 116.192,20.419 c 0,0.5592 -0.461,1.0362 -1.038,1.0362 -1.746,0 -3.162,1.4146 -3.162,3.1417 v 4.1614 c 0,0.5593 -0.462,1.0363 -1.022,1.0363 -0.576,0 -1.037,-0.477 -1.037,-1.0363 v -4.1614 c 0,-2.8785 2.355,-5.1977 5.221,-5.1977 0.593,0.0164 1.038,0.4605 1.038,1.0198 z"
           fill="#f4f6f4"
           id="path922" />
        <path
           d="m 126.569,29.7781 c 0,2.8621 -2.355,5.1977 -5.221,5.1977 -2.01,0 -3.805,-1.1184 -4.695,-2.9278 -0.247,-0.5099 -0.049,-1.1185 0.478,-1.3652 0.494,-0.2467 1.12,-0.0493 1.367,0.4606 0.543,1.102 1.614,1.7764 2.85,1.7764 1.729,0 3.113,-1.3817 3.162,-3.0923 0,-0.0165 0,-0.0329 0,-1.135 -0.889,0.658 -1.977,1.0692 -3.162,1.0692 -2.883,0 -5.222,-2.3357 -5.222,-5.1977 0,-2.8785 2.322,-5.1977 5.222,-5.1977 2.866,0 5.221,2.3192 5.221,5.1977 0,0.0164 0,0.0164 0,5.2141 z m -2.059,-5.1977 c 0,-1.7435 -1.433,-3.1416 -3.162,-3.1416 -1.746,0 -3.163,1.4145 -3.163,3.1416 0,1.7107 1.417,3.1417 3.163,3.1417 1.729,0.0164 3.162,-1.4146 3.162,-3.1417 z"
           fill="#f4f6f4"
           id="path924" />
        <path
           d="m 136.188,20.4847 v 10.2145 c 0,2.3357 -1.927,4.2602 -4.299,4.2602 -1.647,0 -3.113,-0.9376 -3.854,-2.4015 -0.247,-0.4935 -0.05,-1.1185 0.478,-1.3652 0.494,-0.2468 1.12,-0.0165 1.35,0.477 0.396,0.7731 1.17,1.2501 2.01,1.2501 1.252,0 2.24,-0.9869 2.24,-2.2206 v -1.4968 c -0.626,0.3783 -1.351,0.5757 -2.141,0.5757 -2.29,0 -4.168,-1.8422 -4.184,-4.1285 0,-0.0165 0,-0.0165 0,-0.0165 v -5.1648 c 0,-0.5593 0.461,-1.0198 1.021,-1.0198 0.56,0 1.021,0.4605 1.021,1.0198 v 5.1319 c 0,1.1843 0.972,2.1383 2.142,2.1383 1.186,0 2.141,-0.954 2.141,-2.1383 v -5.1319 c 0,-0.5593 0.461,-1.0198 1.021,-1.0198 0.593,0.0164 1.054,0.477 1.054,1.0362 z"
           fill="#f4f6f4"
           id="path926" />
        <path
           d="m 14.2645,11.0763 c -1.2683,2.1054 -3.6237,3.668 -6.60514,3.668 C 3.22846,14.7443 0,11.5204 0,7.35893 0,3.4442 3.22846,0.170959 7.65936,0.170959 c 3.01434,0 5.38624,1.414561 6.65464,3.519971 L 11.4314,5.36866 C 10.7725,4.08569 9.45479,3.23037 7.65936,3.23037 c -2.47076,0 -4.20029,1.79288 -4.20029,4.12856 0,2.23699 1.72953,4.21077 4.20029,4.21077 1.74601,0 3.03084,-0.8882 3.72264,-2.13827 z"
           fill="#f4f6f4"
           id="path928" />
        <path
           d="m 28.7761,7.45762 c 0,4.01338 -3.2779,7.28668 -7.297,7.28668 -4.052,0 -7.297,-3.2733 -7.297,-7.28668 0,-3.99697 3.245,-7.286661 7.297,-7.286661 4.0027,0 7.297,3.289691 7.297,7.286661 z m -11.4808,0 c 0,2.30278 1.8778,4.14498 4.1838,4.14498 2.2731,0 4.1344,-1.8422 4.1344,-4.14498 0,-2.28633 -1.8778,-4.12856 -4.1344,-4.12856 -2.306,0 -4.1838,1.84223 -4.1838,4.12856 z"
           fill="#f4f6f4"
           id="path930" />
        <path
           d="M 43.782,14.4975 H 40.3559 L 33.2071,5.87854 V 14.4975 H 29.781 V 0.417664 h 3.4261 L 40.3559,9.00375 V 0.417664 h 3.4261 z"
           fill="#f4f6f4"
           id="path932" />
        <path
           d="m 56.6629,4.87518 h -3.3932 c 0,-0.70728 -0.8236,-1.66129 -2.2896,-1.66129 -1.0212,0 -2.2731,0.46056 -2.2731,1.26653 0,0.69083 0.9389,0.95401 2.932,1.46391 2.2237,0.5757 5.3698,1.33233 5.3698,4.42467 0,2.6975 -2.3719,4.3753 -5.6828,4.3753 -4.4309,0 -6.2757,-2.9772 -6.2757,-5.18131 h 3.3932 c 0,0 0.2635,2.23701 3.0802,2.23701 1.5154,0 2.0754,-0.6415 2.0754,-1.2501 0,-0.88822 -1.1859,-1.20074 -2.5037,-1.51326 C 48.9706,8.54319 45.248,7.75366 45.248,4.62846 c 0,-2.56596 2.5366,-4.47398 5.7651,-4.47398 3.6896,0.016448 5.6498,2.51661 5.6498,4.7207 z"
           fill="#f4f6f4"
           id="path934" />
        <path
           d="m 72.1462,7.45762 c 0,4.01338 -3.2779,7.28668 -7.297,7.28668 -4.052,0 -7.297,-3.2733 -7.297,-7.28668 0,-3.99697 3.245,-7.286661 7.297,-7.286661 4.0027,0 7.297,3.289691 7.297,7.286661 z m -11.4808,0 c 0,2.30278 1.8778,4.14498 4.1838,4.14498 2.2731,0 4.1344,-1.8422 4.1344,-4.14498 0,-2.28633 -1.8777,-4.12856 -4.1344,-4.12856 -2.3225,0 -4.1838,1.84223 -4.1838,4.12856 z"
           fill="#f4f6f4"
           id="path936" />
        <path
           d="m 76.7419,11.3559 h 7.4288 v 3.1416 H 73.3323 V 0.417664 h 3.4096 z"
           fill="#f4f6f4"
           id="path938" />
        <path
           d="M 88.9639,14.4975 H 85.5542 V 0.417664 h 3.4097 z"
           fill="#f4f6f4"
           id="path940" />
        <path
           d="M 104.876,14.4975 H 101.45 L 94.3009,5.87854 V 14.4975 H 90.8748 V 0.417664 h 3.4261 L 101.45,9.00375 V 0.417664 h 3.426 z"
           fill="#f4f6f4"
           id="path942" />
        <path
           d="m 120.606,14.4975 h -3.426 l -7.149,-8.61896 v 8.61896 h -3.442 V 0.417664 h 3.426 l 7.148,8.586086 V 0.417664 h 3.427 V 14.4975 Z"
           fill="#f4f6f4"
           id="path944" />
        <path
           d="m 136.205,7.45762 c 0,4.01338 -3.278,7.28668 -7.297,7.28668 -4.052,0 -7.297,-3.2733 -7.297,-7.28668 0,-3.99697 3.245,-7.286661 7.297,-7.286661 4.019,0 7.297,3.289691 7.297,7.286661 z m -11.481,0 c 0,2.30278 1.878,4.14498 4.184,4.14498 2.273,0 4.134,-1.8422 4.134,-4.14498 0,-2.28633 -1.878,-4.12856 -4.134,-4.12856 -2.306,0 -4.184,1.84223 -4.184,4.12856 z"
           fill="#f4f6f4"
           id="path946" />
      </g>
    </g>
  </g>
</svg>
