<svg width="200" height="35" viewBox="0 0 200 35" fill="none" xmlns="http://www.w3.org/2000/svg">
<g clip-path="url(#clip0_2263_1252)">
<path d="M164.52 2.39148C165.459 2.1612 166.348 1.96382 166.941 1.84868C167.649 1.70064 168.144 1.6184 168.901 1.48682L171.57 3.7238C171.537 3.78959 171.504 3.87184 171.504 3.95408L165.327 4.43109C165.245 4.21726 165.047 4.05277 164.816 4.01988L164.52 2.39148Z" fill="#F4F6F4"/>
<path d="M153.747 12.3592L159.479 10.4348C159.578 10.665 159.809 10.8131 160.072 10.8131H160.105L160.665 12.2605L159.134 13.0336L161.291 15.5667L161.061 17.705C160.105 18.0997 159.496 18.3629 158.606 18.7577C157.701 19.1689 156.795 19.5801 155.642 20.1558L152.792 18.5438C152.792 18.5109 152.792 18.478 152.792 18.4451C152.792 18.1984 152.644 17.9846 152.446 17.8694L153.121 13.0665C153.451 13.0336 153.714 12.754 153.714 12.425L153.747 12.3592Z" fill="#F4F6F4"/>
<path d="M161.555 15.8627L162.675 17.1622L161.39 17.5898L161.555 15.8627Z" fill="#F4F6F4"/>
<path d="M160.682 10.2374L164.948 10.6486C164.124 10.8624 163.416 11.1091 162.873 11.3065C162.066 11.6026 161.736 11.7506 161.028 12.0796L160.435 10.6486C160.567 10.5499 160.649 10.4019 160.682 10.2374Z" fill="#F4F6F4"/>
<path d="M160.435 9.64527L164.405 5.22064C164.503 5.26999 164.602 5.30288 164.717 5.30288C165.03 5.30288 165.294 5.08905 165.343 4.79298L171.537 4.25018C171.636 4.48046 171.866 4.64494 172.13 4.64494L173.843 8.92154C171.85 9.11892 170.894 9.26696 168.753 9.69462C167.452 9.9578 166.925 10.0894 165.772 10.4019L160.632 9.9578C160.6 9.82621 160.534 9.72751 160.435 9.64527Z" fill="#F4F6F4"/>
<path d="M172.739 4.2337L181.914 4.77651C181.914 4.8094 181.914 4.8423 181.914 4.87519C181.914 4.99033 181.947 5.10547 182.013 5.20416L179.295 8.5432C178.389 8.5761 177.994 8.59254 176.956 8.65833C175.935 8.70768 175.309 8.75703 174.255 8.82282L172.459 4.54622C172.575 4.48043 172.673 4.36529 172.739 4.2337Z" fill="#F4F6F4"/>
<path d="M183.018 5.30286L189.804 8.32937C189.804 8.34582 189.804 8.37872 189.804 8.39517C189.804 8.49386 189.82 8.59255 189.87 8.67479L184.484 13.1817C184.385 13.0994 184.253 13.0665 184.105 13.0665C184.072 13.0665 184.039 13.0665 184.022 13.0665L183.429 9.13535L185.455 8.90507L183.38 8.62544L182.787 5.48379C182.886 5.45089 182.968 5.3851 183.018 5.30286Z" fill="#F4F6F4"/>
<path d="M182.194 5.46735C182.293 5.51669 182.392 5.54959 182.507 5.54959L183.018 8.6419C182.441 8.59255 182.392 8.59255 181.535 8.55966C180.646 8.52676 180.366 8.52676 179.624 8.52676L182.194 5.46735Z" fill="#F4F6F4"/>
<path d="M179.032 9.51363C179.921 9.41494 180.333 9.36559 181.305 9.28335C182.128 9.21756 182.392 9.18466 183.1 9.13531L183.693 13.1816C183.578 13.2803 183.479 13.4119 183.446 13.5599L175.243 13.379V13.3626C175.243 13.2474 175.21 13.1487 175.161 13.05L179.032 9.51363Z" fill="#F4F6F4"/>
<path d="M174.732 10.369C175.408 10.2045 175.704 10.1387 176.462 9.97423C177.417 9.7604 177.697 9.71106 178.488 9.57947L174.946 12.8363C174.881 12.8034 174.815 12.7869 174.749 12.7705L174.732 10.369Z" fill="#F4F6F4"/>
<path d="M169.297 12.1947C170.285 11.8164 171.026 11.5697 171.85 11.2901C172.871 10.9447 173.415 10.7802 174.436 10.5005L174.452 12.7869C174.288 12.8198 174.139 12.9349 174.041 13.0665L169.297 12.1947Z" fill="#F4F6F4"/>
<path d="M166.793 13.3297C167.188 13.1323 167.304 13.083 167.814 12.8527C168.292 12.6224 168.44 12.5895 168.835 12.425L173.958 13.3791V13.3955C173.958 13.56 174.008 13.6916 174.106 13.8067L170.4 17.6063L166.793 13.3297Z" fill="#F4F6F4"/>
<path d="M170.631 17.8695L174.337 13.9712C174.419 14.0205 174.535 14.0534 174.634 14.0534C174.732 14.0534 174.831 14.037 174.914 13.9876L178.999 20.0078C178.883 20.1229 178.817 20.2709 178.817 20.4519C178.817 20.4683 178.817 20.5012 178.817 20.5177L171.586 23.0178C171.471 22.8205 171.273 22.7053 171.026 22.7053C170.993 22.7053 170.944 22.7053 170.911 22.7218L169.148 19.761C169.61 19.6459 169.906 19.5472 170.351 19.4814C170.829 19.3992 171.059 19.3334 171.52 19.2511L170.631 17.8695Z" fill="#F4F6F4"/>
<path d="M175.227 13.6258L183.462 13.9219C183.495 14.0041 183.528 14.0864 183.594 14.1521L179.723 19.9091C179.641 19.8598 179.542 19.8433 179.427 19.8433C179.361 19.8433 179.295 19.8598 179.246 19.8762L175.128 13.8067C175.177 13.7409 175.21 13.6751 175.227 13.6258Z" fill="#F4F6F4"/>
<path d="M186.987 16.5865C185.917 17.6557 184.994 18.5768 184.204 19.284C183.396 20.0078 182.392 20.9947 181.222 22.0638L180.02 20.748C180.069 20.6493 180.102 20.5506 180.102 20.4354C180.102 20.3203 180.069 20.2052 180.02 20.1229L183.874 14.3002C183.957 14.3331 184.039 14.3495 184.121 14.3495C184.237 14.3495 184.352 14.3166 184.451 14.2673L186.987 16.5865Z" fill="#F4F6F4"/>
<path d="M180.926 22.2777C180.119 22.9192 179.476 23.4126 178.85 23.9225C178.06 24.5804 177.417 25.0739 176.495 25.7976L171.669 23.4949C171.685 23.4291 171.702 23.3797 171.702 23.3139V23.2975L178.9 20.8302C179.015 21.0111 179.213 21.1263 179.443 21.1263C179.559 21.1263 179.657 21.0934 179.74 21.0605L180.926 22.2777Z" fill="#F4F6F4"/>
<path d="M163.186 21.0275C164.223 20.7315 164.701 20.5834 165.887 20.3532C167.304 20.0735 167.682 19.9913 168.852 19.8104L170.647 22.8369C170.516 22.952 170.417 23.1329 170.417 23.3303C170.417 23.429 170.433 23.5113 170.483 23.5935L164.24 29.4656C164.141 29.3998 164.009 29.3505 163.877 29.3505C163.861 29.3505 163.828 29.3505 163.812 29.3505L161.209 23.5935C161.374 23.4784 161.489 23.281 161.489 23.0672C161.489 22.9685 161.473 22.8698 161.423 22.7875L163.186 21.0275Z" fill="#F4F6F4"/>
<path d="M161.044 21.5375L162.691 21.1427L161.193 22.5737C161.143 22.5408 161.094 22.5079 161.044 22.475V21.5375Z" fill="#F4F6F4"/>
<path d="M159.397 22.2119L160.731 21.6362L160.698 22.4092C160.534 22.4421 160.402 22.5244 160.303 22.6395L159.397 22.2119Z" fill="#F4F6F4"/>
<path d="M146.417 11.3723C147.488 10.3361 148.691 9.36564 149.317 8.92153C150.206 8.29649 151.408 7.47407 152.841 6.73389L152.94 11.7836C152.677 11.8658 152.463 12.1125 152.463 12.4086C152.463 12.5237 152.496 12.6224 152.545 12.7211L147.06 17.1787C146.994 17.1129 146.912 17.0635 146.813 17.0471L146.417 11.3723Z" fill="#F4F6F4"/>
<path d="M147.241 17.8859L151.573 18.4781C151.59 18.807 151.87 19.0867 152.215 19.0867L152.479 21.9816C152.479 21.9816 150.651 23.2646 149.316 24.087C148.13 24.8107 145.726 26.5378 145.726 26.5378L146.714 18.33C146.977 18.2642 147.175 18.0998 147.241 17.8859Z" fill="#F4F6F4"/>
<path d="M151.639 18.1327L147.274 17.6392C147.274 17.5405 147.241 17.4254 147.208 17.3431L152.677 12.8856C152.743 12.935 152.825 12.9843 152.907 13.0008L152.166 17.7873C151.935 17.8037 151.754 17.9353 151.639 18.1327Z" fill="#F4F6F4"/>
<path d="M164.174 4.97392L160.237 9.53014C160.171 9.51369 160.105 9.49724 160.039 9.49724C159.677 9.49724 159.397 9.77686 159.397 10.1387L153.681 12.1125C153.599 11.9481 153.451 11.8165 153.27 11.7671L153.171 6.56942C155.131 5.58251 156.828 4.87522 158.326 4.29953C160.039 3.64159 161.851 3.04945 164.157 2.47375L164.421 4.10215C164.24 4.21729 164.108 4.41467 164.108 4.6614C164.092 4.76009 164.124 4.87522 164.174 4.97392Z" fill="#F4F6F4"/>
<path d="M169.247 1.38816C170.318 1.20723 171.29 1.07564 172.014 0.993401C172.953 0.878262 173.662 0.812467 174.716 0.730225L172.459 3.41132C172.377 3.36197 172.278 3.34553 172.179 3.34553C172.031 3.34553 171.899 3.39487 171.8 3.47711L169.247 1.38816Z" fill="#F4F6F4"/>
<path d="M152.726 18.8235L155.345 20.2874L152.759 21.7349L152.479 19.0209C152.578 18.9715 152.66 18.9057 152.726 18.8235Z" fill="#F4F6F4"/>
<path d="M175.21 0.631487C176.099 0.516348 176.709 0.434105 177.516 0.368311C178.307 0.318966 178.982 0.253173 179.937 0.220276L182.145 4.38173C182.095 4.41463 182.046 4.46398 182.013 4.51332L172.772 3.98697C172.756 3.85538 172.706 3.74024 172.64 3.64155L175.21 0.631487Z" fill="#F4F6F4"/>
<path d="M180.3 0.170958C181.436 0.15451 182.326 0.12161 183.232 0.12161C184.319 0.12161 185.208 0.0722646 186.477 0.0393677L190.1 7.85238C190.002 7.91817 189.903 8.00042 189.853 8.09911L183.133 5.08904C183.149 5.0397 183.149 4.9739 183.149 4.92456C183.149 4.56269 182.853 4.28307 182.507 4.28307C182.474 4.28307 182.441 4.28307 182.392 4.29951L180.3 0.170958Z" fill="#F4F6F4"/>
<path d="M191.039 8.69122L193.543 9.21758C192.357 10.6486 191.402 11.7671 190.446 12.8198C189.359 14.0205 188.536 14.9581 187.284 16.2904L184.698 13.9054C184.714 13.8396 184.731 13.7573 184.731 13.6916C184.731 13.6093 184.714 13.5271 184.681 13.4613L190.1 8.9544C190.199 9.02019 190.315 9.05309 190.446 9.05309C190.71 9.05309 190.924 8.90505 191.039 8.69122Z" fill="#F4F6F4"/>
<path d="M176.182 26.0773C174.848 27.1629 173.958 27.7879 172.591 28.6597C171.059 29.6466 170.466 29.9756 169.033 30.6993L164.503 29.7946C164.487 29.7453 164.47 29.6795 164.438 29.6301L170.713 23.8403C170.812 23.9061 170.927 23.939 171.043 23.939C171.24 23.939 171.405 23.8567 171.52 23.7252L176.182 26.0773Z" fill="#F4F6F4"/>
<path d="M168.638 30.9131C167.979 31.1928 167.617 31.3408 166.958 31.6204C166.381 31.8671 165.969 32.0316 165.343 32.2783L164.339 30.4855C164.421 30.4197 164.487 30.321 164.52 30.2223L168.638 30.9131Z" fill="#F4F6F4"/>
<path d="M153.072 24.9752C154.258 24.3666 154.9 24.0706 156.152 23.4949C157.519 22.8698 157.865 22.7711 158.969 22.3599L160.171 22.9521C160.171 22.985 160.155 23.0179 160.155 23.0672C160.155 23.1823 160.188 23.2975 160.237 23.3797L154.011 30.9789C153.929 30.9296 153.846 30.8802 153.747 30.8638L153.072 24.9752Z" fill="#F4F6F4"/>
<path d="M160.929 23.6922L163.531 29.4821C163.383 29.5808 163.284 29.7288 163.251 29.9097L154.258 31.3243C154.241 31.2585 154.208 31.1927 154.176 31.1434L160.451 23.5771C160.567 23.6593 160.698 23.7087 160.83 23.7087C160.88 23.7087 160.912 23.7087 160.929 23.6922Z" fill="#F4F6F4"/>
<path d="M139.203 29.3011L143.782 28.1004L139.368 32.2125C139.269 31.6533 139.219 31.3079 139.203 30.7651C139.17 30.3703 139.153 29.8768 139.203 29.3011Z" fill="#F4F6F4"/>
<path d="M139.219 28.9228C139.17 27.3602 139.302 26.1101 139.417 24.9094C139.499 24.0376 139.977 21.8171 140.669 19.942L144.77 27.2944L144.26 27.6892L139.219 28.9228Z" fill="#F4F6F4"/>
<path d="M140.784 19.5472C141.394 18.1162 142.069 16.899 142.629 15.9943C143.271 14.9745 144.589 13.1323 146.121 11.5697L146.467 17.0799C146.187 17.1457 145.989 17.4089 145.989 17.705C145.989 17.9846 146.17 18.2149 146.418 18.3136L145.429 26.7516L145.001 27.097L140.784 19.5472Z" fill="#F4F6F4"/>
<path d="M186.823 0.00645334C187.663 -0.00999511 188.355 0.00645033 188.964 0.0393472C189.508 0.0722441 189.919 0.0886926 190.529 0.121589L193.148 2.19409C193.082 2.29279 193.032 2.42438 193.032 2.55596C193.032 2.72045 193.098 2.86848 193.197 2.98362L190.726 7.81947C190.644 7.78657 190.562 7.77012 190.463 7.77012C190.43 7.77012 190.413 7.77012 190.381 7.77012L186.823 0.00645334Z" fill="#F4F6F4"/>
<path d="M191.056 0.138062L194.037 0.302546L193.724 1.89805C193.708 1.89805 193.675 1.89805 193.658 1.89805C193.56 1.89805 193.461 1.91449 193.378 1.96384L191.056 0.138062Z" fill="#F4F6F4"/>
<path d="M194.383 0.31897L196.623 0.483454L198.155 3.26324L197.496 4.08566L194.317 2.62175C194.317 2.58886 194.317 2.55596 194.317 2.53951C194.317 2.30923 194.185 2.0954 194.004 1.99671L194.383 0.31897Z" fill="#F4F6F4"/>
<path d="M197.035 0.450562L200 0.746637L198.402 2.95073L197.035 0.450562Z" fill="#F4F6F4"/>
<path d="M197.348 4.39818C196.673 5.28639 196.129 6.01013 195.619 6.66806C195.124 7.29311 194.531 8.04973 193.823 8.90505L191.105 8.4116V8.3787C191.105 8.24711 191.056 8.11552 190.99 8.01683L193.543 3.16454C193.593 3.18099 193.625 3.18099 193.675 3.18099C193.873 3.18099 194.07 3.0823 194.186 2.93427L197.348 4.39818Z" fill="#F4F6F4"/>
<path d="M164.998 32.4264L163.005 33.1336L163.828 30.6664C163.845 30.6664 163.861 30.6664 163.878 30.6664C163.96 30.6664 164.026 30.6499 164.092 30.6335L164.998 32.4264Z" fill="#F4F6F4"/>
<path d="M162.642 33.2652C161.588 33.5613 161.16 33.6929 159.941 33.9725C158.656 34.2686 158.162 34.4002 157.009 34.6304L154.176 31.9C154.242 31.8178 154.291 31.7026 154.307 31.5875L163.285 30.1729C163.317 30.3209 163.416 30.4525 163.548 30.5512L162.642 33.2652Z" fill="#F4F6F4"/>
<path d="M156.548 34.6962C155.115 34.8443 154.307 34.8936 152.841 34.9594C151.31 35.0252 150.486 35.0088 148.971 34.9265L153.187 31.9493C153.303 32.0974 153.484 32.1796 153.682 32.1796C153.764 32.1796 153.863 32.1632 153.929 32.1303L156.548 34.6962Z" fill="#F4F6F4"/>
<path d="M148.048 34.8278C146.632 34.6633 145.973 34.5153 144.441 34.2356C142.744 33.9231 142.003 33.6764 140.488 33.1829C141.591 32.1796 142.596 31.3736 143.452 30.7321C144.128 30.2222 144.902 29.6794 145.874 29.0544L148.048 34.8278Z" fill="#F4F6F4"/>
<path d="M146.088 28.9228L146.829 28.4623L153.088 31.2585C153.055 31.3408 153.023 31.4394 153.023 31.5217C153.023 31.571 153.023 31.6039 153.039 31.6533L148.476 34.9265L146.088 28.9228Z" fill="#F4F6F4"/>
<path d="M147.076 28.2649C148.147 27.6234 148.757 27.2944 149.844 26.6694C150.98 26.0114 151.59 25.7153 152.71 25.1396L153.484 30.9131C153.402 30.946 153.336 30.9788 153.27 31.0282L147.076 28.2649Z" fill="#F4F6F4"/>
<path d="M85.3237 24.5805C85.3237 25.1397 84.8625 25.6003 84.286 25.6003H77.1043C77.5326 26.8503 78.7021 27.7386 80.1022 27.7386C80.5798 27.7386 81.4364 27.7057 82.4247 27.0477C82.9024 26.7352 83.5448 27.0313 83.7918 27.5247C84.0389 28.0346 83.7754 28.5774 83.2977 28.89C81.9305 29.7946 80.8599 29.7782 80.1022 29.7782C77.2031 29.7782 74.8806 27.4425 74.8806 24.5805C74.8806 21.702 77.2031 19.3828 80.1022 19.3828C82.6223 19.3828 85.3237 21.2085 85.3237 24.5805ZM77.1043 23.5442H83.1165C82.6718 22.0967 81.354 21.4388 80.1022 21.4388C78.7021 21.4388 77.549 22.327 77.1043 23.5442Z" fill="#F4F6F4"/>
<path d="M97.0185 24.5805V28.7419C97.0185 29.3176 96.5573 29.7782 95.9808 29.7782C95.4208 29.7782 94.9596 29.3176 94.9596 28.7419V24.5805C94.9596 22.8369 93.543 21.4388 91.797 21.4388C90.051 21.4388 88.6344 22.8534 88.6344 24.5805V28.7419C88.6344 29.3176 88.1732 29.7782 87.5967 29.7782C87.0367 29.7782 86.5754 29.3176 86.5754 28.7419V24.5805C86.5754 21.702 88.9309 19.3828 91.797 19.3828C94.6631 19.3828 97.0185 21.702 97.0185 24.5805Z" fill="#F4F6F4"/>
<path d="M108.681 24.5805C108.681 25.1397 108.219 25.6003 107.643 25.6003H100.461C100.89 26.8503 102.059 27.7386 103.459 27.7386C103.937 27.7386 104.793 27.7057 105.782 27.0477C106.259 26.7352 106.902 27.0313 107.149 27.5247C107.396 28.0346 107.132 28.5774 106.655 28.89C105.287 29.7946 104.217 29.7782 103.459 29.7782C100.56 29.7782 98.2375 27.4425 98.2375 24.5805C98.2375 21.702 100.56 19.3828 103.459 19.3828C105.979 19.3828 108.681 21.2085 108.681 24.5805ZM100.478 23.5442H106.49C106.045 22.0967 104.711 21.4388 103.459 21.4388C102.075 21.4388 100.906 22.327 100.478 23.5442Z" fill="#F4F6F4"/>
<path d="M116.192 20.419C116.192 20.9782 115.731 21.4552 115.154 21.4552C113.408 21.4552 111.992 22.8698 111.992 24.5969V28.7583C111.992 29.3176 111.53 29.7946 110.97 29.7946C110.394 29.7946 109.933 29.3176 109.933 28.7583V24.5969C109.933 21.7184 112.288 19.3992 115.154 19.3992C115.747 19.4156 116.192 19.8597 116.192 20.419Z" fill="#F4F6F4"/>
<path d="M126.569 29.7781C126.569 32.6402 124.214 34.9758 121.348 34.9758C119.338 34.9758 117.543 33.8574 116.653 32.048C116.406 31.5381 116.604 30.9295 117.131 30.6828C117.625 30.4361 118.251 30.6335 118.498 31.1434C119.041 32.2454 120.112 32.9198 121.348 32.9198C123.077 32.9198 124.461 31.5381 124.51 29.8275C124.51 29.811 124.51 29.7946 124.51 28.6925C123.621 29.3505 122.533 29.7617 121.348 29.7617C118.465 29.7617 116.126 27.426 116.126 24.564C116.126 21.6855 118.448 19.3663 121.348 19.3663C124.214 19.3663 126.569 21.6855 126.569 24.564C126.569 24.5804 126.569 24.5804 126.569 29.7781ZM124.51 24.5804C124.51 22.8369 123.077 21.4388 121.348 21.4388C119.602 21.4388 118.185 22.8533 118.185 24.5804C118.185 26.2911 119.602 27.7221 121.348 27.7221C123.077 27.7385 124.51 26.3075 124.51 24.5804Z" fill="#F4F6F4"/>
<path d="M136.188 20.4847V30.6992C136.188 33.0349 134.261 34.9594 131.889 34.9594C130.242 34.9594 128.776 34.0218 128.035 32.5579C127.788 32.0644 127.985 31.4394 128.513 31.1927C129.007 30.9459 129.633 31.1762 129.863 31.6697C130.259 32.4428 131.033 32.9198 131.873 32.9198C133.125 32.9198 134.113 31.9329 134.113 30.6992V29.2024C133.487 29.5807 132.762 29.7781 131.972 29.7781C129.682 29.7781 127.804 27.9359 127.788 25.6496C127.788 25.6331 127.788 25.6331 127.788 25.6331V20.4683C127.788 19.909 128.249 19.4485 128.809 19.4485C129.369 19.4485 129.83 19.909 129.83 20.4683V25.6002C129.83 26.7845 130.802 27.7385 131.972 27.7385C133.158 27.7385 134.113 26.7845 134.113 25.6002V20.4683C134.113 19.909 134.574 19.4485 135.134 19.4485C135.727 19.4649 136.188 19.9255 136.188 20.4847Z" fill="#F4F6F4"/>
<path d="M14.2645 11.0763C12.9962 13.1817 10.6408 14.7443 7.65936 14.7443C3.22846 14.7443 0 11.5204 0 7.35893C0 3.4442 3.22846 0.170959 7.65936 0.170959C10.6737 0.170959 13.0456 1.58552 14.314 3.69093L11.4314 5.36866C10.7725 4.08569 9.45479 3.23037 7.65936 3.23037C5.1886 3.23037 3.45907 5.02325 3.45907 7.35893C3.45907 9.59592 5.1886 11.5697 7.65936 11.5697C9.40537 11.5697 10.6902 10.6815 11.382 9.43143L14.2645 11.0763Z" fill="#F4F6F4"/>
<path d="M28.7761 7.45762C28.7761 11.471 25.4982 14.7443 21.4791 14.7443C17.4271 14.7443 14.1821 11.471 14.1821 7.45762C14.1821 3.46065 17.4271 0.170959 21.4791 0.170959C25.4818 0.170959 28.7761 3.46065 28.7761 7.45762ZM17.2953 7.45762C17.2953 9.7604 19.1731 11.6026 21.4791 11.6026C23.7522 11.6026 25.6135 9.7604 25.6135 7.45762C25.6135 5.17129 23.7357 3.32906 21.4791 3.32906C19.1731 3.32906 17.2953 5.17129 17.2953 7.45762Z" fill="#F4F6F4"/>
<path d="M43.782 14.4975H40.3559L33.2071 5.87854V14.4975H29.781V0.417664H33.2071L40.3559 9.00375V0.417664H43.782V14.4975Z" fill="#F4F6F4"/>
<path d="M56.6629 4.87518H53.2697C53.2697 4.1679 52.4461 3.21389 50.9801 3.21389C49.9589 3.21389 48.707 3.67445 48.707 4.48042C48.707 5.17125 49.6459 5.43443 51.639 5.94433C53.8627 6.52003 57.0088 7.27666 57.0088 10.369C57.0088 13.0665 54.6369 14.7443 51.326 14.7443C46.8951 14.7443 45.0503 11.7671 45.0503 9.56299H48.4435C48.4435 9.56299 48.707 11.8 51.5237 11.8C53.0391 11.8 53.5991 11.1585 53.5991 10.5499C53.5991 9.66168 52.4132 9.34916 51.0954 9.03664C48.9706 8.54319 45.248 7.75366 45.248 4.62846C45.248 2.0625 47.7846 0.15448 51.0131 0.15448C54.7027 0.170928 56.6629 2.67109 56.6629 4.87518Z" fill="#F4F6F4"/>
<path d="M72.1462 7.45762C72.1462 11.471 68.8683 14.7443 64.8492 14.7443C60.7972 14.7443 57.5522 11.471 57.5522 7.45762C57.5522 3.46065 60.7972 0.170959 64.8492 0.170959C68.8519 0.170959 72.1462 3.46065 72.1462 7.45762ZM60.6654 7.45762C60.6654 9.7604 62.5432 11.6026 64.8492 11.6026C67.1223 11.6026 68.9836 9.7604 68.9836 7.45762C68.9836 5.17129 67.1059 3.32906 64.8492 3.32906C62.5267 3.32906 60.6654 5.17129 60.6654 7.45762Z" fill="#F4F6F4"/>
<path d="M76.7419 11.3559H84.1707V14.4975H73.3323V0.417664H76.7419V11.3559Z" fill="#F4F6F4"/>
<path d="M88.9639 14.4975H85.5542V0.417664H88.9639V14.4975Z" fill="#F4F6F4"/>
<path d="M104.876 14.4975H101.45L94.3009 5.87854V14.4975H90.8748V0.417664H94.3009L101.45 9.00375V0.417664H104.876V14.4975Z" fill="#F4F6F4"/>
<path d="M120.606 14.4975H117.18L110.031 5.87854V14.4975H106.589V0.417664H110.015L117.163 9.00375V0.417664H120.59V14.4975H120.606Z" fill="#F4F6F4"/>
<path d="M136.205 7.45762C136.205 11.471 132.927 14.7443 128.908 14.7443C124.856 14.7443 121.611 11.471 121.611 7.45762C121.611 3.46065 124.856 0.170959 128.908 0.170959C132.927 0.170959 136.205 3.46065 136.205 7.45762ZM124.724 7.45762C124.724 9.7604 126.602 11.6026 128.908 11.6026C131.181 11.6026 133.042 9.7604 133.042 7.45762C133.042 5.17129 131.164 3.32906 128.908 3.32906C126.602 3.32906 124.724 5.17129 124.724 7.45762Z" fill="#F4F6F4"/>
</g>
<defs>
<clipPath id="clip0_2263_1252">
<rect width="200" height="35" fill="white"/>
</clipPath>
</defs>
</svg>
