<?xml version="1.0" encoding="UTF-8"?>
<svg xmlns="http://www.w3.org/2000/svg" xmlns:xlink="http://www.w3.org/1999/xlink" width="566px" height="223px" viewBox="0 0 569 223" version="1.1">
<defs>
<clipPath id="clip1">
  <path d="M 0 25 L 126 25 L 126 156 L 0 156 Z M 0 25 "/>
</clipPath>
<clipPath id="clip2">
  <path d="M 29.785156 87.59375 C 29.785156 67.664062 44.378906 52.527344 63.375 52.527344 C 81.871094 52.527344 96.601562 67.664062 96.601562 86.519531 C 96.601562 92.390625 95.1875 98.964844 92.703125 104.652344 L 78.816406 88.664062 L 57.757812 105.378906 L 71.359375 121.382812 C 69.035156 122.09375 67.074219 122.273438 63.355469 122.273438 C 44.378906 122.273438 29.785156 107.160156 29.785156 87.59375 M 22.691406 40.265625 C 8.648438 52.183594 0.480469 69.96875 0.480469 87.9375 C 0.480469 121.726562 28.714844 149.144531 63.214844 149.144531 C 73.523438 149.144531 81.34375 147.488281 90.945312 143.21875 L 101.414062 155.175781 L 122.027344 138.117188 L 111.984375 126.605469 C 120.875 116.082031 125.785156 101.453125 125.785156 86.519531 C 125.785156 52.164062 98.945312 25.859375 63.941406 25.859375 C 47.914062 25.859375 33.707031 30.835938 22.691406 40.265625 "/>
</clipPath>
<linearGradient id="linear0" gradientUnits="userSpaceOnUse" x1="-496.004" y1="333.7648" x2="-495.004" y2="333.7648" gradientTransform="matrix(-576.162702,-5.441758,-5.435419,576.834693,-283388.838183,-195130.959549)">
<stop offset="0" style="stop-color:rgb(0%,16.078431%,65.098039%);stop-opacity:1;"/>
<stop offset="0.00799559" style="stop-color:rgb(0%,16.078431%,65.098039%);stop-opacity:1;"/>
<stop offset="0.4299" style="stop-color:rgb(0%,59.215686%,85.882353%);stop-opacity:1;"/>
<stop offset="0.6106" style="stop-color:rgb(0%,78.823529%,75.686275%);stop-opacity:1;"/>
<stop offset="0.8136" style="stop-color:rgb(29.411765%,84.313725%,72.54902%);stop-opacity:1;"/>
<stop offset="0.9995" style="stop-color:rgb(54.901961%,89.019608%,69.803922%);stop-opacity:1;"/>
<stop offset="1" style="stop-color:rgb(54.901961%,89.019608%,69.803922%);stop-opacity:1;"/>
</linearGradient>
<clipPath id="clip3">
  <path d="M 135 27 L 240 27 L 240 150 L 135 150 Z M 135 27 "/>
</clipPath>
<clipPath id="clip4">
  <path d="M 135.527344 89.132812 C 135.527344 123.851562 161.09375 149.449219 195.777344 149.449219 C 212.996094 149.449219 226.515625 144.269531 239.550781 132.453125 L 222.070312 111.976562 C 213.945312 119.117188 206.589844 121.628906 198.484375 121.628906 C 180.292969 121.628906 167.257812 107.585938 167.257812 88.140625 C 167.257812 69.421875 180.050781 55.402344 197.269531 55.402344 C 206.347656 55.402344 213.703125 58.578125 220.574219 65.4375 L 238.742188 44.109375 C 225.203125 32.757812 211.902344 27.578125 196.039062 27.578125 C 160.628906 27.578125 135.527344 53.175781 135.527344 89.132812 "/>
</clipPath>
<linearGradient id="linear1" gradientUnits="userSpaceOnUse" x1="-496.004" y1="333.7593" x2="-495.004" y2="333.7593" gradientTransform="matrix(-576.162702,-5.441758,-5.435419,576.834693,-283388.838183,-195130.959549)">
<stop offset="0" style="stop-color:rgb(0%,16.078431%,65.098039%);stop-opacity:1;"/>
<stop offset="0.00799559" style="stop-color:rgb(0%,16.078431%,65.098039%);stop-opacity:1;"/>
<stop offset="0.4299" style="stop-color:rgb(0%,59.215686%,85.882353%);stop-opacity:1;"/>
<stop offset="0.6106" style="stop-color:rgb(0%,78.823529%,75.686275%);stop-opacity:1;"/>
<stop offset="0.8136" style="stop-color:rgb(29.411765%,84.313725%,72.54902%);stop-opacity:1;"/>
<stop offset="0.9995" style="stop-color:rgb(54.901961%,89.019608%,69.803922%);stop-opacity:1;"/>
<stop offset="1" style="stop-color:rgb(54.901961%,89.019608%,69.803922%);stop-opacity:1;"/>
</linearGradient>
<clipPath id="clip5">
  <path d="M 243 27 L 364 27 L 364 149 L 243 149 Z M 243 27 "/>
</clipPath>
<clipPath id="clip6">
  <path d="M 304.40625 54.125 C 322.699219 54.125 332.4375 62.847656 333.792969 72.4375 L 275 72.4375 C 276.171875 62.523438 287.371094 54.125 304.40625 54.125 M 243.554688 88.058594 C 243.554688 123.328125 269.242188 148.800781 305.195312 148.800781 C 329.164062 148.800781 348.972656 136.316406 360.230469 114.28125 L 331.589844 106.453125 C 326.71875 115.515625 316.917969 121.140625 305.417969 121.140625 C 289.996094 121.140625 274.738281 111.085938 274.738281 95.667969 L 363.746094 95.667969 L 363.886719 89.554688 C 363.886719 53.074219 339.433594 27.597656 303.214844 27.597656 C 268.269531 27.578125 243.554688 52.546875 243.554688 88.058594 "/>
</clipPath>
<linearGradient id="linear2" gradientUnits="userSpaceOnUse" x1="-496.004" y1="333.7568" x2="-495.004" y2="333.7568" gradientTransform="matrix(-576.162702,-5.441758,-5.435419,576.834693,-283388.838183,-195130.959549)">
<stop offset="0" style="stop-color:rgb(0%,16.078431%,65.098039%);stop-opacity:1;"/>
<stop offset="0.00799559" style="stop-color:rgb(0%,16.078431%,65.098039%);stop-opacity:1;"/>
<stop offset="0.4299" style="stop-color:rgb(0%,59.215686%,85.882353%);stop-opacity:1;"/>
<stop offset="0.6106" style="stop-color:rgb(0%,78.823529%,75.686275%);stop-opacity:1;"/>
<stop offset="0.8136" style="stop-color:rgb(29.411765%,84.313725%,72.54902%);stop-opacity:1;"/>
<stop offset="0.9995" style="stop-color:rgb(54.901961%,89.019608%,69.803922%);stop-opacity:1;"/>
<stop offset="1" style="stop-color:rgb(54.901961%,89.019608%,69.803922%);stop-opacity:1;"/>
</linearGradient>
<clipPath id="clip7">
  <path d="M 379.386719 0 L 410.269531 0 L 410.269531 144.894531 L 379.386719 144.894531 Z M 379.386719 0 "/>
</clipPath>
<linearGradient id="linear3" gradientUnits="userSpaceOnUse" x1="-496.004" y1="333.7281" x2="-495.004" y2="333.7281" gradientTransform="matrix(-576.162702,-5.441758,-5.435419,576.834693,-283388.838183,-195130.959549)">
<stop offset="0" style="stop-color:rgb(0%,16.078431%,65.098039%);stop-opacity:1;"/>
<stop offset="0.00799559" style="stop-color:rgb(0%,16.078431%,65.098039%);stop-opacity:1;"/>
<stop offset="0.4299" style="stop-color:rgb(0%,59.215686%,85.882353%);stop-opacity:1;"/>
<stop offset="0.6106" style="stop-color:rgb(0%,78.823529%,75.686275%);stop-opacity:1;"/>
<stop offset="0.8136" style="stop-color:rgb(29.411765%,84.313725%,72.54902%);stop-opacity:1;"/>
<stop offset="0.9995" style="stop-color:rgb(54.901961%,89.019608%,69.803922%);stop-opacity:1;"/>
<stop offset="1" style="stop-color:rgb(54.901961%,89.019608%,69.803922%);stop-opacity:1;"/>
</linearGradient>
<clipPath id="clip8">
  <path d="M 432.28125 0 L 463.179688 0 L 463.179688 144.894531 L 432.28125 144.894531 Z M 432.28125 0 "/>
</clipPath>
<linearGradient id="linear4" gradientUnits="userSpaceOnUse" x1="-496.004" y1="333.7272" x2="-495.004" y2="333.7272" gradientTransform="matrix(-576.162702,-5.441758,-5.435419,576.834693,-283388.838183,-195130.959549)">
<stop offset="0" style="stop-color:rgb(0%,16.078431%,65.098039%);stop-opacity:1;"/>
<stop offset="0.00799559" style="stop-color:rgb(0%,16.078431%,65.098039%);stop-opacity:1;"/>
<stop offset="0.4299" style="stop-color:rgb(0%,59.215686%,85.882353%);stop-opacity:1;"/>
<stop offset="0.6106" style="stop-color:rgb(0%,78.823529%,75.686275%);stop-opacity:1;"/>
<stop offset="0.8136" style="stop-color:rgb(29.411765%,84.313725%,72.54902%);stop-opacity:1;"/>
<stop offset="0.9995" style="stop-color:rgb(54.901961%,89.019608%,69.803922%);stop-opacity:1;"/>
<stop offset="1" style="stop-color:rgb(54.901961%,89.019608%,69.803922%);stop-opacity:1;"/>
</linearGradient>
<clipPath id="clip9">
  <path d="M 480 28 L 569 28 L 569 149 L 480 149 Z M 480 28 "/>
</clipPath>
<clipPath id="clip10">
  <path d="M 481.1875 64.039062 C 481.1875 81.828125 492.144531 92.773438 516.457031 100.078125 C 533.007812 105.195312 537.375 108.375 537.375 115.191406 C 537.375 121.503906 532.261719 125.898438 524.964844 125.898438 C 515.972656 125.898438 511.585938 121.503906 510.109375 111.773438 L 480.441406 111.773438 C 481.675781 135.144531 497.964844 148.78125 524.722656 148.78125 C 550.996094 148.78125 568.519531 134.171875 568.519531 112.257812 C 568.519531 93.988281 558.535156 84.011719 533.230469 76.203125 C 517.667969 71.34375 517.425781 71.34375 514.011719 68.652344 C 512.050781 67.199219 510.859375 64.261719 510.859375 61.351562 C 510.859375 55.257812 515.730469 51.113281 523.265625 51.113281 C 531.535156 51.113281 537.617188 55.96875 537.617188 62.785156 L 537.617188 64.75 L 566.820312 64.75 C 566.09375 41.863281 550.511719 28.207031 524.722656 28.207031 C 498.449219 28.246094 481.1875 42.613281 481.1875 64.039062 "/>
</clipPath>
<linearGradient id="linear5" gradientUnits="userSpaceOnUse" x1="-496.004" y1="333.7538" x2="-495.004" y2="333.7538" gradientTransform="matrix(-576.162702,-5.441758,-5.435419,576.834693,-283388.838183,-195130.959549)">
<stop offset="0" style="stop-color:rgb(0%,16.078431%,65.098039%);stop-opacity:1;"/>
<stop offset="0.00799559" style="stop-color:rgb(0%,16.078431%,65.098039%);stop-opacity:1;"/>
<stop offset="0.4299" style="stop-color:rgb(0%,59.215686%,85.882353%);stop-opacity:1;"/>
<stop offset="0.6106" style="stop-color:rgb(0%,78.823529%,75.686275%);stop-opacity:1;"/>
<stop offset="0.8136" style="stop-color:rgb(29.411765%,84.313725%,72.54902%);stop-opacity:1;"/>
<stop offset="0.9995" style="stop-color:rgb(54.901961%,89.019608%,69.803922%);stop-opacity:1;"/>
<stop offset="1" style="stop-color:rgb(54.901961%,89.019608%,69.803922%);stop-opacity:1;"/>
</linearGradient>
<clipPath id="clip11">
  <path d="M 4.523438 179.539062 L 36 179.539062 L 36 214 L 4.523438 214 Z M 4.523438 179.539062 "/>
</clipPath>
<clipPath id="clip12">
  <path d="M 269 179.539062 L 301 179.539062 L 301 214 L 269 214 Z M 269 179.539062 "/>
</clipPath>
<clipPath id="clip13">
  <path d="M 539 189 L 564.597656 189 L 564.597656 223 L 539 223 Z M 539 189 "/>
</clipPath>
</defs>
<g id="surface1">
<g clip-path="url(#clip1)" clip-rule="nonzero">
<g clip-path="url(#clip2)" clip-rule="nonzero">
<path style=" stroke:none;fill-rule:nonzero;fill:url(#linear0);" d="M 125.746094 156.367188 L -0.730469 155.175781 L 0.5 24.6875 L 126.980469 25.878906 Z M 125.746094 156.367188 "/>
</g>
</g>
<g clip-path="url(#clip3)" clip-rule="nonzero">
<g clip-path="url(#clip4)" clip-rule="nonzero">
<path style=" stroke:none;fill-rule:nonzero;fill:url(#linear1);" d="M 239.550781 150.441406 L 134.394531 149.449219 L 135.546875 26.585938 L 240.703125 27.578125 Z M 239.550781 150.441406 "/>
</g>
</g>
<g clip-path="url(#clip5)" clip-rule="nonzero">
<g clip-path="url(#clip6)" clip-rule="nonzero">
<path style=" stroke:none;fill-rule:nonzero;fill:url(#linear2);" d="M 363.90625 149.933594 L 242.421875 148.78125 L 243.574219 26.445312 L 365.058594 27.597656 Z M 363.90625 149.933594 "/>
</g>
</g>
<g clip-path="url(#clip7)" clip-rule="nonzero">
<path style=" stroke:none;fill-rule:nonzero;fill:url(#linear3);" d="M 410.269531 145.199219 L 378.035156 144.894531 L 379.386719 -0.285156 L 411.644531 0.0195312 Z M 410.269531 145.199219 "/>
</g>
<g clip-path="url(#clip8)" clip-rule="nonzero">
<path style=" stroke:none;fill-rule:nonzero;fill:url(#linear4);" d="M 463.179688 145.199219 L 430.925781 144.894531 L 432.300781 -0.285156 L 464.554688 0.0195312 Z M 463.179688 145.199219 "/>
</g>
<g clip-path="url(#clip9)" clip-rule="nonzero">
<g clip-path="url(#clip10)" clip-rule="nonzero">
<path style=" stroke:none;fill-rule:nonzero;fill:url(#linear5);" d="M 568.519531 149.632812 L 479.308594 148.78125 L 480.460938 27.398438 L 569.671875 28.246094 Z M 568.519531 149.632812 "/>
</g>
</g>
<g clip-path="url(#clip11)" clip-rule="nonzero">
<path style=" stroke:none;fill-rule:nonzero;fill:rgb(0%,11.372549%,48.627451%);fill-opacity:1;" d="M 4.523438 196.695312 C 4.523438 186.496094 12.121094 179.539062 21.660156 179.539062 C 28.613281 179.539062 32.738281 183.015625 35.222656 187.003906 L 30.25 189.53125 C 28.65625 186.800781 25.480469 184.71875 21.660156 184.71875 C 15.355469 184.71875 10.484375 189.734375 10.484375 196.695312 C 10.484375 203.65625 15.355469 208.675781 21.660156 208.675781 C 25.480469 208.675781 28.675781 206.628906 30.25 203.859375 L 35.222656 206.386719 C 32.695312 210.375 28.613281 213.855469 21.660156 213.855469 C 12.121094 213.855469 4.523438 206.894531 4.523438 196.695312 "/>
</g>
<path style=" stroke:none;fill-rule:nonzero;fill:rgb(0%,11.372549%,48.627451%);fill-opacity:1;" d="M 38.234375 201.226562 C 38.234375 194.367188 42.945312 188.640625 50.5625 188.640625 C 58.261719 188.640625 62.933594 194.367188 62.933594 201.226562 C 62.933594 208.148438 58.261719 213.855469 50.5625 213.855469 C 42.964844 213.855469 38.234375 208.128906 38.234375 201.226562 M 57.515625 201.226562 C 57.515625 197 55.03125 193.277344 50.5625 193.277344 C 46.136719 193.277344 43.652344 197 43.652344 201.226562 C 43.652344 205.496094 46.136719 209.242188 50.5625 209.242188 C 55.03125 209.242188 57.515625 205.496094 57.515625 201.226562 "/>
<path style=" stroke:none;fill-rule:nonzero;fill:rgb(0%,11.372549%,48.627451%);fill-opacity:1;" d="M 97.613281 197.585938 C 97.613281 194.996094 96.460938 193.257812 93.691406 193.257812 C 91.347656 193.257812 89.164062 194.894531 88.132812 196.433594 L 88.132812 213.246094 L 82.921875 213.246094 L 82.921875 197.585938 C 82.921875 194.996094 81.769531 193.257812 78.9375 193.257812 C 76.65625 193.257812 74.511719 194.894531 73.421875 196.492188 L 73.421875 213.246094 L 68.207031 213.246094 L 68.207031 189.25 L 73.421875 189.25 L 73.421875 192.527344 C 74.410156 191.03125 77.585938 188.640625 81.222656 188.640625 C 84.800781 188.640625 86.984375 190.421875 87.769531 193.074219 C 89.164062 190.886719 92.339844 188.640625 95.914062 188.640625 C 100.339844 188.640625 102.828125 191.03125 102.828125 195.90625 L 102.828125 213.265625 L 97.613281 213.265625 Z M 97.613281 197.585938 "/>
<path style=" stroke:none;fill-rule:nonzero;fill:rgb(0%,11.372549%,48.627451%);fill-opacity:1;" d="M 109.578125 222.414062 L 109.578125 189.25 L 114.792969 189.25 L 114.792969 192.527344 C 116.570312 190.140625 119.359375 188.640625 122.492188 188.640625 C 128.695312 188.640625 133.125 193.316406 133.125 201.226562 C 133.125 209.140625 128.695312 213.855469 122.492188 213.855469 C 119.460938 213.855469 116.730469 212.519531 114.792969 209.929688 L 114.792969 222.414062 Z M 120.957031 193.277344 C 118.53125 193.277344 115.945312 194.710938 114.792969 196.511719 L 114.792969 206.023438 C 115.945312 207.765625 118.511719 209.261719 120.957031 209.261719 C 125.078125 209.261719 127.707031 205.921875 127.707031 201.25 C 127.707031 196.59375 125.078125 193.277344 120.957031 193.277344 "/>
<path style=" stroke:none;fill-rule:nonzero;fill:rgb(0%,11.372549%,48.627451%);fill-opacity:1;" d="M 138.378906 180.082031 L 143.59375 180.082031 L 143.59375 213.246094 L 138.378906 213.246094 Z M 138.378906 180.082031 "/>
<path style=" stroke:none;fill-rule:nonzero;fill:rgb(0%,11.372549%,48.627451%);fill-opacity:1;" d="M 161.035156 188.640625 C 168.230469 188.640625 172.855469 194.167969 172.855469 201.714844 L 172.855469 202.96875 L 154.324219 202.96875 C 154.726562 206.589844 157.457031 209.585938 161.964844 209.585938 C 164.308594 209.585938 167.078125 208.632812 168.773438 206.953125 L 171.160156 210.375 C 168.773438 212.660156 165.257812 213.855469 161.417969 213.855469 C 154.222656 213.855469 148.847656 208.835938 148.847656 201.226562 C 148.867188 194.269531 153.941406 188.640625 161.035156 188.640625 M 154.285156 199.285156 L 167.804688 199.285156 C 167.703125 196.453125 165.761719 192.910156 161.054688 192.910156 C 156.566406 192.933594 154.527344 196.351562 154.285156 199.285156 "/>
<path style=" stroke:none;fill-rule:nonzero;fill:rgb(0%,11.372549%,48.627451%);fill-opacity:1;" d="M 179.0625 207.683594 L 179.0625 193.800781 L 175.101562 193.800781 L 175.101562 189.230469 L 179.082031 189.230469 L 179.082031 182.671875 L 184.296875 182.671875 L 184.296875 189.230469 L 189.167969 189.230469 L 189.167969 193.800781 L 184.296875 193.800781 L 184.296875 206.386719 C 184.296875 208.027344 185.085938 209.21875 186.578125 209.21875 C 187.570312 209.21875 188.519531 208.816406 188.925781 208.371094 L 190.175781 212.296875 C 189.226562 213.1875 187.691406 213.832031 185.265625 213.832031 C 181.203125 213.855469 179.0625 211.667969 179.0625 207.683594 "/>
<path style=" stroke:none;fill-rule:nonzero;fill:rgb(0%,11.372549%,48.627451%);fill-opacity:1;" d="M 204.546875 188.640625 C 211.742188 188.640625 216.371094 194.167969 216.371094 201.714844 L 216.371094 202.96875 L 197.835938 202.96875 C 198.242188 206.589844 200.96875 209.585938 205.476562 209.585938 C 207.820312 209.585938 210.589844 208.632812 212.289062 206.953125 L 214.671875 210.375 C 212.289062 212.660156 208.769531 213.855469 204.929688 213.855469 C 197.734375 213.855469 192.359375 208.835938 192.359375 201.226562 C 192.378906 194.269531 197.453125 188.640625 204.546875 188.640625 M 197.796875 199.285156 L 211.316406 199.285156 C 211.214844 196.453125 209.277344 192.910156 204.566406 192.910156 C 200.082031 192.933594 198.039062 196.351562 197.796875 199.285156 "/>
<path style=" stroke:none;fill-rule:nonzero;fill:rgb(0%,11.372549%,48.627451%);fill-opacity:1;" d="M 221.542969 180.082031 L 226.757812 180.082031 L 226.757812 213.246094 L 221.542969 213.246094 Z M 221.542969 180.082031 "/>
<path style=" stroke:none;fill-rule:nonzero;fill:rgb(0%,11.372549%,48.627451%);fill-opacity:1;" d="M 235.246094 218.386719 C 236.882812 218.386719 237.976562 217.878906 238.664062 216.300781 L 239.855469 213.570312 L 230.011719 189.25 L 235.570312 189.25 L 242.582031 207.257812 L 249.578125 189.25 L 255.195312 189.25 L 243.613281 217.597656 C 241.976562 221.683594 239.085938 222.960938 235.367188 223.019531 C 234.621094 223.019531 233.183594 222.878906 232.4375 222.675781 L 233.226562 218.003906 C 233.8125 218.226562 234.660156 218.386719 235.246094 218.386719 "/>
<g clip-path="url(#clip12)" clip-rule="nonzero">
<path style=" stroke:none;fill-rule:nonzero;fill:rgb(0%,11.372549%,48.627451%);fill-opacity:1;" d="M 269.929688 196.695312 C 269.929688 186.496094 277.527344 179.539062 287.066406 179.539062 C 294.019531 179.539062 298.140625 183.015625 300.628906 187.003906 L 295.65625 189.53125 C 294.058594 186.800781 290.886719 184.71875 287.066406 184.71875 C 280.761719 184.71875 275.890625 189.734375 275.890625 196.695312 C 275.890625 203.65625 280.761719 208.675781 287.066406 208.675781 C 290.886719 208.675781 294.078125 206.628906 295.65625 203.859375 L 300.628906 206.386719 C 298.101562 210.375 294.019531 213.855469 287.066406 213.855469 C 277.527344 213.855469 269.929688 206.894531 269.929688 196.695312 "/>
</g>
<path style=" stroke:none;fill-rule:nonzero;fill:rgb(0%,11.372549%,48.627451%);fill-opacity:1;" d="M 305.136719 180.082031 L 310.347656 180.082031 L 310.347656 213.246094 L 305.136719 213.246094 Z M 305.136719 180.082031 "/>
<path style=" stroke:none;fill-rule:nonzero;fill:rgb(0%,11.372549%,48.627451%);fill-opacity:1;" d="M 327.789062 188.640625 C 334.984375 188.640625 339.613281 194.167969 339.613281 201.714844 L 339.613281 202.96875 L 321.082031 202.96875 C 321.484375 206.589844 324.214844 209.585938 328.71875 209.585938 C 331.066406 209.585938 333.832031 208.632812 335.53125 206.953125 L 337.917969 210.375 C 335.53125 212.660156 332.015625 213.855469 328.175781 213.855469 C 320.980469 213.855469 315.605469 208.835938 315.605469 201.226562 C 315.625 194.269531 320.695312 188.640625 327.789062 188.640625 M 321.039062 199.285156 L 334.5625 199.285156 C 334.460938 196.453125 332.519531 192.910156 327.8125 192.910156 C 323.324219 192.933594 321.28125 196.351562 321.039062 199.285156 "/>
<path style=" stroke:none;fill-rule:nonzero;fill:rgb(0%,11.372549%,48.627451%);fill-opacity:1;" d="M 359.441406 210.675781 C 357.660156 212.722656 354.875 213.855469 351.679688 213.855469 C 347.757812 213.855469 343.332031 211.222656 343.332031 205.902344 C 343.332031 200.378906 347.757812 198.09375 351.679688 198.09375 C 354.914062 198.09375 357.703125 199.144531 359.441406 201.167969 L 359.441406 197.585938 C 359.441406 194.792969 357.15625 193.113281 353.820312 193.113281 C 351.132812 193.113281 348.808594 194.105469 346.726562 196.148438 L 344.585938 192.507812 C 347.375 189.875 350.851562 188.621094 354.671875 188.621094 C 359.984375 188.621094 364.65625 190.867188 364.65625 197.324219 L 364.65625 213.226562 L 359.441406 213.226562 Z M 359.441406 204.160156 C 358.25 202.523438 356.003906 201.671875 353.722656 201.671875 C 350.789062 201.671875 348.609375 203.351562 348.609375 206.003906 C 348.609375 208.59375 350.789062 210.273438 353.722656 210.273438 C 356.003906 210.273438 358.25 209.421875 359.441406 207.785156 Z M 359.441406 204.160156 "/>
<path style=" stroke:none;fill-rule:nonzero;fill:rgb(0%,11.372549%,48.627451%);fill-opacity:1;" d="M 387.59375 198.234375 C 387.59375 194.511719 385.714844 193.257812 382.785156 193.257812 C 380.097656 193.257812 377.8125 194.855469 376.621094 196.492188 L 376.621094 213.246094 L 371.40625 213.246094 L 371.40625 189.25 L 376.621094 189.25 L 376.621094 192.527344 C 378.214844 190.644531 381.289062 188.640625 385.066406 188.640625 C 390.242188 188.640625 392.808594 191.433594 392.808594 196.351562 L 392.808594 213.265625 L 387.59375 213.265625 Z M 387.59375 198.234375 "/>
<path style=" stroke:none;fill-rule:nonzero;fill:rgb(0%,11.372549%,48.627451%);fill-opacity:1;" d="M 412.492188 180.082031 L 435.191406 180.082031 L 435.191406 185.203125 L 418.292969 185.203125 L 418.292969 193.824219 L 434.847656 193.824219 L 434.847656 198.941406 L 418.292969 198.941406 L 418.292969 208.128906 L 435.191406 208.128906 L 435.191406 213.265625 L 412.492188 213.265625 Z M 412.492188 180.082031 "/>
<path style=" stroke:none;fill-rule:nonzero;fill:rgb(0%,11.372549%,48.627451%);fill-opacity:1;" d="M 457.199219 198.234375 C 457.199219 194.511719 455.320312 193.257812 452.390625 193.257812 C 449.699219 193.257812 447.417969 194.855469 446.226562 196.492188 L 446.226562 213.246094 L 441.011719 213.246094 L 441.011719 189.25 L 446.226562 189.25 L 446.226562 192.527344 C 447.820312 190.644531 450.894531 188.640625 454.671875 188.640625 C 459.847656 188.640625 462.414062 191.433594 462.414062 196.351562 L 462.414062 213.265625 L 457.199219 213.265625 Z M 457.199219 198.234375 "/>
<path style=" stroke:none;fill-rule:nonzero;fill:rgb(0%,11.372549%,48.627451%);fill-opacity:1;" d="M 479.855469 188.640625 C 487.050781 188.640625 491.679688 194.167969 491.679688 201.714844 L 491.679688 202.96875 L 473.144531 202.96875 C 473.550781 206.589844 476.277344 209.585938 480.785156 209.585938 C 483.128906 209.585938 485.898438 208.632812 487.59375 206.953125 L 489.980469 210.375 C 487.59375 212.660156 484.078125 213.855469 480.238281 213.855469 C 473.042969 213.855469 467.667969 208.835938 467.667969 201.226562 C 467.667969 194.269531 472.742188 188.640625 479.855469 188.640625 M 473.085938 199.285156 L 486.605469 199.285156 C 486.503906 196.453125 484.5625 192.910156 479.855469 192.910156 C 475.367188 192.933594 473.347656 196.351562 473.085938 199.285156 "/>
<path style=" stroke:none;fill-rule:nonzero;fill:rgb(0%,11.372549%,48.627451%);fill-opacity:1;" d="M 496.832031 189.25 L 502.046875 189.25 L 502.046875 192.789062 C 503.824219 190.503906 506.714844 188.703125 509.847656 188.703125 L 509.847656 193.882812 C 509.402344 193.78125 508.855469 193.742188 508.210938 193.742188 C 506.027344 193.742188 503.097656 195.238281 502.046875 196.917969 L 502.046875 213.265625 L 496.832031 213.265625 Z M 496.832031 189.25 "/>
<path style=" stroke:none;fill-rule:nonzero;fill:rgb(0%,11.372549%,48.627451%);fill-opacity:1;" d="M 516.214844 215.65625 C 518.152344 217.902344 520.640625 218.75 523.8125 218.75 C 527.226562 218.75 530.90625 217.152344 530.90625 212.234375 L 530.90625 209.34375 C 529.066406 211.730469 526.339844 213.328125 523.207031 213.328125 C 517.101562 213.328125 512.574219 208.898438 512.574219 200.984375 C 512.574219 193.234375 517.042969 188.664062 523.207031 188.664062 C 526.238281 188.664062 528.964844 190.058594 530.90625 192.589844 L 530.90625 189.25 L 536.121094 189.25 L 536.121094 212.03125 C 536.121094 220.691406 529.714844 223.019531 523.8125 223.019531 C 519.730469 223.019531 516.699219 222.128906 513.789062 219.4375 Z M 530.90625 196.492188 C 529.753906 194.710938 527.1875 193.257812 524.742188 193.257812 C 520.621094 193.257812 517.992188 196.332031 517.992188 200.964844 C 517.992188 205.597656 520.621094 208.675781 524.742188 208.675781 C 527.167969 208.675781 529.753906 207.238281 530.90625 205.4375 Z M 530.90625 196.492188 "/>
<g clip-path="url(#clip13)" clip-rule="nonzero">
<path style=" stroke:none;fill-rule:nonzero;fill:rgb(0%,11.372549%,48.627451%);fill-opacity:1;" d="M 544.628906 218.386719 C 546.265625 218.386719 547.359375 217.878906 548.046875 216.300781 L 549.238281 213.570312 L 539.394531 189.25 L 544.953125 189.25 L 551.964844 207.257812 L 558.957031 189.25 L 564.578125 189.25 L 552.996094 217.597656 C 551.359375 221.683594 548.46875 222.960938 544.75 223.019531 C 544.003906 223.019531 542.566406 222.878906 541.820312 222.675781 L 542.609375 218.003906 C 543.175781 218.226562 544.023438 218.386719 544.628906 218.386719 "/>
</g>
</g>
</svg>
