<svg width="72" height="72" viewBox="0 0 72 72" fill="none" xmlns="http://www.w3.org/2000/svg">
<path d="M28.5 54L40.5 36H22.5L34.5 18M66 39V33M42 54H42.6C47.6405 54 50.1607 54 52.0859 53.0191C53.7794 52.1562 55.1562 50.7794 56.0191 49.0859C57 47.1607 57 44.6405 57 39.6V30C57 27.2101 57 25.8151 56.6933 24.6706C55.8611 21.5648 53.4352 19.1389 50.3294 18.3067C49.1849 18 47.7899 18 45 18M21 18H20.4C15.3595 18 12.8393 18 10.9141 18.9809C9.22063 19.8438 7.8438 21.2206 6.98094 22.9141C6 24.8393 6 27.3595 6 32.4V42C6 44.7899 6 46.1849 6.30667 47.3294C7.13887 50.4352 9.5648 52.8611 12.6706 53.6933C13.8151 54 15.2101 54 18 54" stroke="white" stroke-width="4" stroke-linecap="round" stroke-linejoin="round"/>
</svg>
