<svg width="24" height="24" viewBox="0 0 24 24" fill="none" xmlns="http://www.w3.org/2000/svg">
<path d="M4 22C4 22.5523 4.44772 23 5 23C5.55228 23 6 22.5523 6 22H4ZM10 4.30862L11 4.30862V4.30862H10ZM18 22C18 22.5523 18.4477 23 19 23C19.5523 23 20 22.5523 20 22L18 22ZM19 4.30862L18 4.30862V4.30862L19 4.30862ZM14 4.30862L15 4.30863V4.30862H14ZM14 15.2478L13 15.2478V15.2478H14ZM10 15.2478L9 15.2478V15.2478H10ZM21 23C21.5523 23 22 22.5523 22 22C22 21.4477 21.5523 21 21 21V23ZM3 21C2.44772 21 2 21.4477 2 22C2 22.5523 2.44772 23 3 23V21ZM6 22V4.30862H4V22H6ZM7.5 3C8.40491 3 9 3.65938 9 4.30862H11C11 2.40782 9.35652 1 7.5 1V3ZM6 4.30862C6 3.65938 6.5951 3 7.5 3V1C5.64348 1 4 2.40782 4 4.30862H6ZM20 22L20 4.30862L18 4.30862L18 22L20 22ZM16.5 1C14.6435 1 13 2.40782 13 4.30862H15C15 3.65938 15.5951 3 16.5 3V1ZM20 4.30862C20 2.40782 18.3565 1 16.5 1V3C17.4049 3 18 3.65938 18 4.30862H20ZM12 18C13.5285 18 15 16.888 15 15.2478H13C13 15.5431 12.6806 16 12 16V18ZM9 15.2478C9 16.888 10.4715 18 12 18V16C11.3194 16 11 15.5431 11 15.2478H9ZM9 4.30862L9 15.2478L11 15.2478L11 4.30862L9 4.30862ZM13 4.30862L13 15.2478L15 15.2478L15 4.30863L13 4.30862ZM21 21H3V23H21V21Z" fill="#ffffff"/>
</svg>
