<svg width="72" height="72" viewBox="0 0 72 72" fill="none" xmlns="http://www.w3.org/2000/svg">
<path d="M63 9L45 9M63 21L45 21M63 33L45 33M16.5 41.2733V13.5C16.5 9.35786 19.8579 6 24 6C28.1421 6 31.5 9.35786 31.5 13.5V41.2733C35.118 43.6951 37.5 47.8194 37.5 52.5C37.5 59.9558 31.4558 66 24 66C16.5442 66 10.5 59.9558 10.5 52.5C10.5 47.8194 12.882 43.6951 16.5 41.2733ZM27 52.5C27 54.1569 25.6569 55.5 24 55.5C22.3431 55.5 21 54.1569 21 52.5C21 50.8431 22.3431 49.5 24 49.5C25.6569 49.5 27 50.8431 27 52.5Z" stroke="white" stroke-width="4" stroke-linecap="round" stroke-linejoin="round"/>
</svg>
