<svg width="72" height="72" viewBox="0 0 72 72" fill="none" xmlns="http://www.w3.org/2000/svg">
<path d="M12 30H60M28.5 12L25.5 45M43.5 12L46.5 45M36 48V63M21 63H51M9.44029 48H62.5597C63.0827 48 63.5987 47.844 64.0687 47.544C64.5387 47.2439 64.9502 46.8077 65.2719 46.2685C65.5936 45.7292 65.8171 45.1011 65.9254 44.4319C66.0337 43.7627 66.024 43.07 65.8969 42.4065L60.7363 15.4065C60.5499 14.4334 60.1203 13.5696 59.5157 12.9524C58.9111 12.3353 58.1661 12 57.3991 12H14.6009C13.8339 12 13.0889 12.3353 12.4843 12.9524C11.8797 13.5696 11.4501 14.4334 11.2637 15.4065L6.10312 42.4065C5.97604 43.07 5.96628 43.7627 6.07458 44.4319C6.18288 45.1011 6.40639 45.7292 6.72812 46.2685C7.04985 46.8077 7.46133 47.2439 7.9313 47.544C8.40126 47.844 8.91733 48 9.44029 48Z" stroke="white" stroke-width="4" stroke-linecap="round" stroke-linejoin="round"/>
</svg>
