<svg width="72" height="72" viewBox="0 0 72 72" fill="none" xmlns="http://www.w3.org/2000/svg">
<path d="M15 39H24M6 27L12 30L15.8119 18.5642C16.5987 16.2038 16.9922 15.0235 17.7219 14.1509C18.3662 13.3804 19.1938 12.784 20.1285 12.4163C21.1871 12 22.4311 12 24.9193 12H47.0807C49.5689 12 50.8129 12 51.8715 12.4163C52.8062 12.784 53.6338 13.3804 54.2781 14.1509C55.0078 15.0235 55.4013 16.2038 56.1881 18.5642L60 30L66 27M48 39H57M20.4 30H51.6C56.6405 30 59.1607 30 61.0859 30.9809C62.7794 31.8438 64.1562 33.2206 65.0191 34.9141C66 36.8393 66 39.3595 66 44.4V52.5C66 53.894 66 54.5909 65.8847 55.1705C65.4113 57.5507 63.5507 59.4113 61.1705 59.8847C60.591 60 59.894 60 58.5 60H57C53.6863 60 51 57.3137 51 54C51 53.1716 50.3284 52.5 49.5 52.5H22.5C21.6716 52.5 21 53.1716 21 54C21 57.3137 18.3137 60 15 60H13.5C12.106 60 11.4091 60 10.8295 59.8847C8.44931 59.4113 6.58873 57.5507 6.11529 55.1705C6 54.5909 6 53.894 6 52.5V44.4C6 39.3595 6 36.8393 6.98094 34.9141C7.8438 33.2206 9.22063 31.8438 10.9141 30.9809C12.8393 30 15.3595 30 20.4 30Z" stroke="white" stroke-width="4" stroke-linecap="round" stroke-linejoin="round"/>
</svg>
