<?xml version="1.0" encoding="UTF-8"?>
<!DOCTYPE svg PUBLIC "-//W3C//DTD SVG 1.1//EN" "http://www.w3.org/Graphics/SVG/1.1/DTD/svg11.dtd">
<svg xmlns="http://www.w3.org/2000/svg" version="1.1" width="566px" height="223px" style="shape-rendering:geometricPrecision; text-rendering:geometricPrecision; image-rendering:optimizeQuality; fill-rule:evenodd; clip-rule:evenodd" xmlns:xlink="http://www.w3.org/1999/xlink">
<g><path style="opacity:0.949" fill="#007ecf" d="M 376.5,-0.5 C 380.833,-0.5 385.167,-0.5 389.5,-0.5C 388.791,0.403972 387.791,0.737305 386.5,0.5C 386.51,48.503 386.177,96.503 385.5,144.5C 382.5,144.5 379.5,144.5 376.5,144.5C 376.5,96.1667 376.5,47.8333 376.5,-0.5 Z"/></g>
<g><path style="opacity:0.994" fill="#0079cc" d="M 389.5,-0.5 C 393.167,-0.5 396.833,-0.5 400.5,-0.5C 399.775,47.4953 399.108,95.4953 398.5,143.5C 399.791,143.263 400.791,143.596 401.5,144.5C 396.167,144.5 390.833,144.5 385.5,144.5C 386.177,96.503 386.51,48.503 386.5,0.5C 387.791,0.737305 388.791,0.403972 389.5,-0.5 Z"/></g>
<g><path style="opacity:0.994" fill="#0074ca" d="M 400.5,-0.5 C 403.167,-0.5 405.833,-0.5 408.5,-0.5C 408.5,47.8333 408.5,96.1667 408.5,144.5C 406.167,144.5 403.833,144.5 401.5,144.5C 400.791,143.596 399.791,143.263 398.5,143.5C 399.108,95.4953 399.775,47.4953 400.5,-0.5 Z"/></g>
<g><path style="opacity:0.992" fill="#0066c3" d="M 429.5,-0.5 C 434.5,-0.5 439.5,-0.5 444.5,-0.5C 443.791,0.403972 442.791,0.737305 441.5,0.5C 441.654,39.8375 441.321,79.1708 440.5,118.5C 440.529,127.398 441.196,136.064 442.5,144.5C 438.167,144.5 433.833,144.5 429.5,144.5C 429.5,96.1667 429.5,47.8333 429.5,-0.5 Z"/></g>
<g><path style="opacity:0.995" fill="#005fc0" d="M 444.5,-0.5 C 449.833,-0.5 455.167,-0.5 460.5,-0.5C 460.5,47.8333 460.5,96.1667 460.5,144.5C 454.5,144.5 448.5,144.5 442.5,144.5C 441.196,136.064 440.529,127.398 440.5,118.5C 441.321,79.1708 441.654,39.8375 441.5,0.5C 442.791,0.737305 443.791,0.403972 444.5,-0.5 Z"/></g>
<g><path style="opacity:0.972" fill="#00a5d3" d="M 289.5,28.5 C 294.64,27.5119 299.974,27.1786 305.5,27.5C 304.529,36.4161 304.196,45.4161 304.5,54.5C 300.131,54.4672 295.798,54.8005 291.5,55.5C 291.448,46.4818 291.782,37.4818 292.5,28.5C 291.5,28.5 290.5,28.5 289.5,28.5 Z"/></g>
<g><path style="opacity:0.974" fill="#009fd6" d="M 305.5,27.5 C 309.519,27.6458 313.519,27.9791 317.5,28.5C 316.528,37.75 316.195,47.0833 316.5,56.5C 312.574,55.4485 308.574,54.7818 304.5,54.5C 304.196,45.4161 304.529,36.4161 305.5,27.5 Z"/></g>
<g><path style="opacity:0.981" fill="#0ecbbf" d="M 175.5,63.5 C 175.5,52.1667 175.5,40.8333 175.5,29.5C 198.86,23.3415 219.526,28.1749 237.5,44C 231.695,51.6376 225.362,58.8043 218.5,65.5C 204.661,53.1422 190.328,52.4756 175.5,63.5 Z"/></g>
<g><path style="opacity:0.982" fill="#00abd0" d="M 289.5,28.5 C 290.5,28.5 291.5,28.5 292.5,28.5C 291.782,37.4818 291.448,46.4818 291.5,55.5C 286.72,57.0557 282.387,59.3891 278.5,62.5C 278.808,52.0846 278.475,41.7513 277.5,31.5C 281.279,29.686 285.279,28.686 289.5,28.5 Z"/></g>
<g><path style="opacity:0.988" fill="#0045b3" d="M 522.5,27.5 C 522.5,35.5 522.5,43.5 522.5,51.5C 512.466,50.3928 507.966,54.7261 509,64.5C 509.785,66.286 510.951,67.786 512.5,69C 515.893,70.62 519.226,72.12 522.5,73.5C 522.827,83.3478 522.494,93.0144 521.5,102.5C 512.221,100.522 503.554,97.1888 495.5,92.5C 495.993,80.8416 496.326,69.1749 496.5,57.5C 496.498,49.4697 495.831,41.803 494.5,34.5C 503.095,29.6844 512.429,27.3511 522.5,27.5 Z"/></g>
<g><path style="opacity:0.976" fill="#59d9b7" d="M 54.5,25.5 C 70.3782,23.9189 85.0448,27.2523 98.5,35.5C 97.6725,73.7661 97.0058,112.099 96.5,150.5C 93.9454,148.394 91.6121,146.06 89.5,143.5C 86.2732,144.909 82.9399,145.909 79.5,146.5C 78.5,146.5 77.5,146.5 76.5,146.5C 76.82,127.424 76.4867,108.424 75.5,89.5C 76.172,88.7326 77.0053,88.0659 78,87.5C 82.3333,92.5 86.6667,97.5 91,102.5C 99.276,82.9912 94.4427,67.4912 76.5,56C 69.391,52.8753 62.0577,52.0419 54.5,53.5C 55.4252,44.0987 55.4252,34.7653 54.5,25.5 Z"/></g>
<g><path style="opacity:0.989" fill="#0035ab" d="M 522.5,27.5 C 539.828,27.2401 552.661,34.5734 561,49.5C 562.895,54.3249 563.728,59.3249 563.5,64.5C 553.5,64.5 543.5,64.5 533.5,64.5C 533.819,56.8179 530.153,52.4846 522.5,51.5C 522.5,43.5 522.5,35.5 522.5,27.5 Z"/></g>
<g><path style="opacity:0.98" fill="#76dfb4" d="M 54.5,25.5 C 55.4252,34.7653 55.4252,44.0987 54.5,53.5C 34.7633,61.1415 26.9299,75.4749 31,96.5C 34.2931,108.96 42.1264,116.96 54.5,120.5C 54.8055,129.917 54.4721,139.25 53.5,148.5C 42.2382,146.864 32.2382,142.531 23.5,135.5C 23.5,103.167 23.5,70.8333 23.5,38.5C 32.5304,31.2617 42.8637,26.9283 54.5,25.5 Z"/></g>
<g><path style="opacity:0.985" fill="#00b2cc" d="M 277.5,31.5 C 278.475,41.7513 278.808,52.0846 278.5,62.5C 276.201,64.9264 274.535,67.7597 273.5,71C 274.793,71.49 276.127,71.6567 277.5,71.5C 278.181,79.423 278.181,87.423 277.5,95.5C 276.167,95.5 274.833,95.5 273.5,95.5C 273.629,100.219 274.962,104.552 277.5,108.5C 278.144,120.216 277.478,131.549 275.5,142.5C 271.38,141.274 267.713,139.274 264.5,136.5C 264.181,103.457 264.514,70.4565 265.5,37.5C 269.217,34.9751 273.217,32.9751 277.5,31.5 Z"/></g>
<g><path style="opacity:0.99" fill="#24cfbd" d="M 175.5,29.5 C 175.5,40.8333 175.5,52.1667 175.5,63.5C 163.728,79.3708 163.562,95.3708 175,111.5C 180.67,117.084 187.504,120.084 195.5,120.5C 195.5,130.167 195.5,139.833 195.5,149.5C 180.874,149.604 167.874,145.271 156.5,136.5C 156.278,103.824 156.611,71.1572 157.5,38.5C 162.942,34.4456 168.942,31.4456 175.5,29.5 Z"/></g>
<g><path style="opacity:0.988" fill="#0095d9" d="M 317.5,28.5 C 328.255,31.0377 337.255,36.3711 344.5,44.5C 344.5,61.5 344.5,78.5 344.5,95.5C 335.167,95.5 325.833,95.5 316.5,95.5C 317.085,87.2279 316.418,79.2279 314.5,71.5C 319.833,71.5 325.167,71.5 330.5,71.5C 328.631,63.962 323.964,58.962 316.5,56.5C 316.195,47.0833 316.528,37.75 317.5,28.5 Z"/></g>
<g><path style="opacity:0.977" fill="#004db8" d="M 494.5,34.5 C 495.831,41.803 496.498,49.4697 496.5,57.5C 496.326,69.1749 495.993,80.8416 495.5,92.5C 480.219,83.8645 474.719,70.8645 479,53.5C 481.827,45.1359 486.994,38.8026 494.5,34.5 Z"/></g>
<g><path style="opacity:0.99" fill="#4ed7b8" d="M 98.5,35.5 C 102.791,38.1231 106.457,41.4564 109.5,45.5C 108.671,79.8265 108.337,114.16 108.5,148.5C 106.159,150.829 103.492,152.829 100.5,154.5C 98.812,153.479 97.4787,152.145 96.5,150.5C 97.0058,112.099 97.6725,73.7661 98.5,35.5 Z"/></g>
<g><path style="opacity:0.989" fill="#31d2bb" d="M 157.5,38.5 C 156.611,71.1572 156.278,103.824 156.5,136.5C 147.964,130.447 141.797,122.447 138,112.5C 130.665,90.1723 133.332,69.1723 146,49.5C 149.702,45.6295 153.536,41.9629 157.5,38.5 Z"/></g>
<g><path style="opacity:0.988" fill="#00b8c9" d="M 265.5,37.5 C 264.514,70.4565 264.181,103.457 264.5,136.5C 259.46,132.461 255.127,127.794 251.5,122.5C 252.115,98.8382 252.448,75.1716 252.5,51.5C 255.426,45.5724 259.759,40.9057 265.5,37.5 Z"/></g>
<g><path style="opacity:0.977" fill="#008cd6" d="M 344.5,44.5 C 351.915,51.4854 356.915,59.9854 359.5,70C 361.267,78.3954 361.934,86.8954 361.5,95.5C 355.833,95.5 350.167,95.5 344.5,95.5C 344.5,78.5 344.5,61.5 344.5,44.5 Z"/></g>
<g><path style="opacity:0.981" fill="#46d6b9" d="M 109.5,45.5 C 124.033,62.3107 128.533,81.6441 123,103.5C 120.873,111.922 117.039,119.422 111.5,126C 114.951,129.74 118.285,133.573 121.5,137.5C 117.466,141.536 113.132,145.202 108.5,148.5C 108.337,114.16 108.671,79.8265 109.5,45.5 Z"/></g>
<g><path style="opacity:0.982" fill="#85e2b2" d="M 23.5,38.5 C 23.5,70.8333 23.5,103.167 23.5,135.5C 10.3832,125.271 2.38325,111.938 -0.5,95.5C -0.5,90.1667 -0.5,84.8333 -0.5,79.5C 2.07023,62.6979 10.0702,49.0313 23.5,38.5 Z"/></g>
<g><path style="opacity:0.941" fill="#00bec7" d="M 252.5,51.5 C 252.448,75.1716 252.115,98.8382 251.5,122.5C 241.155,105.439 238.655,87.1054 244,67.5C 245.56,61.3742 248.393,56.0409 252.5,51.5 Z"/></g>
<g><path style="opacity:0.963" fill="#00abd0" d="M 277.5,71.5 C 281.5,71.5 285.5,71.5 289.5,71.5C 291.418,79.2279 292.085,87.2279 291.5,95.5C 286.833,95.5 282.167,95.5 277.5,95.5C 278.181,87.423 278.181,79.423 277.5,71.5 Z"/></g>
<g><path style="opacity:0.965" fill="#00a5d3" d="M 289.5,71.5 C 293.833,71.5 298.167,71.5 302.5,71.5C 303.737,74.4 304.403,77.5666 304.5,81C 304.264,85.847 303.931,90.6804 303.5,95.5C 299.5,95.5 295.5,95.5 291.5,95.5C 292.085,87.2279 291.418,79.2279 289.5,71.5 Z"/></g>
<g><path style="opacity:0.961" fill="#009fd6" d="M 302.5,71.5 C 306.5,71.5 310.5,71.5 314.5,71.5C 316.418,79.2279 317.085,87.2279 316.5,95.5C 312.167,95.5 307.833,95.5 303.5,95.5C 303.931,90.6804 304.264,85.847 304.5,81C 304.403,77.5666 303.737,74.4 302.5,71.5 Z"/></g>
<g><path style="opacity:0.965" fill="#003caf" d="M 522.5,73.5 C 527.357,74.2309 532.024,75.5642 536.5,77.5C 535.167,100.5 535.167,123.5 536.5,146.5C 527.609,148.715 518.609,149.049 509.5,147.5C 508.183,137.402 508.183,127.402 509.5,117.5C 513.302,124.05 518.968,126.216 526.5,124C 532.989,120.865 534.823,116.032 532,109.5C 528.692,106.771 525.192,104.438 521.5,102.5C 522.494,93.0144 522.827,83.3478 522.5,73.5 Z"/></g>
<g><path style="opacity:0.985" fill="#0035ab" d="M 536.5,77.5 C 541.98,79.4046 546.98,82.0713 551.5,85.5C 550.293,103.658 550.293,121.658 551.5,139.5C 547.192,143.152 542.192,145.486 536.5,146.5C 535.167,123.5 535.167,100.5 536.5,77.5 Z"/></g>
<g><path style="opacity:0.987" fill="#002fa9" d="M 551.5,85.5 C 559.263,89.5906 563.93,95.9239 565.5,104.5C 565.5,109.167 565.5,113.833 565.5,118.5C 563.575,127.355 558.909,134.355 551.5,139.5C 550.293,121.658 550.293,103.658 551.5,85.5 Z"/></g>
<g><path style="opacity:0.985" fill="#63dbb6" d="M 75.5,89.5 C 76.4867,108.424 76.82,127.424 76.5,146.5C 77.5,146.5 78.5,146.5 79.5,146.5C 78.0484,147.302 76.3817,147.802 74.5,148C 67.5079,148.5 60.5079,148.666 53.5,148.5C 54.4721,139.25 54.8055,129.917 54.5,120.5C 57.35,120.636 60.1834,120.969 63,121.5C 65.1454,121.604 66.9788,120.937 68.5,119.5C 64.3807,114.759 60.3807,109.926 56.5,105C 62.4968,99.3464 68.8302,94.1797 75.5,89.5 Z"/></g>
<g><path style="opacity:0.973" fill="#0092d8" d="M 324.5,144.5 C 325.477,133.248 325.811,121.914 325.5,110.5C 326.548,108.387 328.048,106.72 330,105.5C 339.671,107.957 349.171,110.79 358.5,114C 351.375,128.963 340.042,139.13 324.5,144.5 Z"/></g>
<g><path style="opacity:0.976" fill="#00abd0" d="M 277.5,108.5 C 281.5,112.827 286.167,116.161 291.5,118.5C 291.194,128.25 291.527,137.916 292.5,147.5C 286.328,147.211 280.662,145.544 275.5,142.5C 277.478,131.549 278.144,120.216 277.5,108.5 Z"/></g>
<g><path style="opacity:0.968" fill="#0049b5" d="M 509.5,117.5 C 508.183,127.402 508.183,137.402 509.5,147.5C 489.47,143.802 478.47,131.802 476.5,111.5C 486.812,110.501 497.145,110.168 507.5,110.5C 507.767,112.965 508.434,115.299 509.5,117.5 Z"/></g>
<g><path style="opacity:0.977" fill="#009ad9" d="M 325.5,110.5 C 325.811,121.914 325.477,133.248 324.5,144.5C 321.146,146.258 317.479,147.258 313.5,147.5C 314.832,146.17 315.665,144.503 316,142.5C 316.5,134.173 316.666,125.84 316.5,117.5C 319.762,115.58 322.762,113.246 325.5,110.5 Z"/></g>
<g><path style="opacity:0.974" fill="#009fd6" d="M 316.5,117.5 C 316.666,125.84 316.5,134.173 316,142.5C 315.665,144.503 314.832,146.17 313.5,147.5C 310.609,148.403 307.609,148.736 304.5,148.5C 303.528,139.25 303.195,129.917 303.5,120.5C 307.876,119.778 312.209,118.778 316.5,117.5 Z"/></g>
<g><path style="opacity:0.978" fill="#00a5d3" d="M 291.5,118.5 C 295.5,119.167 299.5,119.833 303.5,120.5C 303.195,129.917 303.528,139.25 304.5,148.5C 300.434,148.693 296.434,148.36 292.5,147.5C 291.527,137.916 291.194,128.25 291.5,118.5 Z"/></g>
<g><path style="opacity:0.979" fill="#0acac0" d="M 195.5,149.5 C 195.5,139.833 195.5,130.167 195.5,120.5C 204.833,120.557 213,117.557 220,111.5C 226.836,117.673 233.003,124.506 238.5,132C 226.471,143.343 212.138,149.177 195.5,149.5 Z"/></g>
<g><path style="opacity:0.898" fill="#001c7b" d="M 15.5,178.5 C 22.9104,177.045 29.0771,179.045 34,184.5C 34.7494,185.635 34.5827,186.635 33.5,187.5C 32.2519,188.04 31.0852,188.707 30,189.5C 24,182.833 18,182.833 12,189.5C 8.63797,198.776 11.638,204.776 21,207.5C 24.49,206.668 27.49,205.001 30,202.5C 33.3012,202.785 34.6345,204.452 34,207.5C 25.8098,215.073 17.3098,215.406 8.5,208.5C 1.40772,198.818 2.07439,189.651 10.5,181C 12.3146,180.243 13.9812,179.41 15.5,178.5 Z"/></g>
<g><path style="opacity:0.934" fill="#001c7c" d="M 136.5,178.5 C 138.5,178.5 140.5,178.5 142.5,178.5C 142.5,189.833 142.5,201.167 142.5,212.5C 140.5,212.5 138.5,212.5 136.5,212.5C 136.5,201.167 136.5,189.833 136.5,178.5 Z"/></g>
<g><path style="opacity:0.849" fill="#001c7b" d="M 219.5,178.5 C 221.5,178.5 223.5,178.5 225.5,178.5C 225.5,189.833 225.5,201.167 225.5,212.5C 223.5,212.5 221.5,212.5 219.5,212.5C 219.5,201.167 219.5,189.833 219.5,178.5 Z"/></g>
<g><path style="opacity:0.895" fill="#001c7b" d="M 279.5,178.5 C 286.91,177.045 293.077,179.045 298,184.5C 298.749,185.635 298.583,186.635 297.5,187.5C 296.252,188.04 295.085,188.707 294,189.5C 288,182.833 282,182.833 276,189.5C 272.638,198.776 275.638,204.776 285,207.5C 288.49,206.668 291.49,205.001 294,202.5C 295.893,203.196 297.726,204.03 299.5,205C 294.055,212.868 286.721,215.201 277.5,212C 268.344,206.537 265.511,198.704 269,188.5C 271.106,183.557 274.606,180.224 279.5,178.5 Z"/></g>
<g><path style="opacity:0.85" fill="#001d7b" d="M 302.5,178.5 C 304.5,178.5 306.5,178.5 308.5,178.5C 308.5,189.833 308.5,201.167 308.5,212.5C 306.5,212.5 304.5,212.5 302.5,212.5C 302.5,201.167 302.5,189.833 302.5,178.5 Z"/></g>
<g><path style="opacity:0.875" fill="#001c7c" d="M 409.5,178.5 C 417.167,178.5 424.833,178.5 432.5,178.5C 432.5,180.5 432.5,182.5 432.5,184.5C 427.167,184.5 421.833,184.5 416.5,184.5C 416.5,187.167 416.5,189.833 416.5,192.5C 421.833,192.5 427.167,192.5 432.5,192.5C 432.5,194.5 432.5,196.5 432.5,198.5C 427.167,198.5 421.833,198.5 416.5,198.5C 416.5,201.167 416.5,203.833 416.5,206.5C 421.833,206.5 427.167,206.5 432.5,206.5C 432.5,208.5 432.5,210.5 432.5,212.5C 424.833,212.5 417.167,212.5 409.5,212.5C 409.5,201.167 409.5,189.833 409.5,178.5 Z"/></g>
<g><path style="opacity:0.888" fill="#001d7b" d="M 177.5,181.5 C 179.5,181.5 181.5,181.5 183.5,181.5C 183.5,183.5 183.5,185.5 183.5,187.5C 185.167,187.5 186.833,187.5 188.5,187.5C 188.5,189.5 188.5,191.5 188.5,193.5C 186.833,193.5 185.167,193.5 183.5,193.5C 183.5,198.167 183.5,202.833 183.5,207.5C 184.822,207.67 185.989,207.337 187,206.5C 190.873,210.668 189.873,213.001 184,213.5C 181.594,213.297 179.594,212.297 178,210.5C 177.501,204.843 177.334,199.176 177.5,193.5C 176.167,193.5 174.833,193.5 173.5,193.5C 173.5,191.5 173.5,189.5 173.5,187.5C 174.833,187.5 176.167,187.5 177.5,187.5C 177.5,185.5 177.5,183.5 177.5,181.5 Z"/></g>
<g><path style="opacity:0.892" fill="#011c7a" d="M 45.5,187.5 C 60.0081,186.833 65.1748,193.5 61,207.5C 54.6006,214.653 47.6006,215.32 40,209.5C 37.5987,204.768 36.932,199.768 38,194.5C 39.7668,191.228 42.2668,188.895 45.5,187.5 Z M 48.5,192.5 C 55.1108,194.053 57.2774,198.053 55,204.5C 52.0293,208.092 48.696,208.425 45,205.5C 42.3476,200.039 43.5142,195.706 48.5,192.5 Z"/></g>
<g><path style="opacity:0.883" fill="#001c7a" d="M 66.5,187.5 C 69.3938,187.042 71.8938,187.709 74,189.5C 78.6647,186.544 82.9981,186.878 87,190.5C 91.1369,187.171 95.6369,186.671 100.5,189C 101.191,190.067 101.691,191.234 102,192.5C 102.5,199.158 102.666,205.825 102.5,212.5C 100.5,212.5 98.5,212.5 96.5,212.5C 96.666,207.156 96.4994,201.823 96,196.5C 94.0373,191.537 91.3706,191.203 88,195.5C 87.5006,201.157 87.3339,206.824 87.5,212.5C 85.5,212.5 83.5,212.5 81.5,212.5C 81.6662,206.491 81.4995,200.491 81,194.5C 78.9203,192.027 76.7536,192.027 74.5,194.5C 73.5041,200.463 73.1707,206.463 73.5,212.5C 71.1667,212.5 68.8333,212.5 66.5,212.5C 66.5,204.167 66.5,195.833 66.5,187.5 Z"/></g>
<g><path style="opacity:0.901" fill="#001d7b" d="M 108.5,187.5 C 111.079,187.083 113.246,187.75 115,189.5C 127.905,185.72 133.572,190.72 132,204.5C 129.017,212.741 123.517,215.074 115.5,211.5C 114.513,214.768 114.18,218.102 114.5,221.5C 112.5,221.5 110.5,221.5 108.5,221.5C 108.5,210.167 108.5,198.833 108.5,187.5 Z M 118.5,192.5 C 125.024,193.867 127.19,197.867 125,204.5C 122.029,208.092 118.696,208.425 115,205.5C 114.333,202.167 114.333,198.833 115,195.5C 116.145,194.364 117.312,193.364 118.5,192.5 Z"/></g>
<g><path style="opacity:0.882" fill="#001c7b" d="M 155.5,187.5 C 166.675,186.343 172.008,191.343 171.5,202.5C 165.491,202.334 159.491,202.501 153.5,203C 157.183,208.997 161.85,209.83 167.5,205.5C 171.749,208.463 171.416,210.629 166.5,212C 151.783,215.374 145.616,209.54 148,194.5C 149.767,191.228 152.267,188.895 155.5,187.5 Z M 157.5,192.5 C 161.224,191.773 163.891,193.106 165.5,196.5C 161.541,197.66 157.541,197.827 153.5,197C 154.357,194.981 155.691,193.481 157.5,192.5 Z"/></g>
<g><path style="opacity:0.882" fill="#001c7b" d="M 198.5,187.5 C 209.679,186.256 215.346,191.256 215.5,202.5C 209.463,202.171 203.463,202.504 197.5,203.5C 198.812,206.243 200.979,207.91 204,208.5C 206.438,207.183 208.938,206.349 211.5,206C 214.468,208.584 214.135,210.584 210.5,212C 196.299,215.46 189.799,209.96 191,195.5C 192.353,191.65 194.853,188.983 198.5,187.5 Z M 200.5,192.5 C 204.224,191.773 206.891,193.106 208.5,196.5C 204.833,197.833 201.167,197.833 197.5,196.5C 198.524,195.148 199.524,193.815 200.5,192.5 Z"/></g>
<g><path style="opacity:0.887" fill="#001c7a" d="M 321.5,187.5 C 332.655,186.322 337.988,191.322 337.5,202.5C 331.491,202.334 325.491,202.501 319.5,203C 323.183,208.997 327.85,209.83 333.5,205.5C 334.382,206.76 335.382,207.926 336.5,209C 330.669,214.07 324.336,214.737 317.5,211C 312.506,205.37 311.673,199.203 315,192.5C 316.805,190.174 318.972,188.508 321.5,187.5 Z M 323.5,192.5 C 327.224,191.773 329.891,193.106 331.5,196.5C 327.541,197.66 323.541,197.827 319.5,197C 320.357,194.981 321.691,193.481 323.5,192.5 Z"/></g>
<g><path style="opacity:0.865" fill="#011c7a" d="M 347.5,187.5 C 350.85,187.335 354.183,187.502 357.5,188C 358.931,188.465 360.097,189.299 361,190.5C 362.429,197.719 362.929,205.053 362.5,212.5C 360.208,212.756 358.041,212.423 356,211.5C 347.84,215.501 342.673,213.167 340.5,204.5C 340.96,199.043 343.96,196.376 349.5,196.5C 351.839,196.669 354.006,197.336 356,198.5C 357.052,194.707 355.552,192.707 351.5,192.5C 348.831,193.687 346.165,194.52 343.5,195C 342.707,193.915 342.04,192.748 341.5,191.5C 343.29,189.684 345.29,188.351 347.5,187.5 Z M 348.5,201.5 C 350.527,201.338 352.527,201.505 354.5,202C 357.167,204 357.167,206 354.5,208C 347.852,209.445 345.852,207.278 348.5,201.5 Z"/></g>
<g><path style="opacity:0.861" fill="#001d7b" d="M 368.5,187.5 C 371.144,187.16 373.477,187.827 375.5,189.5C 380.033,186.867 384.533,186.867 389,189.5C 390.432,197.054 390.932,204.721 390.5,212.5C 388.5,212.5 386.5,212.5 384.5,212.5C 384.666,206.491 384.499,200.491 384,194.5C 380.839,192.199 377.839,192.532 375,195.5C 374.501,201.157 374.334,206.824 374.5,212.5C 372.5,212.5 370.5,212.5 368.5,212.5C 368.5,204.167 368.5,195.833 368.5,187.5 Z"/></g>
<g><path style="opacity:0.874" fill="#001c7b" d="M 437.5,187.5 C 439.5,187.5 441.5,187.5 443.5,187.5C 443.351,188.552 443.517,189.552 444,190.5C 447.681,187.64 451.848,186.807 456.5,188C 457.333,188.833 458.167,189.667 459,190.5C 459.5,197.826 459.666,205.159 459.5,212.5C 457.5,212.5 455.5,212.5 453.5,212.5C 453.666,206.491 453.499,200.491 453,194.5C 449.877,192.179 446.877,192.513 444,195.5C 443.501,201.157 443.334,206.824 443.5,212.5C 441.5,212.5 439.5,212.5 437.5,212.5C 437.5,204.167 437.5,195.833 437.5,187.5 Z"/></g>
<g><path style="opacity:0.884" fill="#001c7a" d="M 472.5,187.5 C 483.453,186.45 489.119,191.45 489.5,202.5C 483.158,202.334 476.825,202.5 470.5,203C 474.404,208.588 479.071,209.421 484.5,205.5C 485.974,206.436 486.974,207.77 487.5,209.5C 478.579,215.822 471.079,214.489 465,205.5C 462.899,197.389 465.399,191.389 472.5,187.5 Z M 474.5,192.5 C 478.224,191.773 480.891,193.106 482.5,196.5C 478.541,197.66 474.541,197.827 470.5,197C 471.357,194.981 472.691,193.481 474.5,192.5 Z"/></g>
<g><path style="opacity:0.889" fill="#001d7c" d="M 493.5,187.5 C 496.144,187.16 498.477,187.827 500.5,189.5C 502.618,188.054 504.951,187.387 507.5,187.5C 507.5,189.5 507.5,191.5 507.5,193.5C 504.728,193.22 502.228,193.887 500,195.5C 499.501,201.157 499.334,206.824 499.5,212.5C 497.5,212.5 495.5,212.5 493.5,212.5C 493.5,204.167 493.5,195.833 493.5,187.5 Z"/></g>
<g><path style="opacity:0.884" fill="#011c7a" d="M 524.5,222.5 C 521.833,222.5 519.167,222.5 516.5,222.5C 514.709,221.609 512.876,220.609 511,219.5C 510.288,217.305 510.955,215.638 513,214.5C 519.703,219.451 524.536,218.118 527.5,210.5C 527.333,210.167 527.167,209.833 527,209.5C 516.415,215.29 510.248,212.124 508.5,200C 510.248,187.876 516.415,184.71 527,190.5C 527.483,189.552 527.649,188.552 527.5,187.5C 529.5,187.5 531.5,187.5 533.5,187.5C 533.666,196.506 533.5,205.506 533,214.5C 531.581,218.755 528.747,221.422 524.5,222.5 Z M 520.5,192.5 C 527.196,193.785 529.363,197.785 527,204.5C 520.957,208.73 517.124,207.23 515.5,200C 515.426,196.256 517.092,193.756 520.5,192.5 Z"/></g>
<g><path style="opacity:0.882" fill="#011c79" d="M 544.5,222.5 C 542.5,222.5 540.5,222.5 538.5,222.5C 538.5,220.5 538.5,218.5 538.5,216.5C 540.199,216.66 541.866,216.494 543.5,216C 544.097,214.938 544.43,213.772 544.5,212.5C 541.9,204.368 538.9,196.368 535.5,188.5C 537.743,187.526 540.076,187.192 542.5,187.5C 543.929,193.029 545.929,198.363 548.5,203.5C 551.097,198.373 553.097,193.04 554.5,187.5C 556.833,187.5 559.167,187.5 561.5,187.5C 557.964,197.579 554.131,207.579 550,217.5C 548.594,219.744 546.761,221.41 544.5,222.5 Z"/></g>
<g><path style="opacity:0.903" fill="#001c7b" d="M 237.5,222.5 C 235.167,222.5 232.833,222.5 230.5,222.5C 230.5,220.5 230.5,218.5 230.5,216.5C 234.145,217.32 236.478,215.987 237.5,212.5C 234.167,204.5 230.833,196.5 227.5,188.5C 229.833,187.167 232.167,187.167 234.5,188.5C 236.569,193.873 238.736,199.207 241,204.5C 243,199.167 245,193.833 247,188.5C 249.041,187.577 251.208,187.244 253.5,187.5C 250.502,196.992 247.002,206.325 243,215.5C 242.033,218.621 240.2,220.954 237.5,222.5 Z"/></g>
</svg>
