<?xml version="1.0" encoding="UTF-8" standalone="no"?>
<!-- Created with Inkscape (http://www.inkscape.org/) -->

<svg
   width="1364mm"
   height="430.19901mm"
   viewBox="0 0 1364 430.19901"
   version="1.1"
   id="svg5"
   inkscape:version="1.1.2 (0a00cf5339, 2022-02-04)"
   sodipodi:docname="ZewoDynamicsCut.svg"
   xmlns:inkscape="http://www.inkscape.org/namespaces/inkscape"
   xmlns:sodipodi="http://sodipodi.sourceforge.net/DTD/sodipodi-0.dtd"
   xmlns="http://www.w3.org/2000/svg"
   xmlns:svg="http://www.w3.org/2000/svg">
  <sodipodi:namedview
     id="namedview7"
     pagecolor="#ffffff"
     bordercolor="#666666"
     borderopacity="1.0"
     inkscape:pageshadow="2"
     inkscape:pageopacity="0.0"
     inkscape:pagecheckerboard="0"
     inkscape:document-units="mm"
     showgrid="false"
     inkscape:zoom="0.11322959"
     inkscape:cx="1845.8073"
     inkscape:cy="1496.9585"
     inkscape:window-width="1862"
     inkscape:window-height="1136"
     inkscape:window-x="58"
     inkscape:window-y="27"
     inkscape:window-maximized="1"
     inkscape:current-layer="layer1" />
  <defs
     id="defs2">
    <style
       id="style824">
      .cls-1 {
        fill: #2b6eb9;
      }

      .cls-2 {
        fill: #368578;
      }

      .cls-3 {
        fill: #0069b4;
      }

      .cls-4 {
        fill: #1f254c;
      }

      .cls-5 {
        fill: #f9b000;
      }

      .cls-6 {
        fill: #00a439;
      }
    </style>
  </defs>
  <g
     inkscape:label="Ebene 1"
     inkscape:groupmode="layer"
     id="layer1">
    <g
       id="g928"
       transform="matrix(1.1311163,0,0,1.1311163,-83.340649,-337.30846)">
      <g
         id="g860">
        <g
           id="g856">
          <g
             id="g844">
            <path
               class="cls-4"
               d="m 173.33,438.17 h 24.85 v 182.82 h -24.85 v -17.75 c -7.86,13.44 -24.85,20.79 -40.82,20.79 -32.2,0 -58.83,-24.85 -58.83,-62.38 0,-37.53 26.62,-62.12 58.57,-62.12 16.74,0 33.22,7.1 41.08,20.54 z m -0.25,123.23 c 0,-23.83 -19.52,-38.54 -37.78,-38.54 -20.28,0 -36.77,16.23 -36.77,38.54 0,22.31 16.48,39.3 36.77,39.3 20.29,0 37.78,-15.47 37.78,-39.3 z"
               id="path828" />
            <path
               class="cls-4"
               d="m 315.07,502.57 h 26.88 l -73.53,175.97 h -26.37 l 25.61,-62.88 -47.42,-113.09 h 26.88 l 33.98,82.41 33.98,-82.41 z"
               id="path830" />
            <path
               class="cls-4"
               d="m 473.8,553.29 v 67.7 h -24.85 v -66.18 c 0,-19.27 -11.66,-30.94 -26.88,-30.94 -15.22,0 -34.23,8.88 -34.23,33.47 v 63.64 H 362.99 V 502.57 h 24.85 v 18.26 c 6.85,-14.71 25.86,-21.3 38.54,-21.3 29.92,0 47.67,20.03 47.42,53.75 z"
               id="path832" />
            <path
               class="cls-4"
               d="m 601.34,502.57 h 24.85 v 118.41 h -24.85 v -20.03 c -7.61,13.69 -23.83,23.07 -42.09,23.07 -30.94,0 -57.56,-25.86 -57.56,-62.38 0,-36.52 25.1,-62.12 58.57,-62.12 17.24,0 33.47,7.35 41.08,20.79 v -17.75 z m -0.26,59.08 c 0,-22.82 -19.02,-38.8 -38.03,-38.8 -20.29,0 -36.26,17.75 -36.26,38.8 0,21.05 15.97,39.05 36.77,39.05 20.8,0 37.53,-16.74 37.53,-39.05 z"
               id="path834" />
            <path
               class="cls-4"
               d="m 850.33,553.29 v 67.7 h -25.1 v -66.43 c 0,-19.27 -10.14,-31.19 -26.12,-31.19 -19.52,-0.25 -29.67,13.69 -29.67,38.54 v 59.08 h -25.1 v -66.43 c 0,-19.27 -10.14,-31.19 -24.85,-31.19 -15.47,0 -31.19,9.89 -31.19,33.98 v 63.64 H 663.45 V 502.58 h 24.85 v 18.51 c 5.33,-13.18 21.05,-21.55 37.02,-21.55 17.24,0 31.69,9.13 38.8,24.85 10.14,-20.54 28.65,-24.85 40.57,-24.85 29.67,0 45.64,20.03 45.64,53.75 z"
               id="path836" />
            <path
               class="cls-4"
               d="M 885.83,620.99 V 502.58 h 24.85 v 118.41 z"
               id="path838" />
            <path
               class="cls-4"
               d="m 940.09,561.65 c 0,-37.53 29.67,-62.12 63.9,-62.12 19.27,0 35.75,7.86 46.15,20.28 l -16.48,15.47 c -6.85,-7.61 -17.24,-12.42 -29.16,-12.42 -22.06,0 -39.56,16.23 -39.56,38.8 0,22.57 17.5,39.05 39.56,39.05 11.92,0 22.31,-4.82 29.16,-12.42 l 16.48,15.47 c -10.4,12.42 -26.88,20.28 -46.15,20.28 -34.23,0 -63.9,-24.85 -63.9,-62.38 z"
               id="path840" />
            <path
               class="cls-4"
               d="m 1068.39,585.49 h 23.07 c 0,9.38 8.37,17.5 21.81,17.5 13.44,0 22.06,-6.85 22.06,-15.72 0,-7.86 -6.34,-11.92 -15.21,-13.95 l -15.97,-3.8 c -22.06,-5.83 -32.2,-17.24 -32.2,-34.74 0,-19.27 17.5,-35.25 42.09,-35.25 20.28,0 42.09,10.65 42.09,35.5 h -23.83 c 0,-8.62 -8.87,-14.45 -17.75,-14.45 -10.4,0 -17.5,6.85 -17.5,14.96 0,7.35 6.85,11.41 14.2,13.19 l 18,4.31 c 25.36,6.34 30.93,22.06 30.93,34.74 0,22.57 -22.31,36.26 -46.66,36.26 -22.06,0 -44.63,-13.69 -45.13,-38.54 z"
               id="path842" />
          </g>
          <g
             id="g854">
            <path
               class="cls-3"
               d="m 324.21,347.69 v 20.28 l -69.73,74.8 h 69.73 V 466.1 H 219.49 v -20.28 l 68.46,-74.8 h -64.4 v -23.33 z"
               id="path846" />
            <path
               class="cls-3"
               d="m 465.45,416.91 h -94.33 c 3.3,19.27 17.5,29.16 36.51,29.16 13.95,0 26.88,-6.34 33.47,-17.24 l 19.78,9.89 c -10.4,19.78 -31.69,30.43 -54.26,30.43 -34.23,0 -61.11,-25.1 -61.11,-62.63 0,-37.53 27.38,-61.87 61.11,-61.87 33.73,0 59.33,24.34 59.33,61.61 0,3.3 -0.25,6.85 -0.51,10.65 z m -24.34,-20.03 c -2.54,-18.51 -15.97,-29.16 -34.23,-29.16 -18.26,0 -31.95,9.38 -35.5,29.16 z"
               id="path848" />
            <path
               class="cls-3"
               d="m 640.91,347.69 h 26.88 L 624.43,466.1 H 603.38 L 572.7,381.16 543.03,466.1 H 522.49 L 477.61,347.69 h 26.88 l 28.4,80.89 28.15,-80.89 h 23.33 l 28.4,80.89 z"
               id="path850" />
            <path
               class="cls-3"
               d="m 679.96,406.77 c 0,-37.53 28.4,-62.12 62.12,-62.12 33.72,0 62.38,24.6 62.38,62.12 0,37.52 -28.65,62.38 -62.38,62.38 -33.73,0 -62.12,-24.85 -62.12,-62.38 z m 99.65,0 c 0,-22.82 -17.24,-38.8 -37.53,-38.8 -20.29,0 -37.27,15.97 -37.27,38.8 0,22.83 16.99,39.05 37.27,39.05 20.28,0 37.53,-15.97 37.53,-39.05 z"
               id="path852" />
          </g>
        </g>
        <path
           class="cls-6"
           d="m 891.02,436.08 c 8.23,-4.28 18.36,-1.08 22.64,7.15 4.28,8.23 1.08,18.37 -7.15,22.64 -8.23,4.28 -18.37,1.08 -22.64,-7.15 -4.28,-8.23 -1.08,-18.37 7.15,-22.64 z"
           id="path858" />
      </g>
      <g
         id="g890">
        <g
           id="g874">
          <path
             class="cls-5"
             d="m 1230.64,504.17 c -7.73,-3.29 -16.67,0.34 -19.94,8.06 -3.29,7.73 0.34,16.67 8.06,19.94 7.73,3.29 16.67,-0.34 19.94,-8.06 3.29,-7.73 -0.34,-16.67 -8.06,-19.94 z"
             id="path862" />
          <path
             class="cls-4"
             d="m 1258.35,564.3 c -6.92,-2.94 -14.91,0.3 -17.84,7.22 -2.94,6.92 0.3,14.91 7.22,17.84 6.92,2.94 14.91,-0.3 17.84,-7.22 2.94,-6.92 -0.3,-14.91 -7.22,-17.84 z"
             id="path864" />
          <circle
             class="cls-4"
             cx="1179.61"
             cy="463.82999"
             r="17.25"
             id="circle866" />
          <path
             class="cls-4"
             d="m 1124.65,405.98 c -9.8,-4.15 -21.11,0.42 -25.26,10.22 -4.15,9.8 0.42,21.11 10.22,25.26 9.8,4.15 21.11,-0.42 25.26,-10.22 4.15,-9.8 -0.42,-21.11 -10.22,-25.26 z"
             id="path868" />
          <path
             class="cls-4"
             d="m 1053.74,385.1 c -10.9,-4.62 -23.5,0.47 -28.12,11.37 -4.62,10.9 0.47,23.5 11.37,28.12 10.9,4.62 23.5,-0.47 28.12,-11.37 4.62,-10.9 -0.47,-23.5 -11.37,-28.12 z"
             id="path870" />
          <path
             class="cls-1"
             d="m 978.4,398.3 c -9.95,-4.74 -21.86,-0.52 -26.6,9.43 -4.74,9.95 -0.52,21.86 9.43,26.6 9.95,4.74 21.86,0.52 26.6,-9.43 4.74,-9.95 0.52,-21.86 -9.43,-26.6 z"
             id="path872" />
        </g>
        <g
           id="g888">
          <path
             class="cls-4"
             d="m 1266.29,439.93 c -9.28,-3.79 -19.88,0.68 -23.65,9.96 -3.79,9.28 0.68,19.88 9.96,23.65 9.28,3.79 19.88,-0.68 23.65,-9.96 3.79,-9.28 -0.68,-19.88 -9.96,-23.65 z"
             id="path876" />
          <circle
             class="cls-2"
             cx="1204.72"
             cy="392.66"
             r="20.58"
             id="circle878" />
          <path
             class="cls-4"
             d="m 1138.17,324.55 c -11.77,-4.79 -25.18,0.85 -29.97,12.62 -4.79,11.77 0.85,25.18 12.62,29.97 11.77,4.79 25.18,-0.85 29.97,-12.62 4.79,-11.77 -0.85,-25.18 -12.62,-29.97 z"
             id="path880" />
          <path
             class="cls-6"
             d="m 1053.65,300.13 c -13.27,-5.4 -28.42,0.97 -33.82,14.24 -5.4,13.27 0.97,28.42 14.24,33.82 13.27,5.4 28.42,-0.97 33.82,-14.24 5.4,-13.27 -0.97,-28.42 -14.24,-33.82 z"
             id="path882" />
          <path
             class="cls-4"
             d="m 964.68,308.93 c -12.42,-5.7 -27.11,-0.27 -32.8,12.15 -5.7,12.42 -0.27,27.11 12.15,32.8 12.42,5.7 27.11,0.27 32.8,-12.15 5.7,-12.42 0.27,-27.11 -12.15,-32.8 z"
             id="path884" />
          <path
             class="cls-4"
             d="m 878.29,353.18 c -11.79,-4.81 -25.25,0.86 -30.05,12.66 -4.81,11.79 0.86,25.25 12.66,30.05 11.79,4.81 25.25,-0.86 30.05,-12.66 4.81,-11.79 -0.86,-25.25 -12.66,-30.05 z"
             id="path886" />
        </g>
      </g>
    </g>
  </g>
</svg>
