<?xml version="1.0" encoding="UTF-8" standalone="no"?>
<!-- Generator: Adobe Illustrator 25.4.1, SVG Export Plug-In . SVG Version: 6.00 Build 0)  -->

<svg
   xmlns:dc="http://purl.org/dc/elements/1.1/"
   xmlns:cc="http://creativecommons.org/ns#"
   xmlns:rdf="http://www.w3.org/1999/02/22-rdf-syntax-ns#"
   xmlns:svg="http://www.w3.org/2000/svg"
   xmlns="http://www.w3.org/2000/svg"
   xmlns:sodipodi="http://sodipodi.sourceforge.net/DTD/sodipodi-0.dtd"
   xmlns:inkscape="http://www.inkscape.org/namespaces/inkscape"
   version="1.1"
   id="Ebene_1"
   x="0px"
   y="0px"
   viewBox="0 0 566.40002 99.209015"
   xml:space="preserve"
   sodipodi:docname="Something.svg"
   width="566.40002"
   height="99.209015"
   inkscape:version="0.92.5 (2060ec1f9f, 2020-04-08)"><metadata
   id="metadata313"><rdf:RDF><cc:Work
       rdf:about=""><dc:format>image/svg+xml</dc:format><dc:type
         rdf:resource="http://purl.org/dc/dcmitype/StillImage" /><dc:title></dc:title></cc:Work></rdf:RDF></metadata><defs
   id="defs311">
	
	
	
	
	
	
	
	
	
	

	
	
	
	
	
	

	
	
	
	
	
	
	
	
	
	
	
	
	
	

	
	
	
	
	
	
	
	
	
	
	
	
	

	
	
	
	
	
	
	
	
	
	
	
	
	
	
	
	
	
	
	
<clipPath
   clipPathUnits="userSpaceOnUse"
   id="clipPath403"><rect
     id="rect405"
     width="594.94269"
     height="140.31667"
     x="388.2095"
     y="312.43851"
     style="stroke-width:0.94466364" /></clipPath><clipPath
   clipPathUnits="userSpaceOnUse"
   id="clipPath407"><rect
     id="rect409"
     width="594.94269"
     height="140.31667"
     x="388.2095"
     y="312.43851"
     style="stroke-width:0.94466364" /></clipPath><clipPath
   clipPathUnits="userSpaceOnUse"
   id="clipPath411"><rect
     id="rect413"
     width="594.94269"
     height="140.31667"
     x="388.2095"
     y="312.43851"
     style="stroke-width:0.94466364" /></clipPath><clipPath
   clipPathUnits="userSpaceOnUse"
   id="clipPath415"><rect
     id="rect417"
     width="594.94269"
     height="140.31667"
     x="388.2095"
     y="312.43851"
     style="stroke-width:0.94466364" /></clipPath><clipPath
   clipPathUnits="userSpaceOnUse"
   id="clipPath419"><rect
     id="rect421"
     width="594.94269"
     height="140.31667"
     x="388.2095"
     y="312.43851"
     style="stroke-width:0.94466364" /></clipPath><clipPath
   clipPathUnits="userSpaceOnUse"
   id="clipPath423"><rect
     id="rect425"
     width="594.94269"
     height="140.31667"
     x="388.2095"
     y="312.43851"
     style="stroke-width:0.94466364" /></clipPath><clipPath
   clipPathUnits="userSpaceOnUse"
   id="clipPath427"><rect
     id="rect429"
     width="594.94269"
     height="140.31667"
     x="388.2095"
     y="312.43851"
     style="stroke-width:0.94466364" /></clipPath><clipPath
   clipPathUnits="userSpaceOnUse"
   id="clipPath431"><rect
     id="rect433"
     width="594.94269"
     height="140.31667"
     x="388.2095"
     y="312.43851"
     style="stroke-width:0.94466364" /></clipPath><clipPath
   clipPathUnits="userSpaceOnUse"
   id="clipPath435"><rect
     id="rect437"
     width="594.94269"
     height="140.31667"
     x="388.2095"
     y="312.43851"
     style="stroke-width:0.94466364" /></clipPath><clipPath
   clipPathUnits="userSpaceOnUse"
   id="clipPath439"><rect
     id="rect441"
     width="594.94269"
     height="140.31667"
     x="388.2095"
     y="312.43851"
     style="stroke-width:0.94466364" /></clipPath><clipPath
   clipPathUnits="userSpaceOnUse"
   id="clipPath443"><rect
     id="rect445"
     width="594.94269"
     height="140.31667"
     x="388.2095"
     y="312.43851"
     style="stroke-width:0.94466364" /></clipPath><clipPath
   clipPathUnits="userSpaceOnUse"
   id="clipPath447"><rect
     id="rect449"
     width="594.94269"
     height="140.31667"
     x="388.2095"
     y="312.43851"
     style="stroke-width:0.94466364" /></clipPath><clipPath
   clipPathUnits="userSpaceOnUse"
   id="clipPath451"><rect
     id="rect453"
     width="594.94269"
     height="140.31667"
     x="388.2095"
     y="312.43851"
     style="stroke-width:0.94466364" /></clipPath><clipPath
   clipPathUnits="userSpaceOnUse"
   id="clipPath455"><rect
     id="rect457"
     width="594.94269"
     height="140.31667"
     x="388.2095"
     y="312.43851"
     style="stroke-width:0.94466364" /></clipPath><clipPath
   clipPathUnits="userSpaceOnUse"
   id="clipPath459"><rect
     id="rect461"
     width="594.94269"
     height="140.31667"
     x="388.2095"
     y="312.43851"
     style="stroke-width:0.94466364" /></clipPath><clipPath
   clipPathUnits="userSpaceOnUse"
   id="clipPath463"><rect
     id="rect465"
     width="594.94269"
     height="140.31667"
     x="388.2095"
     y="312.43851"
     style="stroke-width:0.94466364" /></clipPath><clipPath
   clipPathUnits="userSpaceOnUse"
   id="clipPath467"><rect
     id="rect469"
     width="594.94269"
     height="140.31667"
     x="388.2095"
     y="312.43851"
     style="stroke-width:0.94466364" /></clipPath><clipPath
   clipPathUnits="userSpaceOnUse"
   id="clipPath471"><rect
     id="rect473"
     width="594.94269"
     height="140.31667"
     x="388.2095"
     y="312.43851"
     style="stroke-width:0.94466364" /></clipPath><clipPath
   clipPathUnits="userSpaceOnUse"
   id="clipPath475"><rect
     id="rect477"
     width="594.94269"
     height="140.31667"
     x="388.2095"
     y="312.43851"
     style="stroke-width:0.94466364" /></clipPath><clipPath
   clipPathUnits="userSpaceOnUse"
   id="clipPath479"><rect
     id="rect481"
     width="594.94269"
     height="140.31667"
     x="388.2095"
     y="312.43851"
     style="stroke-width:0.94466364" /></clipPath><clipPath
   clipPathUnits="userSpaceOnUse"
   id="clipPath483"><rect
     id="rect485"
     width="594.94269"
     height="140.31667"
     x="388.2095"
     y="312.43851"
     style="stroke-width:0.94466364" /></clipPath><clipPath
   clipPathUnits="userSpaceOnUse"
   id="clipPath487"><rect
     id="rect489"
     width="594.94269"
     height="140.31667"
     x="388.2095"
     y="312.43851"
     style="stroke-width:0.94466364" /></clipPath><clipPath
   clipPathUnits="userSpaceOnUse"
   id="clipPath491"><rect
     id="rect493"
     width="594.94269"
     height="140.31667"
     x="388.2095"
     y="312.43851"
     style="stroke-width:0.94466364" /></clipPath><clipPath
   clipPathUnits="userSpaceOnUse"
   id="clipPath495"><rect
     id="rect497"
     width="594.94269"
     height="140.31667"
     x="390.08038"
     y="304.95496"
     style="stroke-width:0.94466364" /></clipPath><clipPath
   clipPathUnits="userSpaceOnUse"
   id="clipPath499"><rect
     id="rect501"
     width="594.94269"
     height="140.31667"
     x="388.2095"
     y="312.43851"
     style="stroke-width:0.94466364" /></clipPath><clipPath
   clipPathUnits="userSpaceOnUse"
   id="clipPath503"><rect
     id="rect505"
     width="594.94269"
     height="140.31667"
     x="388.2095"
     y="312.43851"
     style="stroke-width:0.94466364" /></clipPath><clipPath
   clipPathUnits="userSpaceOnUse"
   id="clipPath507"><rect
     id="rect509"
     width="594.94269"
     height="140.31667"
     x="388.2095"
     y="312.43851"
     style="stroke-width:0.94466364" /></clipPath><clipPath
   clipPathUnits="userSpaceOnUse"
   id="clipPath511"><rect
     id="rect513"
     width="594.94269"
     height="140.31667"
     x="388.2095"
     y="312.43851"
     style="stroke-width:0.94466364" /></clipPath><clipPath
   clipPathUnits="userSpaceOnUse"
   id="clipPath515"><rect
     id="rect517"
     width="594.94269"
     height="140.31667"
     x="388.2095"
     y="312.43851"
     style="stroke-width:0.94466364" /></clipPath><clipPath
   clipPathUnits="userSpaceOnUse"
   id="clipPath519"><rect
     id="rect521"
     width="594.94269"
     height="140.31667"
     x="388.2095"
     y="312.43851"
     style="stroke-width:0.94466364" /></clipPath><clipPath
   clipPathUnits="userSpaceOnUse"
   id="clipPath523"><rect
     id="rect525"
     width="594.94269"
     height="140.31667"
     x="388.2095"
     y="312.43851"
     style="stroke-width:0.94466364" /></clipPath><clipPath
   clipPathUnits="userSpaceOnUse"
   id="clipPath527"><rect
     id="rect529"
     width="594.94269"
     height="140.31667"
     x="388.2095"
     y="312.43851"
     style="stroke-width:0.94466364" /></clipPath><clipPath
   clipPathUnits="userSpaceOnUse"
   id="clipPath531"><rect
     id="rect533"
     width="594.94269"
     height="140.31667"
     x="388.2095"
     y="312.43851"
     style="stroke-width:0.94466364" /></clipPath><clipPath
   clipPathUnits="userSpaceOnUse"
   id="clipPath535"><rect
     id="rect537"
     width="594.94269"
     height="140.31667"
     x="388.2095"
     y="312.43851"
     style="stroke-width:0.94466364" /></clipPath><clipPath
   clipPathUnits="userSpaceOnUse"
   id="clipPath539"><rect
     id="rect541"
     width="594.94269"
     height="140.31667"
     x="388.2095"
     y="312.43851"
     style="stroke-width:0.94466364" /></clipPath><clipPath
   clipPathUnits="userSpaceOnUse"
   id="clipPath543"><rect
     id="rect545"
     width="594.94269"
     height="140.31667"
     x="388.2095"
     y="312.43851"
     style="stroke-width:0.94466364" /></clipPath><clipPath
   clipPathUnits="userSpaceOnUse"
   id="clipPath547"><rect
     id="rect549"
     width="594.94269"
     height="140.31667"
     x="388.2095"
     y="312.43851"
     style="stroke-width:0.94466364" /></clipPath><clipPath
   clipPathUnits="userSpaceOnUse"
   id="clipPath551"><rect
     id="rect553"
     width="594.94269"
     height="140.31667"
     x="388.2095"
     y="312.43851"
     style="stroke-width:0.94466364" /></clipPath><clipPath
   clipPathUnits="userSpaceOnUse"
   id="clipPath555"><rect
     id="rect557"
     width="594.94269"
     height="140.31667"
     x="388.2095"
     y="312.43851"
     style="stroke-width:0.94466364" /></clipPath><clipPath
   clipPathUnits="userSpaceOnUse"
   id="clipPath559"><rect
     id="rect561"
     width="594.94269"
     height="140.31667"
     x="388.2095"
     y="312.43851"
     style="stroke-width:0.94466364" /></clipPath><clipPath
   clipPathUnits="userSpaceOnUse"
   id="clipPath563"><rect
     id="rect565"
     width="594.94269"
     height="140.31667"
     x="388.2095"
     y="312.43851"
     style="stroke-width:0.94466364" /></clipPath><clipPath
   clipPathUnits="userSpaceOnUse"
   id="clipPath567"><rect
     id="rect569"
     width="594.94269"
     height="140.31667"
     x="388.2095"
     y="312.43851"
     style="stroke-width:0.94466364" /></clipPath><clipPath
   clipPathUnits="userSpaceOnUse"
   id="clipPath571"><rect
     id="rect573"
     width="594.94269"
     height="140.31667"
     x="388.2095"
     y="312.43851"
     style="stroke-width:0.94466364" /></clipPath><clipPath
   clipPathUnits="userSpaceOnUse"
   id="clipPath575"><rect
     id="rect577"
     width="594.94269"
     height="140.31667"
     x="388.2095"
     y="312.43851"
     style="stroke-width:0.94466364" /></clipPath><clipPath
   clipPathUnits="userSpaceOnUse"
   id="clipPath579"><rect
     id="rect581"
     width="594.94269"
     height="140.31667"
     x="388.2095"
     y="312.43851"
     style="stroke-width:0.94466364" /></clipPath><clipPath
   clipPathUnits="userSpaceOnUse"
   id="clipPath583"><rect
     id="rect585"
     width="594.94269"
     height="140.31667"
     x="388.2095"
     y="312.43851"
     style="stroke-width:0.94466364" /></clipPath><clipPath
   clipPathUnits="userSpaceOnUse"
   id="clipPath587"><rect
     id="rect589"
     width="594.94269"
     height="140.31667"
     x="388.2095"
     y="312.43851"
     style="stroke-width:0.94466364" /></clipPath><clipPath
   clipPathUnits="userSpaceOnUse"
   id="clipPath591"><rect
     id="rect593"
     width="594.94269"
     height="140.31667"
     x="388.2095"
     y="312.43851"
     style="stroke-width:0.94466364" /></clipPath><clipPath
   clipPathUnits="userSpaceOnUse"
   id="clipPath595"><rect
     id="rect597"
     width="594.94269"
     height="140.31667"
     x="388.2095"
     y="312.43851"
     style="stroke-width:0.94466364" /></clipPath><clipPath
   clipPathUnits="userSpaceOnUse"
   id="clipPath599"><rect
     id="rect601"
     width="594.94269"
     height="140.31667"
     x="388.2095"
     y="312.43851"
     style="stroke-width:0.94466364" /></clipPath><clipPath
   clipPathUnits="userSpaceOnUse"
   id="clipPath603"><rect
     id="rect605"
     width="594.94269"
     height="140.31667"
     x="388.2095"
     y="312.43851"
     style="stroke-width:0.94466364" /></clipPath><clipPath
   clipPathUnits="userSpaceOnUse"
   id="clipPath607"><rect
     id="rect609"
     width="594.94269"
     height="140.31667"
     x="388.2095"
     y="312.43851"
     style="stroke-width:0.94466364" /></clipPath><clipPath
   clipPathUnits="userSpaceOnUse"
   id="clipPath611"><rect
     id="rect613"
     width="594.94269"
     height="140.31667"
     x="388.2095"
     y="312.43851"
     style="stroke-width:0.94466364" /></clipPath><clipPath
   clipPathUnits="userSpaceOnUse"
   id="clipPath615"><rect
     id="rect617"
     width="594.94269"
     height="140.31667"
     x="388.2095"
     y="312.43851"
     style="stroke-width:0.94466364" /></clipPath><clipPath
   clipPathUnits="userSpaceOnUse"
   id="clipPath619"><rect
     id="rect621"
     width="594.94269"
     height="140.31667"
     x="388.2095"
     y="312.43851"
     style="stroke-width:0.94466364" /></clipPath><clipPath
   clipPathUnits="userSpaceOnUse"
   id="clipPath623"><rect
     id="rect625"
     width="594.94269"
     height="140.31667"
     x="388.2095"
     y="312.43851"
     style="stroke-width:0.94466364" /></clipPath><clipPath
   clipPathUnits="userSpaceOnUse"
   id="clipPath627"><rect
     id="rect629"
     width="594.94269"
     height="140.31667"
     x="388.2095"
     y="312.43851"
     style="stroke-width:0.94466364" /></clipPath><clipPath
   clipPathUnits="userSpaceOnUse"
   id="clipPath631"><rect
     id="rect633"
     width="594.94269"
     height="140.31667"
     x="388.2095"
     y="312.43851"
     style="stroke-width:0.94466364" /></clipPath><clipPath
   clipPathUnits="userSpaceOnUse"
   id="clipPath635"><rect
     id="rect637"
     width="594.94269"
     height="140.31667"
     x="388.2095"
     y="312.43851"
     style="stroke-width:0.94466364" /></clipPath><clipPath
   clipPathUnits="userSpaceOnUse"
   id="clipPath639"><rect
     id="rect641"
     width="594.94269"
     height="140.31667"
     x="390.08038"
     y="304.95496"
     style="stroke-width:0.94466364" /></clipPath><clipPath
   clipPathUnits="userSpaceOnUse"
   id="clipPath643"><rect
     id="rect645"
     width="594.94269"
     height="140.31667"
     x="388.2095"
     y="312.43851"
     style="stroke-width:0.94466364" /></clipPath><clipPath
   clipPathUnits="userSpaceOnUse"
   id="clipPath647"><rect
     id="rect649"
     width="594.94269"
     height="140.31667"
     x="388.2095"
     y="312.43851"
     style="stroke-width:0.94466364" /></clipPath><clipPath
   clipPathUnits="userSpaceOnUse"
   id="clipPath963"><rect
     id="rect965"
     width="637.03778"
     height="158.09013"
     x="365.75882"
     y="314.30939" /></clipPath><clipPath
   clipPathUnits="userSpaceOnUse"
   id="clipPath967"><rect
     id="rect969"
     width="637.03778"
     height="158.09013"
     x="365.75882"
     y="314.30939" /></clipPath><clipPath
   clipPathUnits="userSpaceOnUse"
   id="clipPath971"><rect
     id="rect973"
     width="637.03778"
     height="158.09013"
     x="365.75882"
     y="314.30939" /></clipPath><clipPath
   clipPathUnits="userSpaceOnUse"
   id="clipPath975"><rect
     id="rect977"
     width="637.03778"
     height="158.09013"
     x="365.75882"
     y="314.30939" /></clipPath><clipPath
   clipPathUnits="userSpaceOnUse"
   id="clipPath979"><rect
     id="rect981"
     width="637.03778"
     height="158.09013"
     x="365.75882"
     y="314.30939" /></clipPath><clipPath
   clipPathUnits="userSpaceOnUse"
   id="clipPath983"><rect
     id="rect985"
     width="637.03778"
     height="158.09013"
     x="365.75882"
     y="314.30939" /></clipPath><clipPath
   clipPathUnits="userSpaceOnUse"
   id="clipPath987"><rect
     id="rect989"
     width="637.03778"
     height="158.09013"
     x="365.75882"
     y="314.30939" /></clipPath><clipPath
   clipPathUnits="userSpaceOnUse"
   id="clipPath991"><rect
     id="rect993"
     width="637.03778"
     height="158.09013"
     x="365.75882"
     y="314.30939" /></clipPath><clipPath
   clipPathUnits="userSpaceOnUse"
   id="clipPath995"><rect
     id="rect997"
     width="637.03778"
     height="158.09013"
     x="365.75882"
     y="314.30939" /></clipPath><clipPath
   clipPathUnits="userSpaceOnUse"
   id="clipPath999"><rect
     id="rect1001"
     width="637.03778"
     height="158.09013"
     x="365.75882"
     y="314.30939" /></clipPath><clipPath
   clipPathUnits="userSpaceOnUse"
   id="clipPath1003"><rect
     id="rect1005"
     width="637.03778"
     height="158.09013"
     x="365.75882"
     y="314.30939" /></clipPath><clipPath
   clipPathUnits="userSpaceOnUse"
   id="clipPath1007"><rect
     id="rect1009"
     width="637.03778"
     height="158.09013"
     x="365.75882"
     y="314.30939" /></clipPath><clipPath
   clipPathUnits="userSpaceOnUse"
   id="clipPath1011"><rect
     id="rect1013"
     width="637.03778"
     height="158.09013"
     x="365.75882"
     y="314.30939" /></clipPath><clipPath
   clipPathUnits="userSpaceOnUse"
   id="clipPath1015"><rect
     id="rect1017"
     width="637.03778"
     height="158.09013"
     x="365.75882"
     y="314.30939" /></clipPath><clipPath
   clipPathUnits="userSpaceOnUse"
   id="clipPath1019"><rect
     id="rect1021"
     width="637.03778"
     height="158.09013"
     x="365.75882"
     y="314.30939" /></clipPath><clipPath
   clipPathUnits="userSpaceOnUse"
   id="clipPath1023"><rect
     id="rect1025"
     width="637.03778"
     height="158.09013"
     x="365.75882"
     y="314.30939" /></clipPath><clipPath
   clipPathUnits="userSpaceOnUse"
   id="clipPath1027"><rect
     id="rect1029"
     width="637.03778"
     height="158.09013"
     x="365.75882"
     y="314.30939" /></clipPath><clipPath
   clipPathUnits="userSpaceOnUse"
   id="clipPath1031"><rect
     id="rect1033"
     width="637.03778"
     height="158.09013"
     x="365.75882"
     y="314.30939" /></clipPath><clipPath
   clipPathUnits="userSpaceOnUse"
   id="clipPath1035"><rect
     id="rect1037"
     width="637.03778"
     height="158.09013"
     x="365.75882"
     y="314.30939" /></clipPath><clipPath
   clipPathUnits="userSpaceOnUse"
   id="clipPath1039"><rect
     id="rect1041"
     width="637.03778"
     height="158.09013"
     x="365.75882"
     y="314.30939" /></clipPath><clipPath
   clipPathUnits="userSpaceOnUse"
   id="clipPath1043"><rect
     id="rect1045"
     width="637.03778"
     height="158.09013"
     x="365.75882"
     y="314.30939" /></clipPath><clipPath
   clipPathUnits="userSpaceOnUse"
   id="clipPath1047"><rect
     id="rect1049"
     width="637.03778"
     height="158.09013"
     x="365.75882"
     y="314.30939" /></clipPath><clipPath
   clipPathUnits="userSpaceOnUse"
   id="clipPath1051"><rect
     id="rect1053"
     width="637.03778"
     height="158.09013"
     x="365.75882"
     y="314.30939" /></clipPath><clipPath
   clipPathUnits="userSpaceOnUse"
   id="clipPath1055"><rect
     id="rect1057"
     width="637.03778"
     height="158.09013"
     x="367.6297"
     y="306.82584" /></clipPath><clipPath
   clipPathUnits="userSpaceOnUse"
   id="clipPath1059"><rect
     id="rect1061"
     width="637.03778"
     height="158.09013"
     x="365.75882"
     y="314.30939" /></clipPath><clipPath
   clipPathUnits="userSpaceOnUse"
   id="clipPath1063"><rect
     id="rect1065"
     width="637.03778"
     height="158.09013"
     x="365.75882"
     y="314.30939" /></clipPath><clipPath
   clipPathUnits="userSpaceOnUse"
   id="clipPath1067"><rect
     id="rect1069"
     width="637.03778"
     height="158.09013"
     x="365.75882"
     y="314.30939" /></clipPath><clipPath
   clipPathUnits="userSpaceOnUse"
   id="clipPath1071"><rect
     id="rect1073"
     width="637.03778"
     height="158.09013"
     x="365.75882"
     y="314.30939" /></clipPath><clipPath
   clipPathUnits="userSpaceOnUse"
   id="clipPath1075"><rect
     id="rect1077"
     width="637.03778"
     height="158.09013"
     x="365.75882"
     y="314.30939" /></clipPath><clipPath
   clipPathUnits="userSpaceOnUse"
   id="clipPath1079"><rect
     id="rect1081"
     width="637.03778"
     height="158.09013"
     x="365.75882"
     y="314.30939" /></clipPath><clipPath
   clipPathUnits="userSpaceOnUse"
   id="clipPath1083"><rect
     id="rect1085"
     width="637.03778"
     height="158.09013"
     x="365.75882"
     y="314.30939" /></clipPath><clipPath
   clipPathUnits="userSpaceOnUse"
   id="clipPath1087"><rect
     id="rect1089"
     width="637.03778"
     height="158.09013"
     x="365.75882"
     y="314.30939" /></clipPath><clipPath
   clipPathUnits="userSpaceOnUse"
   id="clipPath1091"><rect
     id="rect1093"
     width="637.03778"
     height="158.09013"
     x="365.75882"
     y="314.30939" /></clipPath><clipPath
   clipPathUnits="userSpaceOnUse"
   id="clipPath1095"><rect
     id="rect1097"
     width="637.03778"
     height="158.09013"
     x="365.75882"
     y="314.30939" /></clipPath><clipPath
   clipPathUnits="userSpaceOnUse"
   id="clipPath1099"><rect
     id="rect1101"
     width="637.03778"
     height="158.09013"
     x="365.75882"
     y="314.30939" /></clipPath><clipPath
   clipPathUnits="userSpaceOnUse"
   id="clipPath1103"><rect
     id="rect1105"
     width="637.03778"
     height="158.09013"
     x="365.75882"
     y="314.30939" /></clipPath><clipPath
   clipPathUnits="userSpaceOnUse"
   id="clipPath1107"><rect
     id="rect1109"
     width="637.03778"
     height="158.09013"
     x="365.75882"
     y="314.30939" /></clipPath><clipPath
   clipPathUnits="userSpaceOnUse"
   id="clipPath1111"><rect
     id="rect1113"
     width="637.03778"
     height="158.09013"
     x="365.75882"
     y="314.30939" /></clipPath><clipPath
   clipPathUnits="userSpaceOnUse"
   id="clipPath1115"><rect
     id="rect1117"
     width="637.03778"
     height="158.09013"
     x="365.75882"
     y="314.30939" /></clipPath><clipPath
   clipPathUnits="userSpaceOnUse"
   id="clipPath1119"><rect
     id="rect1121"
     width="637.03778"
     height="158.09013"
     x="365.75882"
     y="314.30939" /></clipPath><clipPath
   clipPathUnits="userSpaceOnUse"
   id="clipPath1123"><rect
     id="rect1125"
     width="637.03778"
     height="158.09013"
     x="365.75882"
     y="314.30939" /></clipPath><clipPath
   clipPathUnits="userSpaceOnUse"
   id="clipPath1127"><rect
     id="rect1129"
     width="637.03778"
     height="158.09013"
     x="365.75882"
     y="314.30939" /></clipPath><clipPath
   clipPathUnits="userSpaceOnUse"
   id="clipPath1131"><rect
     id="rect1133"
     width="637.03778"
     height="158.09013"
     x="365.75882"
     y="314.30939" /></clipPath><clipPath
   clipPathUnits="userSpaceOnUse"
   id="clipPath1135"><rect
     id="rect1137"
     width="637.03778"
     height="158.09013"
     x="365.75882"
     y="314.30939" /></clipPath><clipPath
   clipPathUnits="userSpaceOnUse"
   id="clipPath1139"><rect
     id="rect1141"
     width="637.03778"
     height="158.09013"
     x="365.75882"
     y="314.30939" /></clipPath><clipPath
   clipPathUnits="userSpaceOnUse"
   id="clipPath1143"><rect
     id="rect1145"
     width="637.03778"
     height="158.09013"
     x="365.75882"
     y="314.30939" /></clipPath><clipPath
   clipPathUnits="userSpaceOnUse"
   id="clipPath1147"><rect
     id="rect1149"
     width="637.03778"
     height="158.09013"
     x="365.75882"
     y="314.30939" /></clipPath><clipPath
   clipPathUnits="userSpaceOnUse"
   id="clipPath1151"><rect
     id="rect1153"
     width="637.03778"
     height="158.09013"
     x="365.75882"
     y="314.30939" /></clipPath><clipPath
   clipPathUnits="userSpaceOnUse"
   id="clipPath1155"><rect
     id="rect1157"
     width="637.03778"
     height="158.09013"
     x="365.75882"
     y="314.30939" /></clipPath><clipPath
   clipPathUnits="userSpaceOnUse"
   id="clipPath1159"><rect
     id="rect1161"
     width="637.03778"
     height="158.09013"
     x="365.75882"
     y="314.30939" /></clipPath><clipPath
   clipPathUnits="userSpaceOnUse"
   id="clipPath1163"><rect
     id="rect1165"
     width="637.03778"
     height="158.09013"
     x="365.75882"
     y="314.30939" /></clipPath><clipPath
   clipPathUnits="userSpaceOnUse"
   id="clipPath1167"><rect
     id="rect1169"
     width="637.03778"
     height="158.09013"
     x="365.75882"
     y="314.30939" /></clipPath><clipPath
   clipPathUnits="userSpaceOnUse"
   id="clipPath1171"><rect
     id="rect1173"
     width="637.03778"
     height="158.09013"
     x="365.75882"
     y="314.30939" /></clipPath><clipPath
   clipPathUnits="userSpaceOnUse"
   id="clipPath1175"><rect
     id="rect1177"
     width="637.03778"
     height="158.09013"
     x="365.75882"
     y="314.30939" /></clipPath><clipPath
   clipPathUnits="userSpaceOnUse"
   id="clipPath1179"><rect
     id="rect1181"
     width="637.03778"
     height="158.09013"
     x="365.75882"
     y="314.30939" /></clipPath><clipPath
   clipPathUnits="userSpaceOnUse"
   id="clipPath1183"><rect
     id="rect1185"
     width="637.03778"
     height="158.09013"
     x="365.75882"
     y="314.30939" /></clipPath><clipPath
   clipPathUnits="userSpaceOnUse"
   id="clipPath1187"><rect
     id="rect1189"
     width="637.03778"
     height="158.09013"
     x="365.75882"
     y="314.30939" /></clipPath><clipPath
   clipPathUnits="userSpaceOnUse"
   id="clipPath1191"><rect
     id="rect1193"
     width="637.03778"
     height="158.09013"
     x="365.75882"
     y="314.30939" /></clipPath><clipPath
   clipPathUnits="userSpaceOnUse"
   id="clipPath1195"><rect
     id="rect1197"
     width="637.03778"
     height="158.09013"
     x="365.75882"
     y="314.30939" /></clipPath><clipPath
   clipPathUnits="userSpaceOnUse"
   id="clipPath1199"><rect
     id="rect1201"
     width="637.03778"
     height="158.09013"
     x="367.6297"
     y="306.82584" /></clipPath><clipPath
   clipPathUnits="userSpaceOnUse"
   id="clipPath1203"><rect
     id="rect1205"
     width="637.03778"
     height="158.09013"
     x="365.75882"
     y="314.30939" /></clipPath><clipPath
   clipPathUnits="userSpaceOnUse"
   id="clipPath1207"><rect
     id="rect1209"
     width="637.03778"
     height="158.09013"
     x="365.75882"
     y="314.30939" /></clipPath></defs><sodipodi:namedview
   pagecolor="#ffffff"
   bordercolor="#666666"
   borderopacity="1"
   objecttolerance="10"
   gridtolerance="10"
   guidetolerance="10"
   inkscape:pageopacity="0"
   inkscape:pageshadow="2"
   inkscape:window-width="1920"
   inkscape:window-height="1009"
   id="namedview309"
   showgrid="false"
   fit-margin-top="0"
   fit-margin-left="0"
   fit-margin-right="0"
   fit-margin-bottom="0"
   inkscape:zoom="1.0690104"
   inkscape:cx="284.77089"
   inkscape:cy="94.910362"
   inkscape:window-x="1920"
   inkscape:window-y="0"
   inkscape:window-maximized="1"
   inkscape:current-layer="Ebene_1" />
<style
   type="text/css"
   id="style172">
	.st0{fill:#BDD786;}
	.st1{fill:#83BC32;}
	.st2{fill:#03693A;}
</style>
<path
   style="fill:#bdd786"
   inkscape:connector-curvature="0"
   id="path174"
   d="m 864.12911,349.08356 c 2.7,-0.6 5.2,-1.2 6.8,-1.5 2,-0.4 3.4,-0.7 5.6,-1 l 7.5,6.4 c -0.1,0.2 -0.2,0.4 -0.2,0.6 l -17.5,1.4 c -0.2,-0.6 -0.8,-1.1 -1.4,-1.2 z"
   class="st0"
   clip-path="url(#clipPath1207)"
   transform="translate(-398.22911,-342.28356)" /><path
   style="fill:#bdd786"
   inkscape:connector-curvature="0"
   id="path176"
   d="m 833.62911,377.28356 16.3,-5.5 c 0.3,0.6 0.9,1.1 1.7,1.1 h 0.1 l 1.6,4.1 -4.4,2.2 6.1,7.2 -0.6,6 c -2.7,1.1 -4.4,1.9 -6.9,3 -2.6,1.2 -5.1,2.3 -8.4,3.9 l -8,-4.6 c 0,-0.1 0,-0.2 0,-0.3 0,-0.7 -0.4,-1.3 -1,-1.6 l 1.9,-13.6 c 0.9,-0.1 1.6,-0.8 1.6,-1.9 z"
   class="st0"
   clip-path="url(#clipPath1203)"
   transform="translate(-398.22911,-342.28356)" /><polygon
   style="fill:#bdd786"
   id="polygon178"
   points="857.1,384.7 857.6,379.8 860.8,383.5 "
   class="st0"
   transform="translate(-400.1,-334.8)"
   clip-path="url(#clipPath1199)" /><path
   style="fill:#bdd786"
   inkscape:connector-curvature="0"
   id="path180"
   d="m 853.22911,371.38356 12.1,1.2 c -2.3,0.6 -4.3,1.3 -5.9,1.9 -2.3,0.8 -3.2,1.2 -5.2,2.2 l -1.7,-4.1 c 0.4,-0.4 0.6,-0.8 0.7,-1.2 z"
   class="st0"
   clip-path="url(#clipPath1195)"
   transform="translate(-398.22911,-342.28356)" /><path
   style="fill:#bdd786"
   inkscape:connector-curvature="0"
   id="path182"
   d="m 852.52911,369.68356 11.2,-12.6 c 0.3,0.1 0.6,0.2 0.9,0.2 0.9,0 1.6,-0.6 1.8,-1.5 l 17.6,-1.5 c 0.3,0.7 0.9,1.1 1.7,1.1 l 4.9,12.1 c -5.7,0.6 -8.4,1 -14.4,2.2 -3.7,0.7 -5.2,1.1 -8.5,2 l -14.6,-1.2 c -0.1,-0.3 -0.3,-0.6 -0.6,-0.8 z"
   class="st0"
   clip-path="url(#clipPath1191)"
   transform="translate(-398.22911,-342.28356)" /><path
   style="fill:#bdd786"
   inkscape:connector-curvature="0"
   id="path184"
   d="m 887.42911,354.28356 26,1.5 c 0,0.1 0,0.2 0,0.3 0,0.3 0.1,0.7 0.3,0.9 l -7.7,9.5 c -2.6,0.1 -3.7,0.2 -6.6,0.3 -2.9,0.2 -4.7,0.3 -7.7,0.5 l -5.1,-12.1 c 0.3,-0.2 0.6,-0.5 0.8,-0.9 z"
   class="st0"
   clip-path="url(#clipPath1187)"
   transform="translate(-398.22911,-342.28356)" /><path
   style="fill:#bdd786"
   inkscape:connector-curvature="0"
   id="path186"
   d="m 916.52911,357.38356 19.2,8.6 c 0,0.1 0,0.1 0,0.2 0,0.3 0.1,0.5 0.2,0.8 l -15.2,12.8 c -0.3,-0.2 -0.7,-0.3 -1.1,-0.3 -0.1,0 -0.2,0 -0.2,0 l -1.7,-11.1 5.7,-0.6 -5.9,-0.8 -1.7,-8.9 c 0.3,-0.3 0.5,-0.5 0.7,-0.7 z"
   class="st0"
   clip-path="url(#clipPath1183)"
   transform="translate(-398.22911,-342.28356)" /><path
   style="fill:#bdd786"
   inkscape:connector-curvature="0"
   id="path188"
   d="m 914.22911,357.78356 c 0.3,0.1 0.6,0.2 0.9,0.2 l 1.4,8.8 c -1.6,-0.1 -1.8,-0.2 -4.2,-0.2 -2.5,-0.1 -3.3,-0.1 -5.4,-0.1 z"
   class="st0"
   clip-path="url(#clipPath1179)"
   transform="translate(-398.22911,-342.28356)" /><path
   style="fill:#bdd786"
   inkscape:connector-curvature="0"
   id="path190"
   d="m 905.22911,369.28356 c 2.5,-0.3 3.7,-0.4 6.4,-0.6 2.3,-0.2 3.1,-0.3 5.1,-0.4 l 1.7,11.5 c -0.3,0.3 -0.6,0.6 -0.7,1.1 l -23.2,-0.5 v -0.1 c 0,-0.3 -0.1,-0.6 -0.2,-0.9 z"
   class="st0"
   clip-path="url(#clipPath1175)"
   transform="translate(-398.22911,-342.28356)" /><path
   style="fill:#bdd786"
   inkscape:connector-curvature="0"
   id="path192"
   d="m 893.02911,371.68356 c 1.9,-0.5 2.7,-0.6 4.9,-1.1 2.7,-0.6 3.5,-0.7 5.7,-1.1 l -10,9.2 c -0.2,-0.1 -0.4,-0.2 -0.5,-0.2 z"
   class="st0"
   clip-path="url(#clipPath1171)"
   transform="translate(-398.22911,-342.28356)" /><path
   style="fill:#bdd786"
   inkscape:connector-curvature="0"
   id="path194"
   d="m 877.62911,376.88356 c 2.8,-1.1 4.9,-1.8 7.3,-2.6 2.9,-1 4.5,-1.4 7.3,-2.3 l 0.1,6.5 c -0.5,0.1 -0.9,0.4 -1.1,0.8 z"
   class="st0"
   clip-path="url(#clipPath1167)"
   transform="translate(-398.22911,-342.28356)" /><path
   style="fill:#bdd786"
   inkscape:connector-curvature="0"
   id="path196"
   d="m 870.52911,380.08356 c 1.1,-0.6 1.5,-0.7 2.9,-1.4 1.4,-0.6 1.8,-0.8 2.9,-1.2 l 14.5,2.7 v 0.1 c 0,0.4 0.2,0.8 0.4,1.2 l -10.5,10.8 z"
   class="st0"
   clip-path="url(#clipPath1163)"
   transform="translate(-398.22911,-342.28356)" /><path
   style="fill:#bdd786"
   inkscape:connector-curvature="0"
   id="path198"
   d="m 881.42911,392.98356 10.5,-11.1 c 0.3,0.1 0.5,0.2 0.9,0.2 0.3,0 0.6,-0.1 0.8,-0.2 l 11.6,17.1 c -0.3,0.3 -0.5,0.8 -0.5,1.3 0,0.1 0,0.1 0,0.2 l -20.5,7.1 c -0.3,-0.5 -0.9,-0.9 -1.6,-0.9 -0.1,0 -0.2,0 -0.3,0 l -5,-8.4 c 1.3,-0.3 2.1,-0.6 3.4,-0.8 1.4,-0.2 2,-0.4 3.3,-0.6 z"
   class="st0"
   clip-path="url(#clipPath1159)"
   transform="translate(-398.22911,-342.28356)" /><path
   style="fill:#bdd786"
   inkscape:connector-curvature="0"
   id="path200"
   d="m 894.42911,380.88356 23.3,0.8 c 0.1,0.2 0.2,0.5 0.4,0.7 l -11,16.3 c -0.2,-0.1 -0.5,-0.2 -0.8,-0.2 -0.2,0 -0.4,0 -0.5,0.1 l -11.7,-17.2 c 0.2,-0.1 0.3,-0.3 0.3,-0.5 z"
   class="st0"
   clip-path="url(#clipPath1155)"
   transform="translate(-398.22911,-342.28356)" /><path
   style="fill:#bdd786"
   inkscape:connector-curvature="0"
   id="path202"
   d="m 927.72911,389.38356 c -3.1,3 -5.6,5.6 -7.9,7.7 -2.3,2.1 -5.1,4.8 -8.5,7.9 l -3.4,-3.7 c 0.1,-0.3 0.2,-0.6 0.2,-0.9 0,-0.3 -0.1,-0.6 -0.2,-0.9 l 10.9,-16.5 c 0.2,0.1 0.5,0.1 0.7,0.1 0.3,0 0.7,-0.1 0.9,-0.3 z"
   class="st0"
   clip-path="url(#clipPath1151)"
   transform="translate(-398.22911,-342.28356)" /><path
   style="fill:#bdd786"
   inkscape:connector-curvature="0"
   id="path204"
   d="m 910.62911,405.48356 c -2.3,1.8 -4.1,3.2 -5.9,4.7 -2.3,1.9 -4.1,3.2 -6.7,5.3 l -13.7,-6.5 c 0,-0.2 0.1,-0.3 0.1,-0.5 v -0.1 l 20.4,-7 c 0.3,0.5 0.9,0.9 1.5,0.9 0.3,0 0.6,-0.1 0.8,-0.2 z"
   class="st0"
   clip-path="url(#clipPath1147)"
   transform="translate(-398.22911,-342.28356)" /><path
   style="fill:#bdd786"
   inkscape:connector-curvature="0"
   id="path206"
   d="m 860.32911,401.88356 c 3,-0.8 4.3,-1.3 7.7,-1.9 4,-0.8 5.1,-1 8.4,-1.5 l 5.1,8.6 c -0.4,0.3 -0.6,0.8 -0.6,1.4 0,0.3 0.1,0.5 0.2,0.8 l -17.7,16.7 c -0.3,-0.2 -0.7,-0.3 -1,-0.3 -0.1,0 -0.1,0 -0.2,0 l -7.4,-16.3 c 0.5,-0.3 0.8,-0.9 0.8,-1.5 0,-0.3 -0.1,-0.5 -0.2,-0.8 z"
   class="st0"
   clip-path="url(#clipPath1143)"
   transform="translate(-398.22911,-342.28356)" /><path
   style="fill:#bdd786"
   inkscape:connector-curvature="0"
   id="path208"
   d="m 854.32911,403.38356 4.7,-1.1 -4.3,4 c -0.1,-0.1 -0.3,-0.2 -0.4,-0.3 z"
   class="st0"
   clip-path="url(#clipPath1139)"
   transform="translate(-398.22911,-342.28356)" /><path
   style="fill:#bdd786"
   inkscape:connector-curvature="0"
   id="path210"
   d="m 849.62911,405.28356 3.8,-1.6 -0.1,2.2 c -0.4,0.1 -0.8,0.3 -1.1,0.7 z"
   class="st0"
   clip-path="url(#clipPath1135)"
   transform="translate(-398.22911,-342.28356)" />
<path
   style="fill:#83bc32"
   inkscape:connector-curvature="0"
   id="path214"
   d="m 812.92911,374.48356 c 3,-2.9 6.4,-5.7 8.2,-6.9 2.5,-1.8 5.9,-4.1 10,-6.2 l 0.3,14.3 c -0.8,0.2 -1.3,0.9 -1.3,1.8 0,0.3 0.1,0.6 0.2,0.9 l -15.6,12.7 c -0.2,-0.2 -0.4,-0.3 -0.7,-0.4 z"
   class="st1"
   clip-path="url(#clipPath1131)"
   transform="translate(-398.22911,-342.28356)" /><path
   style="fill:#83bc32"
   inkscape:connector-curvature="0"
   id="path216"
   d="m 815.22911,392.98356 12.2,1.7 c 0.1,1 0.9,1.7 1.8,1.7 l 0.7,8.2 c 0,0 -5.2,3.6 -8.9,6 -3.3,2.1 -10.2,6.9 -10.2,6.9 l 2.8,-23.3 c 0.8,-0.1 1.4,-0.6 1.6,-1.2 z"
   class="st1"
   clip-path="url(#clipPath1127)"
   transform="translate(-398.22911,-342.28356)" /><path
   style="fill:#83bc32"
   inkscape:connector-curvature="0"
   id="path218"
   d="m 827.72911,393.68356 -12.3,-1.4 c 0,-0.3 -0.1,-0.6 -0.2,-0.8 l 15.5,-12.7 c 0.2,0.2 0.4,0.3 0.6,0.3 l -2.1,13.6 c -0.7,0.1 -1.3,0.5 -1.5,1 z"
   class="st1"
   clip-path="url(#clipPath1123)"
   transform="translate(-398.22911,-342.28356)" /><path
   style="fill:#83bc32"
   inkscape:connector-curvature="0"
   id="path220"
   d="m 863.12911,356.38356 -11.1,12.9 c -0.2,-0.1 -0.4,-0.1 -0.6,-0.1 -1,0 -1.8,0.8 -1.8,1.8 l -16.2,5.6 c -0.2,-0.5 -0.7,-0.9 -1.2,-1 l -0.3,-14.7 c 5.5,-2.8 10.3,-4.8 14.6,-6.4 4.8,-1.9 10,-3.5 16.5,-5.2 l 0.7,4.6 c -0.5,0.3 -0.9,0.9 -0.9,1.6 0.1,0.3 0.2,0.6 0.3,0.9 z"
   class="st1"
   clip-path="url(#clipPath1119)"
   transform="translate(-398.22911,-342.28356)" /><path
   style="fill:#83bc32"
   inkscape:connector-curvature="0"
   id="path222"
   d="m 877.52911,346.28356 c 3,-0.5 5.8,-0.9 7.8,-1.1 2.7,-0.3 4.7,-0.5 7.7,-0.7 l -6.4,7.6 c -0.2,-0.1 -0.5,-0.2 -0.8,-0.2 -0.4,0 -0.8,0.1 -1.1,0.4 z"
   class="st1"
   clip-path="url(#clipPath1115)"
   transform="translate(-398.22911,-342.28356)" /><path
   style="fill:#83bc32"
   inkscape:connector-curvature="0"
   id="path224"
   d="m 830.72911,395.68356 7.4,4.2 -7.3,4.1 -0.8,-7.7 c 0.3,-0.2 0.5,-0.4 0.7,-0.6 z"
   class="st1"
   clip-path="url(#clipPath1111)"
   transform="translate(-398.22911,-342.28356)" /><path
   style="fill:#83bc32"
   inkscape:connector-curvature="0"
   id="path226"
   d="m 894.42911,344.08356 c 2.5,-0.3 4.3,-0.6 6.5,-0.7 2.3,-0.2 4.2,-0.3 6.8,-0.4 l 6.2,11.8 c -0.1,0.1 -0.3,0.2 -0.4,0.4 l -26.2,-1.5 c 0,-0.4 -0.2,-0.7 -0.4,-1 z"
   class="st1"
   clip-path="url(#clipPath1107)"
   transform="translate(-398.22911,-342.28356)" /><path
   style="fill:#83bc32"
   inkscape:connector-curvature="0"
   id="path228"
   d="m 908.82911,342.78356 c 3.2,-0.1 5.7,-0.2 8.3,-0.2 3.1,0 5.6,-0.1 9.2,-0.2 l 10.3,22.1 c -0.3,0.2 -0.5,0.4 -0.7,0.7 l -19,-8.6 c 0,-0.2 0.1,-0.3 0.1,-0.5 0,-1 -0.8,-1.8 -1.8,-1.8 -0.1,0 -0.2,0 -0.3,0 z"
   class="st1"
   clip-path="url(#clipPath1103)"
   transform="translate(-398.22911,-342.28356)" /><path
   style="fill:#83bc32"
   inkscape:connector-curvature="0"
   id="path230"
   d="m 939.22911,366.88356 7.1,1.5 c -3.4,4 -6.1,7.2 -8.8,10.2 -3.1,3.4 -5.4,6 -8.9,9.8 l -7.3,-6.7 c 0.1,-0.2 0.1,-0.4 0.1,-0.6 0,-0.2 0,-0.4 -0.1,-0.6 l 15.4,-12.8 c 0.3,0.2 0.6,0.3 1,0.3 0.6,0 1.2,-0.5 1.5,-1.1 z"
   class="st1"
   clip-path="url(#clipPath1099)"
   transform="translate(-398.22911,-342.28356)" /><path
   style="fill:#83bc32"
   inkscape:connector-curvature="0"
   id="path232"
   d="m 897.12911,416.28356 c -3.8,3.1 -6.3,4.8 -10.2,7.3 -4.3,2.8 -6,3.7 -10.1,5.8 l -12.8,-2.6 c 0,-0.2 -0.1,-0.3 -0.2,-0.5 l 17.8,-16.4 c 0.3,0.2 0.6,0.3 0.9,0.3 0.5,0 1,-0.2 1.4,-0.6 z"
   class="st1"
   clip-path="url(#clipPath1095)"
   transform="translate(-398.22911,-342.28356)" /><path
   style="fill:#83bc32"
   inkscape:connector-curvature="0"
   id="path234"
   d="m 875.82911,429.98356 c -1.8,0.8 -2.9,1.2 -4.8,2 -1.6,0.7 -2.8,1.1 -4.6,1.9 l -2.9,-5.1 c 0.2,-0.2 0.4,-0.5 0.5,-0.8 z"
   class="st1"
   clip-path="url(#clipPath1091)"
   transform="translate(-398.22911,-342.28356)" /><path
   style="fill:#83bc32"
   inkscape:connector-curvature="0"
   id="path236"
   d="m 831.72911,413.08356 c 3.3,-1.7 5.2,-2.6 8.7,-4.2 3.9,-1.8 4.8,-2.1 8,-3.2 l 3.4,1.7 c 0,0.1 0,0.2 0,0.3 0,0.3 0.1,0.6 0.2,0.9 l -17.6,21.5 c -0.2,-0.2 -0.5,-0.3 -0.8,-0.3 z"
   class="st1"
   clip-path="url(#clipPath1087)"
   transform="translate(-398.22911,-342.28356)" /><path
   style="fill:#83bc32"
   inkscape:connector-curvature="0"
   id="path238"
   d="m 854.02911,409.48356 7.4,16.4 c -0.4,0.3 -0.7,0.7 -0.8,1.2 l -25.4,4 c -0.1,-0.2 -0.1,-0.4 -0.2,-0.5 l 17.8,-21.4 c 0.3,0.2 0.7,0.4 1.1,0.4 -0.1,-0.1 0,-0.1 0.1,-0.1 z"
   class="st1"
   clip-path="url(#clipPath1083)"
   transform="translate(-398.22911,-342.28356)" />
<path
   style="fill:#03693a"
   inkscape:connector-curvature="0"
   id="path242"
   d="m 792.42911,425.38356 13,-3.4 -12.5,11.7 c -0.3,-1.6 -0.4,-2.6 -0.5,-4.1 -0.1,-1.2 -0.1,-2.6 0,-4.2 z"
   class="st2"
   clip-path="url(#clipPath1079)"
   transform="translate(-398.22911,-342.28356)" /><path
   style="fill:#03693a"
   inkscape:connector-curvature="0"
   id="path244"
   d="m 792.52911,424.28356 c -0.2,-4.4 0.2,-8 0.6,-11.4 0.2,-2.5 1.6,-8.8 3.5,-14.1 l 11.6,20.9 -1.5,1.1 z"
   class="st2"
   clip-path="url(#clipPath1075)"
   transform="translate(-398.22911,-342.28356)" /><path
   style="fill:#03693a"
   inkscape:connector-curvature="0"
   id="path246"
   d="m 796.92911,397.68356 c 1.7,-4.1 3.6,-7.5 5.2,-10.1 1.8,-2.9 5.5,-8.1 9.9,-12.6 l 1,15.6 c -0.8,0.2 -1.4,0.9 -1.4,1.8 0,0.8 0.5,1.5 1.2,1.7 l -2.8,23.9 -1.2,1 z"
   class="st2"
   clip-path="url(#clipPath1071)"
   transform="translate(-398.22911,-342.28356)" /><path
   style="fill:#03693a"
   inkscape:connector-curvature="0"
   id="path248"
   d="m 927.32911,342.28356 c 2.4,0 4.4,0 6,0.1 1.5,0.1 2.7,0.1 4.4,0.2 l 7.4,5.9 c -0.2,0.3 -0.3,0.6 -0.3,1 0,0.5 0.2,0.9 0.4,1.2 l -7,13.7 c -0.2,-0.1 -0.5,-0.1 -0.7,-0.1 -0.1,0 -0.1,0 -0.2,0 z"
   class="st2"
   clip-path="url(#clipPath1067)"
   transform="translate(-398.22911,-342.28356)" /><path
   style="fill:#03693a"
   inkscape:connector-curvature="0"
   id="path250"
   d="m 939.32911,342.68356 8.5,0.5 -0.9,4.5 c -0.1,0 -0.1,0 -0.2,0 -0.3,0 -0.5,0.1 -0.8,0.2 z"
   class="st2"
   clip-path="url(#clipPath1063)"
   transform="translate(-398.22911,-342.28356)" /><path
   style="fill:#03693a"
   inkscape:connector-curvature="0"
   id="path252"
   d="m 948.72911,343.18356 6.4,0.5 4.4,7.9 -1.9,2.3 -9,-4.2 c 0,-0.1 0,-0.2 0,-0.3 0,-0.7 -0.4,-1.2 -0.9,-1.6 z"
   class="st2"
   clip-path="url(#clipPath1059)"
   transform="translate(-398.22911,-342.28356)" /><polygon
   style="fill:#03693a"
   id="polygon254"
   points="962,343.2 958.1,336.1 966.5,336.9 "
   class="st2"
   transform="translate(-400.1,-334.8)"
   clip-path="url(#clipPath1055)" /><path
   style="fill:#03693a"
   inkscape:connector-curvature="0"
   id="path256"
   d="m 957.12911,354.78356 c -1.9,2.5 -3.5,4.6 -4.9,6.4 -1.4,1.8 -3.1,3.9 -5.1,6.4 l -7.7,-1.4 v -0.1 c 0,-0.4 -0.1,-0.7 -0.3,-1 l 7.2,-13.8 c 0.1,0 0.2,0 0.4,0 0.6,0 1.1,-0.3 1.4,-0.7 z"
   class="st2"
   clip-path="url(#clipPath1051)"
   transform="translate(-398.22911,-342.28356)" /><path
   style="fill:#03693a"
   inkscape:connector-curvature="0"
   id="path258"
   d="m 865.52911,434.18356 -5.6,2 2.3,-7 c 0,0 0.1,0 0.1,0 0.2,0 0.4,0 0.6,-0.1 z"
   class="st2"
   clip-path="url(#clipPath1047)"
   transform="translate(-398.22911,-342.28356)" /><path
   style="fill:#03693a"
   inkscape:connector-curvature="0"
   id="path260"
   d="m 858.82911,436.68356 c -3,0.8 -4.2,1.2 -7.7,2 -3.7,0.8 -5,1.2 -8.3,1.9 l -8,-7.7 c 0.2,-0.3 0.3,-0.6 0.4,-0.9 l 25.4,-4 c 0.1,0.4 0.4,0.8 0.7,1.1 z"
   class="st2"
   clip-path="url(#clipPath1043)"
   transform="translate(-398.22911,-342.28356)" /><path
   style="fill:#03693a"
   inkscape:connector-curvature="0"
   id="path262"
   d="m 841.52911,440.68356 c -4.1,0.4 -6.4,0.6 -10.5,0.7 -4.4,0.2 -6.7,0.1 -11,-0.1 l 12,-8.4 c 0.3,0.4 0.8,0.7 1.4,0.7 0.3,0 0.5,-0.1 0.7,-0.1 z"
   class="st2"
   clip-path="url(#clipPath1039)"
   transform="translate(-398.22911,-342.28356)" /><path
   style="fill:#03693a"
   inkscape:connector-curvature="0"
   id="path264"
   d="m 817.52911,441.08356 c -4,-0.5 -5.9,-0.9 -10.2,-1.7 -4.8,-0.9 -6.9,-1.6 -11.2,-3 3.1,-2.9 6,-5.1 8.4,-6.9 1.9,-1.5 4.1,-3 6.8,-4.8 z"
   class="st2"
   clip-path="url(#clipPath1035)"
   transform="translate(-398.22911,-342.28356)" /><path
   style="fill:#03693a"
   inkscape:connector-curvature="0"
   id="path266"
   d="m 811.92911,424.28356 2.1,-1.3 17.7,7.9 c -0.1,0.2 -0.2,0.5 -0.2,0.8 0,0.1 0,0.2 0,0.4 l -12.9,9.3 z"
   class="st2"
   clip-path="url(#clipPath1031)"
   transform="translate(-398.22911,-342.28356)" /><path
   style="fill:#03693a"
   inkscape:connector-curvature="0"
   id="path268"
   d="m 814.72911,422.48356 c 3,-1.8 4.8,-2.8 7.8,-4.5 3.2,-1.9 4.9,-2.7 8.1,-4.4 l 2.2,16.4 c -0.2,0.1 -0.4,0.2 -0.6,0.3 z"
   class="st2"
   clip-path="url(#clipPath1027)"
   transform="translate(-398.22911,-342.28356)" />
<path
   style="fill:#83bc32"
   inkscape:connector-curvature="0"
   id="path272"
   d="m 639.82911,411.98356 c 0,1.6 -1.3,2.9 -2.9,2.9 h -20.3 c 1.2,3.5 4.5,6 8.5,6 1.4,0 3.8,-0.1 6.6,-1.9 1.4,-0.9 3.2,-0.1 3.9,1.4 0.7,1.5 -0.1,3 -1.4,3.9 -3.9,2.6 -6.9,2.5 -9.1,2.5 -8.2,0 -14.8,-6.6 -14.8,-14.7 0,-8.2 6.6,-14.7 14.8,-14.7 7.1,-0.1 14.7,5.1 14.7,14.6 z m -23.2,-2.9 h 17 c -1.2,-4.1 -5,-6 -8.5,-6 -4,0 -7.3,2.5 -8.5,6 z"
   class="st1"
   clip-path="url(#clipPath1023)"
   transform="translate(-398.22911,-342.28356)" /><path
   style="fill:#83bc32"
   inkscape:connector-curvature="0"
   id="path274"
   d="m 672.92911,411.98356 v 11.8 c 0,1.6 -1.3,2.9 -2.9,2.9 -1.6,0 -2.9,-1.3 -2.9,-2.9 v -11.8 c 0,-4.9 -4,-8.9 -8.9,-8.9 -4.9,0 -9,4 -9,8.9 v 11.8 c 0,1.6 -1.3,2.9 -2.9,2.9 -1.6,0 -2.9,-1.3 -2.9,-2.9 v -11.8 c 0,-8.2 6.7,-14.7 14.8,-14.7 8.1,0 14.7,6.6 14.7,14.7 z"
   class="st1"
   clip-path="url(#clipPath1019)"
   transform="translate(-398.22911,-342.28356)" /><path
   style="fill:#83bc32"
   inkscape:connector-curvature="0"
   id="path276"
   d="m 706.02911,411.98356 c 0,1.6 -1.3,2.9 -2.9,2.9 h -20.3 c 1.2,3.5 4.5,6 8.5,6 1.4,0 3.8,-0.1 6.6,-1.9 1.4,-0.9 3.2,-0.1 3.9,1.4 0.7,1.5 -0.1,3 -1.4,3.9 -3.9,2.6 -6.9,2.5 -9.1,2.5 -8.2,0 -14.8,-6.6 -14.8,-14.7 0,-8.2 6.6,-14.7 14.8,-14.7 7,-0.1 14.7,5.1 14.7,14.6 z m -23.3,-2.9 h 17 c -1.2,-4.1 -5,-6 -8.5,-6 -3.9,0 -7.2,2.5 -8.5,6 z"
   class="st1"
   clip-path="url(#clipPath1015)"
   transform="translate(-398.22911,-342.28356)" /><path
   style="fill:#83bc32"
   inkscape:connector-curvature="0"
   id="path278"
   d="m 727.32911,400.18356 c 0,1.6 -1.3,2.9 -2.9,2.9 -4.9,0 -9,4 -9,8.9 v 11.8 c 0,1.6 -1.3,2.9 -2.9,2.9 -1.6,0 -2.9,-1.4 -2.9,-2.9 v -11.8 c 0,-8.2 6.7,-14.7 14.8,-14.7 1.6,0 2.9,1.3 2.9,2.9 z"
   class="st1"
   clip-path="url(#clipPath1011)"
   transform="translate(-398.22911,-342.28356)" /><path
   style="fill:#83bc32"
   inkscape:connector-curvature="0"
   id="path280"
   d="m 756.72911,426.78356 c 0,8.1 -6.7,14.7 -14.8,14.7 -5.7,0 -10.8,-3.2 -13.3,-8.3 -0.7,-1.5 -0.1,-3.2 1.4,-3.9 1.4,-0.7 3.2,-0.1 3.9,1.3 1.5,3.1 4.6,5 8.1,5 4.9,0 8.8,-3.9 8.9,-8.8 0,-0.1 0,-0.1 0,-3.2 -2.5,1.9 -5.6,3.1 -8.9,3.1 -8.2,0 -14.8,-6.6 -14.8,-14.7 0,-8.2 6.6,-14.7 14.8,-14.7 8.1,0 14.8,6.6 14.8,14.7 -0.1,0 -0.1,0 -0.1,14.8 z m -5.9,-14.8 c 0,-4.9 -4.1,-8.9 -8.9,-8.9 -4.9,0 -9,4 -9,8.9 0,4.9 4,8.9 9,8.9 4.9,0.1 8.9,-4 8.9,-8.9 z"
   class="st1"
   clip-path="url(#clipPath1007)"
   transform="translate(-398.22911,-342.28356)" /><path
   style="fill:#83bc32"
   inkscape:connector-curvature="0"
   id="path282"
   d="m 783.92911,400.38356 v 29 c 0,6.6 -5.5,12.1 -12.2,12.1 -4.7,0 -8.8,-2.6 -10.9,-6.8 -0.7,-1.4 -0.1,-3.2 1.4,-3.9 1.4,-0.7 3.2,-0.1 3.8,1.4 1.1,2.2 3.3,3.5 5.7,3.5 3.5,0 6.4,-2.8 6.4,-6.3 v -4.2 c -1.8,1.1 -3.8,1.6 -6.1,1.6 -6.5,0 -11.8,-5.2 -11.8,-11.7 0,-0.1 0,-0.1 0,-0.1 v -14.6 c 0,-1.6 1.3,-2.9 2.9,-2.9 1.6,0 2.9,1.3 2.9,2.9 v 14.6 c 0,3.3 2.8,6 6.1,6 3.4,0 6.1,-2.7 6.1,-6 v -14.6 c 0,-1.6 1.3,-2.9 2.9,-2.9 1.5,0 2.8,1.3 2.8,2.9 z"
   class="st1"
   clip-path="url(#clipPath1003)"
   transform="translate(-398.22911,-342.28356)" />
<path
   style="fill:#03693a"
   inkscape:connector-curvature="0"
   id="path286"
   d="m 438.62911,373.68356 c -3.6,6 -10.2,10.4 -18.7,10.4 -12.5,0 -21.7,-9.2 -21.7,-21 0,-11.1 9.1,-20.4 21.7,-20.4 8.5,0 15.3,4 18.8,10 l -8.2,4.8 c -1.9,-3.6 -5.6,-6 -10.7,-6 -7,0 -11.9,5.1 -11.9,11.7 0,6.3 4.9,11.9 11.9,11.9 4.9,0 8.6,-2.5 10.5,-6 z"
   class="st2"
   clip-path="url(#clipPath999)"
   transform="translate(-398.22911,-342.28356)" /><path
   style="fill:#03693a"
   inkscape:connector-curvature="0"
   id="path288"
   d="m 479.72911,363.48356 c 0,11.4 -9.3,20.7 -20.7,20.7 -11.5,0 -20.7,-9.3 -20.7,-20.7 0,-11.3 9.2,-20.7 20.7,-20.7 11.4,0 20.7,9.3 20.7,20.7 z m -32.5,0 c 0,6.5 5.3,11.7 11.8,11.7 6.4,0 11.7,-5.2 11.7,-11.7 0,-6.5 -5.3,-11.7 -11.7,-11.7 -6.5,0 -11.8,5.2 -11.8,11.7 z"
   class="st2"
   clip-path="url(#clipPath995)"
   transform="translate(-398.22911,-342.28356)" /><path
   style="fill:#03693a"
   inkscape:connector-curvature="0"
   id="path290"
   d="m 522.22911,383.38356 h -9.7 l -20.3,-24.4 v 24.4 h -9.7 v -39.9 h 9.7 l 20.3,24.4 v -24.4 h 9.7 z"
   class="st2"
   clip-path="url(#clipPath991)"
   transform="translate(-398.22911,-342.28356)" /><path
   style="fill:#03693a"
   inkscape:connector-curvature="0"
   id="path292"
   d="m 558.72911,356.08356 h -9.6 c 0,-2 -2.4,-4.7 -6.5,-4.7 -2.9,0 -6.4,1.3 -6.4,3.6 0,1.9 2.7,2.7 8.3,4.2 6.3,1.6 15.2,3.8 15.2,12.6 0,7.6 -6.7,12.4 -16.1,12.4 -12.5,0 -17.8,-8.5 -17.8,-14.7 h 9.6 c 0,0 0.8,6.3 8.7,6.3 4.3,0 5.9,-1.8 5.9,-3.5 0,-2.5 -3.4,-3.4 -7.1,-4.3 -6,-1.4 -16.5,-3.6 -16.5,-12.5 0,-7.3 7.2,-12.7 16.3,-12.7 10.4,0 16,7.1 16,13.3 z"
   class="st2"
   clip-path="url(#clipPath987)"
   transform="translate(-398.22911,-342.28356)" /><path
   style="fill:#03693a"
   inkscape:connector-curvature="0"
   id="path294"
   d="m 602.52911,363.48356 c 0,11.4 -9.3,20.7 -20.7,20.7 -11.5,0 -20.7,-9.3 -20.7,-20.7 0,-11.3 9.2,-20.7 20.7,-20.7 11.4,0 20.7,9.3 20.7,20.7 z m -32.5,0 c 0,6.5 5.3,11.7 11.8,11.7 6.4,0 11.7,-5.2 11.7,-11.7 0,-6.5 -5.3,-11.7 -11.7,-11.7 -6.5,0 -11.8,5.2 -11.8,11.7 z"
   class="st2"
   clip-path="url(#clipPath983)"
   transform="translate(-398.22911,-342.28356)" /><path
   style="fill:#03693a"
   inkscape:connector-curvature="0"
   id="path296"
   d="m 615.52911,374.48356 h 21 v 8.9 h -30.7 v -39.9 h 9.7 z"
   class="st2"
   clip-path="url(#clipPath979)"
   transform="translate(-398.22911,-342.28356)" /><path
   style="fill:#03693a"
   inkscape:connector-curvature="0"
   id="path298"
   d="m 650.12911,383.38356 h -9.7 v -39.9 h 9.7 z"
   class="st2"
   clip-path="url(#clipPath975)"
   transform="translate(-398.22911,-342.28356)" /><path
   style="fill:#03693a"
   inkscape:connector-curvature="0"
   id="path300"
   d="m 695.22911,383.38356 h -9.7 l -20.3,-24.4 v 24.4 h -9.7 v -39.9 h 9.7 l 20.3,24.4 v -24.4 h 9.7 z"
   class="st2"
   clip-path="url(#clipPath971)"
   transform="translate(-398.22911,-342.28356)" /><path
   style="fill:#03693a"
   inkscape:connector-curvature="0"
   id="path302"
   d="m 739.72911,383.38356 h -9.7 l -20.3,-24.4 v 24.4 h -9.6 v -39.9 h 9.7 l 20.3,24.4 v -24.4 h 9.7 v 39.9 z"
   class="st2"
   clip-path="url(#clipPath967)"
   transform="translate(-398.22911,-342.28356)" /><path
   style="fill:#03693a"
   inkscape:connector-curvature="0"
   id="path304"
   d="m 783.92911,363.48356 c 0,11.4 -9.3,20.7 -20.7,20.7 -11.5,0 -20.7,-9.3 -20.7,-20.7 0,-11.3 9.2,-20.7 20.7,-20.7 11.4,0 20.7,9.3 20.7,20.7 z m -32.5,0 c 0,6.5 5.3,11.7 11.8,11.7 6.4,0 11.7,-5.2 11.7,-11.7 0,-6.5 -5.3,-11.7 -11.7,-11.7 -6.5,0 -11.8,5.2 -11.8,11.7 z"
   class="st2"
   clip-path="url(#clipPath963)"
   transform="translate(-398.22911,-342.28356)" />
</svg>